%TF.GenerationSoftware,KiCad,Pcbnew,7.0.11+dfsg-1build4*%
%TF.CreationDate,2026-09-25T22:05:01+00:00*%
%TF.ProjectId,BT_Switch_Mechanical_RevD_routed,42545f53-7769-4746-9368-5f4d65636861,rev?*%
%TF.SameCoordinates,Original*%
%TF.FileFunction,Copper,L3,Inr*%
%TF.FilePolarity,Positive*%
%FSLAX46Y46*%
G04 Gerber Fmt 4.6, Leading zero omitted, Abs format (unit mm)*
G04 Created by KiCad (PCBNEW 7.0.11+dfsg-1build4) date 2026-09-25 22:05:01*
%MOMM*%
%LPD*%
G01*
G04 APERTURE LIST*
G04 Aperture macros list*
%AMRoundRect*
0 Rectangle with rounded corners*
0 $1 Rounding radius*
0 $2 $3 $4 $5 $6 $7 $8 $9 X,Y pos of 4 corners*
0 Add a 4 corners polygon primitive as box body*
4,1,4,$2,$3,$4,$5,$6,$7,$8,$9,$2,$3,0*
0 Add four circle primitives for the rounded corners*
1,1,$1+$1,$2,$3*
1,1,$1+$1,$4,$5*
1,1,$1+$1,$6,$7*
1,1,$1+$1,$8,$9*
0 Add four rect primitives between the rounded corners*
20,1,$1+$1,$2,$3,$4,$5,0*
20,1,$1+$1,$4,$5,$6,$7,0*
20,1,$1+$1,$6,$7,$8,$9,0*
20,1,$1+$1,$8,$9,$2,$3,0*%
G04 Aperture macros list end*
%TA.AperFunction,ComponentPad*%
%ADD10R,1.700000X1.700000*%
%TD*%
%TA.AperFunction,ComponentPad*%
%ADD11C,1.700000*%
%TD*%
%TA.AperFunction,ComponentPad*%
%ADD12RoundRect,0.250000X-0.350000X-0.625000X0.350000X-0.625000X0.350000X0.625000X-0.350000X0.625000X0*%
%TD*%
%TA.AperFunction,ComponentPad*%
%ADD13O,1.200000X1.750000*%
%TD*%
%TA.AperFunction,ComponentPad*%
%ADD14C,0.500000*%
%TD*%
%TA.AperFunction,ComponentPad*%
%ADD15O,1.000000X2.100000*%
%TD*%
%TA.AperFunction,ComponentPad*%
%ADD16O,1.000000X1.800000*%
%TD*%
%TA.AperFunction,ViaPad*%
%ADD17C,0.600000*%
%TD*%
G04 APERTURE END LIST*
D10*
%TO.N,SW1_NET*%
%TO.C,SW1*%
X22000000Y-19000000D03*
D11*
X28500000Y-19000000D03*
%TO.N,GND*%
X22000000Y-23500000D03*
X28500000Y-23500000D03*
%TD*%
D12*
%TO.N,VBAT*%
%TO.C,J_BAT*%
X37000000Y-6000000D03*
D13*
%TO.N,GND*%
X39000000Y-6000000D03*
%TD*%
D14*
%TO.N,GND*%
%TO.C,REG1*%
X24425000Y-6000000D03*
X25000000Y-5050000D03*
X25000000Y-6950000D03*
X25575000Y-6000000D03*
%TD*%
D10*
%TO.N,SW2_NET*%
%TO.C,SW2*%
X47000000Y-19000000D03*
D11*
X53500000Y-19000000D03*
%TO.N,GND*%
X47000000Y-23500000D03*
X53500000Y-23500000D03*
%TD*%
D15*
%TO.N,GND*%
%TO.C,J_USB*%
X9320000Y-22105000D03*
D16*
X9320000Y-17925000D03*
D15*
X680000Y-22105000D03*
D16*
X680000Y-17925000D03*
%TD*%
D10*
%TO.N,SW3_NET*%
%TO.C,SW3*%
X72000000Y-19000000D03*
D11*
X78500000Y-19000000D03*
%TO.N,GND*%
X72000000Y-23500000D03*
X78500000Y-23500000D03*
%TD*%
D17*
%TO.N,GND*%
X109550000Y-26000000D03*
X25000000Y-5050000D03*
X95550000Y-22400000D03*
X100900000Y-17350000D03*
X28500000Y-23500000D03*
X61775000Y-6000000D03*
X95550000Y-12000000D03*
X8199999Y-22680000D03*
X95550000Y-19850000D03*
X47000000Y-23500000D03*
X95550000Y-26000000D03*
X22000000Y-23500000D03*
X95550000Y-15600000D03*
X95550000Y-23250000D03*
X67825000Y-6000000D03*
X43825000Y-33000000D03*
X78500000Y-23500000D03*
X104200000Y-20650000D03*
X1800000Y-22680000D03*
X95550000Y-24950000D03*
X95550000Y-16450000D03*
X9320000Y-22105000D03*
X53500000Y-23500000D03*
X29862500Y-6000000D03*
X104200000Y-19000000D03*
X67775000Y-33000000D03*
X79775000Y-33000000D03*
X100900000Y-19000000D03*
X100900000Y-20650000D03*
X95550000Y-21550000D03*
X96600000Y-26000000D03*
X73775000Y-33000000D03*
X24425000Y-6000000D03*
X95550000Y-14750000D03*
X85775000Y-33000000D03*
X102550000Y-19000000D03*
X26400000Y-6500000D03*
X102550000Y-20650000D03*
X37825000Y-33000000D03*
X43775000Y-6000000D03*
X72000000Y-23500000D03*
X95550000Y-13900000D03*
X95550000Y-17300000D03*
X98300000Y-12000000D03*
X109550000Y-12000000D03*
X680000Y-17925000D03*
X97450000Y-26000000D03*
X95550000Y-24100000D03*
X8199999Y-22680000D03*
X95550000Y-19000000D03*
X91775000Y-33000000D03*
X95550000Y-18150000D03*
X25575000Y-6000000D03*
X102550000Y-17350000D03*
X25825000Y-33000000D03*
X16700000Y-33000000D03*
X25000000Y-6950000D03*
X39000000Y-6000000D03*
X49775000Y-6000000D03*
X31775000Y-33000000D03*
X95550000Y-20700000D03*
X99150000Y-12000000D03*
X73775000Y-6000000D03*
X104200000Y-17350000D03*
X680000Y-22105000D03*
X9320000Y-17925000D03*
X23600000Y-6000000D03*
X61775000Y-33000000D03*
X1800000Y-22680000D03*
X95550000Y-13050000D03*
X26400000Y-5500000D03*
X25000000Y-6000000D03*
X101700000Y-33000000D03*
%TO.N,USB_CC1*%
X36175000Y-33000000D03*
X6250000Y-22680000D03*
%TO.N,USB_DM*%
X109550000Y-19000000D03*
X5250000Y-22680000D03*
X4250000Y-22680000D03*
X5250000Y-22680000D03*
%TO.N,VBAT*%
X37000000Y-6000000D03*
X26400000Y-7000000D03*
X26400000Y-6000000D03*
X42225000Y-6000000D03*
X29862500Y-6950000D03*
X37000000Y-6000000D03*
X29862500Y-6950000D03*
X26400000Y-7000000D03*
X42225000Y-6000000D03*
X26400000Y-6000000D03*
X90175000Y-6000000D03*
X23600000Y-7000000D03*
%TO.N,CHG_STAT*%
X29862500Y-5050000D03*
X78212500Y-6000000D03*
%TO.N,V3V3*%
X60225000Y-33000000D03*
X48225000Y-6000000D03*
X48175000Y-33000000D03*
X66224999Y-33000000D03*
X54175000Y-33000000D03*
X85825000Y-6000000D03*
X98300000Y-26000000D03*
X72225000Y-33000000D03*
X23600000Y-5000000D03*
X60225000Y-6000000D03*
%TO.N,VBAT_SENSE*%
X24175000Y-33000000D03*
X30225000Y-33000000D03*
X91825000Y-6000000D03*
X103400000Y-26000000D03*
X30225000Y-33000000D03*
X91825000Y-6000000D03*
%TO.N,L_B*%
X56525000Y-6000000D03*
X23600000Y-5500000D03*
%TO.N,BOOT_NET*%
X98300000Y-33000000D03*
X98300000Y-33000000D03*
X99150000Y-26000000D03*
X55825000Y-33000000D03*
%TO.N,SW2_NET*%
X47000000Y-19000000D03*
X108500000Y-26000000D03*
X84225000Y-33000000D03*
X84225000Y-33000000D03*
%TD*%
%TA.AperFunction,Conductor*%
%TO.N,V3V3*%
G36*
X75223566Y-1017313D02*
G01*
X75248876Y-1061150D01*
X75250000Y-1074000D01*
X75250000Y-36926000D01*
X75232687Y-36973566D01*
X75188850Y-36998876D01*
X75176000Y-37000000D01*
X1074000Y-37000000D01*
X1026434Y-36982687D01*
X1001124Y-36938850D01*
X1000000Y-36926000D01*
X1000000Y-33000000D01*
X16094318Y-33000000D01*
X16114955Y-33156760D01*
X16114955Y-33156761D01*
X16175464Y-33302841D01*
X16271715Y-33428279D01*
X16271720Y-33428284D01*
X16355345Y-33492451D01*
X16397159Y-33524536D01*
X16543238Y-33585044D01*
X16700000Y-33605682D01*
X16856762Y-33585044D01*
X17002841Y-33524536D01*
X17128282Y-33428282D01*
X17224536Y-33302841D01*
X17285044Y-33156762D01*
X17305682Y-33000000D01*
X23569318Y-33000000D01*
X23589955Y-33156760D01*
X23589955Y-33156761D01*
X23650464Y-33302841D01*
X23746715Y-33428279D01*
X23746720Y-33428284D01*
X23830345Y-33492451D01*
X23872159Y-33524536D01*
X24018238Y-33585044D01*
X24175000Y-33605682D01*
X24331762Y-33585044D01*
X24477841Y-33524536D01*
X24603282Y-33428282D01*
X24699536Y-33302841D01*
X24760044Y-33156762D01*
X24780682Y-33000000D01*
X25219318Y-33000000D01*
X25239955Y-33156760D01*
X25239955Y-33156761D01*
X25300464Y-33302841D01*
X25396715Y-33428279D01*
X25396720Y-33428284D01*
X25480345Y-33492451D01*
X25522159Y-33524536D01*
X25668238Y-33585044D01*
X25825000Y-33605682D01*
X25981762Y-33585044D01*
X26127841Y-33524536D01*
X26253282Y-33428282D01*
X26349536Y-33302841D01*
X26410044Y-33156762D01*
X26430682Y-33000000D01*
X29619318Y-33000000D01*
X29639955Y-33156760D01*
X29639955Y-33156761D01*
X29700464Y-33302841D01*
X29796715Y-33428279D01*
X29796720Y-33428284D01*
X29880345Y-33492451D01*
X29922159Y-33524536D01*
X30068238Y-33585044D01*
X30225000Y-33605682D01*
X30381762Y-33585044D01*
X30527841Y-33524536D01*
X30653282Y-33428282D01*
X30749536Y-33302841D01*
X30810044Y-33156762D01*
X30830682Y-33000000D01*
X31169318Y-33000000D01*
X31189955Y-33156760D01*
X31189955Y-33156761D01*
X31250464Y-33302841D01*
X31346715Y-33428279D01*
X31346720Y-33428284D01*
X31430345Y-33492451D01*
X31472159Y-33524536D01*
X31618238Y-33585044D01*
X31775000Y-33605682D01*
X31931762Y-33585044D01*
X32077841Y-33524536D01*
X32203282Y-33428282D01*
X32299536Y-33302841D01*
X32360044Y-33156762D01*
X32380682Y-33000000D01*
X35569318Y-33000000D01*
X35589955Y-33156760D01*
X35589955Y-33156761D01*
X35650464Y-33302841D01*
X35746715Y-33428279D01*
X35746720Y-33428284D01*
X35830345Y-33492451D01*
X35872159Y-33524536D01*
X36018238Y-33585044D01*
X36175000Y-33605682D01*
X36331762Y-33585044D01*
X36477841Y-33524536D01*
X36603282Y-33428282D01*
X36699536Y-33302841D01*
X36760044Y-33156762D01*
X36780682Y-33000000D01*
X37219318Y-33000000D01*
X37239955Y-33156760D01*
X37239955Y-33156761D01*
X37300464Y-33302841D01*
X37396715Y-33428279D01*
X37396720Y-33428284D01*
X37480345Y-33492451D01*
X37522159Y-33524536D01*
X37668238Y-33585044D01*
X37825000Y-33605682D01*
X37981762Y-33585044D01*
X38127841Y-33524536D01*
X38253282Y-33428282D01*
X38349536Y-33302841D01*
X38410044Y-33156762D01*
X38430682Y-33000000D01*
X43219318Y-33000000D01*
X43239955Y-33156760D01*
X43239955Y-33156761D01*
X43300464Y-33302841D01*
X43396715Y-33428279D01*
X43396720Y-33428284D01*
X43480345Y-33492451D01*
X43522159Y-33524536D01*
X43668238Y-33585044D01*
X43825000Y-33605682D01*
X43981762Y-33585044D01*
X44127841Y-33524536D01*
X44253282Y-33428282D01*
X44349536Y-33302841D01*
X44410044Y-33156762D01*
X44430682Y-33000000D01*
X55219318Y-33000000D01*
X55239955Y-33156760D01*
X55239955Y-33156761D01*
X55300464Y-33302841D01*
X55396715Y-33428279D01*
X55396720Y-33428284D01*
X55480345Y-33492451D01*
X55522159Y-33524536D01*
X55668238Y-33585044D01*
X55825000Y-33605682D01*
X55981762Y-33585044D01*
X56127841Y-33524536D01*
X56253282Y-33428282D01*
X56349536Y-33302841D01*
X56410044Y-33156762D01*
X56430682Y-33000000D01*
X61169318Y-33000000D01*
X61189955Y-33156760D01*
X61189955Y-33156761D01*
X61250464Y-33302841D01*
X61346715Y-33428279D01*
X61346720Y-33428284D01*
X61430345Y-33492451D01*
X61472159Y-33524536D01*
X61618238Y-33585044D01*
X61775000Y-33605682D01*
X61931762Y-33585044D01*
X62077841Y-33524536D01*
X62203282Y-33428282D01*
X62299536Y-33302841D01*
X62360044Y-33156762D01*
X62380682Y-33000000D01*
X67169318Y-33000000D01*
X67189955Y-33156760D01*
X67189955Y-33156761D01*
X67250464Y-33302841D01*
X67346715Y-33428279D01*
X67346720Y-33428284D01*
X67430345Y-33492451D01*
X67472159Y-33524536D01*
X67618238Y-33585044D01*
X67775000Y-33605682D01*
X67931762Y-33585044D01*
X68077841Y-33524536D01*
X68203282Y-33428282D01*
X68299536Y-33302841D01*
X68360044Y-33156762D01*
X68380682Y-33000000D01*
X73169318Y-33000000D01*
X73189955Y-33156760D01*
X73189955Y-33156761D01*
X73250464Y-33302841D01*
X73346715Y-33428279D01*
X73346720Y-33428284D01*
X73430345Y-33492451D01*
X73472159Y-33524536D01*
X73618238Y-33585044D01*
X73775000Y-33605682D01*
X73931762Y-33585044D01*
X74077841Y-33524536D01*
X74203282Y-33428282D01*
X74299536Y-33302841D01*
X74360044Y-33156762D01*
X74380682Y-33000000D01*
X74360044Y-32843238D01*
X74299536Y-32697159D01*
X74203282Y-32571718D01*
X74203279Y-32571715D01*
X74077841Y-32475464D01*
X73931761Y-32414955D01*
X73775000Y-32394318D01*
X73618239Y-32414955D01*
X73618238Y-32414955D01*
X73472158Y-32475464D01*
X73346720Y-32571715D01*
X73346715Y-32571720D01*
X73250464Y-32697158D01*
X73189955Y-32843238D01*
X73189955Y-32843239D01*
X73169318Y-33000000D01*
X68380682Y-33000000D01*
X68360044Y-32843238D01*
X68299536Y-32697159D01*
X68203282Y-32571718D01*
X68203279Y-32571715D01*
X68077841Y-32475464D01*
X67931761Y-32414955D01*
X67775000Y-32394318D01*
X67618239Y-32414955D01*
X67618238Y-32414955D01*
X67472158Y-32475464D01*
X67346720Y-32571715D01*
X67346715Y-32571720D01*
X67250464Y-32697158D01*
X67189955Y-32843238D01*
X67189955Y-32843239D01*
X67169318Y-33000000D01*
X62380682Y-33000000D01*
X62360044Y-32843238D01*
X62299536Y-32697159D01*
X62203282Y-32571718D01*
X62203279Y-32571715D01*
X62077841Y-32475464D01*
X61931761Y-32414955D01*
X61775000Y-32394318D01*
X61618239Y-32414955D01*
X61618238Y-32414955D01*
X61472158Y-32475464D01*
X61346720Y-32571715D01*
X61346715Y-32571720D01*
X61250464Y-32697158D01*
X61189955Y-32843238D01*
X61189955Y-32843239D01*
X61169318Y-33000000D01*
X56430682Y-33000000D01*
X56410044Y-32843238D01*
X56349536Y-32697159D01*
X56253282Y-32571718D01*
X56253279Y-32571715D01*
X56127841Y-32475464D01*
X55981761Y-32414955D01*
X55825000Y-32394318D01*
X55668239Y-32414955D01*
X55668238Y-32414955D01*
X55522158Y-32475464D01*
X55396720Y-32571715D01*
X55396715Y-32571720D01*
X55300464Y-32697158D01*
X55239955Y-32843238D01*
X55239955Y-32843239D01*
X55219318Y-33000000D01*
X44430682Y-33000000D01*
X44410044Y-32843238D01*
X44349536Y-32697159D01*
X44253282Y-32571718D01*
X44253279Y-32571715D01*
X44127841Y-32475464D01*
X43981761Y-32414955D01*
X43825000Y-32394318D01*
X43668239Y-32414955D01*
X43668238Y-32414955D01*
X43522158Y-32475464D01*
X43396720Y-32571715D01*
X43396715Y-32571720D01*
X43300464Y-32697158D01*
X43239955Y-32843238D01*
X43239955Y-32843239D01*
X43219318Y-33000000D01*
X38430682Y-33000000D01*
X38410044Y-32843238D01*
X38349536Y-32697159D01*
X38253282Y-32571718D01*
X38253279Y-32571715D01*
X38127841Y-32475464D01*
X37981761Y-32414955D01*
X37825000Y-32394318D01*
X37668239Y-32414955D01*
X37668238Y-32414955D01*
X37522158Y-32475464D01*
X37396720Y-32571715D01*
X37396715Y-32571720D01*
X37300464Y-32697158D01*
X37239955Y-32843238D01*
X37239955Y-32843239D01*
X37219318Y-33000000D01*
X36780682Y-33000000D01*
X36760044Y-32843238D01*
X36699536Y-32697159D01*
X36603282Y-32571718D01*
X36603279Y-32571715D01*
X36477841Y-32475464D01*
X36331761Y-32414955D01*
X36175000Y-32394318D01*
X36018239Y-32414955D01*
X36018238Y-32414955D01*
X35872158Y-32475464D01*
X35746720Y-32571715D01*
X35746715Y-32571720D01*
X35650464Y-32697158D01*
X35589955Y-32843238D01*
X35589955Y-32843239D01*
X35569318Y-33000000D01*
X32380682Y-33000000D01*
X32360044Y-32843238D01*
X32299536Y-32697159D01*
X32203282Y-32571718D01*
X32203279Y-32571715D01*
X32077841Y-32475464D01*
X31931761Y-32414955D01*
X31775000Y-32394318D01*
X31618239Y-32414955D01*
X31618238Y-32414955D01*
X31472158Y-32475464D01*
X31346720Y-32571715D01*
X31346715Y-32571720D01*
X31250464Y-32697158D01*
X31189955Y-32843238D01*
X31189955Y-32843239D01*
X31169318Y-33000000D01*
X30830682Y-33000000D01*
X30810044Y-32843238D01*
X30749536Y-32697159D01*
X30653282Y-32571718D01*
X30653279Y-32571715D01*
X30527841Y-32475464D01*
X30381761Y-32414955D01*
X30225000Y-32394318D01*
X30068239Y-32414955D01*
X30068238Y-32414955D01*
X29922158Y-32475464D01*
X29796720Y-32571715D01*
X29796715Y-32571720D01*
X29700464Y-32697158D01*
X29639955Y-32843238D01*
X29639955Y-32843239D01*
X29619318Y-33000000D01*
X26430682Y-33000000D01*
X26410044Y-32843238D01*
X26349536Y-32697159D01*
X26253282Y-32571718D01*
X26253279Y-32571715D01*
X26127841Y-32475464D01*
X25981761Y-32414955D01*
X25825000Y-32394318D01*
X25668239Y-32414955D01*
X25668238Y-32414955D01*
X25522158Y-32475464D01*
X25396720Y-32571715D01*
X25396715Y-32571720D01*
X25300464Y-32697158D01*
X25239955Y-32843238D01*
X25239955Y-32843239D01*
X25219318Y-33000000D01*
X24780682Y-33000000D01*
X24760044Y-32843238D01*
X24699536Y-32697159D01*
X24603282Y-32571718D01*
X24603279Y-32571715D01*
X24477841Y-32475464D01*
X24331761Y-32414955D01*
X24175000Y-32394318D01*
X24018239Y-32414955D01*
X24018238Y-32414955D01*
X23872158Y-32475464D01*
X23746720Y-32571715D01*
X23746715Y-32571720D01*
X23650464Y-32697158D01*
X23589955Y-32843238D01*
X23589955Y-32843239D01*
X23569318Y-33000000D01*
X17305682Y-33000000D01*
X17285044Y-32843238D01*
X17224536Y-32697159D01*
X17128282Y-32571718D01*
X17128279Y-32571715D01*
X17002841Y-32475464D01*
X16856761Y-32414955D01*
X16700000Y-32394318D01*
X16543239Y-32414955D01*
X16543238Y-32414955D01*
X16397158Y-32475464D01*
X16271720Y-32571715D01*
X16271715Y-32571720D01*
X16175464Y-32697158D01*
X16114955Y-32843238D01*
X16114955Y-32843239D01*
X16094318Y-33000000D01*
X1000000Y-33000000D01*
X1000000Y-23500003D01*
X20844571Y-23500003D01*
X20864242Y-23712303D01*
X20864243Y-23712309D01*
X20922593Y-23917383D01*
X20922596Y-23917393D01*
X21017632Y-24108252D01*
X21017634Y-24108255D01*
X21146128Y-24278407D01*
X21303698Y-24422052D01*
X21484981Y-24534298D01*
X21683802Y-24611321D01*
X21893390Y-24650500D01*
X22106610Y-24650500D01*
X22316198Y-24611321D01*
X22515019Y-24534298D01*
X22696302Y-24422052D01*
X22853872Y-24278407D01*
X22982366Y-24108255D01*
X23077405Y-23917389D01*
X23135756Y-23712310D01*
X23139214Y-23675000D01*
X23155429Y-23500003D01*
X27344571Y-23500003D01*
X27364242Y-23712303D01*
X27364243Y-23712309D01*
X27422593Y-23917383D01*
X27422596Y-23917393D01*
X27517632Y-24108252D01*
X27517634Y-24108255D01*
X27646128Y-24278407D01*
X27803698Y-24422052D01*
X27984981Y-24534298D01*
X28183802Y-24611321D01*
X28393390Y-24650500D01*
X28606610Y-24650500D01*
X28816198Y-24611321D01*
X29015019Y-24534298D01*
X29196302Y-24422052D01*
X29353872Y-24278407D01*
X29482366Y-24108255D01*
X29577405Y-23917389D01*
X29635756Y-23712310D01*
X29639214Y-23675000D01*
X29655429Y-23500003D01*
X45844571Y-23500003D01*
X45864242Y-23712303D01*
X45864243Y-23712309D01*
X45922593Y-23917383D01*
X45922596Y-23917393D01*
X46017632Y-24108252D01*
X46017634Y-24108255D01*
X46146128Y-24278407D01*
X46303698Y-24422052D01*
X46484981Y-24534298D01*
X46683802Y-24611321D01*
X46893390Y-24650500D01*
X47106610Y-24650500D01*
X47316198Y-24611321D01*
X47515019Y-24534298D01*
X47696302Y-24422052D01*
X47853872Y-24278407D01*
X47982366Y-24108255D01*
X48077405Y-23917389D01*
X48135756Y-23712310D01*
X48139214Y-23675000D01*
X48155429Y-23500003D01*
X52344571Y-23500003D01*
X52364242Y-23712303D01*
X52364243Y-23712309D01*
X52422593Y-23917383D01*
X52422596Y-23917393D01*
X52517632Y-24108252D01*
X52517634Y-24108255D01*
X52646128Y-24278407D01*
X52803698Y-24422052D01*
X52984981Y-24534298D01*
X53183802Y-24611321D01*
X53393390Y-24650500D01*
X53606610Y-24650500D01*
X53816198Y-24611321D01*
X54015019Y-24534298D01*
X54196302Y-24422052D01*
X54353872Y-24278407D01*
X54482366Y-24108255D01*
X54577405Y-23917389D01*
X54635756Y-23712310D01*
X54639214Y-23675000D01*
X54655429Y-23500003D01*
X70844571Y-23500003D01*
X70864242Y-23712303D01*
X70864243Y-23712309D01*
X70922593Y-23917383D01*
X70922596Y-23917393D01*
X71017632Y-24108252D01*
X71017634Y-24108255D01*
X71146128Y-24278407D01*
X71303698Y-24422052D01*
X71484981Y-24534298D01*
X71683802Y-24611321D01*
X71893390Y-24650500D01*
X72106610Y-24650500D01*
X72316198Y-24611321D01*
X72515019Y-24534298D01*
X72696302Y-24422052D01*
X72853872Y-24278407D01*
X72982366Y-24108255D01*
X73077405Y-23917389D01*
X73135756Y-23712310D01*
X73139214Y-23675000D01*
X73155429Y-23500003D01*
X73155429Y-23499996D01*
X73135757Y-23287696D01*
X73135756Y-23287690D01*
X73089864Y-23126400D01*
X73077405Y-23082611D01*
X73068202Y-23064129D01*
X72982367Y-22891747D01*
X72982363Y-22891741D01*
X72940844Y-22836762D01*
X72853872Y-22721593D01*
X72696302Y-22577948D01*
X72515019Y-22465702D01*
X72316198Y-22388679D01*
X72224150Y-22371472D01*
X72106613Y-22349500D01*
X72106610Y-22349500D01*
X71893390Y-22349500D01*
X71893386Y-22349500D01*
X71745428Y-22377159D01*
X71683802Y-22388679D01*
X71683800Y-22388679D01*
X71683798Y-22388680D01*
X71484986Y-22465700D01*
X71484981Y-22465702D01*
X71484976Y-22465704D01*
X71484976Y-22465705D01*
X71303700Y-22577946D01*
X71146130Y-22721590D01*
X71017636Y-22891741D01*
X71017632Y-22891747D01*
X70922596Y-23082606D01*
X70922593Y-23082616D01*
X70864243Y-23287690D01*
X70864242Y-23287696D01*
X70844571Y-23499996D01*
X70844571Y-23500003D01*
X54655429Y-23500003D01*
X54655429Y-23499996D01*
X54635757Y-23287696D01*
X54635756Y-23287690D01*
X54589864Y-23126400D01*
X54577405Y-23082611D01*
X54568202Y-23064129D01*
X54482367Y-22891747D01*
X54482363Y-22891741D01*
X54440844Y-22836762D01*
X54353872Y-22721593D01*
X54196302Y-22577948D01*
X54015019Y-22465702D01*
X53816198Y-22388679D01*
X53724150Y-22371472D01*
X53606613Y-22349500D01*
X53606610Y-22349500D01*
X53393390Y-22349500D01*
X53393386Y-22349500D01*
X53245428Y-22377159D01*
X53183802Y-22388679D01*
X53183800Y-22388679D01*
X53183798Y-22388680D01*
X52984986Y-22465700D01*
X52984981Y-22465702D01*
X52984976Y-22465704D01*
X52984976Y-22465705D01*
X52803700Y-22577946D01*
X52646130Y-22721590D01*
X52517636Y-22891741D01*
X52517632Y-22891747D01*
X52422596Y-23082606D01*
X52422593Y-23082616D01*
X52364243Y-23287690D01*
X52364242Y-23287696D01*
X52344571Y-23499996D01*
X52344571Y-23500003D01*
X48155429Y-23500003D01*
X48155429Y-23499996D01*
X48135757Y-23287696D01*
X48135756Y-23287690D01*
X48089864Y-23126400D01*
X48077405Y-23082611D01*
X48068202Y-23064129D01*
X47982367Y-22891747D01*
X47982363Y-22891741D01*
X47940844Y-22836762D01*
X47853872Y-22721593D01*
X47696302Y-22577948D01*
X47515019Y-22465702D01*
X47316198Y-22388679D01*
X47224150Y-22371472D01*
X47106613Y-22349500D01*
X47106610Y-22349500D01*
X46893390Y-22349500D01*
X46893386Y-22349500D01*
X46745428Y-22377159D01*
X46683802Y-22388679D01*
X46683800Y-22388679D01*
X46683798Y-22388680D01*
X46484986Y-22465700D01*
X46484981Y-22465702D01*
X46484976Y-22465704D01*
X46484976Y-22465705D01*
X46303700Y-22577946D01*
X46146130Y-22721590D01*
X46017636Y-22891741D01*
X46017632Y-22891747D01*
X45922596Y-23082606D01*
X45922593Y-23082616D01*
X45864243Y-23287690D01*
X45864242Y-23287696D01*
X45844571Y-23499996D01*
X45844571Y-23500003D01*
X29655429Y-23500003D01*
X29655429Y-23499996D01*
X29635757Y-23287696D01*
X29635756Y-23287690D01*
X29589864Y-23126400D01*
X29577405Y-23082611D01*
X29568202Y-23064129D01*
X29482367Y-22891747D01*
X29482363Y-22891741D01*
X29440844Y-22836762D01*
X29353872Y-22721593D01*
X29196302Y-22577948D01*
X29015019Y-22465702D01*
X28816198Y-22388679D01*
X28724150Y-22371472D01*
X28606613Y-22349500D01*
X28606610Y-22349500D01*
X28393390Y-22349500D01*
X28393386Y-22349500D01*
X28245428Y-22377159D01*
X28183802Y-22388679D01*
X28183800Y-22388679D01*
X28183798Y-22388680D01*
X27984986Y-22465700D01*
X27984981Y-22465702D01*
X27984976Y-22465704D01*
X27984976Y-22465705D01*
X27803700Y-22577946D01*
X27646130Y-22721590D01*
X27517636Y-22891741D01*
X27517632Y-22891747D01*
X27422596Y-23082606D01*
X27422593Y-23082616D01*
X27364243Y-23287690D01*
X27364242Y-23287696D01*
X27344571Y-23499996D01*
X27344571Y-23500003D01*
X23155429Y-23500003D01*
X23155429Y-23499996D01*
X23135757Y-23287696D01*
X23135756Y-23287690D01*
X23089864Y-23126400D01*
X23077405Y-23082611D01*
X23068202Y-23064129D01*
X22982367Y-22891747D01*
X22982363Y-22891741D01*
X22940844Y-22836762D01*
X22853872Y-22721593D01*
X22696302Y-22577948D01*
X22515019Y-22465702D01*
X22316198Y-22388679D01*
X22224150Y-22371472D01*
X22106613Y-22349500D01*
X22106610Y-22349500D01*
X21893390Y-22349500D01*
X21893386Y-22349500D01*
X21745428Y-22377159D01*
X21683802Y-22388679D01*
X21683800Y-22388679D01*
X21683798Y-22388680D01*
X21484986Y-22465700D01*
X21484981Y-22465702D01*
X21484976Y-22465704D01*
X21484976Y-22465705D01*
X21303700Y-22577946D01*
X21146130Y-22721590D01*
X21017636Y-22891741D01*
X21017632Y-22891747D01*
X20922596Y-23082606D01*
X20922593Y-23082616D01*
X20864243Y-23287690D01*
X20864242Y-23287696D01*
X20844571Y-23499996D01*
X20844571Y-23500003D01*
X1000000Y-23500003D01*
X1000000Y-23440237D01*
X1017313Y-23392671D01*
X1034628Y-23377580D01*
X1182262Y-23284816D01*
X1309816Y-23157262D01*
X1309819Y-23157256D01*
X1312258Y-23154199D01*
X1355448Y-23127799D01*
X1405502Y-23135337D01*
X1415167Y-23141622D01*
X1435550Y-23157262D01*
X1497159Y-23204536D01*
X1643238Y-23265044D01*
X1800000Y-23285682D01*
X1956762Y-23265044D01*
X2102841Y-23204536D01*
X2228282Y-23108282D01*
X2324536Y-22982841D01*
X2385044Y-22836762D01*
X2405682Y-22680000D01*
X3644318Y-22680000D01*
X3664955Y-22836760D01*
X3664955Y-22836761D01*
X3725464Y-22982841D01*
X3821715Y-23108279D01*
X3821720Y-23108284D01*
X3885550Y-23157262D01*
X3947159Y-23204536D01*
X4093238Y-23265044D01*
X4250000Y-23285682D01*
X4406762Y-23265044D01*
X4552841Y-23204536D01*
X4678282Y-23108282D01*
X4691291Y-23091327D01*
X4733982Y-23064129D01*
X4784168Y-23070735D01*
X4808708Y-23091327D01*
X4810175Y-23093239D01*
X4821716Y-23108280D01*
X4821720Y-23108284D01*
X4885550Y-23157262D01*
X4947159Y-23204536D01*
X5093238Y-23265044D01*
X5250000Y-23285682D01*
X5406762Y-23265044D01*
X5552841Y-23204536D01*
X5678282Y-23108282D01*
X5691291Y-23091327D01*
X5733982Y-23064129D01*
X5784168Y-23070735D01*
X5808708Y-23091327D01*
X5810175Y-23093239D01*
X5821716Y-23108280D01*
X5821720Y-23108284D01*
X5885550Y-23157262D01*
X5947159Y-23204536D01*
X6093238Y-23265044D01*
X6250000Y-23285682D01*
X6406762Y-23265044D01*
X6552841Y-23204536D01*
X6678282Y-23108282D01*
X6774536Y-22982841D01*
X6835044Y-22836762D01*
X6855682Y-22680000D01*
X6835044Y-22523238D01*
X6774536Y-22377159D01*
X6712161Y-22295870D01*
X6678284Y-22251720D01*
X6678279Y-22251715D01*
X6552841Y-22155464D01*
X6406761Y-22094955D01*
X6250000Y-22074318D01*
X6093239Y-22094955D01*
X6093238Y-22094955D01*
X5947158Y-22155464D01*
X5821722Y-22251713D01*
X5821718Y-22251717D01*
X5821718Y-22251718D01*
X5812719Y-22263444D01*
X5808707Y-22268674D01*
X5766014Y-22295870D01*
X5715828Y-22289262D01*
X5691293Y-22268674D01*
X5690282Y-22267357D01*
X5678282Y-22251718D01*
X5678279Y-22251715D01*
X5678277Y-22251713D01*
X5552841Y-22155464D01*
X5406761Y-22094955D01*
X5250000Y-22074318D01*
X5093239Y-22094955D01*
X5093238Y-22094955D01*
X4947158Y-22155464D01*
X4821722Y-22251713D01*
X4821718Y-22251717D01*
X4821718Y-22251718D01*
X4812719Y-22263444D01*
X4808707Y-22268674D01*
X4766014Y-22295870D01*
X4715828Y-22289262D01*
X4691293Y-22268674D01*
X4690282Y-22267357D01*
X4678282Y-22251718D01*
X4678279Y-22251715D01*
X4678277Y-22251713D01*
X4552841Y-22155464D01*
X4406761Y-22094955D01*
X4250000Y-22074318D01*
X4093239Y-22094955D01*
X4093238Y-22094955D01*
X3947158Y-22155464D01*
X3821720Y-22251715D01*
X3821715Y-22251720D01*
X3725464Y-22377158D01*
X3664955Y-22523238D01*
X3664955Y-22523239D01*
X3644318Y-22680000D01*
X2405682Y-22680000D01*
X2385044Y-22523238D01*
X2324536Y-22377159D01*
X2262161Y-22295870D01*
X2244604Y-22272989D01*
X2229382Y-22224713D01*
X2248754Y-22177947D01*
X2274994Y-22159574D01*
X2284916Y-22155464D01*
X2400233Y-22107698D01*
X2520451Y-22015451D01*
X2612698Y-21895233D01*
X2670687Y-21755236D01*
X2690466Y-21605000D01*
X7309534Y-21605000D01*
X7329312Y-21755234D01*
X7329312Y-21755235D01*
X7378964Y-21875103D01*
X7387302Y-21895233D01*
X7479549Y-22015451D01*
X7599767Y-22107698D01*
X7629425Y-22119983D01*
X7725004Y-22159573D01*
X7762325Y-22193770D01*
X7768932Y-22243956D01*
X7755395Y-22272988D01*
X7675462Y-22377160D01*
X7614954Y-22523238D01*
X7614954Y-22523239D01*
X7594317Y-22680000D01*
X7614954Y-22836760D01*
X7614954Y-22836761D01*
X7675463Y-22982841D01*
X7771714Y-23108279D01*
X7771719Y-23108284D01*
X7835549Y-23157262D01*
X7897158Y-23204536D01*
X8043237Y-23265044D01*
X8199999Y-23285682D01*
X8356761Y-23265044D01*
X8502840Y-23204536D01*
X8584832Y-23141621D01*
X8633107Y-23126400D01*
X8679873Y-23145771D01*
X8687727Y-23154182D01*
X8690180Y-23157257D01*
X8690182Y-23157259D01*
X8690184Y-23157262D01*
X8817738Y-23284816D01*
X8913712Y-23345120D01*
X8970479Y-23380790D01*
X9140499Y-23440282D01*
X9140745Y-23440368D01*
X9320000Y-23460565D01*
X9499255Y-23440368D01*
X9567481Y-23416494D01*
X9669520Y-23380790D01*
X9669522Y-23380789D01*
X9822262Y-23284816D01*
X9949816Y-23157262D01*
X10045789Y-23004522D01*
X10065861Y-22947161D01*
X10105365Y-22834263D01*
X10105368Y-22834255D01*
X10120500Y-22699954D01*
X10120500Y-21510046D01*
X10105368Y-21375745D01*
X10096126Y-21349333D01*
X10045790Y-21205479D01*
X10010120Y-21148712D01*
X9949816Y-21052738D01*
X9822262Y-20925184D01*
X9783054Y-20900547D01*
X9669520Y-20829209D01*
X9499263Y-20769634D01*
X9499256Y-20769632D01*
X9499255Y-20769632D01*
X9320000Y-20749435D01*
X9140745Y-20769632D01*
X9140736Y-20769634D01*
X8970479Y-20829209D01*
X8817739Y-20925183D01*
X8690183Y-21052739D01*
X8594209Y-21205479D01*
X8545230Y-21345456D01*
X8513179Y-21384635D01*
X8463442Y-21394045D01*
X8419293Y-21369284D01*
X8407016Y-21349333D01*
X8392698Y-21314767D01*
X8347359Y-21255681D01*
X8300451Y-21194549D01*
X8180233Y-21102302D01*
X8126276Y-21079952D01*
X8040235Y-21044312D01*
X7953897Y-21032946D01*
X7927720Y-21029500D01*
X7852280Y-21029500D01*
X7826102Y-21032946D01*
X7739765Y-21044312D01*
X7739764Y-21044312D01*
X7599766Y-21102302D01*
X7479549Y-21194549D01*
X7387302Y-21314766D01*
X7329312Y-21454764D01*
X7329312Y-21454765D01*
X7309534Y-21605000D01*
X2690466Y-21605000D01*
X2670687Y-21454764D01*
X2612698Y-21314767D01*
X2520451Y-21194549D01*
X2400233Y-21102302D01*
X2346276Y-21079952D01*
X2260235Y-21044312D01*
X2173897Y-21032946D01*
X2147720Y-21029500D01*
X2072280Y-21029500D01*
X2046102Y-21032946D01*
X1959765Y-21044312D01*
X1959764Y-21044312D01*
X1819766Y-21102302D01*
X1699549Y-21194549D01*
X1607302Y-21314765D01*
X1592983Y-21349335D01*
X1558784Y-21386654D01*
X1508598Y-21393261D01*
X1465907Y-21366062D01*
X1454769Y-21345455D01*
X1444030Y-21314766D01*
X1405789Y-21205478D01*
X1309816Y-21052738D01*
X1182262Y-20925184D01*
X1182259Y-20925182D01*
X1182258Y-20925181D01*
X1073369Y-20856762D01*
X1034629Y-20832420D01*
X1003565Y-20792455D01*
X1000000Y-20769763D01*
X1000000Y-19894863D01*
X20849500Y-19894863D01*
X20852414Y-19919986D01*
X20852415Y-19919992D01*
X20890728Y-20006762D01*
X20897794Y-20022765D01*
X20977235Y-20102206D01*
X21080009Y-20147585D01*
X21105135Y-20150500D01*
X22894864Y-20150499D01*
X22919991Y-20147585D01*
X23022765Y-20102206D01*
X23102206Y-20022765D01*
X23147585Y-19919991D01*
X23150500Y-19894865D01*
X23150500Y-19000003D01*
X27344571Y-19000003D01*
X27364242Y-19212303D01*
X27364243Y-19212309D01*
X27422593Y-19417383D01*
X27422596Y-19417393D01*
X27517632Y-19608252D01*
X27517634Y-19608255D01*
X27646128Y-19778407D01*
X27803698Y-19922052D01*
X27984981Y-20034298D01*
X28183802Y-20111321D01*
X28393390Y-20150500D01*
X28606610Y-20150500D01*
X28816198Y-20111321D01*
X29015019Y-20034298D01*
X29196302Y-19922052D01*
X29226127Y-19894863D01*
X45849500Y-19894863D01*
X45852414Y-19919986D01*
X45852415Y-19919992D01*
X45890728Y-20006762D01*
X45897794Y-20022765D01*
X45977235Y-20102206D01*
X46080009Y-20147585D01*
X46105135Y-20150500D01*
X47894864Y-20150499D01*
X47919991Y-20147585D01*
X48022765Y-20102206D01*
X48102206Y-20022765D01*
X48147585Y-19919991D01*
X48150500Y-19894865D01*
X48150500Y-19000003D01*
X52344571Y-19000003D01*
X52364242Y-19212303D01*
X52364243Y-19212309D01*
X52422593Y-19417383D01*
X52422596Y-19417393D01*
X52517632Y-19608252D01*
X52517634Y-19608255D01*
X52646128Y-19778407D01*
X52803698Y-19922052D01*
X52984981Y-20034298D01*
X53183802Y-20111321D01*
X53393390Y-20150500D01*
X53606610Y-20150500D01*
X53816198Y-20111321D01*
X54015019Y-20034298D01*
X54196302Y-19922052D01*
X54226127Y-19894863D01*
X70849500Y-19894863D01*
X70852414Y-19919986D01*
X70852415Y-19919992D01*
X70890728Y-20006762D01*
X70897794Y-20022765D01*
X70977235Y-20102206D01*
X71080009Y-20147585D01*
X71105135Y-20150500D01*
X72894864Y-20150499D01*
X72919991Y-20147585D01*
X73022765Y-20102206D01*
X73102206Y-20022765D01*
X73147585Y-19919991D01*
X73150500Y-19894865D01*
X73150499Y-18105136D01*
X73147585Y-18080009D01*
X73102206Y-17977235D01*
X73022765Y-17897794D01*
X72919991Y-17852415D01*
X72919990Y-17852414D01*
X72919988Y-17852414D01*
X72898659Y-17849940D01*
X72894865Y-17849500D01*
X72894864Y-17849500D01*
X71105136Y-17849500D01*
X71080013Y-17852414D01*
X71080007Y-17852415D01*
X70977234Y-17897794D01*
X70897794Y-17977234D01*
X70852414Y-18080011D01*
X70849500Y-18105135D01*
X70849500Y-19894863D01*
X54226127Y-19894863D01*
X54353872Y-19778407D01*
X54482366Y-19608255D01*
X54577405Y-19417389D01*
X54635756Y-19212310D01*
X54640904Y-19156762D01*
X54655429Y-19000003D01*
X54655429Y-18999996D01*
X54635757Y-18787696D01*
X54635756Y-18787690D01*
X54609998Y-18697161D01*
X54577405Y-18582611D01*
X54573615Y-18575000D01*
X54482367Y-18391747D01*
X54482363Y-18391741D01*
X54418188Y-18306761D01*
X54353872Y-18221593D01*
X54196302Y-18077948D01*
X54015019Y-17965702D01*
X53816198Y-17888679D01*
X53724150Y-17871472D01*
X53606613Y-17849500D01*
X53606610Y-17849500D01*
X53393390Y-17849500D01*
X53393386Y-17849500D01*
X53236670Y-17878796D01*
X53183802Y-17888679D01*
X53183800Y-17888679D01*
X53183798Y-17888680D01*
X52984986Y-17965700D01*
X52984981Y-17965702D01*
X52984976Y-17965704D01*
X52984976Y-17965705D01*
X52803700Y-18077946D01*
X52646130Y-18221590D01*
X52517636Y-18391741D01*
X52517632Y-18391747D01*
X52422596Y-18582606D01*
X52422593Y-18582616D01*
X52364243Y-18787690D01*
X52364242Y-18787696D01*
X52344571Y-18999996D01*
X52344571Y-19000003D01*
X48150500Y-19000003D01*
X48150499Y-18105136D01*
X48147585Y-18080009D01*
X48102206Y-17977235D01*
X48022765Y-17897794D01*
X47919991Y-17852415D01*
X47919990Y-17852414D01*
X47919988Y-17852414D01*
X47898659Y-17849940D01*
X47894865Y-17849500D01*
X47894864Y-17849500D01*
X46105136Y-17849500D01*
X46080013Y-17852414D01*
X46080007Y-17852415D01*
X45977234Y-17897794D01*
X45897794Y-17977234D01*
X45852414Y-18080011D01*
X45849500Y-18105135D01*
X45849500Y-19894863D01*
X29226127Y-19894863D01*
X29353872Y-19778407D01*
X29482366Y-19608255D01*
X29577405Y-19417389D01*
X29635756Y-19212310D01*
X29640904Y-19156762D01*
X29655429Y-19000003D01*
X29655429Y-18999996D01*
X29635757Y-18787696D01*
X29635756Y-18787690D01*
X29609998Y-18697161D01*
X29577405Y-18582611D01*
X29573615Y-18575000D01*
X29482367Y-18391747D01*
X29482363Y-18391741D01*
X29418188Y-18306761D01*
X29353872Y-18221593D01*
X29196302Y-18077948D01*
X29015019Y-17965702D01*
X28816198Y-17888679D01*
X28724150Y-17871472D01*
X28606613Y-17849500D01*
X28606610Y-17849500D01*
X28393390Y-17849500D01*
X28393386Y-17849500D01*
X28236670Y-17878796D01*
X28183802Y-17888679D01*
X28183800Y-17888679D01*
X28183798Y-17888680D01*
X27984986Y-17965700D01*
X27984981Y-17965702D01*
X27984976Y-17965704D01*
X27984976Y-17965705D01*
X27803700Y-18077946D01*
X27646130Y-18221590D01*
X27517636Y-18391741D01*
X27517632Y-18391747D01*
X27422596Y-18582606D01*
X27422593Y-18582616D01*
X27364243Y-18787690D01*
X27364242Y-18787696D01*
X27344571Y-18999996D01*
X27344571Y-19000003D01*
X23150500Y-19000003D01*
X23150499Y-18105136D01*
X23147585Y-18080009D01*
X23102206Y-17977235D01*
X23022765Y-17897794D01*
X22919991Y-17852415D01*
X22919990Y-17852414D01*
X22919988Y-17852414D01*
X22898659Y-17849940D01*
X22894865Y-17849500D01*
X22894864Y-17849500D01*
X21105136Y-17849500D01*
X21080013Y-17852414D01*
X21080007Y-17852415D01*
X20977234Y-17897794D01*
X20897794Y-17977234D01*
X20852414Y-18080011D01*
X20849500Y-18105135D01*
X20849500Y-19894863D01*
X1000000Y-19894863D01*
X1000000Y-19110237D01*
X1017313Y-19062671D01*
X1034628Y-19047580D01*
X1182262Y-18954816D01*
X1309816Y-18827262D01*
X1405789Y-18674522D01*
X1465368Y-18504255D01*
X1480500Y-18369954D01*
X8519500Y-18369954D01*
X8528839Y-18452838D01*
X8534632Y-18504254D01*
X8534634Y-18504263D01*
X8594209Y-18674520D01*
X8665319Y-18787690D01*
X8690184Y-18827262D01*
X8817738Y-18954816D01*
X8889648Y-19000000D01*
X8970479Y-19050790D01*
X9140499Y-19110282D01*
X9140745Y-19110368D01*
X9320000Y-19130565D01*
X9499255Y-19110368D01*
X9567481Y-19086494D01*
X9669520Y-19050790D01*
X9669522Y-19050789D01*
X9822262Y-18954816D01*
X9949816Y-18827262D01*
X10045789Y-18674522D01*
X10105368Y-18504255D01*
X10120500Y-18369954D01*
X10120500Y-17480046D01*
X10105368Y-17345745D01*
X10052004Y-17193239D01*
X10045790Y-17175479D01*
X10010120Y-17118712D01*
X9949816Y-17022738D01*
X9822262Y-16895184D01*
X9783054Y-16870547D01*
X9669520Y-16799209D01*
X9499263Y-16739634D01*
X9499256Y-16739632D01*
X9499255Y-16739632D01*
X9320000Y-16719435D01*
X9140745Y-16739632D01*
X9140736Y-16739634D01*
X8970479Y-16799209D01*
X8817739Y-16895183D01*
X8690183Y-17022739D01*
X8594209Y-17175479D01*
X8534634Y-17345736D01*
X8534632Y-17345745D01*
X8519500Y-17480046D01*
X8519500Y-18369954D01*
X1480500Y-18369954D01*
X1480500Y-17480046D01*
X1465368Y-17345745D01*
X1412004Y-17193239D01*
X1405790Y-17175479D01*
X1370120Y-17118712D01*
X1309816Y-17022738D01*
X1182262Y-16895184D01*
X1182259Y-16895182D01*
X1182258Y-16895181D01*
X1071303Y-16825464D01*
X1034629Y-16802420D01*
X1003565Y-16762455D01*
X1000000Y-16739763D01*
X1000000Y-7000000D01*
X22994318Y-7000000D01*
X23014955Y-7156760D01*
X23014955Y-7156761D01*
X23075464Y-7302841D01*
X23171715Y-7428279D01*
X23171720Y-7428284D01*
X23255345Y-7492451D01*
X23297159Y-7524536D01*
X23443238Y-7585044D01*
X23600000Y-7605682D01*
X23756762Y-7585044D01*
X23902841Y-7524536D01*
X24028282Y-7428282D01*
X24124536Y-7302841D01*
X24185044Y-7156762D01*
X24205682Y-7000000D01*
X24185044Y-6843238D01*
X24124536Y-6697159D01*
X24104984Y-6671678D01*
X24099592Y-6664651D01*
X24084370Y-6616375D01*
X24103741Y-6569609D01*
X24148641Y-6546236D01*
X24186618Y-6551235D01*
X24268238Y-6585044D01*
X24393532Y-6601539D01*
X24438431Y-6624912D01*
X24457803Y-6671678D01*
X24452240Y-6703224D01*
X24414956Y-6793235D01*
X24414955Y-6793239D01*
X24394318Y-6950000D01*
X24414955Y-7106760D01*
X24414955Y-7106761D01*
X24475464Y-7252841D01*
X24571715Y-7378279D01*
X24571720Y-7378284D01*
X24636879Y-7428282D01*
X24697159Y-7474536D01*
X24843238Y-7535044D01*
X25000000Y-7555682D01*
X25156762Y-7535044D01*
X25302841Y-7474536D01*
X25428282Y-7378282D01*
X25524536Y-7252841D01*
X25585044Y-7106762D01*
X25605682Y-6950000D01*
X25585044Y-6793238D01*
X25547758Y-6703224D01*
X25545551Y-6652654D01*
X25576366Y-6612495D01*
X25606465Y-6601539D01*
X25730892Y-6585158D01*
X25780309Y-6596114D01*
X25811124Y-6636273D01*
X25813916Y-6648864D01*
X25814956Y-6656762D01*
X25828068Y-6688418D01*
X25841846Y-6721682D01*
X25844054Y-6772253D01*
X25841846Y-6778318D01*
X25814955Y-6843238D01*
X25794318Y-7000000D01*
X25814955Y-7156760D01*
X25814955Y-7156761D01*
X25875464Y-7302841D01*
X25971715Y-7428279D01*
X25971720Y-7428284D01*
X26055345Y-7492451D01*
X26097159Y-7524536D01*
X26243238Y-7585044D01*
X26400000Y-7605682D01*
X26556762Y-7585044D01*
X26702841Y-7524536D01*
X26828282Y-7428282D01*
X26924536Y-7302841D01*
X26985044Y-7156762D01*
X27005682Y-7000000D01*
X26999099Y-6950000D01*
X29256818Y-6950000D01*
X29277455Y-7106760D01*
X29277455Y-7106761D01*
X29337964Y-7252841D01*
X29434215Y-7378279D01*
X29434220Y-7378284D01*
X29499379Y-7428282D01*
X29559659Y-7474536D01*
X29705738Y-7535044D01*
X29862500Y-7555682D01*
X30019262Y-7535044D01*
X30165341Y-7474536D01*
X30290782Y-7378282D01*
X30387036Y-7252841D01*
X30447544Y-7106762D01*
X30468182Y-6950000D01*
X30447544Y-6793238D01*
X30395712Y-6668104D01*
X36099499Y-6668104D01*
X36109185Y-6748753D01*
X36110123Y-6756564D01*
X36124586Y-6793239D01*
X36165638Y-6897341D01*
X36165639Y-6897342D01*
X36257078Y-7017922D01*
X36377658Y-7109361D01*
X36518436Y-7164877D01*
X36589764Y-7173442D01*
X36606896Y-7175500D01*
X36606898Y-7175500D01*
X37393104Y-7175500D01*
X37408722Y-7173624D01*
X37481564Y-7164877D01*
X37622342Y-7109361D01*
X37742922Y-7017922D01*
X37834361Y-6897342D01*
X37889877Y-6756564D01*
X37900500Y-6668102D01*
X37900500Y-6322192D01*
X38099500Y-6322192D01*
X38110826Y-6429951D01*
X38114327Y-6463261D01*
X38172819Y-6643280D01*
X38172820Y-6643282D01*
X38172821Y-6643284D01*
X38180602Y-6656761D01*
X38267464Y-6807213D01*
X38267467Y-6807216D01*
X38394131Y-6947890D01*
X38547266Y-7059149D01*
X38547271Y-7059152D01*
X38660042Y-7109361D01*
X38720197Y-7136144D01*
X38905354Y-7175500D01*
X38905355Y-7175500D01*
X39094645Y-7175500D01*
X39094646Y-7175500D01*
X39279803Y-7136144D01*
X39452730Y-7059151D01*
X39509479Y-7017921D01*
X39605868Y-6947890D01*
X39605867Y-6947890D01*
X39605871Y-6947888D01*
X39732533Y-6807216D01*
X39827179Y-6643284D01*
X39885674Y-6463256D01*
X39900500Y-6322192D01*
X39900500Y-6000000D01*
X41619318Y-6000000D01*
X41639955Y-6156760D01*
X41639955Y-6156761D01*
X41700464Y-6302841D01*
X41796715Y-6428279D01*
X41796720Y-6428284D01*
X41853395Y-6471772D01*
X41922159Y-6524536D01*
X42068238Y-6585044D01*
X42225000Y-6605682D01*
X42381762Y-6585044D01*
X42527841Y-6524536D01*
X42653282Y-6428282D01*
X42749536Y-6302841D01*
X42810044Y-6156762D01*
X42830682Y-6000000D01*
X43169318Y-6000000D01*
X43189955Y-6156760D01*
X43189955Y-6156761D01*
X43250464Y-6302841D01*
X43346715Y-6428279D01*
X43346720Y-6428284D01*
X43403395Y-6471772D01*
X43472159Y-6524536D01*
X43618238Y-6585044D01*
X43775000Y-6605682D01*
X43931762Y-6585044D01*
X44077841Y-6524536D01*
X44203282Y-6428282D01*
X44299536Y-6302841D01*
X44360044Y-6156762D01*
X44380682Y-6000000D01*
X49169318Y-6000000D01*
X49189955Y-6156760D01*
X49189955Y-6156761D01*
X49250464Y-6302841D01*
X49346715Y-6428279D01*
X49346720Y-6428284D01*
X49403395Y-6471772D01*
X49472159Y-6524536D01*
X49618238Y-6585044D01*
X49775000Y-6605682D01*
X49931762Y-6585044D01*
X50077841Y-6524536D01*
X50203282Y-6428282D01*
X50299536Y-6302841D01*
X50360044Y-6156762D01*
X50380682Y-6000000D01*
X55919318Y-6000000D01*
X55939955Y-6156760D01*
X55939955Y-6156761D01*
X56000464Y-6302841D01*
X56096715Y-6428279D01*
X56096720Y-6428284D01*
X56153395Y-6471772D01*
X56222159Y-6524536D01*
X56368238Y-6585044D01*
X56525000Y-6605682D01*
X56681762Y-6585044D01*
X56827841Y-6524536D01*
X56953282Y-6428282D01*
X57049536Y-6302841D01*
X57110044Y-6156762D01*
X57130682Y-6000000D01*
X61169318Y-6000000D01*
X61189955Y-6156760D01*
X61189955Y-6156761D01*
X61250464Y-6302841D01*
X61346715Y-6428279D01*
X61346720Y-6428284D01*
X61403395Y-6471772D01*
X61472159Y-6524536D01*
X61618238Y-6585044D01*
X61775000Y-6605682D01*
X61931762Y-6585044D01*
X62077841Y-6524536D01*
X62203282Y-6428282D01*
X62299536Y-6302841D01*
X62360044Y-6156762D01*
X62380682Y-6000000D01*
X67219318Y-6000000D01*
X67239955Y-6156760D01*
X67239955Y-6156761D01*
X67300464Y-6302841D01*
X67396715Y-6428279D01*
X67396720Y-6428284D01*
X67453395Y-6471772D01*
X67522159Y-6524536D01*
X67668238Y-6585044D01*
X67825000Y-6605682D01*
X67981762Y-6585044D01*
X68127841Y-6524536D01*
X68253282Y-6428282D01*
X68349536Y-6302841D01*
X68410044Y-6156762D01*
X68430682Y-6000000D01*
X73169318Y-6000000D01*
X73189955Y-6156760D01*
X73189955Y-6156761D01*
X73250464Y-6302841D01*
X73346715Y-6428279D01*
X73346720Y-6428284D01*
X73403395Y-6471772D01*
X73472159Y-6524536D01*
X73618238Y-6585044D01*
X73775000Y-6605682D01*
X73931762Y-6585044D01*
X74077841Y-6524536D01*
X74203282Y-6428282D01*
X74299536Y-6302841D01*
X74360044Y-6156762D01*
X74380682Y-6000000D01*
X74360044Y-5843238D01*
X74299536Y-5697159D01*
X74203282Y-5571718D01*
X74203279Y-5571715D01*
X74077841Y-5475464D01*
X73931761Y-5414955D01*
X73775000Y-5394318D01*
X73618239Y-5414955D01*
X73618238Y-5414955D01*
X73472158Y-5475464D01*
X73346720Y-5571715D01*
X73346715Y-5571720D01*
X73250464Y-5697158D01*
X73189955Y-5843238D01*
X73189955Y-5843239D01*
X73169318Y-6000000D01*
X68430682Y-6000000D01*
X68410044Y-5843238D01*
X68349536Y-5697159D01*
X68253282Y-5571718D01*
X68253279Y-5571715D01*
X68127841Y-5475464D01*
X67981761Y-5414955D01*
X67825000Y-5394318D01*
X67668239Y-5414955D01*
X67668238Y-5414955D01*
X67522158Y-5475464D01*
X67396720Y-5571715D01*
X67396715Y-5571720D01*
X67300464Y-5697158D01*
X67239955Y-5843238D01*
X67239955Y-5843239D01*
X67219318Y-6000000D01*
X62380682Y-6000000D01*
X62360044Y-5843238D01*
X62299536Y-5697159D01*
X62203282Y-5571718D01*
X62203279Y-5571715D01*
X62077841Y-5475464D01*
X61931761Y-5414955D01*
X61775000Y-5394318D01*
X61618239Y-5414955D01*
X61618238Y-5414955D01*
X61472158Y-5475464D01*
X61346720Y-5571715D01*
X61346715Y-5571720D01*
X61250464Y-5697158D01*
X61189955Y-5843238D01*
X61189955Y-5843239D01*
X61169318Y-6000000D01*
X57130682Y-6000000D01*
X57110044Y-5843238D01*
X57049536Y-5697159D01*
X56953282Y-5571718D01*
X56953279Y-5571715D01*
X56827841Y-5475464D01*
X56681761Y-5414955D01*
X56525000Y-5394318D01*
X56368239Y-5414955D01*
X56368238Y-5414955D01*
X56222158Y-5475464D01*
X56096720Y-5571715D01*
X56096715Y-5571720D01*
X56000464Y-5697158D01*
X55939955Y-5843238D01*
X55939955Y-5843239D01*
X55919318Y-6000000D01*
X50380682Y-6000000D01*
X50360044Y-5843238D01*
X50299536Y-5697159D01*
X50203282Y-5571718D01*
X50203279Y-5571715D01*
X50077841Y-5475464D01*
X49931761Y-5414955D01*
X49775000Y-5394318D01*
X49618239Y-5414955D01*
X49618238Y-5414955D01*
X49472158Y-5475464D01*
X49346720Y-5571715D01*
X49346715Y-5571720D01*
X49250464Y-5697158D01*
X49189955Y-5843238D01*
X49189955Y-5843239D01*
X49169318Y-6000000D01*
X44380682Y-6000000D01*
X44360044Y-5843238D01*
X44299536Y-5697159D01*
X44203282Y-5571718D01*
X44203279Y-5571715D01*
X44077841Y-5475464D01*
X43931761Y-5414955D01*
X43775000Y-5394318D01*
X43618239Y-5414955D01*
X43618238Y-5414955D01*
X43472158Y-5475464D01*
X43346720Y-5571715D01*
X43346715Y-5571720D01*
X43250464Y-5697158D01*
X43189955Y-5843238D01*
X43189955Y-5843239D01*
X43169318Y-6000000D01*
X42830682Y-6000000D01*
X42810044Y-5843238D01*
X42749536Y-5697159D01*
X42653282Y-5571718D01*
X42653279Y-5571715D01*
X42527841Y-5475464D01*
X42381761Y-5414955D01*
X42225000Y-5394318D01*
X42068239Y-5414955D01*
X42068238Y-5414955D01*
X41922158Y-5475464D01*
X41796720Y-5571715D01*
X41796715Y-5571720D01*
X41700464Y-5697158D01*
X41639955Y-5843238D01*
X41639955Y-5843239D01*
X41619318Y-6000000D01*
X39900500Y-6000000D01*
X39900500Y-5677808D01*
X39885674Y-5536744D01*
X39837183Y-5387504D01*
X39827180Y-5356719D01*
X39827179Y-5356718D01*
X39827179Y-5356716D01*
X39763815Y-5246966D01*
X39732535Y-5192786D01*
X39732532Y-5192783D01*
X39623524Y-5071718D01*
X39605871Y-5052112D01*
X39605870Y-5052111D01*
X39605868Y-5052109D01*
X39452733Y-4940850D01*
X39452728Y-4940847D01*
X39279804Y-4863856D01*
X39279802Y-4863855D01*
X39124050Y-4830750D01*
X39094646Y-4824500D01*
X38905354Y-4824500D01*
X38875950Y-4830750D01*
X38720197Y-4863855D01*
X38720195Y-4863856D01*
X38547271Y-4940847D01*
X38547266Y-4940850D01*
X38394131Y-5052109D01*
X38267467Y-5192783D01*
X38267464Y-5192786D01*
X38172819Y-5356719D01*
X38114327Y-5536738D01*
X38114326Y-5536742D01*
X38114326Y-5536744D01*
X38099500Y-5677808D01*
X38099500Y-6322192D01*
X37900500Y-6322192D01*
X37900500Y-5331898D01*
X37900070Y-5328321D01*
X37896282Y-5296774D01*
X37889877Y-5243436D01*
X37834361Y-5102658D01*
X37742922Y-4982078D01*
X37731868Y-4973695D01*
X37622341Y-4890638D01*
X37537079Y-4857015D01*
X37481564Y-4835123D01*
X37445198Y-4830756D01*
X37393104Y-4824500D01*
X37393102Y-4824500D01*
X36606898Y-4824500D01*
X36606896Y-4824500D01*
X36518436Y-4835123D01*
X36377658Y-4890638D01*
X36257078Y-4982077D01*
X36257077Y-4982078D01*
X36165638Y-5102658D01*
X36110123Y-5243436D01*
X36099930Y-5328321D01*
X36099500Y-5331898D01*
X36099500Y-6668102D01*
X36099500Y-6668104D01*
X36099499Y-6668104D01*
X30395712Y-6668104D01*
X30387036Y-6647159D01*
X30290782Y-6521718D01*
X30290778Y-6521715D01*
X30289500Y-6520049D01*
X30274278Y-6471772D01*
X30289500Y-6429951D01*
X30290778Y-6428284D01*
X30290782Y-6428282D01*
X30387036Y-6302841D01*
X30447544Y-6156762D01*
X30468182Y-6000000D01*
X30447544Y-5843238D01*
X30387036Y-5697159D01*
X30290782Y-5571718D01*
X30290778Y-5571715D01*
X30289500Y-5570049D01*
X30274278Y-5521772D01*
X30289500Y-5479951D01*
X30290778Y-5478284D01*
X30290782Y-5478282D01*
X30387036Y-5352841D01*
X30447544Y-5206762D01*
X30468182Y-5050000D01*
X30447544Y-4893238D01*
X30387036Y-4747159D01*
X30290782Y-4621718D01*
X30290779Y-4621715D01*
X30165341Y-4525464D01*
X30019261Y-4464955D01*
X29862500Y-4444318D01*
X29705739Y-4464955D01*
X29705738Y-4464955D01*
X29559658Y-4525464D01*
X29434220Y-4621715D01*
X29434215Y-4621720D01*
X29337964Y-4747158D01*
X29277455Y-4893238D01*
X29277455Y-4893239D01*
X29256818Y-5050000D01*
X29277455Y-5206760D01*
X29277455Y-5206761D01*
X29337964Y-5352841D01*
X29435498Y-5479952D01*
X29450720Y-5528228D01*
X29435498Y-5570048D01*
X29337964Y-5697158D01*
X29277455Y-5843238D01*
X29277455Y-5843239D01*
X29256818Y-6000000D01*
X29277455Y-6156760D01*
X29277455Y-6156761D01*
X29337964Y-6302841D01*
X29435498Y-6429952D01*
X29450720Y-6478228D01*
X29435498Y-6520048D01*
X29337964Y-6647158D01*
X29277455Y-6793238D01*
X29277455Y-6793239D01*
X29256818Y-6950000D01*
X26999099Y-6950000D01*
X26985044Y-6843238D01*
X26958152Y-6778318D01*
X26955945Y-6727748D01*
X26958153Y-6721681D01*
X26965798Y-6703225D01*
X26985044Y-6656762D01*
X27005682Y-6500000D01*
X26985044Y-6343238D01*
X26958152Y-6278318D01*
X26955945Y-6227748D01*
X26958153Y-6221681D01*
X26985044Y-6156762D01*
X27005682Y-6000000D01*
X26985044Y-5843238D01*
X26958152Y-5778318D01*
X26955945Y-5727748D01*
X26958153Y-5721681D01*
X26968310Y-5697160D01*
X26985044Y-5656762D01*
X27005682Y-5500000D01*
X26985044Y-5343238D01*
X26924536Y-5197159D01*
X26828282Y-5071718D01*
X26828279Y-5071715D01*
X26702841Y-4975464D01*
X26556761Y-4914955D01*
X26400000Y-4894318D01*
X26243239Y-4914955D01*
X26243238Y-4914955D01*
X26097158Y-4975464D01*
X25971720Y-5071715D01*
X25971715Y-5071720D01*
X25875464Y-5197158D01*
X25814956Y-5343237D01*
X25813916Y-5351136D01*
X25790541Y-5396034D01*
X25743774Y-5415404D01*
X25730890Y-5414841D01*
X25606467Y-5398460D01*
X25561567Y-5375087D01*
X25542196Y-5328321D01*
X25547759Y-5296775D01*
X25585044Y-5206762D01*
X25605682Y-5050000D01*
X25585044Y-4893238D01*
X25524536Y-4747159D01*
X25428282Y-4621718D01*
X25428279Y-4621715D01*
X25302841Y-4525464D01*
X25156761Y-4464955D01*
X25000000Y-4444318D01*
X24843239Y-4464955D01*
X24843238Y-4464955D01*
X24697158Y-4525464D01*
X24571720Y-4621715D01*
X24571715Y-4621720D01*
X24475464Y-4747158D01*
X24414955Y-4893238D01*
X24414955Y-4893239D01*
X24394318Y-5050000D01*
X24414955Y-5206760D01*
X24414956Y-5206764D01*
X24452240Y-5296775D01*
X24454448Y-5347345D01*
X24423633Y-5387504D01*
X24393532Y-5398460D01*
X24269109Y-5414841D01*
X24219690Y-5403885D01*
X24188875Y-5363726D01*
X24186083Y-5351131D01*
X24185044Y-5343240D01*
X24185043Y-5343237D01*
X24124536Y-5197159D01*
X24124535Y-5197158D01*
X24028284Y-5071720D01*
X24028279Y-5071715D01*
X23902841Y-4975464D01*
X23756761Y-4914955D01*
X23600000Y-4894318D01*
X23443239Y-4914955D01*
X23443238Y-4914955D01*
X23297158Y-4975464D01*
X23171720Y-5071715D01*
X23171715Y-5071720D01*
X23075464Y-5197158D01*
X23014955Y-5343238D01*
X23014955Y-5343239D01*
X22994318Y-5500000D01*
X23014955Y-5656761D01*
X23041846Y-5721682D01*
X23044054Y-5772253D01*
X23041846Y-5778318D01*
X23014955Y-5843238D01*
X22994318Y-6000000D01*
X23014955Y-6156760D01*
X23014955Y-6156761D01*
X23075464Y-6302841D01*
X23171713Y-6428277D01*
X23171715Y-6428279D01*
X23171718Y-6428282D01*
X23187357Y-6440282D01*
X23188674Y-6441293D01*
X23215870Y-6483986D01*
X23209262Y-6534172D01*
X23188673Y-6558707D01*
X23174467Y-6569609D01*
X23171717Y-6571719D01*
X23171713Y-6571722D01*
X23075464Y-6697158D01*
X23014955Y-6843238D01*
X23014955Y-6843239D01*
X22994318Y-7000000D01*
X1000000Y-7000000D01*
X1000000Y-3922900D01*
X9595793Y-3922900D01*
X9605672Y-4230971D01*
X9605674Y-4230989D01*
X9654865Y-4535254D01*
X9654868Y-4535267D01*
X9740712Y-4824500D01*
X9742569Y-4830756D01*
X9849236Y-5071718D01*
X9867341Y-5112617D01*
X9948783Y-5246963D01*
X10027123Y-5376193D01*
X10106289Y-5475464D01*
X10219300Y-5617177D01*
X10219303Y-5617180D01*
X10219304Y-5617181D01*
X10440724Y-5831614D01*
X10687747Y-6015972D01*
X10956318Y-6167228D01*
X11242025Y-6282899D01*
X11540179Y-6361084D01*
X11845878Y-6400499D01*
X11845882Y-6400500D01*
X11845883Y-6400500D01*
X12076974Y-6400500D01*
X12307601Y-6385693D01*
X12610151Y-6326772D01*
X12902683Y-6229644D01*
X13180393Y-6095907D01*
X13438720Y-5927754D01*
X13673424Y-5727948D01*
X13880650Y-5499769D01*
X14056996Y-5246963D01*
X14082979Y-5197159D01*
X14199561Y-4973695D01*
X14199561Y-4973692D01*
X14199567Y-4973683D01*
X14306020Y-4684415D01*
X14374609Y-4383908D01*
X14404206Y-4077098D01*
X14394327Y-3769022D01*
X14345133Y-3464739D01*
X14257431Y-3169244D01*
X14132663Y-2887391D01*
X13972877Y-2623807D01*
X13863802Y-2487031D01*
X13780699Y-2382822D01*
X13559277Y-2168387D01*
X13312252Y-1984027D01*
X13170325Y-1904096D01*
X13043682Y-1832772D01*
X12757975Y-1717101D01*
X12757971Y-1717100D01*
X12757969Y-1717099D01*
X12459818Y-1638915D01*
X12459820Y-1638915D01*
X12154123Y-1599500D01*
X12154117Y-1599500D01*
X11923026Y-1599500D01*
X11692397Y-1614307D01*
X11389851Y-1673227D01*
X11097322Y-1770354D01*
X11097315Y-1770357D01*
X10819605Y-1904094D01*
X10819600Y-1904096D01*
X10561285Y-2072242D01*
X10561278Y-2072247D01*
X10326578Y-2272049D01*
X10119351Y-2500229D01*
X10119349Y-2500231D01*
X9943007Y-2753033D01*
X9942994Y-2753053D01*
X9800438Y-3026304D01*
X9800432Y-3026319D01*
X9693979Y-3315588D01*
X9625392Y-3616087D01*
X9625390Y-3616096D01*
X9595793Y-3922900D01*
X1000000Y-3922900D01*
X1000000Y-1074000D01*
X1017313Y-1026434D01*
X1061150Y-1001124D01*
X1074000Y-1000000D01*
X75176000Y-1000000D01*
X75223566Y-1017313D01*
G37*
%TD.AperFunction*%
%TA.AperFunction,Conductor*%
G36*
X113973566Y-1017313D02*
G01*
X113998876Y-1061150D01*
X114000000Y-1074000D01*
X114000000Y-36926000D01*
X113982687Y-36973566D01*
X113938850Y-36998876D01*
X113926000Y-37000000D01*
X94824000Y-37000000D01*
X94776434Y-36982687D01*
X94751124Y-36938850D01*
X94750000Y-36926000D01*
X94750000Y-33000000D01*
X97694318Y-33000000D01*
X97714955Y-33156760D01*
X97714955Y-33156761D01*
X97775464Y-33302841D01*
X97871715Y-33428279D01*
X97871720Y-33428284D01*
X97955345Y-33492451D01*
X97997159Y-33524536D01*
X98143238Y-33585044D01*
X98300000Y-33605682D01*
X98456762Y-33585044D01*
X98602841Y-33524536D01*
X98728282Y-33428282D01*
X98824536Y-33302841D01*
X98885044Y-33156762D01*
X98905682Y-33000000D01*
X101094318Y-33000000D01*
X101114955Y-33156760D01*
X101114955Y-33156761D01*
X101175464Y-33302841D01*
X101271715Y-33428279D01*
X101271720Y-33428284D01*
X101355345Y-33492451D01*
X101397159Y-33524536D01*
X101543238Y-33585044D01*
X101700000Y-33605682D01*
X101856762Y-33585044D01*
X102002841Y-33524536D01*
X102128282Y-33428282D01*
X102224536Y-33302841D01*
X102285044Y-33156762D01*
X102305682Y-33000000D01*
X102285044Y-32843238D01*
X102224536Y-32697159D01*
X102128282Y-32571718D01*
X102128279Y-32571715D01*
X102002841Y-32475464D01*
X101856761Y-32414955D01*
X101700000Y-32394318D01*
X101543239Y-32414955D01*
X101543238Y-32414955D01*
X101397158Y-32475464D01*
X101271720Y-32571715D01*
X101271715Y-32571720D01*
X101175464Y-32697158D01*
X101114955Y-32843238D01*
X101114955Y-32843239D01*
X101094318Y-33000000D01*
X98905682Y-33000000D01*
X98885044Y-32843238D01*
X98824536Y-32697159D01*
X98728282Y-32571718D01*
X98728279Y-32571715D01*
X98602841Y-32475464D01*
X98456761Y-32414955D01*
X98300000Y-32394318D01*
X98143239Y-32414955D01*
X98143238Y-32414955D01*
X97997158Y-32475464D01*
X97871720Y-32571715D01*
X97871715Y-32571720D01*
X97775464Y-32697158D01*
X97714955Y-32843238D01*
X97714955Y-32843239D01*
X97694318Y-33000000D01*
X94750000Y-33000000D01*
X94750000Y-26000000D01*
X94944318Y-26000000D01*
X94964955Y-26156760D01*
X94964955Y-26156761D01*
X95025464Y-26302841D01*
X95121715Y-26428279D01*
X95121720Y-26428284D01*
X95150209Y-26450144D01*
X95247159Y-26524536D01*
X95393238Y-26585044D01*
X95550000Y-26605682D01*
X95706762Y-26585044D01*
X95852841Y-26524536D01*
X95978282Y-26428282D01*
X95991565Y-26410970D01*
X96016292Y-26378747D01*
X96058983Y-26351549D01*
X96109169Y-26358156D01*
X96133708Y-26378747D01*
X96171715Y-26428279D01*
X96171720Y-26428284D01*
X96200209Y-26450144D01*
X96297159Y-26524536D01*
X96443238Y-26585044D01*
X96600000Y-26605682D01*
X96756762Y-26585044D01*
X96902841Y-26524536D01*
X96979953Y-26465365D01*
X97028227Y-26450144D01*
X97070045Y-26465364D01*
X97147159Y-26524536D01*
X97293238Y-26585044D01*
X97450000Y-26605682D01*
X97606762Y-26585044D01*
X97752841Y-26524536D01*
X97878282Y-26428282D01*
X97974536Y-26302841D01*
X98035044Y-26156762D01*
X98055682Y-26000000D01*
X98544318Y-26000000D01*
X98564955Y-26156760D01*
X98564955Y-26156761D01*
X98625464Y-26302841D01*
X98721715Y-26428279D01*
X98721720Y-26428284D01*
X98750209Y-26450144D01*
X98847159Y-26524536D01*
X98993238Y-26585044D01*
X99150000Y-26605682D01*
X99306762Y-26585044D01*
X99452841Y-26524536D01*
X99578282Y-26428282D01*
X99674536Y-26302841D01*
X99735044Y-26156762D01*
X99755682Y-26000000D01*
X102794318Y-26000000D01*
X102814955Y-26156760D01*
X102814955Y-26156761D01*
X102875464Y-26302841D01*
X102971715Y-26428279D01*
X102971720Y-26428284D01*
X103000209Y-26450144D01*
X103097159Y-26524536D01*
X103243238Y-26585044D01*
X103400000Y-26605682D01*
X103556762Y-26585044D01*
X103702841Y-26524536D01*
X103828282Y-26428282D01*
X103924536Y-26302841D01*
X103985044Y-26156762D01*
X104005682Y-26000000D01*
X107894318Y-26000000D01*
X107914955Y-26156760D01*
X107914955Y-26156761D01*
X107975464Y-26302841D01*
X108071715Y-26428279D01*
X108071720Y-26428284D01*
X108100209Y-26450144D01*
X108197159Y-26524536D01*
X108343238Y-26585044D01*
X108500000Y-26605682D01*
X108656762Y-26585044D01*
X108802841Y-26524536D01*
X108928282Y-26428282D01*
X108941565Y-26410970D01*
X108966292Y-26378747D01*
X109008983Y-26351549D01*
X109059169Y-26358156D01*
X109083708Y-26378747D01*
X109121715Y-26428279D01*
X109121720Y-26428284D01*
X109150209Y-26450144D01*
X109247159Y-26524536D01*
X109393238Y-26585044D01*
X109550000Y-26605682D01*
X109706762Y-26585044D01*
X109852841Y-26524536D01*
X109978282Y-26428282D01*
X110074536Y-26302841D01*
X110135044Y-26156762D01*
X110155682Y-26000000D01*
X110135044Y-25843238D01*
X110074536Y-25697159D01*
X110032091Y-25641844D01*
X109978284Y-25571720D01*
X109978279Y-25571715D01*
X109852841Y-25475464D01*
X109706761Y-25414955D01*
X109550000Y-25394318D01*
X109393239Y-25414955D01*
X109393238Y-25414955D01*
X109247158Y-25475464D01*
X109121720Y-25571715D01*
X109121715Y-25571720D01*
X109083708Y-25621253D01*
X109041017Y-25648451D01*
X108990831Y-25641844D01*
X108966292Y-25621253D01*
X108928284Y-25571720D01*
X108928279Y-25571715D01*
X108802841Y-25475464D01*
X108656761Y-25414955D01*
X108500000Y-25394318D01*
X108343239Y-25414955D01*
X108343238Y-25414955D01*
X108197158Y-25475464D01*
X108071720Y-25571715D01*
X108071715Y-25571720D01*
X107975464Y-25697158D01*
X107914955Y-25843238D01*
X107914955Y-25843239D01*
X107894318Y-26000000D01*
X104005682Y-26000000D01*
X103985044Y-25843238D01*
X103924536Y-25697159D01*
X103882091Y-25641844D01*
X103828284Y-25571720D01*
X103828279Y-25571715D01*
X103702841Y-25475464D01*
X103556761Y-25414955D01*
X103400000Y-25394318D01*
X103243239Y-25414955D01*
X103243238Y-25414955D01*
X103097158Y-25475464D01*
X102971720Y-25571715D01*
X102971715Y-25571720D01*
X102875464Y-25697158D01*
X102814955Y-25843238D01*
X102814955Y-25843239D01*
X102794318Y-26000000D01*
X99755682Y-26000000D01*
X99735044Y-25843238D01*
X99674536Y-25697159D01*
X99632091Y-25641844D01*
X99578284Y-25571720D01*
X99578279Y-25571715D01*
X99452841Y-25475464D01*
X99306761Y-25414955D01*
X99150000Y-25394318D01*
X98993239Y-25414955D01*
X98993238Y-25414955D01*
X98847158Y-25475464D01*
X98721720Y-25571715D01*
X98721715Y-25571720D01*
X98625464Y-25697158D01*
X98564955Y-25843238D01*
X98564955Y-25843239D01*
X98544318Y-26000000D01*
X98055682Y-26000000D01*
X98035044Y-25843238D01*
X97974536Y-25697159D01*
X97932091Y-25641844D01*
X97878284Y-25571720D01*
X97878279Y-25571715D01*
X97752841Y-25475464D01*
X97606761Y-25414955D01*
X97450000Y-25394318D01*
X97293239Y-25414955D01*
X97293238Y-25414955D01*
X97149399Y-25474536D01*
X97147159Y-25475464D01*
X97070048Y-25534633D01*
X97021772Y-25549854D01*
X96979952Y-25534633D01*
X96902841Y-25475464D01*
X96819230Y-25440831D01*
X96756761Y-25414955D01*
X96600000Y-25394318D01*
X96443239Y-25414955D01*
X96443238Y-25414955D01*
X96297158Y-25475464D01*
X96171720Y-25571715D01*
X96171715Y-25571720D01*
X96133708Y-25621253D01*
X96091017Y-25648451D01*
X96040831Y-25641844D01*
X96016292Y-25621253D01*
X95978284Y-25571720D01*
X95978279Y-25571715D01*
X95928747Y-25533708D01*
X95901549Y-25491017D01*
X95908156Y-25440831D01*
X95928747Y-25416292D01*
X95978279Y-25378284D01*
X95978282Y-25378282D01*
X96074536Y-25252841D01*
X96135044Y-25106762D01*
X96155682Y-24950000D01*
X96135044Y-24793238D01*
X96074536Y-24647159D01*
X96015365Y-24570046D01*
X96000144Y-24521773D01*
X96015364Y-24479954D01*
X96074536Y-24402841D01*
X96135044Y-24256762D01*
X96155682Y-24100000D01*
X96135044Y-23943238D01*
X96074536Y-23797159D01*
X96015365Y-23720046D01*
X96000144Y-23671773D01*
X96015364Y-23629954D01*
X96074536Y-23552841D01*
X96135044Y-23406762D01*
X96155682Y-23250000D01*
X96135044Y-23093238D01*
X96074536Y-22947159D01*
X96015365Y-22870046D01*
X96000144Y-22821773D01*
X96015364Y-22779954D01*
X96074536Y-22702841D01*
X96135044Y-22556762D01*
X96155682Y-22400000D01*
X96135044Y-22243238D01*
X96074536Y-22097159D01*
X96015365Y-22020046D01*
X96000144Y-21971773D01*
X96015364Y-21929954D01*
X96074536Y-21852841D01*
X96135044Y-21706762D01*
X96155682Y-21550000D01*
X96135044Y-21393238D01*
X96074536Y-21247159D01*
X96015365Y-21170046D01*
X96000144Y-21121773D01*
X96015364Y-21079954D01*
X96074536Y-21002841D01*
X96135044Y-20856762D01*
X96155682Y-20700000D01*
X96149099Y-20650000D01*
X100294318Y-20650000D01*
X100314955Y-20806760D01*
X100314955Y-20806761D01*
X100375464Y-20952841D01*
X100471715Y-21078279D01*
X100471720Y-21078284D01*
X100528397Y-21121773D01*
X100597159Y-21174536D01*
X100743238Y-21235044D01*
X100900000Y-21255682D01*
X101056762Y-21235044D01*
X101202841Y-21174536D01*
X101328282Y-21078282D01*
X101424536Y-20952841D01*
X101485044Y-20806762D01*
X101505682Y-20650000D01*
X101944318Y-20650000D01*
X101964955Y-20806760D01*
X101964955Y-20806761D01*
X102025464Y-20952841D01*
X102121715Y-21078279D01*
X102121720Y-21078284D01*
X102178397Y-21121773D01*
X102247159Y-21174536D01*
X102393238Y-21235044D01*
X102550000Y-21255682D01*
X102706762Y-21235044D01*
X102852841Y-21174536D01*
X102978282Y-21078282D01*
X103074536Y-20952841D01*
X103135044Y-20806762D01*
X103155682Y-20650000D01*
X103594318Y-20650000D01*
X103614955Y-20806760D01*
X103614955Y-20806761D01*
X103675464Y-20952841D01*
X103771715Y-21078279D01*
X103771720Y-21078284D01*
X103828397Y-21121773D01*
X103897159Y-21174536D01*
X104043238Y-21235044D01*
X104200000Y-21255682D01*
X104356762Y-21235044D01*
X104502841Y-21174536D01*
X104628282Y-21078282D01*
X104724536Y-20952841D01*
X104785044Y-20806762D01*
X104805682Y-20650000D01*
X104785044Y-20493238D01*
X104724536Y-20347159D01*
X104669167Y-20275000D01*
X104628284Y-20221720D01*
X104628279Y-20221715D01*
X104502841Y-20125464D01*
X104356761Y-20064955D01*
X104200000Y-20044318D01*
X104043239Y-20064955D01*
X104043238Y-20064955D01*
X103897158Y-20125464D01*
X103771720Y-20221715D01*
X103771715Y-20221720D01*
X103675464Y-20347158D01*
X103614955Y-20493238D01*
X103614955Y-20493239D01*
X103594318Y-20650000D01*
X103155682Y-20650000D01*
X103135044Y-20493238D01*
X103074536Y-20347159D01*
X103019167Y-20275000D01*
X102978284Y-20221720D01*
X102978279Y-20221715D01*
X102852841Y-20125464D01*
X102706761Y-20064955D01*
X102550000Y-20044318D01*
X102393239Y-20064955D01*
X102393238Y-20064955D01*
X102247158Y-20125464D01*
X102121720Y-20221715D01*
X102121715Y-20221720D01*
X102025464Y-20347158D01*
X101964955Y-20493238D01*
X101964955Y-20493239D01*
X101944318Y-20650000D01*
X101505682Y-20650000D01*
X101485044Y-20493238D01*
X101424536Y-20347159D01*
X101369167Y-20275000D01*
X101328284Y-20221720D01*
X101328279Y-20221715D01*
X101202841Y-20125464D01*
X101056761Y-20064955D01*
X100900000Y-20044318D01*
X100743239Y-20064955D01*
X100743238Y-20064955D01*
X100597158Y-20125464D01*
X100471720Y-20221715D01*
X100471715Y-20221720D01*
X100375464Y-20347158D01*
X100314955Y-20493238D01*
X100314955Y-20493239D01*
X100294318Y-20650000D01*
X96149099Y-20650000D01*
X96135044Y-20543238D01*
X96074536Y-20397159D01*
X96015365Y-20320046D01*
X96000144Y-20271773D01*
X96015364Y-20229954D01*
X96074536Y-20152841D01*
X96135044Y-20006762D01*
X96155682Y-19850000D01*
X96135044Y-19693238D01*
X96074536Y-19547159D01*
X96015365Y-19470046D01*
X96000144Y-19421773D01*
X96015364Y-19379954D01*
X96074536Y-19302841D01*
X96135044Y-19156762D01*
X96155682Y-19000000D01*
X100294318Y-19000000D01*
X100314955Y-19156760D01*
X100314955Y-19156761D01*
X100375464Y-19302841D01*
X100471715Y-19428279D01*
X100471720Y-19428284D01*
X100526150Y-19470049D01*
X100597159Y-19524536D01*
X100743238Y-19585044D01*
X100900000Y-19605682D01*
X101056762Y-19585044D01*
X101202841Y-19524536D01*
X101328282Y-19428282D01*
X101424536Y-19302841D01*
X101485044Y-19156762D01*
X101505682Y-19000000D01*
X101944318Y-19000000D01*
X101964955Y-19156760D01*
X101964955Y-19156761D01*
X102025464Y-19302841D01*
X102121715Y-19428279D01*
X102121720Y-19428284D01*
X102176150Y-19470049D01*
X102247159Y-19524536D01*
X102393238Y-19585044D01*
X102550000Y-19605682D01*
X102706762Y-19585044D01*
X102852841Y-19524536D01*
X102978282Y-19428282D01*
X103074536Y-19302841D01*
X103135044Y-19156762D01*
X103155682Y-19000000D01*
X103594318Y-19000000D01*
X103614955Y-19156760D01*
X103614955Y-19156761D01*
X103675464Y-19302841D01*
X103771715Y-19428279D01*
X103771720Y-19428284D01*
X103826150Y-19470049D01*
X103897159Y-19524536D01*
X104043238Y-19585044D01*
X104200000Y-19605682D01*
X104356762Y-19585044D01*
X104502841Y-19524536D01*
X104628282Y-19428282D01*
X104724536Y-19302841D01*
X104785044Y-19156762D01*
X104805682Y-19000000D01*
X108944318Y-19000000D01*
X108964955Y-19156760D01*
X108964955Y-19156761D01*
X109025464Y-19302841D01*
X109121715Y-19428279D01*
X109121720Y-19428284D01*
X109176150Y-19470049D01*
X109247159Y-19524536D01*
X109393238Y-19585044D01*
X109550000Y-19605682D01*
X109706762Y-19585044D01*
X109852841Y-19524536D01*
X109978282Y-19428282D01*
X110074536Y-19302841D01*
X110135044Y-19156762D01*
X110155682Y-19000000D01*
X110135044Y-18843238D01*
X110074536Y-18697159D01*
X110015367Y-18620048D01*
X109978284Y-18571720D01*
X109978279Y-18571715D01*
X109852841Y-18475464D01*
X109706761Y-18414955D01*
X109550000Y-18394318D01*
X109393239Y-18414955D01*
X109393238Y-18414955D01*
X109247158Y-18475464D01*
X109121720Y-18571715D01*
X109121715Y-18571720D01*
X109025464Y-18697158D01*
X108964955Y-18843238D01*
X108964955Y-18843239D01*
X108944318Y-19000000D01*
X104805682Y-19000000D01*
X104785044Y-18843238D01*
X104724536Y-18697159D01*
X104665367Y-18620048D01*
X104628284Y-18571720D01*
X104628279Y-18571715D01*
X104502841Y-18475464D01*
X104356761Y-18414955D01*
X104200000Y-18394318D01*
X104043239Y-18414955D01*
X104043238Y-18414955D01*
X103897158Y-18475464D01*
X103771720Y-18571715D01*
X103771715Y-18571720D01*
X103675464Y-18697158D01*
X103614955Y-18843238D01*
X103614955Y-18843239D01*
X103594318Y-19000000D01*
X103155682Y-19000000D01*
X103135044Y-18843238D01*
X103074536Y-18697159D01*
X103015367Y-18620048D01*
X102978284Y-18571720D01*
X102978279Y-18571715D01*
X102852841Y-18475464D01*
X102706761Y-18414955D01*
X102550000Y-18394318D01*
X102393239Y-18414955D01*
X102393238Y-18414955D01*
X102247158Y-18475464D01*
X102121720Y-18571715D01*
X102121715Y-18571720D01*
X102025464Y-18697158D01*
X101964955Y-18843238D01*
X101964955Y-18843239D01*
X101944318Y-19000000D01*
X101505682Y-19000000D01*
X101485044Y-18843238D01*
X101424536Y-18697159D01*
X101365367Y-18620048D01*
X101328284Y-18571720D01*
X101328279Y-18571715D01*
X101202841Y-18475464D01*
X101056761Y-18414955D01*
X100900000Y-18394318D01*
X100743239Y-18414955D01*
X100743238Y-18414955D01*
X100597158Y-18475464D01*
X100471720Y-18571715D01*
X100471715Y-18571720D01*
X100375464Y-18697158D01*
X100314955Y-18843238D01*
X100314955Y-18843239D01*
X100294318Y-19000000D01*
X96155682Y-19000000D01*
X96135044Y-18843238D01*
X96074536Y-18697159D01*
X96015365Y-18620046D01*
X96000144Y-18571773D01*
X96015364Y-18529954D01*
X96074536Y-18452841D01*
X96135044Y-18306762D01*
X96155682Y-18150000D01*
X96135044Y-17993238D01*
X96074536Y-17847159D01*
X96015365Y-17770046D01*
X96000144Y-17721773D01*
X96015364Y-17679954D01*
X96074536Y-17602841D01*
X96135044Y-17456762D01*
X96149099Y-17350000D01*
X100294318Y-17350000D01*
X100314955Y-17506760D01*
X100314955Y-17506761D01*
X100375464Y-17652841D01*
X100471715Y-17778279D01*
X100471720Y-17778284D01*
X100555345Y-17842451D01*
X100597159Y-17874536D01*
X100743238Y-17935044D01*
X100900000Y-17955682D01*
X101056762Y-17935044D01*
X101202841Y-17874536D01*
X101328282Y-17778282D01*
X101424536Y-17652841D01*
X101485044Y-17506762D01*
X101505682Y-17350000D01*
X101944318Y-17350000D01*
X101964955Y-17506760D01*
X101964955Y-17506761D01*
X102025464Y-17652841D01*
X102121715Y-17778279D01*
X102121720Y-17778284D01*
X102205345Y-17842451D01*
X102247159Y-17874536D01*
X102393238Y-17935044D01*
X102550000Y-17955682D01*
X102706762Y-17935044D01*
X102852841Y-17874536D01*
X102978282Y-17778282D01*
X103074536Y-17652841D01*
X103135044Y-17506762D01*
X103155682Y-17350000D01*
X103594318Y-17350000D01*
X103614955Y-17506760D01*
X103614955Y-17506761D01*
X103675464Y-17652841D01*
X103771715Y-17778279D01*
X103771720Y-17778284D01*
X103855345Y-17842451D01*
X103897159Y-17874536D01*
X104043238Y-17935044D01*
X104200000Y-17955682D01*
X104356762Y-17935044D01*
X104502841Y-17874536D01*
X104628282Y-17778282D01*
X104724536Y-17652841D01*
X104785044Y-17506762D01*
X104805682Y-17350000D01*
X104785044Y-17193238D01*
X104724536Y-17047159D01*
X104628282Y-16921718D01*
X104628279Y-16921715D01*
X104502841Y-16825464D01*
X104356761Y-16764955D01*
X104200000Y-16744318D01*
X104043239Y-16764955D01*
X104043238Y-16764955D01*
X103897158Y-16825464D01*
X103771720Y-16921715D01*
X103771715Y-16921720D01*
X103675464Y-17047158D01*
X103614955Y-17193238D01*
X103614955Y-17193239D01*
X103594318Y-17350000D01*
X103155682Y-17350000D01*
X103135044Y-17193238D01*
X103074536Y-17047159D01*
X102978282Y-16921718D01*
X102978279Y-16921715D01*
X102852841Y-16825464D01*
X102706761Y-16764955D01*
X102550000Y-16744318D01*
X102393239Y-16764955D01*
X102393238Y-16764955D01*
X102247158Y-16825464D01*
X102121720Y-16921715D01*
X102121715Y-16921720D01*
X102025464Y-17047158D01*
X101964955Y-17193238D01*
X101964955Y-17193239D01*
X101944318Y-17350000D01*
X101505682Y-17350000D01*
X101485044Y-17193238D01*
X101424536Y-17047159D01*
X101328282Y-16921718D01*
X101328279Y-16921715D01*
X101202841Y-16825464D01*
X101056761Y-16764955D01*
X100900000Y-16744318D01*
X100743239Y-16764955D01*
X100743238Y-16764955D01*
X100597158Y-16825464D01*
X100471720Y-16921715D01*
X100471715Y-16921720D01*
X100375464Y-17047158D01*
X100314955Y-17193238D01*
X100314955Y-17193239D01*
X100294318Y-17350000D01*
X96149099Y-17350000D01*
X96155682Y-17300000D01*
X96135044Y-17143238D01*
X96074536Y-16997159D01*
X96015365Y-16920046D01*
X96000144Y-16871773D01*
X96015364Y-16829954D01*
X96074536Y-16752841D01*
X96135044Y-16606762D01*
X96155682Y-16450000D01*
X96135044Y-16293238D01*
X96074536Y-16147159D01*
X96015365Y-16070046D01*
X96000144Y-16021773D01*
X96015364Y-15979954D01*
X96074536Y-15902841D01*
X96135044Y-15756762D01*
X96155682Y-15600000D01*
X96135044Y-15443238D01*
X96074536Y-15297159D01*
X96015365Y-15220046D01*
X96000144Y-15171773D01*
X96015364Y-15129954D01*
X96074536Y-15052841D01*
X96135044Y-14906762D01*
X96155682Y-14750000D01*
X96135044Y-14593238D01*
X96074536Y-14447159D01*
X96015365Y-14370046D01*
X96000144Y-14321773D01*
X96015364Y-14279954D01*
X96074536Y-14202841D01*
X96135044Y-14056762D01*
X96155682Y-13900000D01*
X96135044Y-13743238D01*
X96074536Y-13597159D01*
X96015365Y-13520046D01*
X96000144Y-13471773D01*
X96015364Y-13429954D01*
X96074536Y-13352841D01*
X96135044Y-13206762D01*
X96155682Y-13050000D01*
X96135044Y-12893238D01*
X96074536Y-12747159D01*
X95978282Y-12621718D01*
X95978279Y-12621715D01*
X95928747Y-12583708D01*
X95901549Y-12541017D01*
X95908156Y-12490831D01*
X95928747Y-12466292D01*
X95978279Y-12428284D01*
X95978282Y-12428282D01*
X96074536Y-12302841D01*
X96135044Y-12156762D01*
X96155682Y-12000000D01*
X97694318Y-12000000D01*
X97714955Y-12156760D01*
X97714955Y-12156761D01*
X97775464Y-12302841D01*
X97871715Y-12428279D01*
X97871720Y-12428284D01*
X97953234Y-12490831D01*
X97997159Y-12524536D01*
X98143238Y-12585044D01*
X98300000Y-12605682D01*
X98456762Y-12585044D01*
X98602841Y-12524536D01*
X98679953Y-12465365D01*
X98728227Y-12450144D01*
X98770045Y-12465364D01*
X98847159Y-12524536D01*
X98993238Y-12585044D01*
X99150000Y-12605682D01*
X99306762Y-12585044D01*
X99452841Y-12524536D01*
X99578282Y-12428282D01*
X99674536Y-12302841D01*
X99735044Y-12156762D01*
X99755682Y-12000000D01*
X108944318Y-12000000D01*
X108964955Y-12156760D01*
X108964955Y-12156761D01*
X109025464Y-12302841D01*
X109121715Y-12428279D01*
X109121720Y-12428284D01*
X109203234Y-12490831D01*
X109247159Y-12524536D01*
X109393238Y-12585044D01*
X109550000Y-12605682D01*
X109706762Y-12585044D01*
X109852841Y-12524536D01*
X109978282Y-12428282D01*
X110074536Y-12302841D01*
X110135044Y-12156762D01*
X110155682Y-12000000D01*
X110135044Y-11843238D01*
X110074536Y-11697159D01*
X109978282Y-11571718D01*
X109978279Y-11571715D01*
X109852841Y-11475464D01*
X109706761Y-11414955D01*
X109550000Y-11394318D01*
X109393239Y-11414955D01*
X109393238Y-11414955D01*
X109247158Y-11475464D01*
X109121720Y-11571715D01*
X109121715Y-11571720D01*
X109025464Y-11697158D01*
X108964955Y-11843238D01*
X108964955Y-11843239D01*
X108944318Y-12000000D01*
X99755682Y-12000000D01*
X99735044Y-11843238D01*
X99674536Y-11697159D01*
X99578282Y-11571718D01*
X99578279Y-11571715D01*
X99452841Y-11475464D01*
X99306761Y-11414955D01*
X99150000Y-11394318D01*
X98993239Y-11414955D01*
X98993238Y-11414955D01*
X98847161Y-11475463D01*
X98847159Y-11475464D01*
X98770048Y-11534633D01*
X98721772Y-11549854D01*
X98679952Y-11534633D01*
X98602841Y-11475464D01*
X98560052Y-11457740D01*
X98456761Y-11414955D01*
X98300000Y-11394318D01*
X98143239Y-11414955D01*
X98143238Y-11414955D01*
X97997158Y-11475464D01*
X97871720Y-11571715D01*
X97871715Y-11571720D01*
X97775464Y-11697158D01*
X97714955Y-11843238D01*
X97714955Y-11843239D01*
X97694318Y-12000000D01*
X96155682Y-12000000D01*
X96135044Y-11843238D01*
X96074536Y-11697159D01*
X95978282Y-11571718D01*
X95978279Y-11571715D01*
X95852841Y-11475464D01*
X95706761Y-11414955D01*
X95550000Y-11394318D01*
X95393239Y-11414955D01*
X95393238Y-11414955D01*
X95247158Y-11475464D01*
X95121720Y-11571715D01*
X95121715Y-11571720D01*
X95025464Y-11697158D01*
X94964955Y-11843238D01*
X94964955Y-11843239D01*
X94944318Y-12000000D01*
X94964955Y-12156760D01*
X94964955Y-12156761D01*
X95025464Y-12302841D01*
X95121715Y-12428279D01*
X95121720Y-12428284D01*
X95171253Y-12466292D01*
X95198451Y-12508983D01*
X95191844Y-12559169D01*
X95171253Y-12583708D01*
X95121720Y-12621715D01*
X95121715Y-12621720D01*
X95025464Y-12747158D01*
X94964955Y-12893238D01*
X94964955Y-12893239D01*
X94944318Y-13050000D01*
X94964955Y-13206760D01*
X94964955Y-13206761D01*
X95007740Y-13310052D01*
X95025464Y-13352841D01*
X95084632Y-13429951D01*
X95084633Y-13429952D01*
X95099854Y-13478228D01*
X95084633Y-13520047D01*
X95025464Y-13597159D01*
X95025463Y-13597160D01*
X95025463Y-13597161D01*
X94964955Y-13743238D01*
X94964955Y-13743239D01*
X94944318Y-13900000D01*
X94964955Y-14056760D01*
X94964955Y-14056761D01*
X95007740Y-14160052D01*
X95025464Y-14202841D01*
X95084632Y-14279951D01*
X95084633Y-14279952D01*
X95099854Y-14328228D01*
X95084633Y-14370047D01*
X95025464Y-14447159D01*
X95025463Y-14447160D01*
X95025463Y-14447161D01*
X94964955Y-14593238D01*
X94964955Y-14593239D01*
X94944318Y-14750000D01*
X94964955Y-14906760D01*
X94964955Y-14906761D01*
X95007740Y-15010052D01*
X95025464Y-15052841D01*
X95084632Y-15129951D01*
X95084633Y-15129952D01*
X95099854Y-15178228D01*
X95084633Y-15220047D01*
X95025464Y-15297159D01*
X95025463Y-15297160D01*
X95025463Y-15297161D01*
X94964955Y-15443238D01*
X94964955Y-15443239D01*
X94944318Y-15600000D01*
X94964955Y-15756760D01*
X94964955Y-15756761D01*
X95007740Y-15860052D01*
X95025464Y-15902841D01*
X95084632Y-15979951D01*
X95084633Y-15979952D01*
X95099854Y-16028228D01*
X95084633Y-16070047D01*
X95025464Y-16147159D01*
X95025463Y-16147160D01*
X95025463Y-16147161D01*
X94964955Y-16293238D01*
X94964955Y-16293239D01*
X94944318Y-16450000D01*
X94964955Y-16606760D01*
X94964955Y-16606761D01*
X95007740Y-16710052D01*
X95025464Y-16752841D01*
X95061045Y-16799211D01*
X95084633Y-16829952D01*
X95099854Y-16878228D01*
X95084633Y-16920047D01*
X95025464Y-16997159D01*
X95025463Y-16997160D01*
X95025463Y-16997161D01*
X94964955Y-17143238D01*
X94964955Y-17143239D01*
X94944318Y-17300000D01*
X94964955Y-17456760D01*
X94964955Y-17456761D01*
X95007740Y-17560052D01*
X95025464Y-17602841D01*
X95084632Y-17679951D01*
X95084633Y-17679952D01*
X95099854Y-17728228D01*
X95084633Y-17770047D01*
X95025464Y-17847159D01*
X95025463Y-17847160D01*
X95025463Y-17847161D01*
X94964955Y-17993238D01*
X94964955Y-17993239D01*
X94944318Y-18150000D01*
X94964955Y-18306760D01*
X94964955Y-18306761D01*
X95000157Y-18391745D01*
X95025464Y-18452841D01*
X95084632Y-18529951D01*
X95084633Y-18529952D01*
X95099854Y-18578228D01*
X95084633Y-18620047D01*
X95025464Y-18697159D01*
X95025463Y-18697160D01*
X95025463Y-18697161D01*
X94964955Y-18843238D01*
X94964955Y-18843239D01*
X94944318Y-19000000D01*
X94964955Y-19156760D01*
X94964955Y-19156761D01*
X94987962Y-19212303D01*
X95025464Y-19302841D01*
X95084632Y-19379951D01*
X95084633Y-19379952D01*
X95099854Y-19428228D01*
X95084633Y-19470047D01*
X95025464Y-19547159D01*
X95025463Y-19547160D01*
X95025463Y-19547161D01*
X94964955Y-19693238D01*
X94964955Y-19693239D01*
X94944318Y-19850000D01*
X94964955Y-20006760D01*
X94964955Y-20006761D01*
X94976362Y-20034299D01*
X95025464Y-20152841D01*
X95084632Y-20229951D01*
X95084633Y-20229952D01*
X95099854Y-20278228D01*
X95084633Y-20320047D01*
X95025464Y-20397159D01*
X95025463Y-20397160D01*
X95025463Y-20397161D01*
X94964955Y-20543238D01*
X94964955Y-20543239D01*
X94944318Y-20700000D01*
X94964955Y-20856760D01*
X94964955Y-20856761D01*
X94993296Y-20925181D01*
X95025464Y-21002841D01*
X95083353Y-21078284D01*
X95084633Y-21079952D01*
X95099854Y-21128228D01*
X95084633Y-21170047D01*
X95025464Y-21247159D01*
X95025463Y-21247160D01*
X95025463Y-21247161D01*
X94964955Y-21393238D01*
X94964955Y-21393239D01*
X94944318Y-21550000D01*
X94964955Y-21706760D01*
X94964955Y-21706761D01*
X95007740Y-21810052D01*
X95025464Y-21852841D01*
X95084632Y-21929951D01*
X95084633Y-21929952D01*
X95099854Y-21978228D01*
X95084633Y-22020047D01*
X95025464Y-22097159D01*
X95025463Y-22097160D01*
X95025463Y-22097161D01*
X94964955Y-22243238D01*
X94964955Y-22243239D01*
X94944318Y-22400000D01*
X94964955Y-22556760D01*
X94964955Y-22556761D01*
X95007740Y-22660052D01*
X95025464Y-22702841D01*
X95084632Y-22779951D01*
X95084633Y-22779952D01*
X95099854Y-22828228D01*
X95084633Y-22870047D01*
X95025464Y-22947159D01*
X95025463Y-22947160D01*
X95025463Y-22947161D01*
X94964955Y-23093238D01*
X94964955Y-23093239D01*
X94944318Y-23250000D01*
X94964955Y-23406760D01*
X94964955Y-23406761D01*
X95003578Y-23500003D01*
X95025464Y-23552841D01*
X95084632Y-23629951D01*
X95084633Y-23629952D01*
X95099854Y-23678228D01*
X95084633Y-23720047D01*
X95025464Y-23797159D01*
X95025463Y-23797160D01*
X95025463Y-23797161D01*
X94964955Y-23943238D01*
X94964955Y-23943239D01*
X94944318Y-24100000D01*
X94964955Y-24256760D01*
X94964955Y-24256761D01*
X94973922Y-24278409D01*
X95025464Y-24402841D01*
X95084632Y-24479951D01*
X95084633Y-24479952D01*
X95099854Y-24528228D01*
X95084633Y-24570047D01*
X95025464Y-24647159D01*
X95025463Y-24647160D01*
X95025463Y-24647161D01*
X94964955Y-24793238D01*
X94964955Y-24793239D01*
X94944318Y-24950000D01*
X94964955Y-25106760D01*
X94964955Y-25106761D01*
X95025464Y-25252841D01*
X95121715Y-25378279D01*
X95121720Y-25378284D01*
X95171253Y-25416292D01*
X95198451Y-25458983D01*
X95191844Y-25509169D01*
X95171253Y-25533708D01*
X95121720Y-25571715D01*
X95121715Y-25571720D01*
X95025464Y-25697158D01*
X94964955Y-25843238D01*
X94964955Y-25843239D01*
X94944318Y-26000000D01*
X94750000Y-26000000D01*
X94750000Y-3922900D01*
X100595793Y-3922900D01*
X100605672Y-4230971D01*
X100605674Y-4230989D01*
X100654865Y-4535254D01*
X100654868Y-4535267D01*
X100740712Y-4824500D01*
X100742569Y-4830756D01*
X100849236Y-5071718D01*
X100867341Y-5112617D01*
X100948783Y-5246963D01*
X101027123Y-5376193D01*
X101106289Y-5475464D01*
X101219300Y-5617177D01*
X101219303Y-5617180D01*
X101219304Y-5617181D01*
X101440724Y-5831614D01*
X101687747Y-6015972D01*
X101956318Y-6167228D01*
X102242025Y-6282899D01*
X102540179Y-6361084D01*
X102845878Y-6400499D01*
X102845882Y-6400500D01*
X102845883Y-6400500D01*
X103076974Y-6400500D01*
X103307601Y-6385693D01*
X103610151Y-6326772D01*
X103902683Y-6229644D01*
X104180393Y-6095907D01*
X104438720Y-5927754D01*
X104673424Y-5727948D01*
X104880650Y-5499769D01*
X105056996Y-5246963D01*
X105082979Y-5197159D01*
X105199561Y-4973695D01*
X105199561Y-4973692D01*
X105199567Y-4973683D01*
X105306020Y-4684415D01*
X105374609Y-4383908D01*
X105404206Y-4077098D01*
X105394327Y-3769022D01*
X105345133Y-3464739D01*
X105257431Y-3169244D01*
X105132663Y-2887391D01*
X104972877Y-2623807D01*
X104863802Y-2487031D01*
X104780699Y-2382822D01*
X104559277Y-2168387D01*
X104312252Y-1984027D01*
X104170325Y-1904096D01*
X104043682Y-1832772D01*
X103757975Y-1717101D01*
X103757971Y-1717100D01*
X103757969Y-1717099D01*
X103459818Y-1638915D01*
X103459820Y-1638915D01*
X103154123Y-1599500D01*
X103154117Y-1599500D01*
X102923026Y-1599500D01*
X102692397Y-1614307D01*
X102389851Y-1673227D01*
X102097322Y-1770354D01*
X102097315Y-1770357D01*
X101819605Y-1904094D01*
X101819600Y-1904096D01*
X101561285Y-2072242D01*
X101561278Y-2072247D01*
X101326578Y-2272049D01*
X101119351Y-2500229D01*
X101119349Y-2500231D01*
X100943007Y-2753033D01*
X100942994Y-2753053D01*
X100800438Y-3026304D01*
X100800432Y-3026319D01*
X100693979Y-3315588D01*
X100625392Y-3616087D01*
X100625390Y-3616096D01*
X100595793Y-3922900D01*
X94750000Y-3922900D01*
X94750000Y-1074000D01*
X94767313Y-1026434D01*
X94811150Y-1001124D01*
X94824000Y-1000000D01*
X113926000Y-1000000D01*
X113973566Y-1017313D01*
G37*
%TD.AperFunction*%
%TD*%
M02*
