%TF.GenerationSoftware,KiCad,Pcbnew,7.0.11+dfsg-1build4*%
%TF.CreationDate,2026-09-25T22:05:01+00:00*%
%TF.ProjectId,BT_Switch_Mechanical_RevD_routed,42545f53-7769-4746-9368-5f4d65636861,rev?*%
%TF.SameCoordinates,Original*%
%TF.FileFunction,Legend,Top*%
%TF.FilePolarity,Positive*%
%FSLAX46Y46*%
G04 Gerber Fmt 4.6, Leading zero omitted, Abs format (unit mm)*
G04 Created by KiCad (PCBNEW 7.0.11+dfsg-1build4) date 2026-09-25 22:05:01*
%MOMM*%
%LPD*%
G01*
G04 APERTURE LIST*
%ADD10C,0.150000*%
%ADD11C,0.120000*%
G04 APERTURE END LIST*
D10*
X36833333Y-32024819D02*
X36500000Y-31548628D01*
X36261905Y-32024819D02*
X36261905Y-31024819D01*
X36261905Y-31024819D02*
X36642857Y-31024819D01*
X36642857Y-31024819D02*
X36738095Y-31072438D01*
X36738095Y-31072438D02*
X36785714Y-31120057D01*
X36785714Y-31120057D02*
X36833333Y-31215295D01*
X36833333Y-31215295D02*
X36833333Y-31358152D01*
X36833333Y-31358152D02*
X36785714Y-31453390D01*
X36785714Y-31453390D02*
X36738095Y-31501009D01*
X36738095Y-31501009D02*
X36642857Y-31548628D01*
X36642857Y-31548628D02*
X36261905Y-31548628D01*
X37166667Y-31024819D02*
X37785714Y-31024819D01*
X37785714Y-31024819D02*
X37452381Y-31405771D01*
X37452381Y-31405771D02*
X37595238Y-31405771D01*
X37595238Y-31405771D02*
X37690476Y-31453390D01*
X37690476Y-31453390D02*
X37738095Y-31501009D01*
X37738095Y-31501009D02*
X37785714Y-31596247D01*
X37785714Y-31596247D02*
X37785714Y-31834342D01*
X37785714Y-31834342D02*
X37738095Y-31929580D01*
X37738095Y-31929580D02*
X37690476Y-31977200D01*
X37690476Y-31977200D02*
X37595238Y-32024819D01*
X37595238Y-32024819D02*
X37309524Y-32024819D01*
X37309524Y-32024819D02*
X37214286Y-31977200D01*
X37214286Y-31977200D02*
X37166667Y-31929580D01*
X78261905Y-5024819D02*
X78261905Y-4024819D01*
X78261905Y-4024819D02*
X78500000Y-4024819D01*
X78500000Y-4024819D02*
X78642857Y-4072438D01*
X78642857Y-4072438D02*
X78738095Y-4167676D01*
X78738095Y-4167676D02*
X78785714Y-4262914D01*
X78785714Y-4262914D02*
X78833333Y-4453390D01*
X78833333Y-4453390D02*
X78833333Y-4596247D01*
X78833333Y-4596247D02*
X78785714Y-4786723D01*
X78785714Y-4786723D02*
X78738095Y-4881961D01*
X78738095Y-4881961D02*
X78642857Y-4977200D01*
X78642857Y-4977200D02*
X78500000Y-5024819D01*
X78500000Y-5024819D02*
X78261905Y-5024819D01*
X79785714Y-5024819D02*
X79214286Y-5024819D01*
X79500000Y-5024819D02*
X79500000Y-4024819D01*
X79500000Y-4024819D02*
X79404762Y-4167676D01*
X79404762Y-4167676D02*
X79309524Y-4262914D01*
X79309524Y-4262914D02*
X79214286Y-4310533D01*
X42833333Y-32024819D02*
X42500000Y-31548628D01*
X42261905Y-32024819D02*
X42261905Y-31024819D01*
X42261905Y-31024819D02*
X42642857Y-31024819D01*
X42642857Y-31024819D02*
X42738095Y-31072438D01*
X42738095Y-31072438D02*
X42785714Y-31120057D01*
X42785714Y-31120057D02*
X42833333Y-31215295D01*
X42833333Y-31215295D02*
X42833333Y-31358152D01*
X42833333Y-31358152D02*
X42785714Y-31453390D01*
X42785714Y-31453390D02*
X42738095Y-31501009D01*
X42738095Y-31501009D02*
X42642857Y-31548628D01*
X42642857Y-31548628D02*
X42261905Y-31548628D01*
X43690476Y-31358152D02*
X43690476Y-32024819D01*
X43452381Y-30977200D02*
X43214286Y-31691485D01*
X43214286Y-31691485D02*
X43833333Y-31691485D01*
X28809524Y-3054819D02*
X28809524Y-3864342D01*
X28809524Y-3864342D02*
X28857143Y-3959580D01*
X28857143Y-3959580D02*
X28904762Y-4007200D01*
X28904762Y-4007200D02*
X29000000Y-4054819D01*
X29000000Y-4054819D02*
X29190476Y-4054819D01*
X29190476Y-4054819D02*
X29285714Y-4007200D01*
X29285714Y-4007200D02*
X29333333Y-3959580D01*
X29333333Y-3959580D02*
X29380952Y-3864342D01*
X29380952Y-3864342D02*
X29380952Y-3054819D01*
X29619048Y-4150057D02*
X30380952Y-4150057D01*
X31190476Y-3959580D02*
X31142857Y-4007200D01*
X31142857Y-4007200D02*
X31000000Y-4054819D01*
X31000000Y-4054819D02*
X30904762Y-4054819D01*
X30904762Y-4054819D02*
X30761905Y-4007200D01*
X30761905Y-4007200D02*
X30666667Y-3911961D01*
X30666667Y-3911961D02*
X30619048Y-3816723D01*
X30619048Y-3816723D02*
X30571429Y-3626247D01*
X30571429Y-3626247D02*
X30571429Y-3483390D01*
X30571429Y-3483390D02*
X30619048Y-3292914D01*
X30619048Y-3292914D02*
X30666667Y-3197676D01*
X30666667Y-3197676D02*
X30761905Y-3102438D01*
X30761905Y-3102438D02*
X30904762Y-3054819D01*
X30904762Y-3054819D02*
X31000000Y-3054819D01*
X31000000Y-3054819D02*
X31142857Y-3102438D01*
X31142857Y-3102438D02*
X31190476Y-3150057D01*
X31619048Y-4054819D02*
X31619048Y-3054819D01*
X31619048Y-3531009D02*
X32190476Y-3531009D01*
X32190476Y-4054819D02*
X32190476Y-3054819D01*
X33190476Y-3102438D02*
X33095238Y-3054819D01*
X33095238Y-3054819D02*
X32952381Y-3054819D01*
X32952381Y-3054819D02*
X32809524Y-3102438D01*
X32809524Y-3102438D02*
X32714286Y-3197676D01*
X32714286Y-3197676D02*
X32666667Y-3292914D01*
X32666667Y-3292914D02*
X32619048Y-3483390D01*
X32619048Y-3483390D02*
X32619048Y-3626247D01*
X32619048Y-3626247D02*
X32666667Y-3816723D01*
X32666667Y-3816723D02*
X32714286Y-3911961D01*
X32714286Y-3911961D02*
X32809524Y-4007200D01*
X32809524Y-4007200D02*
X32952381Y-4054819D01*
X32952381Y-4054819D02*
X33047619Y-4054819D01*
X33047619Y-4054819D02*
X33190476Y-4007200D01*
X33190476Y-4007200D02*
X33238095Y-3959580D01*
X33238095Y-3959580D02*
X33238095Y-3626247D01*
X33238095Y-3626247D02*
X33047619Y-3626247D01*
X10666667Y845180D02*
X10666667Y1845180D01*
X10666667Y1845180D02*
X11000000Y1130895D01*
X11000000Y1130895D02*
X11333333Y1845180D01*
X11333333Y1845180D02*
X11333333Y845180D01*
X11809524Y845180D02*
X11809524Y1845180D01*
X11809524Y1368990D02*
X12380952Y1368990D01*
X12380952Y845180D02*
X12380952Y1845180D01*
X13380952Y845180D02*
X12809524Y845180D01*
X13095238Y845180D02*
X13095238Y1845180D01*
X13095238Y1845180D02*
X13000000Y1702323D01*
X13000000Y1702323D02*
X12904762Y1607085D01*
X12904762Y1607085D02*
X12809524Y1559466D01*
X84833333Y-5024819D02*
X84500000Y-4548628D01*
X84261905Y-5024819D02*
X84261905Y-4024819D01*
X84261905Y-4024819D02*
X84642857Y-4024819D01*
X84642857Y-4024819D02*
X84738095Y-4072438D01*
X84738095Y-4072438D02*
X84785714Y-4120057D01*
X84785714Y-4120057D02*
X84833333Y-4215295D01*
X84833333Y-4215295D02*
X84833333Y-4358152D01*
X84833333Y-4358152D02*
X84785714Y-4453390D01*
X84785714Y-4453390D02*
X84738095Y-4501009D01*
X84738095Y-4501009D02*
X84642857Y-4548628D01*
X84642857Y-4548628D02*
X84261905Y-4548628D01*
X85214286Y-4120057D02*
X85261905Y-4072438D01*
X85261905Y-4072438D02*
X85357143Y-4024819D01*
X85357143Y-4024819D02*
X85595238Y-4024819D01*
X85595238Y-4024819D02*
X85690476Y-4072438D01*
X85690476Y-4072438D02*
X85738095Y-4120057D01*
X85738095Y-4120057D02*
X85785714Y-4215295D01*
X85785714Y-4215295D02*
X85785714Y-4310533D01*
X85785714Y-4310533D02*
X85738095Y-4453390D01*
X85738095Y-4453390D02*
X85166667Y-5024819D01*
X85166667Y-5024819D02*
X85785714Y-5024819D01*
X111304819Y-25711904D02*
X112114342Y-25711904D01*
X112114342Y-25711904D02*
X112209580Y-25664285D01*
X112209580Y-25664285D02*
X112257200Y-25616666D01*
X112257200Y-25616666D02*
X112304819Y-25521428D01*
X112304819Y-25521428D02*
X112304819Y-25330952D01*
X112304819Y-25330952D02*
X112257200Y-25235714D01*
X112257200Y-25235714D02*
X112209580Y-25188095D01*
X112209580Y-25188095D02*
X112114342Y-25140476D01*
X112114342Y-25140476D02*
X111304819Y-25140476D01*
X112304819Y-24140476D02*
X112304819Y-24711904D01*
X112304819Y-24426190D02*
X111304819Y-24426190D01*
X111304819Y-24426190D02*
X111447676Y-24521428D01*
X111447676Y-24521428D02*
X111542914Y-24616666D01*
X111542914Y-24616666D02*
X111590533Y-24711904D01*
X72833333Y-31929580D02*
X72785714Y-31977200D01*
X72785714Y-31977200D02*
X72642857Y-32024819D01*
X72642857Y-32024819D02*
X72547619Y-32024819D01*
X72547619Y-32024819D02*
X72404762Y-31977200D01*
X72404762Y-31977200D02*
X72309524Y-31881961D01*
X72309524Y-31881961D02*
X72261905Y-31786723D01*
X72261905Y-31786723D02*
X72214286Y-31596247D01*
X72214286Y-31596247D02*
X72214286Y-31453390D01*
X72214286Y-31453390D02*
X72261905Y-31262914D01*
X72261905Y-31262914D02*
X72309524Y-31167676D01*
X72309524Y-31167676D02*
X72404762Y-31072438D01*
X72404762Y-31072438D02*
X72547619Y-31024819D01*
X72547619Y-31024819D02*
X72642857Y-31024819D01*
X72642857Y-31024819D02*
X72785714Y-31072438D01*
X72785714Y-31072438D02*
X72833333Y-31120057D01*
X73166667Y-31024819D02*
X73833333Y-31024819D01*
X73833333Y-31024819D02*
X73404762Y-32024819D01*
X78833333Y-31929580D02*
X78785714Y-31977200D01*
X78785714Y-31977200D02*
X78642857Y-32024819D01*
X78642857Y-32024819D02*
X78547619Y-32024819D01*
X78547619Y-32024819D02*
X78404762Y-31977200D01*
X78404762Y-31977200D02*
X78309524Y-31881961D01*
X78309524Y-31881961D02*
X78261905Y-31786723D01*
X78261905Y-31786723D02*
X78214286Y-31596247D01*
X78214286Y-31596247D02*
X78214286Y-31453390D01*
X78214286Y-31453390D02*
X78261905Y-31262914D01*
X78261905Y-31262914D02*
X78309524Y-31167676D01*
X78309524Y-31167676D02*
X78404762Y-31072438D01*
X78404762Y-31072438D02*
X78547619Y-31024819D01*
X78547619Y-31024819D02*
X78642857Y-31024819D01*
X78642857Y-31024819D02*
X78785714Y-31072438D01*
X78785714Y-31072438D02*
X78833333Y-31120057D01*
X79309524Y-32024819D02*
X79500000Y-32024819D01*
X79500000Y-32024819D02*
X79595238Y-31977200D01*
X79595238Y-31977200D02*
X79642857Y-31929580D01*
X79642857Y-31929580D02*
X79738095Y-31786723D01*
X79738095Y-31786723D02*
X79785714Y-31596247D01*
X79785714Y-31596247D02*
X79785714Y-31215295D01*
X79785714Y-31215295D02*
X79738095Y-31120057D01*
X79738095Y-31120057D02*
X79690476Y-31072438D01*
X79690476Y-31072438D02*
X79595238Y-31024819D01*
X79595238Y-31024819D02*
X79404762Y-31024819D01*
X79404762Y-31024819D02*
X79309524Y-31072438D01*
X79309524Y-31072438D02*
X79261905Y-31120057D01*
X79261905Y-31120057D02*
X79214286Y-31215295D01*
X79214286Y-31215295D02*
X79214286Y-31453390D01*
X79214286Y-31453390D02*
X79261905Y-31548628D01*
X79261905Y-31548628D02*
X79309524Y-31596247D01*
X79309524Y-31596247D02*
X79404762Y-31643866D01*
X79404762Y-31643866D02*
X79595238Y-31643866D01*
X79595238Y-31643866D02*
X79690476Y-31596247D01*
X79690476Y-31596247D02*
X79738095Y-31548628D01*
X79738095Y-31548628D02*
X79785714Y-31453390D01*
X23916667Y-17357200D02*
X24059524Y-17404819D01*
X24059524Y-17404819D02*
X24297619Y-17404819D01*
X24297619Y-17404819D02*
X24392857Y-17357200D01*
X24392857Y-17357200D02*
X24440476Y-17309580D01*
X24440476Y-17309580D02*
X24488095Y-17214342D01*
X24488095Y-17214342D02*
X24488095Y-17119104D01*
X24488095Y-17119104D02*
X24440476Y-17023866D01*
X24440476Y-17023866D02*
X24392857Y-16976247D01*
X24392857Y-16976247D02*
X24297619Y-16928628D01*
X24297619Y-16928628D02*
X24107143Y-16881009D01*
X24107143Y-16881009D02*
X24011905Y-16833390D01*
X24011905Y-16833390D02*
X23964286Y-16785771D01*
X23964286Y-16785771D02*
X23916667Y-16690533D01*
X23916667Y-16690533D02*
X23916667Y-16595295D01*
X23916667Y-16595295D02*
X23964286Y-16500057D01*
X23964286Y-16500057D02*
X24011905Y-16452438D01*
X24011905Y-16452438D02*
X24107143Y-16404819D01*
X24107143Y-16404819D02*
X24345238Y-16404819D01*
X24345238Y-16404819D02*
X24488095Y-16452438D01*
X24821429Y-16404819D02*
X25059524Y-17404819D01*
X25059524Y-17404819D02*
X25250000Y-16690533D01*
X25250000Y-16690533D02*
X25440476Y-17404819D01*
X25440476Y-17404819D02*
X25678572Y-16404819D01*
X26583333Y-17404819D02*
X26011905Y-17404819D01*
X26297619Y-17404819D02*
X26297619Y-16404819D01*
X26297619Y-16404819D02*
X26202381Y-16547676D01*
X26202381Y-16547676D02*
X26107143Y-16642914D01*
X26107143Y-16642914D02*
X26011905Y-16690533D01*
X101666667Y845180D02*
X101666667Y1845180D01*
X101666667Y1845180D02*
X102000000Y1130895D01*
X102000000Y1130895D02*
X102333333Y1845180D01*
X102333333Y1845180D02*
X102333333Y845180D01*
X102809524Y845180D02*
X102809524Y1845180D01*
X102809524Y1368990D02*
X103380952Y1368990D01*
X103380952Y845180D02*
X103380952Y1845180D01*
X103809524Y1749942D02*
X103857143Y1797561D01*
X103857143Y1797561D02*
X103952381Y1845180D01*
X103952381Y1845180D02*
X104190476Y1845180D01*
X104190476Y1845180D02*
X104285714Y1797561D01*
X104285714Y1797561D02*
X104333333Y1749942D01*
X104333333Y1749942D02*
X104380952Y1654704D01*
X104380952Y1654704D02*
X104380952Y1559466D01*
X104380952Y1559466D02*
X104333333Y1416609D01*
X104333333Y1416609D02*
X103761905Y845180D01*
X103761905Y845180D02*
X104380952Y845180D01*
X66833333Y-31929580D02*
X66785714Y-31977200D01*
X66785714Y-31977200D02*
X66642857Y-32024819D01*
X66642857Y-32024819D02*
X66547619Y-32024819D01*
X66547619Y-32024819D02*
X66404762Y-31977200D01*
X66404762Y-31977200D02*
X66309524Y-31881961D01*
X66309524Y-31881961D02*
X66261905Y-31786723D01*
X66261905Y-31786723D02*
X66214286Y-31596247D01*
X66214286Y-31596247D02*
X66214286Y-31453390D01*
X66214286Y-31453390D02*
X66261905Y-31262914D01*
X66261905Y-31262914D02*
X66309524Y-31167676D01*
X66309524Y-31167676D02*
X66404762Y-31072438D01*
X66404762Y-31072438D02*
X66547619Y-31024819D01*
X66547619Y-31024819D02*
X66642857Y-31024819D01*
X66642857Y-31024819D02*
X66785714Y-31072438D01*
X66785714Y-31072438D02*
X66833333Y-31120057D01*
X67690476Y-31024819D02*
X67500000Y-31024819D01*
X67500000Y-31024819D02*
X67404762Y-31072438D01*
X67404762Y-31072438D02*
X67357143Y-31120057D01*
X67357143Y-31120057D02*
X67261905Y-31262914D01*
X67261905Y-31262914D02*
X67214286Y-31453390D01*
X67214286Y-31453390D02*
X67214286Y-31834342D01*
X67214286Y-31834342D02*
X67261905Y-31929580D01*
X67261905Y-31929580D02*
X67309524Y-31977200D01*
X67309524Y-31977200D02*
X67404762Y-32024819D01*
X67404762Y-32024819D02*
X67595238Y-32024819D01*
X67595238Y-32024819D02*
X67690476Y-31977200D01*
X67690476Y-31977200D02*
X67738095Y-31929580D01*
X67738095Y-31929580D02*
X67785714Y-31834342D01*
X67785714Y-31834342D02*
X67785714Y-31596247D01*
X67785714Y-31596247D02*
X67738095Y-31501009D01*
X67738095Y-31501009D02*
X67690476Y-31453390D01*
X67690476Y-31453390D02*
X67595238Y-31405771D01*
X67595238Y-31405771D02*
X67404762Y-31405771D01*
X67404762Y-31405771D02*
X67309524Y-31453390D01*
X67309524Y-31453390D02*
X67261905Y-31501009D01*
X67261905Y-31501009D02*
X67214286Y-31596247D01*
X24833333Y-32024819D02*
X24500000Y-31548628D01*
X24261905Y-32024819D02*
X24261905Y-31024819D01*
X24261905Y-31024819D02*
X24642857Y-31024819D01*
X24642857Y-31024819D02*
X24738095Y-31072438D01*
X24738095Y-31072438D02*
X24785714Y-31120057D01*
X24785714Y-31120057D02*
X24833333Y-31215295D01*
X24833333Y-31215295D02*
X24833333Y-31358152D01*
X24833333Y-31358152D02*
X24785714Y-31453390D01*
X24785714Y-31453390D02*
X24738095Y-31501009D01*
X24738095Y-31501009D02*
X24642857Y-31548628D01*
X24642857Y-31548628D02*
X24261905Y-31548628D01*
X25404762Y-31453390D02*
X25309524Y-31405771D01*
X25309524Y-31405771D02*
X25261905Y-31358152D01*
X25261905Y-31358152D02*
X25214286Y-31262914D01*
X25214286Y-31262914D02*
X25214286Y-31215295D01*
X25214286Y-31215295D02*
X25261905Y-31120057D01*
X25261905Y-31120057D02*
X25309524Y-31072438D01*
X25309524Y-31072438D02*
X25404762Y-31024819D01*
X25404762Y-31024819D02*
X25595238Y-31024819D01*
X25595238Y-31024819D02*
X25690476Y-31072438D01*
X25690476Y-31072438D02*
X25738095Y-31120057D01*
X25738095Y-31120057D02*
X25785714Y-31215295D01*
X25785714Y-31215295D02*
X25785714Y-31262914D01*
X25785714Y-31262914D02*
X25738095Y-31358152D01*
X25738095Y-31358152D02*
X25690476Y-31405771D01*
X25690476Y-31405771D02*
X25595238Y-31453390D01*
X25595238Y-31453390D02*
X25404762Y-31453390D01*
X25404762Y-31453390D02*
X25309524Y-31501009D01*
X25309524Y-31501009D02*
X25261905Y-31548628D01*
X25261905Y-31548628D02*
X25214286Y-31643866D01*
X25214286Y-31643866D02*
X25214286Y-31834342D01*
X25214286Y-31834342D02*
X25261905Y-31929580D01*
X25261905Y-31929580D02*
X25309524Y-31977200D01*
X25309524Y-31977200D02*
X25404762Y-32024819D01*
X25404762Y-32024819D02*
X25595238Y-32024819D01*
X25595238Y-32024819D02*
X25690476Y-31977200D01*
X25690476Y-31977200D02*
X25738095Y-31929580D01*
X25738095Y-31929580D02*
X25785714Y-31834342D01*
X25785714Y-31834342D02*
X25785714Y-31643866D01*
X25785714Y-31643866D02*
X25738095Y-31548628D01*
X25738095Y-31548628D02*
X25690476Y-31501009D01*
X25690476Y-31501009D02*
X25595238Y-31453390D01*
X12404762Y-30907200D02*
X12547619Y-30954819D01*
X12547619Y-30954819D02*
X12785714Y-30954819D01*
X12785714Y-30954819D02*
X12880952Y-30907200D01*
X12880952Y-30907200D02*
X12928571Y-30859580D01*
X12928571Y-30859580D02*
X12976190Y-30764342D01*
X12976190Y-30764342D02*
X12976190Y-30669104D01*
X12976190Y-30669104D02*
X12928571Y-30573866D01*
X12928571Y-30573866D02*
X12880952Y-30526247D01*
X12880952Y-30526247D02*
X12785714Y-30478628D01*
X12785714Y-30478628D02*
X12595238Y-30431009D01*
X12595238Y-30431009D02*
X12500000Y-30383390D01*
X12500000Y-30383390D02*
X12452381Y-30335771D01*
X12452381Y-30335771D02*
X12404762Y-30240533D01*
X12404762Y-30240533D02*
X12404762Y-30145295D01*
X12404762Y-30145295D02*
X12452381Y-30050057D01*
X12452381Y-30050057D02*
X12500000Y-30002438D01*
X12500000Y-30002438D02*
X12595238Y-29954819D01*
X12595238Y-29954819D02*
X12833333Y-29954819D01*
X12833333Y-29954819D02*
X12976190Y-30002438D01*
X13309524Y-29954819D02*
X13547619Y-30954819D01*
X13547619Y-30954819D02*
X13738095Y-30240533D01*
X13738095Y-30240533D02*
X13928571Y-30954819D01*
X13928571Y-30954819D02*
X14166667Y-29954819D01*
X14309524Y-31050057D02*
X15071428Y-31050057D01*
X15880952Y-30954819D02*
X15547619Y-30478628D01*
X15309524Y-30954819D02*
X15309524Y-29954819D01*
X15309524Y-29954819D02*
X15690476Y-29954819D01*
X15690476Y-29954819D02*
X15785714Y-30002438D01*
X15785714Y-30002438D02*
X15833333Y-30050057D01*
X15833333Y-30050057D02*
X15880952Y-30145295D01*
X15880952Y-30145295D02*
X15880952Y-30288152D01*
X15880952Y-30288152D02*
X15833333Y-30383390D01*
X15833333Y-30383390D02*
X15785714Y-30431009D01*
X15785714Y-30431009D02*
X15690476Y-30478628D01*
X15690476Y-30478628D02*
X15309524Y-30478628D01*
X16261905Y-30907200D02*
X16404762Y-30954819D01*
X16404762Y-30954819D02*
X16642857Y-30954819D01*
X16642857Y-30954819D02*
X16738095Y-30907200D01*
X16738095Y-30907200D02*
X16785714Y-30859580D01*
X16785714Y-30859580D02*
X16833333Y-30764342D01*
X16833333Y-30764342D02*
X16833333Y-30669104D01*
X16833333Y-30669104D02*
X16785714Y-30573866D01*
X16785714Y-30573866D02*
X16738095Y-30526247D01*
X16738095Y-30526247D02*
X16642857Y-30478628D01*
X16642857Y-30478628D02*
X16452381Y-30431009D01*
X16452381Y-30431009D02*
X16357143Y-30383390D01*
X16357143Y-30383390D02*
X16309524Y-30335771D01*
X16309524Y-30335771D02*
X16261905Y-30240533D01*
X16261905Y-30240533D02*
X16261905Y-30145295D01*
X16261905Y-30145295D02*
X16309524Y-30050057D01*
X16309524Y-30050057D02*
X16357143Y-30002438D01*
X16357143Y-30002438D02*
X16452381Y-29954819D01*
X16452381Y-29954819D02*
X16690476Y-29954819D01*
X16690476Y-29954819D02*
X16833333Y-30002438D01*
X17119048Y-29954819D02*
X17690476Y-29954819D01*
X17404762Y-30954819D02*
X17404762Y-29954819D01*
X30833333Y-31929580D02*
X30785714Y-31977200D01*
X30785714Y-31977200D02*
X30642857Y-32024819D01*
X30642857Y-32024819D02*
X30547619Y-32024819D01*
X30547619Y-32024819D02*
X30404762Y-31977200D01*
X30404762Y-31977200D02*
X30309524Y-31881961D01*
X30309524Y-31881961D02*
X30261905Y-31786723D01*
X30261905Y-31786723D02*
X30214286Y-31596247D01*
X30214286Y-31596247D02*
X30214286Y-31453390D01*
X30214286Y-31453390D02*
X30261905Y-31262914D01*
X30261905Y-31262914D02*
X30309524Y-31167676D01*
X30309524Y-31167676D02*
X30404762Y-31072438D01*
X30404762Y-31072438D02*
X30547619Y-31024819D01*
X30547619Y-31024819D02*
X30642857Y-31024819D01*
X30642857Y-31024819D02*
X30785714Y-31072438D01*
X30785714Y-31072438D02*
X30833333Y-31120057D01*
X31404762Y-31453390D02*
X31309524Y-31405771D01*
X31309524Y-31405771D02*
X31261905Y-31358152D01*
X31261905Y-31358152D02*
X31214286Y-31262914D01*
X31214286Y-31262914D02*
X31214286Y-31215295D01*
X31214286Y-31215295D02*
X31261905Y-31120057D01*
X31261905Y-31120057D02*
X31309524Y-31072438D01*
X31309524Y-31072438D02*
X31404762Y-31024819D01*
X31404762Y-31024819D02*
X31595238Y-31024819D01*
X31595238Y-31024819D02*
X31690476Y-31072438D01*
X31690476Y-31072438D02*
X31738095Y-31120057D01*
X31738095Y-31120057D02*
X31785714Y-31215295D01*
X31785714Y-31215295D02*
X31785714Y-31262914D01*
X31785714Y-31262914D02*
X31738095Y-31358152D01*
X31738095Y-31358152D02*
X31690476Y-31405771D01*
X31690476Y-31405771D02*
X31595238Y-31453390D01*
X31595238Y-31453390D02*
X31404762Y-31453390D01*
X31404762Y-31453390D02*
X31309524Y-31501009D01*
X31309524Y-31501009D02*
X31261905Y-31548628D01*
X31261905Y-31548628D02*
X31214286Y-31643866D01*
X31214286Y-31643866D02*
X31214286Y-31834342D01*
X31214286Y-31834342D02*
X31261905Y-31929580D01*
X31261905Y-31929580D02*
X31309524Y-31977200D01*
X31309524Y-31977200D02*
X31404762Y-32024819D01*
X31404762Y-32024819D02*
X31595238Y-32024819D01*
X31595238Y-32024819D02*
X31690476Y-31977200D01*
X31690476Y-31977200D02*
X31738095Y-31929580D01*
X31738095Y-31929580D02*
X31785714Y-31834342D01*
X31785714Y-31834342D02*
X31785714Y-31643866D01*
X31785714Y-31643866D02*
X31738095Y-31548628D01*
X31738095Y-31548628D02*
X31690476Y-31501009D01*
X31690476Y-31501009D02*
X31595238Y-31453390D01*
X36452380Y-2904819D02*
X36452380Y-3619104D01*
X36452380Y-3619104D02*
X36404761Y-3761961D01*
X36404761Y-3761961D02*
X36309523Y-3857200D01*
X36309523Y-3857200D02*
X36166666Y-3904819D01*
X36166666Y-3904819D02*
X36071428Y-3904819D01*
X36690476Y-4000057D02*
X37452380Y-4000057D01*
X38023809Y-3381009D02*
X38166666Y-3428628D01*
X38166666Y-3428628D02*
X38214285Y-3476247D01*
X38214285Y-3476247D02*
X38261904Y-3571485D01*
X38261904Y-3571485D02*
X38261904Y-3714342D01*
X38261904Y-3714342D02*
X38214285Y-3809580D01*
X38214285Y-3809580D02*
X38166666Y-3857200D01*
X38166666Y-3857200D02*
X38071428Y-3904819D01*
X38071428Y-3904819D02*
X37690476Y-3904819D01*
X37690476Y-3904819D02*
X37690476Y-2904819D01*
X37690476Y-2904819D02*
X38023809Y-2904819D01*
X38023809Y-2904819D02*
X38119047Y-2952438D01*
X38119047Y-2952438D02*
X38166666Y-3000057D01*
X38166666Y-3000057D02*
X38214285Y-3095295D01*
X38214285Y-3095295D02*
X38214285Y-3190533D01*
X38214285Y-3190533D02*
X38166666Y-3285771D01*
X38166666Y-3285771D02*
X38119047Y-3333390D01*
X38119047Y-3333390D02*
X38023809Y-3381009D01*
X38023809Y-3381009D02*
X37690476Y-3381009D01*
X38642857Y-3619104D02*
X39119047Y-3619104D01*
X38547619Y-3904819D02*
X38880952Y-2904819D01*
X38880952Y-2904819D02*
X39214285Y-3904819D01*
X39404762Y-2904819D02*
X39976190Y-2904819D01*
X39690476Y-3904819D02*
X39690476Y-2904819D01*
X60833333Y-31929580D02*
X60785714Y-31977200D01*
X60785714Y-31977200D02*
X60642857Y-32024819D01*
X60642857Y-32024819D02*
X60547619Y-32024819D01*
X60547619Y-32024819D02*
X60404762Y-31977200D01*
X60404762Y-31977200D02*
X60309524Y-31881961D01*
X60309524Y-31881961D02*
X60261905Y-31786723D01*
X60261905Y-31786723D02*
X60214286Y-31596247D01*
X60214286Y-31596247D02*
X60214286Y-31453390D01*
X60214286Y-31453390D02*
X60261905Y-31262914D01*
X60261905Y-31262914D02*
X60309524Y-31167676D01*
X60309524Y-31167676D02*
X60404762Y-31072438D01*
X60404762Y-31072438D02*
X60547619Y-31024819D01*
X60547619Y-31024819D02*
X60642857Y-31024819D01*
X60642857Y-31024819D02*
X60785714Y-31072438D01*
X60785714Y-31072438D02*
X60833333Y-31120057D01*
X61738095Y-31024819D02*
X61261905Y-31024819D01*
X61261905Y-31024819D02*
X61214286Y-31501009D01*
X61214286Y-31501009D02*
X61261905Y-31453390D01*
X61261905Y-31453390D02*
X61357143Y-31405771D01*
X61357143Y-31405771D02*
X61595238Y-31405771D01*
X61595238Y-31405771D02*
X61690476Y-31453390D01*
X61690476Y-31453390D02*
X61738095Y-31501009D01*
X61738095Y-31501009D02*
X61785714Y-31596247D01*
X61785714Y-31596247D02*
X61785714Y-31834342D01*
X61785714Y-31834342D02*
X61738095Y-31929580D01*
X61738095Y-31929580D02*
X61690476Y-31977200D01*
X61690476Y-31977200D02*
X61595238Y-32024819D01*
X61595238Y-32024819D02*
X61357143Y-32024819D01*
X61357143Y-32024819D02*
X61261905Y-31977200D01*
X61261905Y-31977200D02*
X61214286Y-31929580D01*
X84357142Y-31929580D02*
X84309523Y-31977200D01*
X84309523Y-31977200D02*
X84166666Y-32024819D01*
X84166666Y-32024819D02*
X84071428Y-32024819D01*
X84071428Y-32024819D02*
X83928571Y-31977200D01*
X83928571Y-31977200D02*
X83833333Y-31881961D01*
X83833333Y-31881961D02*
X83785714Y-31786723D01*
X83785714Y-31786723D02*
X83738095Y-31596247D01*
X83738095Y-31596247D02*
X83738095Y-31453390D01*
X83738095Y-31453390D02*
X83785714Y-31262914D01*
X83785714Y-31262914D02*
X83833333Y-31167676D01*
X83833333Y-31167676D02*
X83928571Y-31072438D01*
X83928571Y-31072438D02*
X84071428Y-31024819D01*
X84071428Y-31024819D02*
X84166666Y-31024819D01*
X84166666Y-31024819D02*
X84309523Y-31072438D01*
X84309523Y-31072438D02*
X84357142Y-31120057D01*
X85309523Y-32024819D02*
X84738095Y-32024819D01*
X85023809Y-32024819D02*
X85023809Y-31024819D01*
X85023809Y-31024819D02*
X84928571Y-31167676D01*
X84928571Y-31167676D02*
X84833333Y-31262914D01*
X84833333Y-31262914D02*
X84738095Y-31310533D01*
X85928571Y-31024819D02*
X86023809Y-31024819D01*
X86023809Y-31024819D02*
X86119047Y-31072438D01*
X86119047Y-31072438D02*
X86166666Y-31120057D01*
X86166666Y-31120057D02*
X86214285Y-31215295D01*
X86214285Y-31215295D02*
X86261904Y-31405771D01*
X86261904Y-31405771D02*
X86261904Y-31643866D01*
X86261904Y-31643866D02*
X86214285Y-31834342D01*
X86214285Y-31834342D02*
X86166666Y-31929580D01*
X86166666Y-31929580D02*
X86119047Y-31977200D01*
X86119047Y-31977200D02*
X86023809Y-32024819D01*
X86023809Y-32024819D02*
X85928571Y-32024819D01*
X85928571Y-32024819D02*
X85833333Y-31977200D01*
X85833333Y-31977200D02*
X85785714Y-31929580D01*
X85785714Y-31929580D02*
X85738095Y-31834342D01*
X85738095Y-31834342D02*
X85690476Y-31643866D01*
X85690476Y-31643866D02*
X85690476Y-31405771D01*
X85690476Y-31405771D02*
X85738095Y-31215295D01*
X85738095Y-31215295D02*
X85785714Y-31120057D01*
X85785714Y-31120057D02*
X85833333Y-31072438D01*
X85833333Y-31072438D02*
X85928571Y-31024819D01*
X72833333Y-4929580D02*
X72785714Y-4977200D01*
X72785714Y-4977200D02*
X72642857Y-5024819D01*
X72642857Y-5024819D02*
X72547619Y-5024819D01*
X72547619Y-5024819D02*
X72404762Y-4977200D01*
X72404762Y-4977200D02*
X72309524Y-4881961D01*
X72309524Y-4881961D02*
X72261905Y-4786723D01*
X72261905Y-4786723D02*
X72214286Y-4596247D01*
X72214286Y-4596247D02*
X72214286Y-4453390D01*
X72214286Y-4453390D02*
X72261905Y-4262914D01*
X72261905Y-4262914D02*
X72309524Y-4167676D01*
X72309524Y-4167676D02*
X72404762Y-4072438D01*
X72404762Y-4072438D02*
X72547619Y-4024819D01*
X72547619Y-4024819D02*
X72642857Y-4024819D01*
X72642857Y-4024819D02*
X72785714Y-4072438D01*
X72785714Y-4072438D02*
X72833333Y-4120057D01*
X73690476Y-4358152D02*
X73690476Y-5024819D01*
X73452381Y-3977200D02*
X73214286Y-4691485D01*
X73214286Y-4691485D02*
X73833333Y-4691485D01*
X60833333Y-4929580D02*
X60785714Y-4977200D01*
X60785714Y-4977200D02*
X60642857Y-5024819D01*
X60642857Y-5024819D02*
X60547619Y-5024819D01*
X60547619Y-5024819D02*
X60404762Y-4977200D01*
X60404762Y-4977200D02*
X60309524Y-4881961D01*
X60309524Y-4881961D02*
X60261905Y-4786723D01*
X60261905Y-4786723D02*
X60214286Y-4596247D01*
X60214286Y-4596247D02*
X60214286Y-4453390D01*
X60214286Y-4453390D02*
X60261905Y-4262914D01*
X60261905Y-4262914D02*
X60309524Y-4167676D01*
X60309524Y-4167676D02*
X60404762Y-4072438D01*
X60404762Y-4072438D02*
X60547619Y-4024819D01*
X60547619Y-4024819D02*
X60642857Y-4024819D01*
X60642857Y-4024819D02*
X60785714Y-4072438D01*
X60785714Y-4072438D02*
X60833333Y-4120057D01*
X61166667Y-4024819D02*
X61785714Y-4024819D01*
X61785714Y-4024819D02*
X61452381Y-4405771D01*
X61452381Y-4405771D02*
X61595238Y-4405771D01*
X61595238Y-4405771D02*
X61690476Y-4453390D01*
X61690476Y-4453390D02*
X61738095Y-4501009D01*
X61738095Y-4501009D02*
X61785714Y-4596247D01*
X61785714Y-4596247D02*
X61785714Y-4834342D01*
X61785714Y-4834342D02*
X61738095Y-4929580D01*
X61738095Y-4929580D02*
X61690476Y-4977200D01*
X61690476Y-4977200D02*
X61595238Y-5024819D01*
X61595238Y-5024819D02*
X61309524Y-5024819D01*
X61309524Y-5024819D02*
X61214286Y-4977200D01*
X61214286Y-4977200D02*
X61166667Y-4929580D01*
X23901272Y-3754819D02*
X23567939Y-3278628D01*
X23329844Y-3754819D02*
X23329844Y-2754819D01*
X23329844Y-2754819D02*
X23710796Y-2754819D01*
X23710796Y-2754819D02*
X23806034Y-2802438D01*
X23806034Y-2802438D02*
X23853653Y-2850057D01*
X23853653Y-2850057D02*
X23901272Y-2945295D01*
X23901272Y-2945295D02*
X23901272Y-3088152D01*
X23901272Y-3088152D02*
X23853653Y-3183390D01*
X23853653Y-3183390D02*
X23806034Y-3231009D01*
X23806034Y-3231009D02*
X23710796Y-3278628D01*
X23710796Y-3278628D02*
X23329844Y-3278628D01*
X24329844Y-3231009D02*
X24663177Y-3231009D01*
X24806034Y-3754819D02*
X24329844Y-3754819D01*
X24329844Y-3754819D02*
X24329844Y-2754819D01*
X24329844Y-2754819D02*
X24806034Y-2754819D01*
X25758415Y-2802438D02*
X25663177Y-2754819D01*
X25663177Y-2754819D02*
X25520320Y-2754819D01*
X25520320Y-2754819D02*
X25377463Y-2802438D01*
X25377463Y-2802438D02*
X25282225Y-2897676D01*
X25282225Y-2897676D02*
X25234606Y-2992914D01*
X25234606Y-2992914D02*
X25186987Y-3183390D01*
X25186987Y-3183390D02*
X25186987Y-3326247D01*
X25186987Y-3326247D02*
X25234606Y-3516723D01*
X25234606Y-3516723D02*
X25282225Y-3611961D01*
X25282225Y-3611961D02*
X25377463Y-3707200D01*
X25377463Y-3707200D02*
X25520320Y-3754819D01*
X25520320Y-3754819D02*
X25615558Y-3754819D01*
X25615558Y-3754819D02*
X25758415Y-3707200D01*
X25758415Y-3707200D02*
X25806034Y-3659580D01*
X25806034Y-3659580D02*
X25806034Y-3326247D01*
X25806034Y-3326247D02*
X25615558Y-3326247D01*
X26758415Y-3754819D02*
X26186987Y-3754819D01*
X26472701Y-3754819D02*
X26472701Y-2754819D01*
X26472701Y-2754819D02*
X26377463Y-2897676D01*
X26377463Y-2897676D02*
X26282225Y-2992914D01*
X26282225Y-2992914D02*
X26186987Y-3040533D01*
X90833333Y-5024819D02*
X90500000Y-4548628D01*
X90261905Y-5024819D02*
X90261905Y-4024819D01*
X90261905Y-4024819D02*
X90642857Y-4024819D01*
X90642857Y-4024819D02*
X90738095Y-4072438D01*
X90738095Y-4072438D02*
X90785714Y-4120057D01*
X90785714Y-4120057D02*
X90833333Y-4215295D01*
X90833333Y-4215295D02*
X90833333Y-4358152D01*
X90833333Y-4358152D02*
X90785714Y-4453390D01*
X90785714Y-4453390D02*
X90738095Y-4501009D01*
X90738095Y-4501009D02*
X90642857Y-4548628D01*
X90642857Y-4548628D02*
X90261905Y-4548628D01*
X91166667Y-4024819D02*
X91833333Y-4024819D01*
X91833333Y-4024819D02*
X91404762Y-5024819D01*
X54833333Y-32024819D02*
X54500000Y-31548628D01*
X54261905Y-32024819D02*
X54261905Y-31024819D01*
X54261905Y-31024819D02*
X54642857Y-31024819D01*
X54642857Y-31024819D02*
X54738095Y-31072438D01*
X54738095Y-31072438D02*
X54785714Y-31120057D01*
X54785714Y-31120057D02*
X54833333Y-31215295D01*
X54833333Y-31215295D02*
X54833333Y-31358152D01*
X54833333Y-31358152D02*
X54785714Y-31453390D01*
X54785714Y-31453390D02*
X54738095Y-31501009D01*
X54738095Y-31501009D02*
X54642857Y-31548628D01*
X54642857Y-31548628D02*
X54261905Y-31548628D01*
X55690476Y-31024819D02*
X55500000Y-31024819D01*
X55500000Y-31024819D02*
X55404762Y-31072438D01*
X55404762Y-31072438D02*
X55357143Y-31120057D01*
X55357143Y-31120057D02*
X55261905Y-31262914D01*
X55261905Y-31262914D02*
X55214286Y-31453390D01*
X55214286Y-31453390D02*
X55214286Y-31834342D01*
X55214286Y-31834342D02*
X55261905Y-31929580D01*
X55261905Y-31929580D02*
X55309524Y-31977200D01*
X55309524Y-31977200D02*
X55404762Y-32024819D01*
X55404762Y-32024819D02*
X55595238Y-32024819D01*
X55595238Y-32024819D02*
X55690476Y-31977200D01*
X55690476Y-31977200D02*
X55738095Y-31929580D01*
X55738095Y-31929580D02*
X55785714Y-31834342D01*
X55785714Y-31834342D02*
X55785714Y-31596247D01*
X55785714Y-31596247D02*
X55738095Y-31501009D01*
X55738095Y-31501009D02*
X55690476Y-31453390D01*
X55690476Y-31453390D02*
X55595238Y-31405771D01*
X55595238Y-31405771D02*
X55404762Y-31405771D01*
X55404762Y-31405771D02*
X55309524Y-31453390D01*
X55309524Y-31453390D02*
X55261905Y-31501009D01*
X55261905Y-31501009D02*
X55214286Y-31596247D01*
X96833333Y-30907200D02*
X96976190Y-30954819D01*
X96976190Y-30954819D02*
X97214285Y-30954819D01*
X97214285Y-30954819D02*
X97309523Y-30907200D01*
X97309523Y-30907200D02*
X97357142Y-30859580D01*
X97357142Y-30859580D02*
X97404761Y-30764342D01*
X97404761Y-30764342D02*
X97404761Y-30669104D01*
X97404761Y-30669104D02*
X97357142Y-30573866D01*
X97357142Y-30573866D02*
X97309523Y-30526247D01*
X97309523Y-30526247D02*
X97214285Y-30478628D01*
X97214285Y-30478628D02*
X97023809Y-30431009D01*
X97023809Y-30431009D02*
X96928571Y-30383390D01*
X96928571Y-30383390D02*
X96880952Y-30335771D01*
X96880952Y-30335771D02*
X96833333Y-30240533D01*
X96833333Y-30240533D02*
X96833333Y-30145295D01*
X96833333Y-30145295D02*
X96880952Y-30050057D01*
X96880952Y-30050057D02*
X96928571Y-30002438D01*
X96928571Y-30002438D02*
X97023809Y-29954819D01*
X97023809Y-29954819D02*
X97261904Y-29954819D01*
X97261904Y-29954819D02*
X97404761Y-30002438D01*
X97738095Y-29954819D02*
X97976190Y-30954819D01*
X97976190Y-30954819D02*
X98166666Y-30240533D01*
X98166666Y-30240533D02*
X98357142Y-30954819D01*
X98357142Y-30954819D02*
X98595238Y-29954819D01*
X98738095Y-31050057D02*
X99499999Y-31050057D01*
X100071428Y-30431009D02*
X100214285Y-30478628D01*
X100214285Y-30478628D02*
X100261904Y-30526247D01*
X100261904Y-30526247D02*
X100309523Y-30621485D01*
X100309523Y-30621485D02*
X100309523Y-30764342D01*
X100309523Y-30764342D02*
X100261904Y-30859580D01*
X100261904Y-30859580D02*
X100214285Y-30907200D01*
X100214285Y-30907200D02*
X100119047Y-30954819D01*
X100119047Y-30954819D02*
X99738095Y-30954819D01*
X99738095Y-30954819D02*
X99738095Y-29954819D01*
X99738095Y-29954819D02*
X100071428Y-29954819D01*
X100071428Y-29954819D02*
X100166666Y-30002438D01*
X100166666Y-30002438D02*
X100214285Y-30050057D01*
X100214285Y-30050057D02*
X100261904Y-30145295D01*
X100261904Y-30145295D02*
X100261904Y-30240533D01*
X100261904Y-30240533D02*
X100214285Y-30335771D01*
X100214285Y-30335771D02*
X100166666Y-30383390D01*
X100166666Y-30383390D02*
X100071428Y-30431009D01*
X100071428Y-30431009D02*
X99738095Y-30431009D01*
X100928571Y-29954819D02*
X101119047Y-29954819D01*
X101119047Y-29954819D02*
X101214285Y-30002438D01*
X101214285Y-30002438D02*
X101309523Y-30097676D01*
X101309523Y-30097676D02*
X101357142Y-30288152D01*
X101357142Y-30288152D02*
X101357142Y-30621485D01*
X101357142Y-30621485D02*
X101309523Y-30811961D01*
X101309523Y-30811961D02*
X101214285Y-30907200D01*
X101214285Y-30907200D02*
X101119047Y-30954819D01*
X101119047Y-30954819D02*
X100928571Y-30954819D01*
X100928571Y-30954819D02*
X100833333Y-30907200D01*
X100833333Y-30907200D02*
X100738095Y-30811961D01*
X100738095Y-30811961D02*
X100690476Y-30621485D01*
X100690476Y-30621485D02*
X100690476Y-30288152D01*
X100690476Y-30288152D02*
X100738095Y-30097676D01*
X100738095Y-30097676D02*
X100833333Y-30002438D01*
X100833333Y-30002438D02*
X100928571Y-29954819D01*
X101976190Y-29954819D02*
X102166666Y-29954819D01*
X102166666Y-29954819D02*
X102261904Y-30002438D01*
X102261904Y-30002438D02*
X102357142Y-30097676D01*
X102357142Y-30097676D02*
X102404761Y-30288152D01*
X102404761Y-30288152D02*
X102404761Y-30621485D01*
X102404761Y-30621485D02*
X102357142Y-30811961D01*
X102357142Y-30811961D02*
X102261904Y-30907200D01*
X102261904Y-30907200D02*
X102166666Y-30954819D01*
X102166666Y-30954819D02*
X101976190Y-30954819D01*
X101976190Y-30954819D02*
X101880952Y-30907200D01*
X101880952Y-30907200D02*
X101785714Y-30811961D01*
X101785714Y-30811961D02*
X101738095Y-30621485D01*
X101738095Y-30621485D02*
X101738095Y-30288152D01*
X101738095Y-30288152D02*
X101785714Y-30097676D01*
X101785714Y-30097676D02*
X101880952Y-30002438D01*
X101880952Y-30002438D02*
X101976190Y-29954819D01*
X102690476Y-29954819D02*
X103261904Y-29954819D01*
X102976190Y-30954819D02*
X102976190Y-29954819D01*
X48916667Y-17357200D02*
X49059524Y-17404819D01*
X49059524Y-17404819D02*
X49297619Y-17404819D01*
X49297619Y-17404819D02*
X49392857Y-17357200D01*
X49392857Y-17357200D02*
X49440476Y-17309580D01*
X49440476Y-17309580D02*
X49488095Y-17214342D01*
X49488095Y-17214342D02*
X49488095Y-17119104D01*
X49488095Y-17119104D02*
X49440476Y-17023866D01*
X49440476Y-17023866D02*
X49392857Y-16976247D01*
X49392857Y-16976247D02*
X49297619Y-16928628D01*
X49297619Y-16928628D02*
X49107143Y-16881009D01*
X49107143Y-16881009D02*
X49011905Y-16833390D01*
X49011905Y-16833390D02*
X48964286Y-16785771D01*
X48964286Y-16785771D02*
X48916667Y-16690533D01*
X48916667Y-16690533D02*
X48916667Y-16595295D01*
X48916667Y-16595295D02*
X48964286Y-16500057D01*
X48964286Y-16500057D02*
X49011905Y-16452438D01*
X49011905Y-16452438D02*
X49107143Y-16404819D01*
X49107143Y-16404819D02*
X49345238Y-16404819D01*
X49345238Y-16404819D02*
X49488095Y-16452438D01*
X49821429Y-16404819D02*
X50059524Y-17404819D01*
X50059524Y-17404819D02*
X50250000Y-16690533D01*
X50250000Y-16690533D02*
X50440476Y-17404819D01*
X50440476Y-17404819D02*
X50678572Y-16404819D01*
X51011905Y-16500057D02*
X51059524Y-16452438D01*
X51059524Y-16452438D02*
X51154762Y-16404819D01*
X51154762Y-16404819D02*
X51392857Y-16404819D01*
X51392857Y-16404819D02*
X51488095Y-16452438D01*
X51488095Y-16452438D02*
X51535714Y-16500057D01*
X51535714Y-16500057D02*
X51583333Y-16595295D01*
X51583333Y-16595295D02*
X51583333Y-16690533D01*
X51583333Y-16690533D02*
X51535714Y-16833390D01*
X51535714Y-16833390D02*
X50964286Y-17404819D01*
X50964286Y-17404819D02*
X51583333Y-17404819D01*
X48833333Y-32024819D02*
X48500000Y-31548628D01*
X48261905Y-32024819D02*
X48261905Y-31024819D01*
X48261905Y-31024819D02*
X48642857Y-31024819D01*
X48642857Y-31024819D02*
X48738095Y-31072438D01*
X48738095Y-31072438D02*
X48785714Y-31120057D01*
X48785714Y-31120057D02*
X48833333Y-31215295D01*
X48833333Y-31215295D02*
X48833333Y-31358152D01*
X48833333Y-31358152D02*
X48785714Y-31453390D01*
X48785714Y-31453390D02*
X48738095Y-31501009D01*
X48738095Y-31501009D02*
X48642857Y-31548628D01*
X48642857Y-31548628D02*
X48261905Y-31548628D01*
X49738095Y-31024819D02*
X49261905Y-31024819D01*
X49261905Y-31024819D02*
X49214286Y-31501009D01*
X49214286Y-31501009D02*
X49261905Y-31453390D01*
X49261905Y-31453390D02*
X49357143Y-31405771D01*
X49357143Y-31405771D02*
X49595238Y-31405771D01*
X49595238Y-31405771D02*
X49690476Y-31453390D01*
X49690476Y-31453390D02*
X49738095Y-31501009D01*
X49738095Y-31501009D02*
X49785714Y-31596247D01*
X49785714Y-31596247D02*
X49785714Y-31834342D01*
X49785714Y-31834342D02*
X49738095Y-31929580D01*
X49738095Y-31929580D02*
X49690476Y-31977200D01*
X49690476Y-31977200D02*
X49595238Y-32024819D01*
X49595238Y-32024819D02*
X49357143Y-32024819D01*
X49357143Y-32024819D02*
X49261905Y-31977200D01*
X49261905Y-31977200D02*
X49214286Y-31929580D01*
X6738095Y-25045180D02*
X6738095Y-24330895D01*
X6738095Y-24330895D02*
X6785714Y-24188038D01*
X6785714Y-24188038D02*
X6880952Y-24092800D01*
X6880952Y-24092800D02*
X7023809Y-24045180D01*
X7023809Y-24045180D02*
X7119047Y-24045180D01*
X6500000Y-23949942D02*
X5738095Y-23949942D01*
X5499999Y-25045180D02*
X5499999Y-24235657D01*
X5499999Y-24235657D02*
X5452380Y-24140419D01*
X5452380Y-24140419D02*
X5404761Y-24092800D01*
X5404761Y-24092800D02*
X5309523Y-24045180D01*
X5309523Y-24045180D02*
X5119047Y-24045180D01*
X5119047Y-24045180D02*
X5023809Y-24092800D01*
X5023809Y-24092800D02*
X4976190Y-24140419D01*
X4976190Y-24140419D02*
X4928571Y-24235657D01*
X4928571Y-24235657D02*
X4928571Y-25045180D01*
X4499999Y-24092800D02*
X4357142Y-24045180D01*
X4357142Y-24045180D02*
X4119047Y-24045180D01*
X4119047Y-24045180D02*
X4023809Y-24092800D01*
X4023809Y-24092800D02*
X3976190Y-24140419D01*
X3976190Y-24140419D02*
X3928571Y-24235657D01*
X3928571Y-24235657D02*
X3928571Y-24330895D01*
X3928571Y-24330895D02*
X3976190Y-24426133D01*
X3976190Y-24426133D02*
X4023809Y-24473752D01*
X4023809Y-24473752D02*
X4119047Y-24521371D01*
X4119047Y-24521371D02*
X4309523Y-24568990D01*
X4309523Y-24568990D02*
X4404761Y-24616609D01*
X4404761Y-24616609D02*
X4452380Y-24664228D01*
X4452380Y-24664228D02*
X4499999Y-24759466D01*
X4499999Y-24759466D02*
X4499999Y-24854704D01*
X4499999Y-24854704D02*
X4452380Y-24949942D01*
X4452380Y-24949942D02*
X4404761Y-24997561D01*
X4404761Y-24997561D02*
X4309523Y-25045180D01*
X4309523Y-25045180D02*
X4071428Y-25045180D01*
X4071428Y-25045180D02*
X3928571Y-24997561D01*
X3166666Y-24568990D02*
X3023809Y-24521371D01*
X3023809Y-24521371D02*
X2976190Y-24473752D01*
X2976190Y-24473752D02*
X2928571Y-24378514D01*
X2928571Y-24378514D02*
X2928571Y-24235657D01*
X2928571Y-24235657D02*
X2976190Y-24140419D01*
X2976190Y-24140419D02*
X3023809Y-24092800D01*
X3023809Y-24092800D02*
X3119047Y-24045180D01*
X3119047Y-24045180D02*
X3499999Y-24045180D01*
X3499999Y-24045180D02*
X3499999Y-25045180D01*
X3499999Y-25045180D02*
X3166666Y-25045180D01*
X3166666Y-25045180D02*
X3071428Y-24997561D01*
X3071428Y-24997561D02*
X3023809Y-24949942D01*
X3023809Y-24949942D02*
X2976190Y-24854704D01*
X2976190Y-24854704D02*
X2976190Y-24759466D01*
X2976190Y-24759466D02*
X3023809Y-24664228D01*
X3023809Y-24664228D02*
X3071428Y-24616609D01*
X3071428Y-24616609D02*
X3166666Y-24568990D01*
X3166666Y-24568990D02*
X3499999Y-24568990D01*
X48833333Y-4929580D02*
X48785714Y-4977200D01*
X48785714Y-4977200D02*
X48642857Y-5024819D01*
X48642857Y-5024819D02*
X48547619Y-5024819D01*
X48547619Y-5024819D02*
X48404762Y-4977200D01*
X48404762Y-4977200D02*
X48309524Y-4881961D01*
X48309524Y-4881961D02*
X48261905Y-4786723D01*
X48261905Y-4786723D02*
X48214286Y-4596247D01*
X48214286Y-4596247D02*
X48214286Y-4453390D01*
X48214286Y-4453390D02*
X48261905Y-4262914D01*
X48261905Y-4262914D02*
X48309524Y-4167676D01*
X48309524Y-4167676D02*
X48404762Y-4072438D01*
X48404762Y-4072438D02*
X48547619Y-4024819D01*
X48547619Y-4024819D02*
X48642857Y-4024819D01*
X48642857Y-4024819D02*
X48785714Y-4072438D01*
X48785714Y-4072438D02*
X48833333Y-4120057D01*
X49214286Y-4120057D02*
X49261905Y-4072438D01*
X49261905Y-4072438D02*
X49357143Y-4024819D01*
X49357143Y-4024819D02*
X49595238Y-4024819D01*
X49595238Y-4024819D02*
X49690476Y-4072438D01*
X49690476Y-4072438D02*
X49738095Y-4120057D01*
X49738095Y-4120057D02*
X49785714Y-4215295D01*
X49785714Y-4215295D02*
X49785714Y-4310533D01*
X49785714Y-4310533D02*
X49738095Y-4453390D01*
X49738095Y-4453390D02*
X49166667Y-5024819D01*
X49166667Y-5024819D02*
X49785714Y-5024819D01*
X73916667Y-17357200D02*
X74059524Y-17404819D01*
X74059524Y-17404819D02*
X74297619Y-17404819D01*
X74297619Y-17404819D02*
X74392857Y-17357200D01*
X74392857Y-17357200D02*
X74440476Y-17309580D01*
X74440476Y-17309580D02*
X74488095Y-17214342D01*
X74488095Y-17214342D02*
X74488095Y-17119104D01*
X74488095Y-17119104D02*
X74440476Y-17023866D01*
X74440476Y-17023866D02*
X74392857Y-16976247D01*
X74392857Y-16976247D02*
X74297619Y-16928628D01*
X74297619Y-16928628D02*
X74107143Y-16881009D01*
X74107143Y-16881009D02*
X74011905Y-16833390D01*
X74011905Y-16833390D02*
X73964286Y-16785771D01*
X73964286Y-16785771D02*
X73916667Y-16690533D01*
X73916667Y-16690533D02*
X73916667Y-16595295D01*
X73916667Y-16595295D02*
X73964286Y-16500057D01*
X73964286Y-16500057D02*
X74011905Y-16452438D01*
X74011905Y-16452438D02*
X74107143Y-16404819D01*
X74107143Y-16404819D02*
X74345238Y-16404819D01*
X74345238Y-16404819D02*
X74488095Y-16452438D01*
X74821429Y-16404819D02*
X75059524Y-17404819D01*
X75059524Y-17404819D02*
X75250000Y-16690533D01*
X75250000Y-16690533D02*
X75440476Y-17404819D01*
X75440476Y-17404819D02*
X75678572Y-16404819D01*
X75964286Y-16404819D02*
X76583333Y-16404819D01*
X76583333Y-16404819D02*
X76250000Y-16785771D01*
X76250000Y-16785771D02*
X76392857Y-16785771D01*
X76392857Y-16785771D02*
X76488095Y-16833390D01*
X76488095Y-16833390D02*
X76535714Y-16881009D01*
X76535714Y-16881009D02*
X76583333Y-16976247D01*
X76583333Y-16976247D02*
X76583333Y-17214342D01*
X76583333Y-17214342D02*
X76535714Y-17309580D01*
X76535714Y-17309580D02*
X76488095Y-17357200D01*
X76488095Y-17357200D02*
X76392857Y-17404819D01*
X76392857Y-17404819D02*
X76107143Y-17404819D01*
X76107143Y-17404819D02*
X76011905Y-17357200D01*
X76011905Y-17357200D02*
X75964286Y-17309580D01*
X42833333Y-4929580D02*
X42785714Y-4977200D01*
X42785714Y-4977200D02*
X42642857Y-5024819D01*
X42642857Y-5024819D02*
X42547619Y-5024819D01*
X42547619Y-5024819D02*
X42404762Y-4977200D01*
X42404762Y-4977200D02*
X42309524Y-4881961D01*
X42309524Y-4881961D02*
X42261905Y-4786723D01*
X42261905Y-4786723D02*
X42214286Y-4596247D01*
X42214286Y-4596247D02*
X42214286Y-4453390D01*
X42214286Y-4453390D02*
X42261905Y-4262914D01*
X42261905Y-4262914D02*
X42309524Y-4167676D01*
X42309524Y-4167676D02*
X42404762Y-4072438D01*
X42404762Y-4072438D02*
X42547619Y-4024819D01*
X42547619Y-4024819D02*
X42642857Y-4024819D01*
X42642857Y-4024819D02*
X42785714Y-4072438D01*
X42785714Y-4072438D02*
X42833333Y-4120057D01*
X43785714Y-5024819D02*
X43214286Y-5024819D01*
X43500000Y-5024819D02*
X43500000Y-4024819D01*
X43500000Y-4024819D02*
X43404762Y-4167676D01*
X43404762Y-4167676D02*
X43309524Y-4262914D01*
X43309524Y-4262914D02*
X43214286Y-4310533D01*
X66833333Y-5024819D02*
X66500000Y-4548628D01*
X66261905Y-5024819D02*
X66261905Y-4024819D01*
X66261905Y-4024819D02*
X66642857Y-4024819D01*
X66642857Y-4024819D02*
X66738095Y-4072438D01*
X66738095Y-4072438D02*
X66785714Y-4120057D01*
X66785714Y-4120057D02*
X66833333Y-4215295D01*
X66833333Y-4215295D02*
X66833333Y-4358152D01*
X66833333Y-4358152D02*
X66785714Y-4453390D01*
X66785714Y-4453390D02*
X66738095Y-4501009D01*
X66738095Y-4501009D02*
X66642857Y-4548628D01*
X66642857Y-4548628D02*
X66261905Y-4548628D01*
X67785714Y-5024819D02*
X67214286Y-5024819D01*
X67500000Y-5024819D02*
X67500000Y-4024819D01*
X67500000Y-4024819D02*
X67404762Y-4167676D01*
X67404762Y-4167676D02*
X67309524Y-4262914D01*
X67309524Y-4262914D02*
X67214286Y-4310533D01*
X90357142Y-31929580D02*
X90309523Y-31977200D01*
X90309523Y-31977200D02*
X90166666Y-32024819D01*
X90166666Y-32024819D02*
X90071428Y-32024819D01*
X90071428Y-32024819D02*
X89928571Y-31977200D01*
X89928571Y-31977200D02*
X89833333Y-31881961D01*
X89833333Y-31881961D02*
X89785714Y-31786723D01*
X89785714Y-31786723D02*
X89738095Y-31596247D01*
X89738095Y-31596247D02*
X89738095Y-31453390D01*
X89738095Y-31453390D02*
X89785714Y-31262914D01*
X89785714Y-31262914D02*
X89833333Y-31167676D01*
X89833333Y-31167676D02*
X89928571Y-31072438D01*
X89928571Y-31072438D02*
X90071428Y-31024819D01*
X90071428Y-31024819D02*
X90166666Y-31024819D01*
X90166666Y-31024819D02*
X90309523Y-31072438D01*
X90309523Y-31072438D02*
X90357142Y-31120057D01*
X91309523Y-32024819D02*
X90738095Y-32024819D01*
X91023809Y-32024819D02*
X91023809Y-31024819D01*
X91023809Y-31024819D02*
X90928571Y-31167676D01*
X90928571Y-31167676D02*
X90833333Y-31262914D01*
X90833333Y-31262914D02*
X90738095Y-31310533D01*
X92261904Y-32024819D02*
X91690476Y-32024819D01*
X91976190Y-32024819D02*
X91976190Y-31024819D01*
X91976190Y-31024819D02*
X91880952Y-31167676D01*
X91880952Y-31167676D02*
X91785714Y-31262914D01*
X91785714Y-31262914D02*
X91690476Y-31310533D01*
X54833333Y-9554819D02*
X54357143Y-9554819D01*
X54357143Y-9554819D02*
X54357143Y-8554819D01*
X55690476Y-9554819D02*
X55119048Y-9554819D01*
X55404762Y-9554819D02*
X55404762Y-8554819D01*
X55404762Y-8554819D02*
X55309524Y-8697676D01*
X55309524Y-8697676D02*
X55214286Y-8792914D01*
X55214286Y-8792914D02*
X55119048Y-8840533D01*
D11*
%TO.C,R3*%
X36762742Y-32477500D02*
X37237258Y-32477500D01*
X36762742Y-33522500D02*
X37237258Y-33522500D01*
%TO.C,D1*%
X77515000Y-5265000D02*
X77515000Y-6735000D01*
X77515000Y-6735000D02*
X79800000Y-6735000D01*
X79800000Y-5265000D02*
X77515000Y-5265000D01*
%TO.C,R4*%
X42762742Y-32477500D02*
X43237258Y-32477500D01*
X42762742Y-33522500D02*
X43237258Y-33522500D01*
%TO.C,U_CHG*%
X31000000Y-4440000D02*
X30200000Y-4440000D01*
X31000000Y-4440000D02*
X31800000Y-4440000D01*
X31000000Y-7560000D02*
X30200000Y-7560000D01*
X31000000Y-7560000D02*
X31800000Y-7560000D01*
X29700000Y-4490000D02*
X29460000Y-4160000D01*
X29940000Y-4160000D01*
X29700000Y-4490000D01*
G36*
X29700000Y-4490000D02*
G01*
X29460000Y-4160000D01*
X29940000Y-4160000D01*
X29700000Y-4490000D01*
G37*
%TO.C,R2*%
X84762742Y-5477500D02*
X85237258Y-5477500D01*
X84762742Y-6522500D02*
X85237258Y-6522500D01*
%TO.C,U1*%
X89400000Y-27075000D02*
X91850000Y-27075000D01*
X89400000Y-27075000D02*
X89400000Y-24625000D01*
X89650000Y-26800000D02*
X89650000Y-11200000D01*
X110350000Y-26800000D02*
X89650000Y-26800000D01*
X89650000Y-11200000D02*
X110350000Y-11200000D01*
X110350000Y-11200000D02*
X110350000Y-26800000D01*
X96840000Y-27311000D02*
X96360000Y-27311000D01*
X96600000Y-26975000D01*
X96840000Y-27311000D01*
G36*
X96840000Y-27311000D02*
G01*
X96360000Y-27311000D01*
X96600000Y-26975000D01*
X96840000Y-27311000D01*
G37*
%TO.C,C7*%
X72859420Y-32490000D02*
X73140580Y-32490000D01*
X72859420Y-33510000D02*
X73140580Y-33510000D01*
%TO.C,C9*%
X78859420Y-32490000D02*
X79140580Y-32490000D01*
X78859420Y-33510000D02*
X79140580Y-33510000D01*
%TO.C,SW1*%
X22130000Y-22400000D02*
X22130000Y-20200000D01*
X22600000Y-24370000D02*
X27800000Y-24370000D01*
X23200000Y-18130000D02*
X27600000Y-18130000D01*
X28370000Y-20200000D02*
X28370000Y-22400000D01*
X26664214Y-21250000D02*
G75*
G03*
X23835786Y-21250000I-1414214J0D01*
G01*
X23835786Y-21250000D02*
G75*
G03*
X26664214Y-21250000I1414214J0D01*
G01*
%TO.C,C6*%
X66859420Y-32490000D02*
X67140580Y-32490000D01*
X66859420Y-33510000D02*
X67140580Y-33510000D01*
%TO.C,R8*%
X24762742Y-32477500D02*
X25237258Y-32477500D01*
X24762742Y-33522500D02*
X25237258Y-33522500D01*
%TO.C,SW_RST*%
X13350000Y-31600000D02*
X16650000Y-31600000D01*
X13350000Y-31900000D02*
X13350000Y-31600000D01*
X13350000Y-34100000D02*
X13350000Y-34400000D01*
X13350000Y-34400000D02*
X16650000Y-34400000D01*
X16650000Y-31600000D02*
X16650000Y-31900000D01*
X16650000Y-34400000D02*
X16650000Y-34100000D01*
%TO.C,C8*%
X30859420Y-32490000D02*
X31140580Y-32490000D01*
X30859420Y-33510000D02*
X31140580Y-33510000D01*
%TO.C,J_BAT*%
X34940000Y-4540000D02*
X34940000Y-12360000D01*
X34940000Y-6140000D02*
X35860000Y-6140000D01*
X34940000Y-12360000D02*
X41060000Y-12360000D01*
X35700000Y-8500000D02*
X35700000Y-10100000D01*
X35700000Y-10100000D02*
X36700000Y-10100000D01*
X35860000Y-4540000D02*
X34940000Y-4540000D01*
X35860000Y-6140000D02*
X35860000Y-4540000D01*
X36140000Y-6140000D02*
X35860000Y-6140000D01*
X36140000Y-6140000D02*
X36140000Y-4925000D01*
X36200000Y-10100000D02*
X36200000Y-12360000D01*
X36700000Y-8500000D02*
X35700000Y-8500000D01*
X36700000Y-10100000D02*
X36700000Y-8500000D01*
X36700000Y-10100000D02*
X36700000Y-12360000D01*
X37500000Y-8000000D02*
X38500000Y-8000000D01*
X37500000Y-12360000D02*
X37500000Y-8000000D01*
X38500000Y-8000000D02*
X38500000Y-12360000D01*
X39300000Y-8500000D02*
X40300000Y-8500000D01*
X39300000Y-10100000D02*
X39300000Y-8500000D01*
X40140000Y-4540000D02*
X40140000Y-6140000D01*
X40140000Y-6140000D02*
X39860000Y-6140000D01*
X40300000Y-8500000D02*
X40300000Y-10100000D01*
X40300000Y-10100000D02*
X39300000Y-10100000D01*
X41060000Y-4540000D02*
X40140000Y-4540000D01*
X41060000Y-6140000D02*
X40140000Y-6140000D01*
X41060000Y-12360000D02*
X41060000Y-4540000D01*
%TO.C,C5*%
X60859420Y-32490000D02*
X61140580Y-32490000D01*
X60859420Y-33510000D02*
X61140580Y-33510000D01*
%TO.C,C10*%
X84859420Y-32490000D02*
X85140580Y-32490000D01*
X84859420Y-33510000D02*
X85140580Y-33510000D01*
%TO.C,C4*%
X72859420Y-5490000D02*
X73140580Y-5490000D01*
X72859420Y-6510000D02*
X73140580Y-6510000D01*
%TO.C,C3*%
X60859420Y-5490000D02*
X61140580Y-5490000D01*
X60859420Y-6510000D02*
X61140580Y-6510000D01*
%TO.C,REG1*%
X23390000Y-7380000D02*
X23390000Y-7610000D01*
X23390000Y-7610000D02*
X24365000Y-7610000D01*
X23680000Y-4390000D02*
X24365000Y-4390000D01*
X25635000Y-4390000D02*
X26610000Y-4390000D01*
X25635000Y-7610000D02*
X26610000Y-7610000D01*
X26610000Y-4390000D02*
X26610000Y-4620000D01*
X26610000Y-7380000D02*
X26610000Y-7610000D01*
X23360000Y-4390000D02*
X23080000Y-4390000D01*
X23360000Y-4110000D01*
X23360000Y-4390000D01*
G36*
X23360000Y-4390000D02*
G01*
X23080000Y-4390000D01*
X23360000Y-4110000D01*
X23360000Y-4390000D01*
G37*
%TO.C,R7*%
X90762742Y-5477500D02*
X91237258Y-5477500D01*
X90762742Y-6522500D02*
X91237258Y-6522500D01*
%TO.C,R6*%
X54762742Y-32477500D02*
X55237258Y-32477500D01*
X54762742Y-33522500D02*
X55237258Y-33522500D01*
%TO.C,SW_BOOT*%
X98350000Y-31600000D02*
X101650000Y-31600000D01*
X98350000Y-31900000D02*
X98350000Y-31600000D01*
X98350000Y-34100000D02*
X98350000Y-34400000D01*
X98350000Y-34400000D02*
X101650000Y-34400000D01*
X101650000Y-31600000D02*
X101650000Y-31900000D01*
X101650000Y-34400000D02*
X101650000Y-34100000D01*
%TO.C,SW2*%
X47130000Y-22400000D02*
X47130000Y-20200000D01*
X47600000Y-24370000D02*
X52800000Y-24370000D01*
X48200000Y-18130000D02*
X52600000Y-18130000D01*
X53370000Y-20200000D02*
X53370000Y-22400000D01*
X51664214Y-21250000D02*
G75*
G03*
X48835786Y-21250000I-1414214J0D01*
G01*
X48835786Y-21250000D02*
G75*
G03*
X51664214Y-21250000I1414214J0D01*
G01*
%TO.C,R5*%
X48762742Y-32477500D02*
X49237258Y-32477500D01*
X48762742Y-33522500D02*
X49237258Y-33522500D01*
%TO.C,J_USB*%
X9670000Y-19100000D02*
X9670000Y-20800000D01*
X330000Y-19100000D02*
X330000Y-20800000D01*
%TO.C,C2*%
X48859420Y-5490000D02*
X49140580Y-5490000D01*
X48859420Y-6510000D02*
X49140580Y-6510000D01*
%TO.C,SW3*%
X72130000Y-22400000D02*
X72130000Y-20200000D01*
X72600000Y-24370000D02*
X77800000Y-24370000D01*
X73200000Y-18130000D02*
X77600000Y-18130000D01*
X78370000Y-20200000D02*
X78370000Y-22400000D01*
X76664214Y-21250000D02*
G75*
G03*
X73835786Y-21250000I-1414214J0D01*
G01*
X73835786Y-21250000D02*
G75*
G03*
X76664214Y-21250000I1414214J0D01*
G01*
%TO.C,C1*%
X42859420Y-5490000D02*
X43140580Y-5490000D01*
X42859420Y-6510000D02*
X43140580Y-6510000D01*
%TO.C,R1*%
X66762742Y-5477500D02*
X67237258Y-5477500D01*
X66762742Y-6522500D02*
X67237258Y-6522500D01*
%TO.C,C11*%
X90859420Y-32490000D02*
X91140580Y-32490000D01*
X90859420Y-33510000D02*
X91140580Y-33510000D01*
%TO.C,L1*%
X52615000Y-3890000D02*
X52615000Y-4915000D01*
X52615000Y-3890000D02*
X53640000Y-3890000D01*
X52615000Y-8110000D02*
X52615000Y-7085000D01*
X52615000Y-8110000D02*
X53640000Y-8110000D01*
X57385000Y-3890000D02*
X56360000Y-3890000D01*
X57385000Y-3890000D02*
X57385000Y-4915000D01*
X57385000Y-8110000D02*
X56360000Y-8110000D01*
X57385000Y-8110000D02*
X57385000Y-7085000D01*
%TD*%
M02*
