M48
; DRILL file {KiCad 7.0.11+dfsg-1build4} date Fri Sep 25 22:05:01 2026
; FORMAT={-:-/ absolute / metric / decimal}
; #@! TF.CreationDate,2026-09-25T22:05:01+00:00
; #@! TF.GenerationSoftware,Kicad,Pcbnew,7.0.11+dfsg-1build4
; #@! TF.FileFunction,MixedPlating,1,4
FMAT,2
METRIC
; #@! TA.AperFunction,Plated,PTH,ComponentDrill
T1C0.200
; #@! TA.AperFunction,Plated,PTH,ViaDrill
T2C0.300
; #@! TA.AperFunction,Plated,PTH,ComponentDrill
T3C0.600
; #@! TA.AperFunction,Plated,PTH,ComponentDrill
T4C0.750
; #@! TA.AperFunction,Plated,PTH,ComponentDrill
T5C1.000
; #@! TA.AperFunction,NonPlated,NPTH,ComponentDrill
T6C0.650
; #@! TA.AperFunction,NonPlated,NPTH,ComponentDrill
T7C4.300
%
G90
G05
T1
X24.425Y-6.0
X25.0Y-5.05
X25.0Y-6.95
X25.575Y-6.0
T2
X0.68Y-17.925
X0.68Y-22.105
X1.8Y-22.68
X1.8Y-22.68
X4.25Y-22.68
X5.25Y-22.68
X5.25Y-22.68
X6.25Y-22.68
X8.2Y-22.68
X8.2Y-22.68
X9.32Y-17.925
X9.32Y-22.105
X16.7Y-33.0
X22.0Y-23.5
X23.6Y-5.0
X23.6Y-5.5
X23.6Y-6.0
X23.6Y-7.0
X24.175Y-33.0
X24.425Y-6.0
X25.0Y-5.05
X25.0Y-6.0
X25.0Y-6.95
X25.575Y-6.0
X25.825Y-33.0
X26.4Y-5.5
X26.4Y-6.0
X26.4Y-6.0
X26.4Y-6.5
X26.4Y-7.0
X26.4Y-7.0
X28.5Y-23.5
X29.862Y-5.05
X29.862Y-6.0
X29.862Y-6.95
X29.862Y-6.95
X30.225Y-33.0
X30.225Y-33.0
X31.775Y-33.0
X36.175Y-33.0
X37.0Y-6.0
X37.0Y-6.0
X37.825Y-33.0
X39.0Y-6.0
X42.225Y-6.0
X42.225Y-6.0
X43.775Y-6.0
X43.825Y-33.0
X47.0Y-19.0
X47.0Y-23.5
X48.175Y-33.0
X48.225Y-6.0
X49.775Y-6.0
X53.5Y-23.5
X54.175Y-33.0
X55.825Y-33.0
X56.525Y-6.0
X60.225Y-6.0
X60.225Y-33.0
X61.775Y-6.0
X61.775Y-33.0
X66.225Y-33.0
X67.775Y-33.0
X67.825Y-6.0
X72.0Y-23.5
X72.225Y-33.0
X73.775Y-6.0
X73.775Y-33.0
X78.212Y-6.0
X78.5Y-23.5
X79.775Y-33.0
X84.225Y-33.0
X84.225Y-33.0
X85.775Y-33.0
X85.825Y-6.0
X90.175Y-6.0
X91.775Y-33.0
X91.825Y-6.0
X91.825Y-6.0
X95.55Y-12.0
X95.55Y-13.05
X95.55Y-13.9
X95.55Y-14.75
X95.55Y-15.6
X95.55Y-16.45
X95.55Y-17.3
X95.55Y-18.15
X95.55Y-19.0
X95.55Y-19.85
X95.55Y-20.7
X95.55Y-21.55
X95.55Y-22.4
X95.55Y-23.25
X95.55Y-24.1
X95.55Y-24.95
X95.55Y-26.0
X96.6Y-26.0
X97.45Y-26.0
X98.3Y-12.0
X98.3Y-26.0
X98.3Y-33.0
X98.3Y-33.0
X99.15Y-12.0
X99.15Y-26.0
X100.9Y-17.35
X100.9Y-19.0
X100.9Y-20.65
X101.7Y-33.0
X102.55Y-17.35
X102.55Y-19.0
X102.55Y-20.65
X103.4Y-26.0
X104.2Y-17.35
X104.2Y-19.0
X104.2Y-20.65
X108.5Y-26.0
X109.55Y-12.0
X109.55Y-19.0
X109.55Y-26.0
T4
X37.0Y-6.0
X39.0Y-6.0
T5
X22.0Y-19.0
X22.0Y-23.5
X28.5Y-19.0
X28.5Y-23.5
X47.0Y-19.0
X47.0Y-23.5
X53.5Y-19.0
X53.5Y-23.5
X72.0Y-19.0
X72.0Y-23.5
X78.5Y-19.0
X78.5Y-23.5
T6
X2.11Y-21.605
X7.89Y-21.605
T7
X12.0Y-4.0
X103.0Y-4.0
T3
X0.68Y-18.325G85X0.68Y-17.525
G05
X0.68Y-22.655G85X0.68Y-21.555
G05
X9.32Y-18.325G85X9.32Y-17.525
G05
X9.32Y-22.655G85X9.32Y-21.555
G05
M30
