%TF.GenerationSoftware,KiCad,Pcbnew,7.0.11+dfsg-1build4*%
%TF.CreationDate,2026-09-25T22:05:01+00:00*%
%TF.ProjectId,BT_Switch_Mechanical_RevD_routed,42545f53-7769-4746-9368-5f4d65636861,rev?*%
%TF.SameCoordinates,Original*%
%TF.FileFunction,Copper,L4,Bot*%
%TF.FilePolarity,Positive*%
%FSLAX46Y46*%
G04 Gerber Fmt 4.6, Leading zero omitted, Abs format (unit mm)*
G04 Created by KiCad (PCBNEW 7.0.11+dfsg-1build4) date 2026-09-25 22:05:01*
%MOMM*%
%LPD*%
G01*
G04 APERTURE LIST*
G04 Aperture macros list*
%AMRoundRect*
0 Rectangle with rounded corners*
0 $1 Rounding radius*
0 $2 $3 $4 $5 $6 $7 $8 $9 X,Y pos of 4 corners*
0 Add a 4 corners polygon primitive as box body*
4,1,4,$2,$3,$4,$5,$6,$7,$8,$9,$2,$3,0*
0 Add four circle primitives for the rounded corners*
1,1,$1+$1,$2,$3*
1,1,$1+$1,$4,$5*
1,1,$1+$1,$6,$7*
1,1,$1+$1,$8,$9*
0 Add four rect primitives between the rounded corners*
20,1,$1+$1,$2,$3,$4,$5,0*
20,1,$1+$1,$4,$5,$6,$7,0*
20,1,$1+$1,$6,$7,$8,$9,0*
20,1,$1+$1,$8,$9,$2,$3,0*%
G04 Aperture macros list end*
%TA.AperFunction,ComponentPad*%
%ADD10R,1.700000X1.700000*%
%TD*%
%TA.AperFunction,ComponentPad*%
%ADD11C,1.700000*%
%TD*%
%TA.AperFunction,ComponentPad*%
%ADD12RoundRect,0.250000X-0.350000X-0.625000X0.350000X-0.625000X0.350000X0.625000X-0.350000X0.625000X0*%
%TD*%
%TA.AperFunction,ComponentPad*%
%ADD13O,1.200000X1.750000*%
%TD*%
%TA.AperFunction,ComponentPad*%
%ADD14C,0.500000*%
%TD*%
%TA.AperFunction,ComponentPad*%
%ADD15O,1.000000X2.100000*%
%TD*%
%TA.AperFunction,ComponentPad*%
%ADD16O,1.000000X1.800000*%
%TD*%
%TA.AperFunction,ViaPad*%
%ADD17C,0.600000*%
%TD*%
%TA.AperFunction,Conductor*%
%ADD18C,0.200000*%
%TD*%
G04 APERTURE END LIST*
D10*
%TO.P,SW1,1*%
%TO.N,SW1_NET*%
X22000000Y-19000000D03*
D11*
X28500000Y-19000000D03*
%TO.P,SW1,2*%
%TO.N,GND*%
X22000000Y-23500000D03*
X28500000Y-23500000D03*
%TD*%
D12*
%TO.P,J_BAT,1*%
%TO.N,VBAT*%
X37000000Y-6000000D03*
D13*
%TO.P,J_BAT,2*%
%TO.N,GND*%
X39000000Y-6000000D03*
%TD*%
D14*
%TO.P,REG1,11*%
%TO.N,GND*%
X24425000Y-6000000D03*
X25000000Y-5050000D03*
X25000000Y-6950000D03*
X25575000Y-6000000D03*
%TD*%
D10*
%TO.P,SW2,1*%
%TO.N,SW2_NET*%
X47000000Y-19000000D03*
D11*
X53500000Y-19000000D03*
%TO.P,SW2,2*%
%TO.N,GND*%
X47000000Y-23500000D03*
X53500000Y-23500000D03*
%TD*%
D15*
%TO.P,J_USB,S1*%
%TO.N,GND*%
X9320000Y-22105000D03*
D16*
X9320000Y-17925000D03*
D15*
X680000Y-22105000D03*
D16*
X680000Y-17925000D03*
%TD*%
D10*
%TO.P,SW3,1*%
%TO.N,SW3_NET*%
X72000000Y-19000000D03*
D11*
X78500000Y-19000000D03*
%TO.P,SW3,2*%
%TO.N,GND*%
X72000000Y-23500000D03*
X78500000Y-23500000D03*
%TD*%
D17*
%TO.N,GND*%
X109550000Y-26000000D03*
X25000000Y-5050000D03*
X95550000Y-22400000D03*
X100900000Y-17350000D03*
X28500000Y-23500000D03*
X61775000Y-6000000D03*
X95550000Y-12000000D03*
X8199999Y-22680000D03*
X95550000Y-19850000D03*
X47000000Y-23500000D03*
X95550000Y-26000000D03*
X22000000Y-23500000D03*
X95550000Y-15600000D03*
X95550000Y-23250000D03*
X67825000Y-6000000D03*
X43825000Y-33000000D03*
X78500000Y-23500000D03*
X104200000Y-20650000D03*
X1800000Y-22680000D03*
X95550000Y-24950000D03*
X95550000Y-16450000D03*
X9320000Y-22105000D03*
X53500000Y-23500000D03*
X29862500Y-6000000D03*
X104200000Y-19000000D03*
X67775000Y-33000000D03*
X79775000Y-33000000D03*
X100900000Y-19000000D03*
X100900000Y-20650000D03*
X95550000Y-21550000D03*
X96600000Y-26000000D03*
X73775000Y-33000000D03*
X24425000Y-6000000D03*
X95550000Y-14750000D03*
X85775000Y-33000000D03*
X102550000Y-19000000D03*
X26400000Y-6500000D03*
X102550000Y-20650000D03*
X37825000Y-33000000D03*
X43775000Y-6000000D03*
X72000000Y-23500000D03*
X95550000Y-13900000D03*
X95550000Y-17300000D03*
X98300000Y-12000000D03*
X109550000Y-12000000D03*
X680000Y-17925000D03*
X97450000Y-26000000D03*
X95550000Y-24100000D03*
X8199999Y-22680000D03*
X95550000Y-19000000D03*
X91775000Y-33000000D03*
X95550000Y-18150000D03*
X25575000Y-6000000D03*
X102550000Y-17350000D03*
X25825000Y-33000000D03*
X16700000Y-33000000D03*
X25000000Y-6950000D03*
X39000000Y-6000000D03*
X49775000Y-6000000D03*
X31775000Y-33000000D03*
X95550000Y-20700000D03*
X99150000Y-12000000D03*
X73775000Y-6000000D03*
X104200000Y-17350000D03*
X680000Y-22105000D03*
X9320000Y-17925000D03*
X23600000Y-6000000D03*
X61775000Y-33000000D03*
X1800000Y-22680000D03*
X95550000Y-13050000D03*
X26400000Y-5500000D03*
X25000000Y-6000000D03*
X101700000Y-33000000D03*
%TO.N,USB_CC1*%
X36175000Y-33000000D03*
X6250000Y-22680000D03*
%TO.N,USB_DM*%
X109550000Y-19000000D03*
X5250000Y-22680000D03*
X4250000Y-22680000D03*
X5250000Y-22680000D03*
%TO.N,VBAT*%
X37000000Y-6000000D03*
X26400000Y-7000000D03*
X26400000Y-6000000D03*
X42225000Y-6000000D03*
X29862500Y-6950000D03*
X37000000Y-6000000D03*
X29862500Y-6950000D03*
X26400000Y-7000000D03*
X42225000Y-6000000D03*
X26400000Y-6000000D03*
X90175000Y-6000000D03*
X23600000Y-7000000D03*
%TO.N,CHG_STAT*%
X29862500Y-5050000D03*
X78212500Y-6000000D03*
%TO.N,V3V3*%
X60225000Y-33000000D03*
X48225000Y-6000000D03*
X48175000Y-33000000D03*
X66224999Y-33000000D03*
X54175000Y-33000000D03*
X85825000Y-6000000D03*
X98300000Y-26000000D03*
X72225000Y-33000000D03*
X23600000Y-5000000D03*
X60225000Y-6000000D03*
%TO.N,VBAT_SENSE*%
X24175000Y-33000000D03*
X30225000Y-33000000D03*
X91825000Y-6000000D03*
X103400000Y-26000000D03*
X30225000Y-33000000D03*
X91825000Y-6000000D03*
%TO.N,L_B*%
X56525000Y-6000000D03*
X23600000Y-5500000D03*
%TO.N,BOOT_NET*%
X98300000Y-33000000D03*
X98300000Y-33000000D03*
X99150000Y-26000000D03*
X55825000Y-33000000D03*
%TO.N,SW2_NET*%
X47000000Y-19000000D03*
X108500000Y-26000000D03*
X84225000Y-33000000D03*
X84225000Y-33000000D03*
%TD*%
D18*
%TO.N,USB_CC1*%
X6250000Y-22680000D02*
X36175000Y-33000000D01*
%TO.N,USB_DM*%
X4250000Y-22680000D02*
X5250000Y-22680000D01*
X5250000Y-22680000D02*
X109550000Y-19000000D01*
%TO.N,VBAT*%
X37000000Y-6000000D02*
X42225000Y-6000000D01*
X29862500Y-6950000D02*
X37000000Y-6000000D01*
X42225000Y-6000000D02*
X90175000Y-6000000D01*
X26400000Y-7000000D02*
X29862500Y-6950000D01*
X26400000Y-6000000D02*
X26400000Y-7000000D01*
X23600000Y-7000000D02*
X26400000Y-6000000D01*
%TO.N,CHG_STAT*%
X29862500Y-5050000D02*
X78212500Y-6000000D01*
%TO.N,VBAT_SENSE*%
X24175000Y-33000000D02*
X30225000Y-33000000D01*
X30225000Y-33000000D02*
X91825000Y-6000000D01*
X91825000Y-6000000D02*
X103400000Y-26000000D01*
%TO.N,L_B*%
X23600000Y-5500000D02*
X56525000Y-6000000D01*
%TO.N,BOOT_NET*%
X55825000Y-33000000D02*
X98300000Y-33000000D01*
X98300000Y-33000000D02*
X99150000Y-26000000D01*
%TO.N,SW2_NET*%
X47000000Y-19000000D02*
X84225000Y-33000000D01*
X84225000Y-33000000D02*
X108500000Y-26000000D01*
%TD*%
M02*
