%TF.GenerationSoftware,KiCad,Pcbnew,7.0.11+dfsg-1build4*%
%TF.CreationDate,2026-09-25T22:05:01+00:00*%
%TF.ProjectId,BT_Switch_Mechanical_RevD_routed,42545f53-7769-4746-9368-5f4d65636861,rev?*%
%TF.SameCoordinates,Original*%
%TF.FileFunction,Copper,L2,Inr*%
%TF.FilePolarity,Positive*%
%FSLAX46Y46*%
G04 Gerber Fmt 4.6, Leading zero omitted, Abs format (unit mm)*
G04 Created by KiCad (PCBNEW 7.0.11+dfsg-1build4) date 2026-09-25 22:05:01*
%MOMM*%
%LPD*%
G01*
G04 APERTURE LIST*
G04 Aperture macros list*
%AMRoundRect*
0 Rectangle with rounded corners*
0 $1 Rounding radius*
0 $2 $3 $4 $5 $6 $7 $8 $9 X,Y pos of 4 corners*
0 Add a 4 corners polygon primitive as box body*
4,1,4,$2,$3,$4,$5,$6,$7,$8,$9,$2,$3,0*
0 Add four circle primitives for the rounded corners*
1,1,$1+$1,$2,$3*
1,1,$1+$1,$4,$5*
1,1,$1+$1,$6,$7*
1,1,$1+$1,$8,$9*
0 Add four rect primitives between the rounded corners*
20,1,$1+$1,$2,$3,$4,$5,0*
20,1,$1+$1,$4,$5,$6,$7,0*
20,1,$1+$1,$6,$7,$8,$9,0*
20,1,$1+$1,$8,$9,$2,$3,0*%
G04 Aperture macros list end*
%TA.AperFunction,ComponentPad*%
%ADD10R,1.700000X1.700000*%
%TD*%
%TA.AperFunction,ComponentPad*%
%ADD11C,1.700000*%
%TD*%
%TA.AperFunction,ComponentPad*%
%ADD12RoundRect,0.250000X-0.350000X-0.625000X0.350000X-0.625000X0.350000X0.625000X-0.350000X0.625000X0*%
%TD*%
%TA.AperFunction,ComponentPad*%
%ADD13O,1.200000X1.750000*%
%TD*%
%TA.AperFunction,ComponentPad*%
%ADD14C,0.500000*%
%TD*%
%TA.AperFunction,ComponentPad*%
%ADD15O,1.000000X2.100000*%
%TD*%
%TA.AperFunction,ComponentPad*%
%ADD16O,1.000000X1.800000*%
%TD*%
%TA.AperFunction,ViaPad*%
%ADD17C,0.600000*%
%TD*%
G04 APERTURE END LIST*
D10*
%TO.N,SW1_NET*%
%TO.C,SW1*%
X22000000Y-19000000D03*
D11*
X28500000Y-19000000D03*
%TO.N,GND*%
X22000000Y-23500000D03*
X28500000Y-23500000D03*
%TD*%
D12*
%TO.N,VBAT*%
%TO.C,J_BAT*%
X37000000Y-6000000D03*
D13*
%TO.N,GND*%
X39000000Y-6000000D03*
%TD*%
D14*
%TO.N,GND*%
%TO.C,REG1*%
X24425000Y-6000000D03*
X25000000Y-5050000D03*
X25000000Y-6950000D03*
X25575000Y-6000000D03*
%TD*%
D10*
%TO.N,SW2_NET*%
%TO.C,SW2*%
X47000000Y-19000000D03*
D11*
X53500000Y-19000000D03*
%TO.N,GND*%
X47000000Y-23500000D03*
X53500000Y-23500000D03*
%TD*%
D15*
%TO.N,GND*%
%TO.C,J_USB*%
X9320000Y-22105000D03*
D16*
X9320000Y-17925000D03*
D15*
X680000Y-22105000D03*
D16*
X680000Y-17925000D03*
%TD*%
D10*
%TO.N,SW3_NET*%
%TO.C,SW3*%
X72000000Y-19000000D03*
D11*
X78500000Y-19000000D03*
%TO.N,GND*%
X72000000Y-23500000D03*
X78500000Y-23500000D03*
%TD*%
D17*
%TO.N,GND*%
X109550000Y-26000000D03*
X25000000Y-5050000D03*
X95550000Y-22400000D03*
X100900000Y-17350000D03*
X28500000Y-23500000D03*
X61775000Y-6000000D03*
X95550000Y-12000000D03*
X8199999Y-22680000D03*
X95550000Y-19850000D03*
X47000000Y-23500000D03*
X95550000Y-26000000D03*
X22000000Y-23500000D03*
X95550000Y-15600000D03*
X95550000Y-23250000D03*
X67825000Y-6000000D03*
X43825000Y-33000000D03*
X78500000Y-23500000D03*
X104200000Y-20650000D03*
X1800000Y-22680000D03*
X95550000Y-24950000D03*
X95550000Y-16450000D03*
X9320000Y-22105000D03*
X53500000Y-23500000D03*
X29862500Y-6000000D03*
X104200000Y-19000000D03*
X67775000Y-33000000D03*
X79775000Y-33000000D03*
X100900000Y-19000000D03*
X100900000Y-20650000D03*
X95550000Y-21550000D03*
X96600000Y-26000000D03*
X73775000Y-33000000D03*
X24425000Y-6000000D03*
X95550000Y-14750000D03*
X85775000Y-33000000D03*
X102550000Y-19000000D03*
X26400000Y-6500000D03*
X102550000Y-20650000D03*
X37825000Y-33000000D03*
X43775000Y-6000000D03*
X72000000Y-23500000D03*
X95550000Y-13900000D03*
X95550000Y-17300000D03*
X98300000Y-12000000D03*
X109550000Y-12000000D03*
X680000Y-17925000D03*
X97450000Y-26000000D03*
X95550000Y-24100000D03*
X8199999Y-22680000D03*
X95550000Y-19000000D03*
X91775000Y-33000000D03*
X95550000Y-18150000D03*
X25575000Y-6000000D03*
X102550000Y-17350000D03*
X25825000Y-33000000D03*
X16700000Y-33000000D03*
X25000000Y-6950000D03*
X39000000Y-6000000D03*
X49775000Y-6000000D03*
X31775000Y-33000000D03*
X95550000Y-20700000D03*
X99150000Y-12000000D03*
X73775000Y-6000000D03*
X104200000Y-17350000D03*
X680000Y-22105000D03*
X9320000Y-17925000D03*
X23600000Y-6000000D03*
X61775000Y-33000000D03*
X1800000Y-22680000D03*
X95550000Y-13050000D03*
X26400000Y-5500000D03*
X25000000Y-6000000D03*
X101700000Y-33000000D03*
%TO.N,USB_CC1*%
X36175000Y-33000000D03*
X6250000Y-22680000D03*
%TO.N,USB_DM*%
X109550000Y-19000000D03*
X5250000Y-22680000D03*
X4250000Y-22680000D03*
X5250000Y-22680000D03*
%TO.N,VBAT*%
X37000000Y-6000000D03*
X26400000Y-7000000D03*
X26400000Y-6000000D03*
X42225000Y-6000000D03*
X29862500Y-6950000D03*
X37000000Y-6000000D03*
X29862500Y-6950000D03*
X26400000Y-7000000D03*
X42225000Y-6000000D03*
X26400000Y-6000000D03*
X90175000Y-6000000D03*
X23600000Y-7000000D03*
%TO.N,CHG_STAT*%
X29862500Y-5050000D03*
X78212500Y-6000000D03*
%TO.N,V3V3*%
X60225000Y-33000000D03*
X48225000Y-6000000D03*
X48175000Y-33000000D03*
X66224999Y-33000000D03*
X54175000Y-33000000D03*
X85825000Y-6000000D03*
X98300000Y-26000000D03*
X72225000Y-33000000D03*
X23600000Y-5000000D03*
X60225000Y-6000000D03*
%TO.N,VBAT_SENSE*%
X24175000Y-33000000D03*
X30225000Y-33000000D03*
X91825000Y-6000000D03*
X103400000Y-26000000D03*
X30225000Y-33000000D03*
X91825000Y-6000000D03*
%TO.N,L_B*%
X56525000Y-6000000D03*
X23600000Y-5500000D03*
%TO.N,BOOT_NET*%
X98300000Y-33000000D03*
X98300000Y-33000000D03*
X99150000Y-26000000D03*
X55825000Y-33000000D03*
%TO.N,SW2_NET*%
X47000000Y-19000000D03*
X108500000Y-26000000D03*
X84225000Y-33000000D03*
X84225000Y-33000000D03*
%TD*%
%TA.AperFunction,Conductor*%
%TO.N,GND*%
G36*
X75223566Y-1017313D02*
G01*
X75248876Y-1061150D01*
X75250000Y-1074000D01*
X75250000Y-36926000D01*
X75232687Y-36973566D01*
X75188850Y-36998876D01*
X75176000Y-37000000D01*
X1074000Y-37000000D01*
X1026434Y-36982687D01*
X1001124Y-36938850D01*
X1000000Y-36926000D01*
X1000000Y-33000000D01*
X23569318Y-33000000D01*
X23589955Y-33156760D01*
X23589955Y-33156761D01*
X23650464Y-33302841D01*
X23746715Y-33428279D01*
X23746720Y-33428284D01*
X23830345Y-33492451D01*
X23872159Y-33524536D01*
X24018238Y-33585044D01*
X24175000Y-33605682D01*
X24331762Y-33585044D01*
X24477841Y-33524536D01*
X24603282Y-33428282D01*
X24699536Y-33302841D01*
X24760044Y-33156762D01*
X24780682Y-33000000D01*
X29619318Y-33000000D01*
X29639955Y-33156760D01*
X29639955Y-33156761D01*
X29700464Y-33302841D01*
X29796715Y-33428279D01*
X29796720Y-33428284D01*
X29880345Y-33492451D01*
X29922159Y-33524536D01*
X30068238Y-33585044D01*
X30225000Y-33605682D01*
X30381762Y-33585044D01*
X30527841Y-33524536D01*
X30653282Y-33428282D01*
X30749536Y-33302841D01*
X30810044Y-33156762D01*
X30830682Y-33000000D01*
X35569318Y-33000000D01*
X35589955Y-33156760D01*
X35589955Y-33156761D01*
X35650464Y-33302841D01*
X35746715Y-33428279D01*
X35746720Y-33428284D01*
X35830345Y-33492451D01*
X35872159Y-33524536D01*
X36018238Y-33585044D01*
X36175000Y-33605682D01*
X36331762Y-33585044D01*
X36477841Y-33524536D01*
X36603282Y-33428282D01*
X36699536Y-33302841D01*
X36760044Y-33156762D01*
X36780682Y-33000000D01*
X47569318Y-33000000D01*
X47589955Y-33156760D01*
X47589955Y-33156761D01*
X47650464Y-33302841D01*
X47746715Y-33428279D01*
X47746720Y-33428284D01*
X47830345Y-33492451D01*
X47872159Y-33524536D01*
X48018238Y-33585044D01*
X48175000Y-33605682D01*
X48331762Y-33585044D01*
X48477841Y-33524536D01*
X48603282Y-33428282D01*
X48699536Y-33302841D01*
X48760044Y-33156762D01*
X48780682Y-33000000D01*
X53569318Y-33000000D01*
X53589955Y-33156760D01*
X53589955Y-33156761D01*
X53650464Y-33302841D01*
X53746715Y-33428279D01*
X53746720Y-33428284D01*
X53830345Y-33492451D01*
X53872159Y-33524536D01*
X54018238Y-33585044D01*
X54175000Y-33605682D01*
X54331762Y-33585044D01*
X54477841Y-33524536D01*
X54603282Y-33428282D01*
X54699536Y-33302841D01*
X54760044Y-33156762D01*
X54780682Y-33000000D01*
X55219318Y-33000000D01*
X55239955Y-33156760D01*
X55239955Y-33156761D01*
X55300464Y-33302841D01*
X55396715Y-33428279D01*
X55396720Y-33428284D01*
X55480345Y-33492451D01*
X55522159Y-33524536D01*
X55668238Y-33585044D01*
X55825000Y-33605682D01*
X55981762Y-33585044D01*
X56127841Y-33524536D01*
X56253282Y-33428282D01*
X56349536Y-33302841D01*
X56410044Y-33156762D01*
X56430682Y-33000000D01*
X59619318Y-33000000D01*
X59639955Y-33156760D01*
X59639955Y-33156761D01*
X59700464Y-33302841D01*
X59796715Y-33428279D01*
X59796720Y-33428284D01*
X59880345Y-33492451D01*
X59922159Y-33524536D01*
X60068238Y-33585044D01*
X60225000Y-33605682D01*
X60381762Y-33585044D01*
X60527841Y-33524536D01*
X60653282Y-33428282D01*
X60749536Y-33302841D01*
X60810044Y-33156762D01*
X60830682Y-33000000D01*
X65619317Y-33000000D01*
X65639954Y-33156760D01*
X65639954Y-33156761D01*
X65700463Y-33302841D01*
X65796714Y-33428279D01*
X65796719Y-33428284D01*
X65880344Y-33492451D01*
X65922158Y-33524536D01*
X66068237Y-33585044D01*
X66224999Y-33605682D01*
X66381761Y-33585044D01*
X66527840Y-33524536D01*
X66653281Y-33428282D01*
X66749535Y-33302841D01*
X66810043Y-33156762D01*
X66830681Y-33000000D01*
X71619318Y-33000000D01*
X71639955Y-33156760D01*
X71639955Y-33156761D01*
X71700464Y-33302841D01*
X71796715Y-33428279D01*
X71796720Y-33428284D01*
X71880345Y-33492451D01*
X71922159Y-33524536D01*
X72068238Y-33585044D01*
X72225000Y-33605682D01*
X72381762Y-33585044D01*
X72527841Y-33524536D01*
X72653282Y-33428282D01*
X72749536Y-33302841D01*
X72810044Y-33156762D01*
X72830682Y-33000000D01*
X72810044Y-32843238D01*
X72749536Y-32697159D01*
X72653282Y-32571718D01*
X72653279Y-32571715D01*
X72527841Y-32475464D01*
X72381761Y-32414955D01*
X72225000Y-32394318D01*
X72068239Y-32414955D01*
X72068238Y-32414955D01*
X71922158Y-32475464D01*
X71796720Y-32571715D01*
X71796715Y-32571720D01*
X71700464Y-32697158D01*
X71639955Y-32843238D01*
X71639955Y-32843239D01*
X71619318Y-33000000D01*
X66830681Y-33000000D01*
X66810043Y-32843238D01*
X66749535Y-32697159D01*
X66653281Y-32571718D01*
X66653278Y-32571715D01*
X66527840Y-32475464D01*
X66381760Y-32414955D01*
X66224999Y-32394318D01*
X66068238Y-32414955D01*
X66068237Y-32414955D01*
X65922157Y-32475464D01*
X65796719Y-32571715D01*
X65796714Y-32571720D01*
X65700463Y-32697158D01*
X65639954Y-32843238D01*
X65639954Y-32843239D01*
X65619317Y-33000000D01*
X60830682Y-33000000D01*
X60810044Y-32843238D01*
X60749536Y-32697159D01*
X60653282Y-32571718D01*
X60653279Y-32571715D01*
X60527841Y-32475464D01*
X60381761Y-32414955D01*
X60225000Y-32394318D01*
X60068239Y-32414955D01*
X60068238Y-32414955D01*
X59922158Y-32475464D01*
X59796720Y-32571715D01*
X59796715Y-32571720D01*
X59700464Y-32697158D01*
X59639955Y-32843238D01*
X59639955Y-32843239D01*
X59619318Y-33000000D01*
X56430682Y-33000000D01*
X56410044Y-32843238D01*
X56349536Y-32697159D01*
X56253282Y-32571718D01*
X56253279Y-32571715D01*
X56127841Y-32475464D01*
X55981761Y-32414955D01*
X55825000Y-32394318D01*
X55668239Y-32414955D01*
X55668238Y-32414955D01*
X55522158Y-32475464D01*
X55396720Y-32571715D01*
X55396715Y-32571720D01*
X55300464Y-32697158D01*
X55239955Y-32843238D01*
X55239955Y-32843239D01*
X55219318Y-33000000D01*
X54780682Y-33000000D01*
X54760044Y-32843238D01*
X54699536Y-32697159D01*
X54603282Y-32571718D01*
X54603279Y-32571715D01*
X54477841Y-32475464D01*
X54331761Y-32414955D01*
X54175000Y-32394318D01*
X54018239Y-32414955D01*
X54018238Y-32414955D01*
X53872158Y-32475464D01*
X53746720Y-32571715D01*
X53746715Y-32571720D01*
X53650464Y-32697158D01*
X53589955Y-32843238D01*
X53589955Y-32843239D01*
X53569318Y-33000000D01*
X48780682Y-33000000D01*
X48760044Y-32843238D01*
X48699536Y-32697159D01*
X48603282Y-32571718D01*
X48603279Y-32571715D01*
X48477841Y-32475464D01*
X48331761Y-32414955D01*
X48175000Y-32394318D01*
X48018239Y-32414955D01*
X48018238Y-32414955D01*
X47872158Y-32475464D01*
X47746720Y-32571715D01*
X47746715Y-32571720D01*
X47650464Y-32697158D01*
X47589955Y-32843238D01*
X47589955Y-32843239D01*
X47569318Y-33000000D01*
X36780682Y-33000000D01*
X36760044Y-32843238D01*
X36699536Y-32697159D01*
X36603282Y-32571718D01*
X36603279Y-32571715D01*
X36477841Y-32475464D01*
X36331761Y-32414955D01*
X36175000Y-32394318D01*
X36018239Y-32414955D01*
X36018238Y-32414955D01*
X35872158Y-32475464D01*
X35746720Y-32571715D01*
X35746715Y-32571720D01*
X35650464Y-32697158D01*
X35589955Y-32843238D01*
X35589955Y-32843239D01*
X35569318Y-33000000D01*
X30830682Y-33000000D01*
X30810044Y-32843238D01*
X30749536Y-32697159D01*
X30653282Y-32571718D01*
X30653279Y-32571715D01*
X30527841Y-32475464D01*
X30381761Y-32414955D01*
X30225000Y-32394318D01*
X30068239Y-32414955D01*
X30068238Y-32414955D01*
X29922158Y-32475464D01*
X29796720Y-32571715D01*
X29796715Y-32571720D01*
X29700464Y-32697158D01*
X29639955Y-32843238D01*
X29639955Y-32843239D01*
X29619318Y-33000000D01*
X24780682Y-33000000D01*
X24760044Y-32843238D01*
X24699536Y-32697159D01*
X24603282Y-32571718D01*
X24603279Y-32571715D01*
X24477841Y-32475464D01*
X24331761Y-32414955D01*
X24175000Y-32394318D01*
X24018239Y-32414955D01*
X24018238Y-32414955D01*
X23872158Y-32475464D01*
X23746720Y-32571715D01*
X23746715Y-32571720D01*
X23650464Y-32697158D01*
X23589955Y-32843238D01*
X23589955Y-32843239D01*
X23569318Y-33000000D01*
X1000000Y-33000000D01*
X1000000Y-23654369D01*
X1017313Y-23606803D01*
X1048300Y-23584975D01*
X1122667Y-23557433D01*
X1295260Y-23449855D01*
X1442671Y-23309731D01*
X1558857Y-23142802D01*
X1558857Y-23142801D01*
X1639058Y-22955911D01*
X1639061Y-22955901D01*
X1679999Y-22756696D01*
X1680000Y-22756688D01*
X1680000Y-22680000D01*
X3644318Y-22680000D01*
X3664955Y-22836760D01*
X3664955Y-22836761D01*
X3725464Y-22982841D01*
X3821715Y-23108279D01*
X3821720Y-23108284D01*
X3866704Y-23142801D01*
X3947159Y-23204536D01*
X4093238Y-23265044D01*
X4250000Y-23285682D01*
X4406762Y-23265044D01*
X4552841Y-23204536D01*
X4678282Y-23108282D01*
X4691291Y-23091327D01*
X4733982Y-23064129D01*
X4784168Y-23070735D01*
X4808709Y-23091328D01*
X4821716Y-23108280D01*
X4821720Y-23108284D01*
X4866704Y-23142801D01*
X4947159Y-23204536D01*
X5093238Y-23265044D01*
X5250000Y-23285682D01*
X5406762Y-23265044D01*
X5552841Y-23204536D01*
X5678282Y-23108282D01*
X5691291Y-23091327D01*
X5733982Y-23064129D01*
X5784168Y-23070735D01*
X5808709Y-23091328D01*
X5821716Y-23108280D01*
X5821720Y-23108284D01*
X5866704Y-23142801D01*
X5947159Y-23204536D01*
X6093238Y-23265044D01*
X6250000Y-23285682D01*
X6406762Y-23265044D01*
X6552841Y-23204536D01*
X6678282Y-23108282D01*
X6774536Y-22982841D01*
X6835044Y-22836762D01*
X6855682Y-22680000D01*
X6835044Y-22523238D01*
X6774536Y-22377159D01*
X6712161Y-22295870D01*
X6678284Y-22251720D01*
X6678279Y-22251715D01*
X6552841Y-22155464D01*
X6406761Y-22094955D01*
X6250000Y-22074318D01*
X6093239Y-22094955D01*
X6093238Y-22094955D01*
X5947158Y-22155464D01*
X5821722Y-22251713D01*
X5821718Y-22251717D01*
X5821718Y-22251718D01*
X5812719Y-22263444D01*
X5808707Y-22268674D01*
X5766014Y-22295870D01*
X5715828Y-22289262D01*
X5691293Y-22268674D01*
X5690282Y-22267357D01*
X5678282Y-22251718D01*
X5678279Y-22251715D01*
X5678277Y-22251713D01*
X5552841Y-22155464D01*
X5406761Y-22094955D01*
X5250000Y-22074318D01*
X5093239Y-22094955D01*
X5093238Y-22094955D01*
X4947158Y-22155464D01*
X4821722Y-22251713D01*
X4821718Y-22251717D01*
X4821718Y-22251718D01*
X4812719Y-22263444D01*
X4808707Y-22268674D01*
X4766014Y-22295870D01*
X4715828Y-22289262D01*
X4691293Y-22268674D01*
X4690282Y-22267357D01*
X4678282Y-22251718D01*
X4678279Y-22251715D01*
X4678277Y-22251713D01*
X4552841Y-22155464D01*
X4406761Y-22094955D01*
X4250000Y-22074318D01*
X4093239Y-22094955D01*
X4093238Y-22094955D01*
X3947158Y-22155464D01*
X3821720Y-22251715D01*
X3821715Y-22251720D01*
X3725464Y-22377158D01*
X3664955Y-22523238D01*
X3664955Y-22523239D01*
X3644318Y-22680000D01*
X1680000Y-22680000D01*
X1680000Y-22355000D01*
X1000000Y-22355000D01*
X1000000Y-21855000D01*
X1541349Y-21855000D01*
X1588915Y-21872313D01*
X1605435Y-21892000D01*
X1607301Y-21895232D01*
X1607302Y-21895233D01*
X1699549Y-22015451D01*
X1819767Y-22107698D01*
X1959764Y-22165687D01*
X2072280Y-22180500D01*
X2072282Y-22180500D01*
X2147718Y-22180500D01*
X2147720Y-22180500D01*
X2260236Y-22165687D01*
X2400233Y-22107698D01*
X2520451Y-22015451D01*
X2612698Y-21895233D01*
X2670687Y-21755236D01*
X2690466Y-21605000D01*
X7309534Y-21605000D01*
X7329312Y-21755234D01*
X7329312Y-21755235D01*
X7370637Y-21855000D01*
X7387302Y-21895233D01*
X7479549Y-22015451D01*
X7599767Y-22107698D01*
X7739764Y-22165687D01*
X7852280Y-22180500D01*
X7852282Y-22180500D01*
X7927718Y-22180500D01*
X7927720Y-22180500D01*
X8040236Y-22165687D01*
X8180233Y-22107698D01*
X8300451Y-22015451D01*
X8392698Y-21895233D01*
X8392699Y-21895229D01*
X8394565Y-21892000D01*
X8433341Y-21859463D01*
X8458651Y-21855000D01*
X9020000Y-21855000D01*
X9020000Y-22355000D01*
X8320000Y-22355000D01*
X8320000Y-22705719D01*
X8335417Y-22857333D01*
X8335419Y-22857338D01*
X8396300Y-23051384D01*
X8396301Y-23051385D01*
X8495006Y-23229217D01*
X8495010Y-23229222D01*
X8627477Y-23383528D01*
X8627479Y-23383531D01*
X8788303Y-23508017D01*
X8788305Y-23508019D01*
X8970902Y-23597586D01*
X8970906Y-23597588D01*
X9070000Y-23623244D01*
X9070000Y-22821110D01*
X9094457Y-22860610D01*
X9183962Y-22928201D01*
X9291840Y-22958895D01*
X9403521Y-22948546D01*
X9503922Y-22898552D01*
X9570000Y-22826069D01*
X9570000Y-23628365D01*
X9571944Y-23628068D01*
X9762665Y-23557434D01*
X9854802Y-23500005D01*
X20644843Y-23500005D01*
X20665430Y-23735317D01*
X20665431Y-23735325D01*
X20726566Y-23963483D01*
X20726571Y-23963494D01*
X20826402Y-24177582D01*
X20885072Y-24261373D01*
X21516922Y-23629522D01*
X21540507Y-23709844D01*
X21618239Y-23830798D01*
X21726900Y-23924952D01*
X21857685Y-23984680D01*
X21867466Y-23986086D01*
X21238626Y-24614925D01*
X21322420Y-24673598D01*
X21536505Y-24773428D01*
X21536516Y-24773433D01*
X21764674Y-24834568D01*
X21764682Y-24834569D01*
X21999995Y-24855157D01*
X22000005Y-24855157D01*
X22235317Y-24834569D01*
X22235325Y-24834568D01*
X22463483Y-24773433D01*
X22463494Y-24773428D01*
X22677579Y-24673598D01*
X22761373Y-24614926D01*
X22132533Y-23986086D01*
X22142315Y-23984680D01*
X22273100Y-23924952D01*
X22381761Y-23830798D01*
X22459493Y-23709844D01*
X22483076Y-23629523D01*
X23114926Y-24261373D01*
X23173598Y-24177579D01*
X23273428Y-23963494D01*
X23273433Y-23963483D01*
X23334568Y-23735325D01*
X23334569Y-23735317D01*
X23355157Y-23500005D01*
X27144843Y-23500005D01*
X27165430Y-23735317D01*
X27165431Y-23735325D01*
X27226566Y-23963483D01*
X27226571Y-23963494D01*
X27326402Y-24177582D01*
X27385072Y-24261373D01*
X28016922Y-23629522D01*
X28040507Y-23709844D01*
X28118239Y-23830798D01*
X28226900Y-23924952D01*
X28357685Y-23984680D01*
X28367466Y-23986086D01*
X27738626Y-24614925D01*
X27822420Y-24673598D01*
X28036505Y-24773428D01*
X28036516Y-24773433D01*
X28264674Y-24834568D01*
X28264682Y-24834569D01*
X28499995Y-24855157D01*
X28500005Y-24855157D01*
X28735317Y-24834569D01*
X28735325Y-24834568D01*
X28963483Y-24773433D01*
X28963494Y-24773428D01*
X29177579Y-24673598D01*
X29261373Y-24614926D01*
X28632533Y-23986086D01*
X28642315Y-23984680D01*
X28773100Y-23924952D01*
X28881761Y-23830798D01*
X28959493Y-23709844D01*
X28983076Y-23629523D01*
X29614926Y-24261373D01*
X29673598Y-24177579D01*
X29773428Y-23963494D01*
X29773433Y-23963483D01*
X29834568Y-23735325D01*
X29834569Y-23735317D01*
X29855157Y-23500005D01*
X45644843Y-23500005D01*
X45665430Y-23735317D01*
X45665431Y-23735325D01*
X45726566Y-23963483D01*
X45726571Y-23963494D01*
X45826402Y-24177582D01*
X45885072Y-24261373D01*
X46516922Y-23629522D01*
X46540507Y-23709844D01*
X46618239Y-23830798D01*
X46726900Y-23924952D01*
X46857685Y-23984680D01*
X46867466Y-23986086D01*
X46238626Y-24614925D01*
X46322420Y-24673598D01*
X46536505Y-24773428D01*
X46536516Y-24773433D01*
X46764674Y-24834568D01*
X46764682Y-24834569D01*
X46999995Y-24855157D01*
X47000005Y-24855157D01*
X47235317Y-24834569D01*
X47235325Y-24834568D01*
X47463483Y-24773433D01*
X47463494Y-24773428D01*
X47677579Y-24673598D01*
X47761373Y-24614926D01*
X47132533Y-23986086D01*
X47142315Y-23984680D01*
X47273100Y-23924952D01*
X47381761Y-23830798D01*
X47459493Y-23709844D01*
X47483076Y-23629523D01*
X48114926Y-24261373D01*
X48173598Y-24177579D01*
X48273428Y-23963494D01*
X48273433Y-23963483D01*
X48334568Y-23735325D01*
X48334569Y-23735317D01*
X48355157Y-23500005D01*
X52144843Y-23500005D01*
X52165430Y-23735317D01*
X52165431Y-23735325D01*
X52226566Y-23963483D01*
X52226571Y-23963494D01*
X52326402Y-24177582D01*
X52385072Y-24261373D01*
X53016922Y-23629522D01*
X53040507Y-23709844D01*
X53118239Y-23830798D01*
X53226900Y-23924952D01*
X53357685Y-23984680D01*
X53367466Y-23986086D01*
X52738626Y-24614925D01*
X52822420Y-24673598D01*
X53036505Y-24773428D01*
X53036516Y-24773433D01*
X53264674Y-24834568D01*
X53264682Y-24834569D01*
X53499995Y-24855157D01*
X53500005Y-24855157D01*
X53735317Y-24834569D01*
X53735325Y-24834568D01*
X53963483Y-24773433D01*
X53963494Y-24773428D01*
X54177579Y-24673598D01*
X54261373Y-24614926D01*
X53632533Y-23986086D01*
X53642315Y-23984680D01*
X53773100Y-23924952D01*
X53881761Y-23830798D01*
X53959493Y-23709844D01*
X53983076Y-23629523D01*
X54614926Y-24261373D01*
X54673598Y-24177579D01*
X54773428Y-23963494D01*
X54773433Y-23963483D01*
X54834568Y-23735325D01*
X54834569Y-23735317D01*
X54855157Y-23500005D01*
X70644843Y-23500005D01*
X70665430Y-23735317D01*
X70665431Y-23735325D01*
X70726566Y-23963483D01*
X70726571Y-23963494D01*
X70826402Y-24177582D01*
X70885072Y-24261373D01*
X71516922Y-23629522D01*
X71540507Y-23709844D01*
X71618239Y-23830798D01*
X71726900Y-23924952D01*
X71857685Y-23984680D01*
X71867466Y-23986086D01*
X71238626Y-24614925D01*
X71322420Y-24673598D01*
X71536505Y-24773428D01*
X71536516Y-24773433D01*
X71764674Y-24834568D01*
X71764682Y-24834569D01*
X71999995Y-24855157D01*
X72000005Y-24855157D01*
X72235317Y-24834569D01*
X72235325Y-24834568D01*
X72463483Y-24773433D01*
X72463494Y-24773428D01*
X72677579Y-24673598D01*
X72761373Y-24614926D01*
X72132533Y-23986086D01*
X72142315Y-23984680D01*
X72273100Y-23924952D01*
X72381761Y-23830798D01*
X72459493Y-23709844D01*
X72483076Y-23629523D01*
X73114926Y-24261373D01*
X73173598Y-24177579D01*
X73273428Y-23963494D01*
X73273433Y-23963483D01*
X73334568Y-23735325D01*
X73334569Y-23735317D01*
X73355157Y-23500005D01*
X73355157Y-23499994D01*
X73334569Y-23264682D01*
X73334568Y-23264674D01*
X73273433Y-23036516D01*
X73273428Y-23036505D01*
X73173596Y-22822416D01*
X73114925Y-22738625D01*
X72483076Y-23370475D01*
X72459493Y-23290156D01*
X72381761Y-23169202D01*
X72273100Y-23075048D01*
X72142315Y-23015320D01*
X72132531Y-23013913D01*
X72761373Y-22385072D01*
X72677582Y-22326402D01*
X72463494Y-22226571D01*
X72463483Y-22226566D01*
X72235325Y-22165431D01*
X72235317Y-22165430D01*
X72000005Y-22144843D01*
X71999995Y-22144843D01*
X71764682Y-22165430D01*
X71764674Y-22165431D01*
X71536516Y-22226566D01*
X71536505Y-22226571D01*
X71322420Y-22326401D01*
X71238625Y-22385072D01*
X71867466Y-23013913D01*
X71857685Y-23015320D01*
X71726900Y-23075048D01*
X71618239Y-23169202D01*
X71540507Y-23290156D01*
X71516923Y-23370476D01*
X70885072Y-22738625D01*
X70826401Y-22822420D01*
X70726571Y-23036505D01*
X70726566Y-23036516D01*
X70665431Y-23264674D01*
X70665430Y-23264682D01*
X70644843Y-23499994D01*
X70644843Y-23500005D01*
X54855157Y-23500005D01*
X54855157Y-23499994D01*
X54834569Y-23264682D01*
X54834568Y-23264674D01*
X54773433Y-23036516D01*
X54773428Y-23036505D01*
X54673596Y-22822416D01*
X54614925Y-22738625D01*
X53983076Y-23370475D01*
X53959493Y-23290156D01*
X53881761Y-23169202D01*
X53773100Y-23075048D01*
X53642315Y-23015320D01*
X53632531Y-23013913D01*
X54261373Y-22385072D01*
X54177582Y-22326402D01*
X53963494Y-22226571D01*
X53963483Y-22226566D01*
X53735325Y-22165431D01*
X53735317Y-22165430D01*
X53500005Y-22144843D01*
X53499995Y-22144843D01*
X53264682Y-22165430D01*
X53264674Y-22165431D01*
X53036516Y-22226566D01*
X53036505Y-22226571D01*
X52822420Y-22326401D01*
X52738625Y-22385072D01*
X53367466Y-23013913D01*
X53357685Y-23015320D01*
X53226900Y-23075048D01*
X53118239Y-23169202D01*
X53040507Y-23290156D01*
X53016923Y-23370476D01*
X52385072Y-22738625D01*
X52326401Y-22822420D01*
X52226571Y-23036505D01*
X52226566Y-23036516D01*
X52165431Y-23264674D01*
X52165430Y-23264682D01*
X52144843Y-23499994D01*
X52144843Y-23500005D01*
X48355157Y-23500005D01*
X48355157Y-23499994D01*
X48334569Y-23264682D01*
X48334568Y-23264674D01*
X48273433Y-23036516D01*
X48273428Y-23036505D01*
X48173596Y-22822416D01*
X48114925Y-22738625D01*
X47483076Y-23370475D01*
X47459493Y-23290156D01*
X47381761Y-23169202D01*
X47273100Y-23075048D01*
X47142315Y-23015320D01*
X47132531Y-23013913D01*
X47761373Y-22385072D01*
X47677582Y-22326402D01*
X47463494Y-22226571D01*
X47463483Y-22226566D01*
X47235325Y-22165431D01*
X47235317Y-22165430D01*
X47000005Y-22144843D01*
X46999995Y-22144843D01*
X46764682Y-22165430D01*
X46764674Y-22165431D01*
X46536516Y-22226566D01*
X46536505Y-22226571D01*
X46322420Y-22326401D01*
X46238625Y-22385072D01*
X46867466Y-23013913D01*
X46857685Y-23015320D01*
X46726900Y-23075048D01*
X46618239Y-23169202D01*
X46540507Y-23290156D01*
X46516923Y-23370476D01*
X45885072Y-22738625D01*
X45826401Y-22822420D01*
X45726571Y-23036505D01*
X45726566Y-23036516D01*
X45665431Y-23264674D01*
X45665430Y-23264682D01*
X45644843Y-23499994D01*
X45644843Y-23500005D01*
X29855157Y-23500005D01*
X29855157Y-23499994D01*
X29834569Y-23264682D01*
X29834568Y-23264674D01*
X29773433Y-23036516D01*
X29773428Y-23036505D01*
X29673596Y-22822416D01*
X29614925Y-22738625D01*
X28983076Y-23370475D01*
X28959493Y-23290156D01*
X28881761Y-23169202D01*
X28773100Y-23075048D01*
X28642315Y-23015320D01*
X28632531Y-23013913D01*
X29261373Y-22385072D01*
X29177582Y-22326402D01*
X28963494Y-22226571D01*
X28963483Y-22226566D01*
X28735325Y-22165431D01*
X28735317Y-22165430D01*
X28500005Y-22144843D01*
X28499995Y-22144843D01*
X28264682Y-22165430D01*
X28264674Y-22165431D01*
X28036516Y-22226566D01*
X28036505Y-22226571D01*
X27822420Y-22326401D01*
X27738625Y-22385072D01*
X28367466Y-23013913D01*
X28357685Y-23015320D01*
X28226900Y-23075048D01*
X28118239Y-23169202D01*
X28040507Y-23290156D01*
X28016923Y-23370476D01*
X27385072Y-22738625D01*
X27326401Y-22822420D01*
X27226571Y-23036505D01*
X27226566Y-23036516D01*
X27165431Y-23264674D01*
X27165430Y-23264682D01*
X27144843Y-23499994D01*
X27144843Y-23500005D01*
X23355157Y-23500005D01*
X23355157Y-23499994D01*
X23334569Y-23264682D01*
X23334568Y-23264674D01*
X23273433Y-23036516D01*
X23273428Y-23036505D01*
X23173596Y-22822416D01*
X23114925Y-22738625D01*
X22483076Y-23370475D01*
X22459493Y-23290156D01*
X22381761Y-23169202D01*
X22273100Y-23075048D01*
X22142315Y-23015320D01*
X22132531Y-23013913D01*
X22761373Y-22385072D01*
X22677582Y-22326402D01*
X22463494Y-22226571D01*
X22463483Y-22226566D01*
X22235325Y-22165431D01*
X22235317Y-22165430D01*
X22000005Y-22144843D01*
X21999995Y-22144843D01*
X21764682Y-22165430D01*
X21764674Y-22165431D01*
X21536516Y-22226566D01*
X21536505Y-22226571D01*
X21322420Y-22326401D01*
X21238625Y-22385072D01*
X21867466Y-23013913D01*
X21857685Y-23015320D01*
X21726900Y-23075048D01*
X21618239Y-23169202D01*
X21540507Y-23290156D01*
X21516923Y-23370476D01*
X20885072Y-22738625D01*
X20826401Y-22822420D01*
X20726571Y-23036505D01*
X20726566Y-23036516D01*
X20665431Y-23264674D01*
X20665430Y-23264682D01*
X20644843Y-23499994D01*
X20644843Y-23500005D01*
X9854802Y-23500005D01*
X9935260Y-23449855D01*
X10082671Y-23309731D01*
X10198857Y-23142802D01*
X10198857Y-23142801D01*
X10279058Y-22955911D01*
X10279061Y-22955901D01*
X10319999Y-22756696D01*
X10320000Y-22756688D01*
X10320000Y-22355000D01*
X9620000Y-22355000D01*
X9620000Y-21855000D01*
X10320000Y-21855000D01*
X10320000Y-21504289D01*
X10319999Y-21504280D01*
X10304582Y-21352666D01*
X10304580Y-21352661D01*
X10243699Y-21158615D01*
X10243698Y-21158614D01*
X10144993Y-20980782D01*
X10144989Y-20980777D01*
X10012522Y-20826471D01*
X10012520Y-20826468D01*
X9851696Y-20701982D01*
X9851694Y-20701980D01*
X9669097Y-20612413D01*
X9669092Y-20612411D01*
X9570000Y-20586754D01*
X9570000Y-21388889D01*
X9545543Y-21349390D01*
X9456038Y-21281799D01*
X9348160Y-21251105D01*
X9236479Y-21261454D01*
X9136078Y-21311448D01*
X9070000Y-21383930D01*
X9070000Y-20581632D01*
X9068059Y-20581930D01*
X9068054Y-20581931D01*
X8877334Y-20652565D01*
X8704739Y-20760144D01*
X8557328Y-20900268D01*
X8441142Y-21067197D01*
X8441142Y-21067198D01*
X8402715Y-21156745D01*
X8368047Y-21193629D01*
X8317782Y-21199600D01*
X8289663Y-21186271D01*
X8180233Y-21102302D01*
X8040235Y-21044312D01*
X7953897Y-21032946D01*
X7927720Y-21029500D01*
X7852280Y-21029500D01*
X7826102Y-21032946D01*
X7739765Y-21044312D01*
X7739764Y-21044312D01*
X7599766Y-21102302D01*
X7479549Y-21194549D01*
X7387302Y-21314766D01*
X7329312Y-21454764D01*
X7329312Y-21454765D01*
X7309534Y-21605000D01*
X2690466Y-21605000D01*
X2670687Y-21454764D01*
X2612698Y-21314767D01*
X2520451Y-21194549D01*
X2400233Y-21102302D01*
X2260235Y-21044312D01*
X2173897Y-21032946D01*
X2147720Y-21029500D01*
X2072280Y-21029500D01*
X2046102Y-21032946D01*
X1959765Y-21044312D01*
X1959764Y-21044312D01*
X1819766Y-21102302D01*
X1714412Y-21183144D01*
X1666135Y-21198366D01*
X1619370Y-21178995D01*
X1604661Y-21160348D01*
X1504995Y-20980786D01*
X1504989Y-20980777D01*
X1372522Y-20826471D01*
X1372520Y-20826468D01*
X1211696Y-20701982D01*
X1211694Y-20701980D01*
X1041411Y-20618453D01*
X1006330Y-20581961D01*
X1000000Y-20552015D01*
X1000000Y-19894863D01*
X20849500Y-19894863D01*
X20852414Y-19919986D01*
X20852415Y-19919991D01*
X20897794Y-20022765D01*
X20977235Y-20102206D01*
X21080009Y-20147585D01*
X21105135Y-20150500D01*
X22894864Y-20150499D01*
X22919991Y-20147585D01*
X23022765Y-20102206D01*
X23102206Y-20022765D01*
X23147585Y-19919991D01*
X23150500Y-19894865D01*
X23150500Y-19000003D01*
X27344571Y-19000003D01*
X27364242Y-19212303D01*
X27364243Y-19212309D01*
X27422593Y-19417383D01*
X27422596Y-19417393D01*
X27517632Y-19608252D01*
X27517634Y-19608255D01*
X27646128Y-19778407D01*
X27803698Y-19922052D01*
X27984981Y-20034298D01*
X28183802Y-20111321D01*
X28393390Y-20150500D01*
X28606610Y-20150500D01*
X28816198Y-20111321D01*
X29015019Y-20034298D01*
X29196302Y-19922052D01*
X29226127Y-19894863D01*
X45849500Y-19894863D01*
X45852414Y-19919986D01*
X45852415Y-19919991D01*
X45897794Y-20022765D01*
X45977235Y-20102206D01*
X46080009Y-20147585D01*
X46105135Y-20150500D01*
X47894864Y-20150499D01*
X47919991Y-20147585D01*
X48022765Y-20102206D01*
X48102206Y-20022765D01*
X48147585Y-19919991D01*
X48150500Y-19894865D01*
X48150500Y-19000003D01*
X52344571Y-19000003D01*
X52364242Y-19212303D01*
X52364243Y-19212309D01*
X52422593Y-19417383D01*
X52422596Y-19417393D01*
X52517632Y-19608252D01*
X52517634Y-19608255D01*
X52646128Y-19778407D01*
X52803698Y-19922052D01*
X52984981Y-20034298D01*
X53183802Y-20111321D01*
X53393390Y-20150500D01*
X53606610Y-20150500D01*
X53816198Y-20111321D01*
X54015019Y-20034298D01*
X54196302Y-19922052D01*
X54226127Y-19894863D01*
X70849500Y-19894863D01*
X70852414Y-19919986D01*
X70852415Y-19919991D01*
X70897794Y-20022765D01*
X70977235Y-20102206D01*
X71080009Y-20147585D01*
X71105135Y-20150500D01*
X72894864Y-20150499D01*
X72919991Y-20147585D01*
X73022765Y-20102206D01*
X73102206Y-20022765D01*
X73147585Y-19919991D01*
X73150500Y-19894865D01*
X73150499Y-18105136D01*
X73147585Y-18080009D01*
X73102206Y-17977235D01*
X73022765Y-17897794D01*
X72919991Y-17852415D01*
X72919990Y-17852414D01*
X72919988Y-17852414D01*
X72898659Y-17849940D01*
X72894865Y-17849500D01*
X72894864Y-17849500D01*
X71105136Y-17849500D01*
X71080013Y-17852414D01*
X71080007Y-17852415D01*
X70977234Y-17897794D01*
X70897794Y-17977234D01*
X70852414Y-18080011D01*
X70849500Y-18105135D01*
X70849500Y-19894863D01*
X54226127Y-19894863D01*
X54353872Y-19778407D01*
X54482366Y-19608255D01*
X54577405Y-19417389D01*
X54635756Y-19212310D01*
X54638934Y-19178019D01*
X54655429Y-19000003D01*
X54655429Y-18999996D01*
X54635757Y-18787696D01*
X54635756Y-18787690D01*
X54589722Y-18625901D01*
X54577405Y-18582611D01*
X54571979Y-18571715D01*
X54482367Y-18391747D01*
X54482363Y-18391741D01*
X54452957Y-18352802D01*
X54353872Y-18221593D01*
X54196302Y-18077948D01*
X54015019Y-17965702D01*
X53816198Y-17888679D01*
X53724150Y-17871472D01*
X53606613Y-17849500D01*
X53606610Y-17849500D01*
X53393390Y-17849500D01*
X53393386Y-17849500D01*
X53236670Y-17878796D01*
X53183802Y-17888679D01*
X53183800Y-17888679D01*
X53183798Y-17888680D01*
X52984986Y-17965700D01*
X52984981Y-17965702D01*
X52984976Y-17965704D01*
X52984976Y-17965705D01*
X52803700Y-18077946D01*
X52646130Y-18221590D01*
X52517636Y-18391741D01*
X52517632Y-18391747D01*
X52422596Y-18582606D01*
X52422593Y-18582616D01*
X52364243Y-18787690D01*
X52364242Y-18787696D01*
X52344571Y-18999996D01*
X52344571Y-19000003D01*
X48150500Y-19000003D01*
X48150499Y-18105136D01*
X48147585Y-18080009D01*
X48102206Y-17977235D01*
X48022765Y-17897794D01*
X47919991Y-17852415D01*
X47919990Y-17852414D01*
X47919988Y-17852414D01*
X47898659Y-17849940D01*
X47894865Y-17849500D01*
X47894864Y-17849500D01*
X46105136Y-17849500D01*
X46080013Y-17852414D01*
X46080007Y-17852415D01*
X45977234Y-17897794D01*
X45897794Y-17977234D01*
X45852414Y-18080011D01*
X45849500Y-18105135D01*
X45849500Y-19894863D01*
X29226127Y-19894863D01*
X29353872Y-19778407D01*
X29482366Y-19608255D01*
X29577405Y-19417389D01*
X29635756Y-19212310D01*
X29638934Y-19178019D01*
X29655429Y-19000003D01*
X29655429Y-18999996D01*
X29635757Y-18787696D01*
X29635756Y-18787690D01*
X29589722Y-18625901D01*
X29577405Y-18582611D01*
X29571979Y-18571715D01*
X29482367Y-18391747D01*
X29482363Y-18391741D01*
X29452957Y-18352802D01*
X29353872Y-18221593D01*
X29196302Y-18077948D01*
X29015019Y-17965702D01*
X28816198Y-17888679D01*
X28724150Y-17871472D01*
X28606613Y-17849500D01*
X28606610Y-17849500D01*
X28393390Y-17849500D01*
X28393386Y-17849500D01*
X28236670Y-17878796D01*
X28183802Y-17888679D01*
X28183800Y-17888679D01*
X28183798Y-17888680D01*
X27984986Y-17965700D01*
X27984981Y-17965702D01*
X27984976Y-17965704D01*
X27984976Y-17965705D01*
X27803700Y-18077946D01*
X27646130Y-18221590D01*
X27517636Y-18391741D01*
X27517632Y-18391747D01*
X27422596Y-18582606D01*
X27422593Y-18582616D01*
X27364243Y-18787690D01*
X27364242Y-18787696D01*
X27344571Y-18999996D01*
X27344571Y-19000003D01*
X23150500Y-19000003D01*
X23150499Y-18105136D01*
X23147585Y-18080009D01*
X23102206Y-17977235D01*
X23022765Y-17897794D01*
X22919991Y-17852415D01*
X22919990Y-17852414D01*
X22919988Y-17852414D01*
X22898659Y-17849940D01*
X22894865Y-17849500D01*
X22894864Y-17849500D01*
X21105136Y-17849500D01*
X21080013Y-17852414D01*
X21080007Y-17852415D01*
X20977234Y-17897794D01*
X20897794Y-17977234D01*
X20852414Y-18080011D01*
X20849500Y-18105135D01*
X20849500Y-19894863D01*
X1000000Y-19894863D01*
X1000000Y-19324369D01*
X1017313Y-19276803D01*
X1048300Y-19254975D01*
X1122667Y-19227433D01*
X1295260Y-19119855D01*
X1442671Y-18979731D01*
X1558857Y-18812802D01*
X1558857Y-18812801D01*
X1639058Y-18625911D01*
X1639061Y-18625901D01*
X1679999Y-18426696D01*
X1680000Y-18426688D01*
X1680000Y-18375719D01*
X8320000Y-18375719D01*
X8335417Y-18527333D01*
X8335419Y-18527338D01*
X8396300Y-18721384D01*
X8396301Y-18721385D01*
X8495006Y-18899217D01*
X8495010Y-18899222D01*
X8627477Y-19053528D01*
X8627479Y-19053531D01*
X8788303Y-19178017D01*
X8788305Y-19178019D01*
X8970902Y-19267586D01*
X8970906Y-19267588D01*
X9070000Y-19293244D01*
X9070000Y-18491110D01*
X9094457Y-18530610D01*
X9183962Y-18598201D01*
X9291840Y-18628895D01*
X9403521Y-18618546D01*
X9503922Y-18568552D01*
X9570000Y-18496069D01*
X9570000Y-19298365D01*
X9571944Y-19298068D01*
X9762665Y-19227434D01*
X9935260Y-19119855D01*
X10082671Y-18979731D01*
X10198857Y-18812802D01*
X10198857Y-18812801D01*
X10279058Y-18625911D01*
X10279061Y-18625901D01*
X10319999Y-18426696D01*
X10320000Y-18426688D01*
X10320000Y-18175000D01*
X9620000Y-18175000D01*
X9620000Y-17675000D01*
X10320000Y-17675000D01*
X10320000Y-17474289D01*
X10319999Y-17474280D01*
X10304582Y-17322666D01*
X10304580Y-17322661D01*
X10243699Y-17128615D01*
X10243698Y-17128614D01*
X10144993Y-16950782D01*
X10144989Y-16950777D01*
X10012522Y-16796471D01*
X10012520Y-16796468D01*
X9851696Y-16671982D01*
X9851694Y-16671980D01*
X9669097Y-16582413D01*
X9669092Y-16582411D01*
X9570000Y-16556754D01*
X9570000Y-17358889D01*
X9545543Y-17319390D01*
X9456038Y-17251799D01*
X9348160Y-17221105D01*
X9236479Y-17231454D01*
X9136078Y-17281448D01*
X9070000Y-17353930D01*
X9070000Y-16551632D01*
X9068059Y-16551930D01*
X9068054Y-16551931D01*
X8877334Y-16622565D01*
X8704739Y-16730144D01*
X8557328Y-16870268D01*
X8441142Y-17037197D01*
X8441142Y-17037198D01*
X8360941Y-17224088D01*
X8360938Y-17224098D01*
X8320000Y-17423303D01*
X8320000Y-17675000D01*
X9020000Y-17675000D01*
X9020000Y-18175000D01*
X8320000Y-18175000D01*
X8320000Y-18375719D01*
X1680000Y-18375719D01*
X1680000Y-18175000D01*
X1000000Y-18175000D01*
X1000000Y-17675000D01*
X1680000Y-17675000D01*
X1680000Y-17474289D01*
X1679999Y-17474280D01*
X1664582Y-17322666D01*
X1664580Y-17322661D01*
X1603699Y-17128615D01*
X1603698Y-17128614D01*
X1504993Y-16950782D01*
X1504989Y-16950777D01*
X1372522Y-16796471D01*
X1372520Y-16796468D01*
X1211696Y-16671982D01*
X1211694Y-16671980D01*
X1041411Y-16588453D01*
X1006330Y-16551961D01*
X1000000Y-16522015D01*
X1000000Y-7630267D01*
X24673285Y-7630267D01*
X24832045Y-7685820D01*
X24832052Y-7685822D01*
X25000000Y-7704745D01*
X25167947Y-7685822D01*
X25167954Y-7685820D01*
X25326713Y-7630267D01*
X25000000Y-7303553D01*
X24673285Y-7630266D01*
X24673285Y-7630267D01*
X1000000Y-7630267D01*
X1000000Y-7000000D01*
X22994318Y-7000000D01*
X23014955Y-7156760D01*
X23014955Y-7156761D01*
X23075464Y-7302841D01*
X23171715Y-7428279D01*
X23171720Y-7428284D01*
X23255345Y-7492451D01*
X23297159Y-7524536D01*
X23443238Y-7585044D01*
X23600000Y-7605682D01*
X23756762Y-7585044D01*
X23902841Y-7524536D01*
X24028282Y-7428282D01*
X24124536Y-7302841D01*
X24161116Y-7214528D01*
X24195312Y-7177210D01*
X24245498Y-7170602D01*
X24288190Y-7197799D01*
X24299329Y-7218407D01*
X24319731Y-7276713D01*
X24613952Y-6982492D01*
X24900000Y-6982492D01*
X24938197Y-7035065D01*
X24984162Y-7050000D01*
X25015838Y-7050000D01*
X25061803Y-7035065D01*
X25100000Y-6982492D01*
X25100000Y-6917508D01*
X25061803Y-6864935D01*
X25015838Y-6850000D01*
X24984162Y-6850000D01*
X24938197Y-6864935D01*
X24900000Y-6917508D01*
X24900000Y-6982492D01*
X24613952Y-6982492D01*
X24947673Y-6648772D01*
X24993549Y-6627380D01*
X25042444Y-6640481D01*
X25052325Y-6648772D01*
X25680267Y-7276713D01*
X25700669Y-7218408D01*
X25732720Y-7179228D01*
X25782456Y-7169818D01*
X25826606Y-7194579D01*
X25838883Y-7214529D01*
X25875464Y-7302841D01*
X25971715Y-7428279D01*
X25971720Y-7428284D01*
X26055345Y-7492451D01*
X26097159Y-7524536D01*
X26243238Y-7585044D01*
X26400000Y-7605682D01*
X26556762Y-7585044D01*
X26702841Y-7524536D01*
X26828282Y-7428282D01*
X26924536Y-7302841D01*
X26985044Y-7156762D01*
X27005682Y-7000000D01*
X26999099Y-6950000D01*
X29256818Y-6950000D01*
X29277455Y-7106760D01*
X29277455Y-7106761D01*
X29337964Y-7252841D01*
X29434215Y-7378279D01*
X29434220Y-7378284D01*
X29499379Y-7428282D01*
X29559659Y-7474536D01*
X29705738Y-7535044D01*
X29862500Y-7555682D01*
X30019262Y-7535044D01*
X30165341Y-7474536D01*
X30290782Y-7378282D01*
X30387036Y-7252841D01*
X30447544Y-7106762D01*
X30468182Y-6950000D01*
X30447544Y-6793238D01*
X30395712Y-6668104D01*
X36099499Y-6668104D01*
X36109185Y-6748753D01*
X36110123Y-6756564D01*
X36124586Y-6793239D01*
X36165638Y-6897341D01*
X36165639Y-6897342D01*
X36257078Y-7017922D01*
X36377658Y-7109361D01*
X36518436Y-7164877D01*
X36589764Y-7173442D01*
X36606896Y-7175500D01*
X36606898Y-7175500D01*
X37393104Y-7175500D01*
X37408722Y-7173624D01*
X37481564Y-7164877D01*
X37622342Y-7109361D01*
X37742922Y-7017922D01*
X37834361Y-6897342D01*
X37882384Y-6775563D01*
X37915939Y-6737666D01*
X37966004Y-6730203D01*
X38009154Y-6756668D01*
X38016998Y-6768803D01*
X38070410Y-6872408D01*
X38200271Y-7037540D01*
X38359031Y-7175107D01*
X38540964Y-7280146D01*
X38540969Y-7280148D01*
X38739484Y-7348855D01*
X38749999Y-7350366D01*
X38750000Y-7350366D01*
X38750000Y-6280617D01*
X38819052Y-6334363D01*
X38937424Y-6375000D01*
X39031073Y-6375000D01*
X39123446Y-6359586D01*
X39233514Y-6300019D01*
X39250000Y-6282110D01*
X39250000Y-7346258D01*
X39361407Y-7319230D01*
X39552503Y-7231960D01*
X39723624Y-7110105D01*
X39868589Y-6958071D01*
X39982168Y-6781340D01*
X40060244Y-6586314D01*
X40060244Y-6586312D01*
X40100000Y-6380036D01*
X40100000Y-6250000D01*
X39279560Y-6250000D01*
X39318278Y-6207941D01*
X39368551Y-6093330D01*
X39376285Y-6000000D01*
X41619318Y-6000000D01*
X41639955Y-6156760D01*
X41639955Y-6156761D01*
X41700464Y-6302841D01*
X41796715Y-6428279D01*
X41796720Y-6428284D01*
X41845654Y-6465832D01*
X41922159Y-6524536D01*
X42068238Y-6585044D01*
X42225000Y-6605682D01*
X42381762Y-6585044D01*
X42527841Y-6524536D01*
X42653282Y-6428282D01*
X42749536Y-6302841D01*
X42810044Y-6156762D01*
X42830682Y-6000000D01*
X47619318Y-6000000D01*
X47639955Y-6156760D01*
X47639955Y-6156761D01*
X47700464Y-6302841D01*
X47796715Y-6428279D01*
X47796720Y-6428284D01*
X47845654Y-6465832D01*
X47922159Y-6524536D01*
X48068238Y-6585044D01*
X48225000Y-6605682D01*
X48381762Y-6585044D01*
X48527841Y-6524536D01*
X48653282Y-6428282D01*
X48749536Y-6302841D01*
X48810044Y-6156762D01*
X48830682Y-6000000D01*
X55919318Y-6000000D01*
X55939955Y-6156760D01*
X55939955Y-6156761D01*
X56000464Y-6302841D01*
X56096715Y-6428279D01*
X56096720Y-6428284D01*
X56145654Y-6465832D01*
X56222159Y-6524536D01*
X56368238Y-6585044D01*
X56525000Y-6605682D01*
X56681762Y-6585044D01*
X56827841Y-6524536D01*
X56953282Y-6428282D01*
X57049536Y-6302841D01*
X57110044Y-6156762D01*
X57130682Y-6000000D01*
X59619318Y-6000000D01*
X59639955Y-6156760D01*
X59639955Y-6156761D01*
X59700464Y-6302841D01*
X59796715Y-6428279D01*
X59796720Y-6428284D01*
X59845654Y-6465832D01*
X59922159Y-6524536D01*
X60068238Y-6585044D01*
X60225000Y-6605682D01*
X60381762Y-6585044D01*
X60527841Y-6524536D01*
X60653282Y-6428282D01*
X60749536Y-6302841D01*
X60810044Y-6156762D01*
X60830682Y-6000000D01*
X60810044Y-5843238D01*
X60749536Y-5697159D01*
X60688164Y-5617177D01*
X60653284Y-5571720D01*
X60653279Y-5571715D01*
X60527841Y-5475464D01*
X60381761Y-5414955D01*
X60225000Y-5394318D01*
X60068239Y-5414955D01*
X60068238Y-5414955D01*
X59922158Y-5475464D01*
X59796720Y-5571715D01*
X59796715Y-5571720D01*
X59700464Y-5697158D01*
X59639955Y-5843238D01*
X59639955Y-5843239D01*
X59619318Y-6000000D01*
X57130682Y-6000000D01*
X57110044Y-5843238D01*
X57049536Y-5697159D01*
X56988164Y-5617177D01*
X56953284Y-5571720D01*
X56953279Y-5571715D01*
X56827841Y-5475464D01*
X56681761Y-5414955D01*
X56525000Y-5394318D01*
X56368239Y-5414955D01*
X56368238Y-5414955D01*
X56222158Y-5475464D01*
X56096720Y-5571715D01*
X56096715Y-5571720D01*
X56000464Y-5697158D01*
X55939955Y-5843238D01*
X55939955Y-5843239D01*
X55919318Y-6000000D01*
X48830682Y-6000000D01*
X48810044Y-5843238D01*
X48749536Y-5697159D01*
X48688164Y-5617177D01*
X48653284Y-5571720D01*
X48653279Y-5571715D01*
X48527841Y-5475464D01*
X48381761Y-5414955D01*
X48225000Y-5394318D01*
X48068239Y-5414955D01*
X48068238Y-5414955D01*
X47922158Y-5475464D01*
X47796720Y-5571715D01*
X47796715Y-5571720D01*
X47700464Y-5697158D01*
X47639955Y-5843238D01*
X47639955Y-5843239D01*
X47619318Y-6000000D01*
X42830682Y-6000000D01*
X42810044Y-5843238D01*
X42749536Y-5697159D01*
X42688164Y-5617177D01*
X42653284Y-5571720D01*
X42653279Y-5571715D01*
X42527841Y-5475464D01*
X42381761Y-5414955D01*
X42225000Y-5394318D01*
X42068239Y-5414955D01*
X42068238Y-5414955D01*
X41922158Y-5475464D01*
X41796720Y-5571715D01*
X41796715Y-5571720D01*
X41700464Y-5697158D01*
X41639955Y-5843238D01*
X41639955Y-5843239D01*
X41619318Y-6000000D01*
X39376285Y-6000000D01*
X39378886Y-5968605D01*
X39348163Y-5847281D01*
X39284606Y-5750000D01*
X40100000Y-5750000D01*
X40100000Y-5672603D01*
X40099999Y-5672596D01*
X40085034Y-5515872D01*
X40025851Y-5314315D01*
X40025848Y-5314308D01*
X39929591Y-5127592D01*
X39799728Y-4962459D01*
X39640968Y-4824892D01*
X39459035Y-4719853D01*
X39459030Y-4719851D01*
X39260517Y-4651144D01*
X39250000Y-4649632D01*
X39250000Y-5719382D01*
X39180948Y-5665637D01*
X39062576Y-5625000D01*
X38968927Y-5625000D01*
X38876554Y-5640414D01*
X38766486Y-5699981D01*
X38750000Y-5717889D01*
X38750000Y-4653741D01*
X38749999Y-4653741D01*
X38638591Y-4680769D01*
X38447496Y-4768039D01*
X38276375Y-4889894D01*
X38131410Y-5041928D01*
X38017829Y-5218663D01*
X38017662Y-5219082D01*
X38017548Y-5219208D01*
X38016219Y-5221788D01*
X38015549Y-5221442D01*
X37983905Y-5256801D01*
X37933800Y-5263996D01*
X37890792Y-5237301D01*
X37880129Y-5218718D01*
X37834361Y-5102658D01*
X37742922Y-4982078D01*
X37731868Y-4973695D01*
X37622341Y-4890638D01*
X37537079Y-4857015D01*
X37481564Y-4835123D01*
X37445198Y-4830756D01*
X37393104Y-4824500D01*
X37393102Y-4824500D01*
X36606898Y-4824500D01*
X36606896Y-4824500D01*
X36518436Y-4835123D01*
X36377658Y-4890638D01*
X36257078Y-4982077D01*
X36257077Y-4982078D01*
X36165638Y-5102658D01*
X36110123Y-5243436D01*
X36109702Y-5246946D01*
X36099500Y-5331898D01*
X36099500Y-6668102D01*
X36099500Y-6668104D01*
X36099499Y-6668104D01*
X30395712Y-6668104D01*
X30387036Y-6647159D01*
X30319166Y-6558709D01*
X30290784Y-6521720D01*
X30290779Y-6521715D01*
X30165341Y-6425464D01*
X30019261Y-6364955D01*
X29862500Y-6344318D01*
X29705739Y-6364955D01*
X29705738Y-6364955D01*
X29559658Y-6425464D01*
X29434220Y-6521715D01*
X29434215Y-6521720D01*
X29337964Y-6647158D01*
X29277455Y-6793238D01*
X29277455Y-6793239D01*
X29256818Y-6950000D01*
X26999099Y-6950000D01*
X26985044Y-6843238D01*
X26924536Y-6697159D01*
X26870993Y-6627380D01*
X26828284Y-6571720D01*
X26828280Y-6571716D01*
X26811328Y-6558709D01*
X26784129Y-6516018D01*
X26790735Y-6465832D01*
X26811328Y-6441291D01*
X26828279Y-6428284D01*
X26828282Y-6428282D01*
X26924536Y-6302841D01*
X26985044Y-6156762D01*
X27005682Y-6000000D01*
X26985044Y-5843238D01*
X26924536Y-5697159D01*
X26863164Y-5617177D01*
X26828284Y-5571720D01*
X26828279Y-5571715D01*
X26702841Y-5475464D01*
X26556761Y-5414955D01*
X26400000Y-5394318D01*
X26243239Y-5414955D01*
X26243238Y-5414955D01*
X26097158Y-5475464D01*
X25971720Y-5571715D01*
X25971715Y-5571720D01*
X25875464Y-5697158D01*
X25814955Y-5843238D01*
X25814955Y-5843239D01*
X25794318Y-6000000D01*
X25805170Y-6082438D01*
X25794213Y-6131857D01*
X25784129Y-6144422D01*
X25627325Y-6301226D01*
X25581449Y-6322618D01*
X25532554Y-6309517D01*
X25522673Y-6301226D01*
X25273772Y-6052325D01*
X25264524Y-6032492D01*
X25475000Y-6032492D01*
X25513197Y-6085065D01*
X25559162Y-6100000D01*
X25590838Y-6100000D01*
X25636803Y-6085065D01*
X25675000Y-6032492D01*
X25675000Y-5967508D01*
X25636803Y-5914935D01*
X25590838Y-5900000D01*
X25559162Y-5900000D01*
X25513197Y-5914935D01*
X25475000Y-5967508D01*
X25475000Y-6032492D01*
X25264524Y-6032492D01*
X25252380Y-6006449D01*
X25265481Y-5957554D01*
X25273772Y-5947673D01*
X25901713Y-5319731D01*
X25786782Y-5279515D01*
X25747603Y-5247464D01*
X25737688Y-5201382D01*
X25754745Y-5050000D01*
X29256818Y-5050000D01*
X29277455Y-5206760D01*
X29277455Y-5206761D01*
X29337964Y-5352841D01*
X29434215Y-5478279D01*
X29434220Y-5478284D01*
X29483206Y-5515872D01*
X29559659Y-5574536D01*
X29705738Y-5635044D01*
X29862500Y-5655682D01*
X30019262Y-5635044D01*
X30165341Y-5574536D01*
X30290782Y-5478282D01*
X30387036Y-5352841D01*
X30447544Y-5206762D01*
X30468182Y-5050000D01*
X30447544Y-4893238D01*
X30387036Y-4747159D01*
X30315354Y-4653741D01*
X30290784Y-4621720D01*
X30290779Y-4621715D01*
X30165341Y-4525464D01*
X30019261Y-4464955D01*
X29862500Y-4444318D01*
X29705739Y-4464955D01*
X29705738Y-4464955D01*
X29559658Y-4525464D01*
X29434220Y-4621715D01*
X29434215Y-4621720D01*
X29337964Y-4747158D01*
X29277455Y-4893238D01*
X29277455Y-4893239D01*
X29256818Y-5050000D01*
X25754745Y-5050000D01*
X25754745Y-5049999D01*
X25735822Y-4882052D01*
X25735820Y-4882045D01*
X25680267Y-4723285D01*
X25680266Y-4723285D01*
X25052325Y-5351227D01*
X25006449Y-5372619D01*
X24957554Y-5359518D01*
X24947673Y-5351227D01*
X24678938Y-5082492D01*
X24900000Y-5082492D01*
X24938197Y-5135065D01*
X24984162Y-5150000D01*
X25015838Y-5150000D01*
X25061803Y-5135065D01*
X25100000Y-5082492D01*
X25100000Y-5017508D01*
X25061803Y-4964935D01*
X25015838Y-4950000D01*
X24984162Y-4950000D01*
X24938197Y-4964935D01*
X24900000Y-5017508D01*
X24900000Y-5082492D01*
X24678938Y-5082492D01*
X24319731Y-4723285D01*
X24299329Y-4781591D01*
X24267278Y-4820770D01*
X24217541Y-4830180D01*
X24173392Y-4805419D01*
X24161115Y-4785468D01*
X24124536Y-4697159D01*
X24028284Y-4571720D01*
X24028279Y-4571715D01*
X23902841Y-4475464D01*
X23756761Y-4414955D01*
X23600000Y-4394318D01*
X23443239Y-4414955D01*
X23443238Y-4414955D01*
X23297158Y-4475464D01*
X23171720Y-4571715D01*
X23171715Y-4571720D01*
X23075464Y-4697158D01*
X23014955Y-4843238D01*
X23014955Y-4843239D01*
X22994318Y-5000000D01*
X23014955Y-5156761D01*
X23041846Y-5221682D01*
X23044054Y-5272253D01*
X23041846Y-5278318D01*
X23014955Y-5343238D01*
X22994318Y-5500000D01*
X23014955Y-5656760D01*
X23014955Y-5656761D01*
X23075464Y-5802841D01*
X23171715Y-5928279D01*
X23171720Y-5928284D01*
X23209866Y-5957554D01*
X23297159Y-6024536D01*
X23443238Y-6085044D01*
X23600000Y-6105682D01*
X23606204Y-6104865D01*
X23655623Y-6115817D01*
X23686441Y-6155974D01*
X23688128Y-6163927D01*
X23688254Y-6163899D01*
X23689179Y-6167955D01*
X23736802Y-6304053D01*
X23736171Y-6354669D01*
X23703153Y-6393036D01*
X23657296Y-6401861D01*
X23600000Y-6394318D01*
X23443239Y-6414955D01*
X23443238Y-6414955D01*
X23297158Y-6475464D01*
X23171720Y-6571715D01*
X23171715Y-6571720D01*
X23075464Y-6697158D01*
X23014955Y-6843238D01*
X23014955Y-6843239D01*
X22994318Y-7000000D01*
X1000000Y-7000000D01*
X1000000Y-3922900D01*
X9595793Y-3922900D01*
X9605672Y-4230971D01*
X9605674Y-4230989D01*
X9654865Y-4535254D01*
X9654868Y-4535267D01*
X9742398Y-4830180D01*
X9742569Y-4830756D01*
X9862932Y-5102658D01*
X9867341Y-5112617D01*
X9968516Y-5279515D01*
X10027123Y-5376193D01*
X10106289Y-5475464D01*
X10219300Y-5617177D01*
X10219303Y-5617180D01*
X10219304Y-5617181D01*
X10440724Y-5831614D01*
X10687747Y-6015972D01*
X10956318Y-6167228D01*
X11242025Y-6282899D01*
X11540179Y-6361084D01*
X11845878Y-6400499D01*
X11845882Y-6400500D01*
X11845883Y-6400500D01*
X12076974Y-6400500D01*
X12307601Y-6385693D01*
X12610151Y-6326772D01*
X12902683Y-6229644D01*
X13180393Y-6095907D01*
X13438720Y-5927754D01*
X13673424Y-5727948D01*
X13880650Y-5499769D01*
X14056996Y-5246963D01*
X14070185Y-5221682D01*
X14199561Y-4973695D01*
X14199561Y-4973692D01*
X14199567Y-4973683D01*
X14306020Y-4684415D01*
X14374609Y-4383908D01*
X14375977Y-4369731D01*
X24673285Y-4369731D01*
X24999999Y-4696446D01*
X25326713Y-4369731D01*
X25167955Y-4314179D01*
X25167947Y-4314177D01*
X25000000Y-4295254D01*
X24832052Y-4314177D01*
X24832041Y-4314180D01*
X24673285Y-4369730D01*
X24673285Y-4369731D01*
X14375977Y-4369731D01*
X14404206Y-4077098D01*
X14394327Y-3769022D01*
X14345133Y-3464739D01*
X14257431Y-3169244D01*
X14132663Y-2887391D01*
X13972877Y-2623807D01*
X13863802Y-2487031D01*
X13780699Y-2382822D01*
X13559277Y-2168387D01*
X13312252Y-1984027D01*
X13170325Y-1904096D01*
X13043682Y-1832772D01*
X12757975Y-1717101D01*
X12757971Y-1717100D01*
X12757969Y-1717099D01*
X12459818Y-1638915D01*
X12459820Y-1638915D01*
X12154123Y-1599500D01*
X12154117Y-1599500D01*
X11923026Y-1599500D01*
X11692397Y-1614307D01*
X11389851Y-1673227D01*
X11097322Y-1770354D01*
X11097315Y-1770357D01*
X10819605Y-1904094D01*
X10819600Y-1904096D01*
X10561285Y-2072242D01*
X10561278Y-2072247D01*
X10326578Y-2272049D01*
X10119351Y-2500229D01*
X10119349Y-2500231D01*
X9943007Y-2753033D01*
X9942994Y-2753053D01*
X9800438Y-3026304D01*
X9800432Y-3026319D01*
X9693979Y-3315588D01*
X9625392Y-3616087D01*
X9625390Y-3616096D01*
X9595793Y-3922900D01*
X1000000Y-3922900D01*
X1000000Y-1074000D01*
X1017313Y-1026434D01*
X1061150Y-1001124D01*
X1074000Y-1000000D01*
X75176000Y-1000000D01*
X75223566Y-1017313D01*
G37*
%TD.AperFunction*%
%TA.AperFunction,Conductor*%
G36*
X113973566Y-1017313D02*
G01*
X113998876Y-1061150D01*
X114000000Y-1074000D01*
X114000000Y-36926000D01*
X113982687Y-36973566D01*
X113938850Y-36998876D01*
X113926000Y-37000000D01*
X94824000Y-37000000D01*
X94776434Y-36982687D01*
X94751124Y-36938850D01*
X94750000Y-36926000D01*
X94750000Y-33000000D01*
X97694318Y-33000000D01*
X97714955Y-33156760D01*
X97714955Y-33156761D01*
X97775464Y-33302841D01*
X97871715Y-33428279D01*
X97871720Y-33428284D01*
X97955345Y-33492451D01*
X97997159Y-33524536D01*
X98143238Y-33585044D01*
X98300000Y-33605682D01*
X98456762Y-33585044D01*
X98602841Y-33524536D01*
X98728282Y-33428282D01*
X98824536Y-33302841D01*
X98885044Y-33156762D01*
X98905682Y-33000000D01*
X98885044Y-32843238D01*
X98824536Y-32697159D01*
X98728282Y-32571718D01*
X98728279Y-32571715D01*
X98602841Y-32475464D01*
X98456761Y-32414955D01*
X98300000Y-32394318D01*
X98143239Y-32414955D01*
X98143238Y-32414955D01*
X97997158Y-32475464D01*
X97871720Y-32571715D01*
X97871715Y-32571720D01*
X97775464Y-32697158D01*
X97714955Y-32843238D01*
X97714955Y-32843239D01*
X97694318Y-33000000D01*
X94750000Y-33000000D01*
X94750000Y-26000000D01*
X97694318Y-26000000D01*
X97714955Y-26156760D01*
X97714955Y-26156761D01*
X97775464Y-26302841D01*
X97871715Y-26428279D01*
X97871720Y-26428284D01*
X97900209Y-26450144D01*
X97997159Y-26524536D01*
X98143238Y-26585044D01*
X98300000Y-26605682D01*
X98456762Y-26585044D01*
X98602841Y-26524536D01*
X98679953Y-26465365D01*
X98728227Y-26450144D01*
X98770045Y-26465364D01*
X98847159Y-26524536D01*
X98993238Y-26585044D01*
X99150000Y-26605682D01*
X99306762Y-26585044D01*
X99452841Y-26524536D01*
X99578282Y-26428282D01*
X99674536Y-26302841D01*
X99735044Y-26156762D01*
X99755682Y-26000000D01*
X102794318Y-26000000D01*
X102814955Y-26156760D01*
X102814955Y-26156761D01*
X102875464Y-26302841D01*
X102971715Y-26428279D01*
X102971720Y-26428284D01*
X103000209Y-26450144D01*
X103097159Y-26524536D01*
X103243238Y-26585044D01*
X103400000Y-26605682D01*
X103556762Y-26585044D01*
X103702841Y-26524536D01*
X103828282Y-26428282D01*
X103924536Y-26302841D01*
X103985044Y-26156762D01*
X104005682Y-26000000D01*
X107894318Y-26000000D01*
X107914955Y-26156760D01*
X107914955Y-26156761D01*
X107975464Y-26302841D01*
X108071715Y-26428279D01*
X108071720Y-26428284D01*
X108100209Y-26450144D01*
X108197159Y-26524536D01*
X108343238Y-26585044D01*
X108500000Y-26605682D01*
X108656762Y-26585044D01*
X108802841Y-26524536D01*
X108928282Y-26428282D01*
X109024536Y-26302841D01*
X109085044Y-26156762D01*
X109105682Y-26000000D01*
X109085044Y-25843238D01*
X109024536Y-25697159D01*
X108928282Y-25571718D01*
X108928279Y-25571715D01*
X108802841Y-25475464D01*
X108656761Y-25414955D01*
X108500000Y-25394318D01*
X108343239Y-25414955D01*
X108343238Y-25414955D01*
X108197158Y-25475464D01*
X108071720Y-25571715D01*
X108071715Y-25571720D01*
X107975464Y-25697158D01*
X107914955Y-25843238D01*
X107914955Y-25843239D01*
X107894318Y-26000000D01*
X104005682Y-26000000D01*
X103985044Y-25843238D01*
X103924536Y-25697159D01*
X103828282Y-25571718D01*
X103828279Y-25571715D01*
X103702841Y-25475464D01*
X103556761Y-25414955D01*
X103400000Y-25394318D01*
X103243239Y-25414955D01*
X103243238Y-25414955D01*
X103097158Y-25475464D01*
X102971720Y-25571715D01*
X102971715Y-25571720D01*
X102875464Y-25697158D01*
X102814955Y-25843238D01*
X102814955Y-25843239D01*
X102794318Y-26000000D01*
X99755682Y-26000000D01*
X99735044Y-25843238D01*
X99674536Y-25697159D01*
X99578282Y-25571718D01*
X99578279Y-25571715D01*
X99452841Y-25475464D01*
X99306761Y-25414955D01*
X99150000Y-25394318D01*
X98993239Y-25414955D01*
X98993238Y-25414955D01*
X98847161Y-25475463D01*
X98847159Y-25475464D01*
X98770048Y-25534633D01*
X98721772Y-25549854D01*
X98679952Y-25534633D01*
X98602841Y-25475464D01*
X98560052Y-25457740D01*
X98456761Y-25414955D01*
X98300000Y-25394318D01*
X98143239Y-25414955D01*
X98143238Y-25414955D01*
X97997158Y-25475464D01*
X97871720Y-25571715D01*
X97871715Y-25571720D01*
X97775464Y-25697158D01*
X97714955Y-25843238D01*
X97714955Y-25843239D01*
X97694318Y-26000000D01*
X94750000Y-26000000D01*
X94750000Y-19000000D01*
X108944318Y-19000000D01*
X108964955Y-19156760D01*
X108964955Y-19156761D01*
X109025464Y-19302841D01*
X109121715Y-19428279D01*
X109121720Y-19428284D01*
X109205345Y-19492451D01*
X109247159Y-19524536D01*
X109393238Y-19585044D01*
X109550000Y-19605682D01*
X109706762Y-19585044D01*
X109852841Y-19524536D01*
X109978282Y-19428282D01*
X110074536Y-19302841D01*
X110135044Y-19156762D01*
X110155682Y-19000000D01*
X110135044Y-18843238D01*
X110074536Y-18697159D01*
X109998603Y-18598201D01*
X109978284Y-18571720D01*
X109978279Y-18571715D01*
X109852841Y-18475464D01*
X109706761Y-18414955D01*
X109550000Y-18394318D01*
X109393239Y-18414955D01*
X109393238Y-18414955D01*
X109247158Y-18475464D01*
X109121720Y-18571715D01*
X109121715Y-18571720D01*
X109025464Y-18697158D01*
X108964955Y-18843238D01*
X108964955Y-18843239D01*
X108944318Y-19000000D01*
X94750000Y-19000000D01*
X94750000Y-3922900D01*
X100595793Y-3922900D01*
X100605672Y-4230971D01*
X100605674Y-4230989D01*
X100654865Y-4535254D01*
X100654868Y-4535267D01*
X100742398Y-4830180D01*
X100742569Y-4830756D01*
X100862932Y-5102658D01*
X100867341Y-5112617D01*
X100968516Y-5279515D01*
X101027123Y-5376193D01*
X101106289Y-5475464D01*
X101219300Y-5617177D01*
X101219303Y-5617180D01*
X101219304Y-5617181D01*
X101440724Y-5831614D01*
X101687747Y-6015972D01*
X101956318Y-6167228D01*
X102242025Y-6282899D01*
X102540179Y-6361084D01*
X102845878Y-6400499D01*
X102845882Y-6400500D01*
X102845883Y-6400500D01*
X103076974Y-6400500D01*
X103307601Y-6385693D01*
X103610151Y-6326772D01*
X103902683Y-6229644D01*
X104180393Y-6095907D01*
X104438720Y-5927754D01*
X104673424Y-5727948D01*
X104880650Y-5499769D01*
X105056996Y-5246963D01*
X105070185Y-5221682D01*
X105199561Y-4973695D01*
X105199561Y-4973692D01*
X105199567Y-4973683D01*
X105306020Y-4684415D01*
X105374609Y-4383908D01*
X105404206Y-4077098D01*
X105394327Y-3769022D01*
X105345133Y-3464739D01*
X105257431Y-3169244D01*
X105132663Y-2887391D01*
X104972877Y-2623807D01*
X104863802Y-2487031D01*
X104780699Y-2382822D01*
X104559277Y-2168387D01*
X104312252Y-1984027D01*
X104170325Y-1904096D01*
X104043682Y-1832772D01*
X103757975Y-1717101D01*
X103757971Y-1717100D01*
X103757969Y-1717099D01*
X103459818Y-1638915D01*
X103459820Y-1638915D01*
X103154123Y-1599500D01*
X103154117Y-1599500D01*
X102923026Y-1599500D01*
X102692397Y-1614307D01*
X102389851Y-1673227D01*
X102097322Y-1770354D01*
X102097315Y-1770357D01*
X101819605Y-1904094D01*
X101819600Y-1904096D01*
X101561285Y-2072242D01*
X101561278Y-2072247D01*
X101326578Y-2272049D01*
X101119351Y-2500229D01*
X101119349Y-2500231D01*
X100943007Y-2753033D01*
X100942994Y-2753053D01*
X100800438Y-3026304D01*
X100800432Y-3026319D01*
X100693979Y-3315588D01*
X100625392Y-3616087D01*
X100625390Y-3616096D01*
X100595793Y-3922900D01*
X94750000Y-3922900D01*
X94750000Y-1074000D01*
X94767313Y-1026434D01*
X94811150Y-1001124D01*
X94824000Y-1000000D01*
X113926000Y-1000000D01*
X113973566Y-1017313D01*
G37*
%TD.AperFunction*%
%TD*%
M02*
