%TF.GenerationSoftware,KiCad,Pcbnew,10.0.6*%
%TF.CreationDate,2026-09-29T12:23:03-06:00*%
%TF.ProjectId,RB_Switch,52425f53-7769-4746-9368-2e6b69636164,rev?*%
%TF.SameCoordinates,Original*%
%TF.FileFunction,Copper,L1,Top*%
%TF.FilePolarity,Positive*%
%FSLAX46Y46*%
G04 Gerber Fmt 4.6, Leading zero omitted, Abs format (unit mm)*
G04 Created by KiCad (PCBNEW 10.0.6) date 2026-09-29 12:23:03*
%MOMM*%
%LPD*%
G01*
G04 APERTURE LIST*
G04 Aperture macros list*
%AMRoundRect*
0 Rectangle with rounded corners*
0 $1 Rounding radius*
0 $2 $3 $4 $5 $6 $7 $8 $9 X,Y pos of 4 corners*
0 Add a 4 corners polygon primitive as box body*
4,1,4,$2,$3,$4,$5,$6,$7,$8,$9,$2,$3,0*
0 Add four circle primitives for the rounded corners*
1,1,$1+$1,$2,$3*
1,1,$1+$1,$4,$5*
1,1,$1+$1,$6,$7*
1,1,$1+$1,$8,$9*
0 Add four rect primitives between the rounded corners*
20,1,$1+$1,$2,$3,$4,$5,0*
20,1,$1+$1,$4,$5,$6,$7,0*
20,1,$1+$1,$6,$7,$8,$9,0*
20,1,$1+$1,$8,$9,$2,$3,0*%
%AMOutline5P*
0 Free polygon, 5 corners , with rotation*
0 The origin of the aperture is its center*
0 number of corners: always 5*
0 $1 to $10 corner X, Y*
0 $11 Rotation angle, in degrees counterclockwise*
0 create outline with 5 corners*
4,1,5,$1,$2,$3,$4,$5,$6,$7,$8,$9,$10,$1,$2,$11*%
%AMOutline6P*
0 Free polygon, 6 corners , with rotation*
0 The origin of the aperture is its center*
0 number of corners: always 6*
0 $1 to $12 corner X, Y*
0 $13 Rotation angle, in degrees counterclockwise*
0 create outline with 6 corners*
4,1,6,$1,$2,$3,$4,$5,$6,$7,$8,$9,$10,$11,$12,$1,$2,$13*%
%AMOutline7P*
0 Free polygon, 7 corners , with rotation*
0 The origin of the aperture is its center*
0 number of corners: always 7*
0 $1 to $14 corner X, Y*
0 $15 Rotation angle, in degrees counterclockwise*
0 create outline with 7 corners*
4,1,7,$1,$2,$3,$4,$5,$6,$7,$8,$9,$10,$11,$12,$13,$14,$1,$2,$15*%
%AMOutline8P*
0 Free polygon, 8 corners , with rotation*
0 The origin of the aperture is its center*
0 number of corners: always 8*
0 $1 to $16 corner X, Y*
0 $17 Rotation angle, in degrees counterclockwise*
0 create outline with 8 corners*
4,1,8,$1,$2,$3,$4,$5,$6,$7,$8,$9,$10,$11,$12,$13,$14,$15,$16,$1,$2,$17*%
%AMFreePoly0*
4,1,21,-0.125000,1.200000,0.125000,1.200000,0.125000,1.700000,0.375000,1.700000,0.375000,1.200000,0.825000,1.200000,0.825000,-1.200000,0.375000,-1.200000,0.375000,-1.700000,0.125000,-1.700000,0.125000,-1.200000,-0.125000,-1.200000,-0.125000,-1.700000,-0.375000,-1.700000,-0.375000,-1.200000,-0.825000,-1.200000,-0.825000,1.200000,-0.375000,1.200000,-0.375000,1.700000,-0.125000,1.700000,
-0.125000,1.200000,-0.125000,1.200000,$1*%
G04 Aperture macros list end*
%TA.AperFunction,SMDPad,CuDef*%
%ADD10RoundRect,0.200000X-0.200000X-0.275000X0.200000X-0.275000X0.200000X0.275000X-0.200000X0.275000X0*%
%TD*%
%TA.AperFunction,SMDPad,CuDef*%
%ADD11RoundRect,0.218750X-0.218750X-0.256250X0.218750X-0.256250X0.218750X0.256250X-0.218750X0.256250X0*%
%TD*%
%TA.AperFunction,SMDPad,CuDef*%
%ADD12RoundRect,0.150000X-0.512500X-0.150000X0.512500X-0.150000X0.512500X0.150000X-0.512500X0.150000X0*%
%TD*%
%TA.AperFunction,SMDPad,CuDef*%
%ADD13R,0.400000X0.800000*%
%TD*%
%TA.AperFunction,SMDPad,CuDef*%
%ADD14R,0.800000X0.400000*%
%TD*%
%TA.AperFunction,SMDPad,CuDef*%
%ADD15Outline5P,-0.600000X0.204000X-0.204000X0.600000X0.600000X0.600000X0.600000X-0.600000X-0.600000X-0.600000X90.000000*%
%TD*%
%TA.AperFunction,SMDPad,CuDef*%
%ADD16R,1.200000X1.200000*%
%TD*%
%TA.AperFunction,SMDPad,CuDef*%
%ADD17R,0.800000X0.800000*%
%TD*%
%TA.AperFunction,SMDPad,CuDef*%
%ADD18RoundRect,0.225000X-0.225000X-0.250000X0.225000X-0.250000X0.225000X0.250000X-0.225000X0.250000X0*%
%TD*%
%TA.AperFunction,ComponentPad*%
%ADD19R,1.700000X1.700000*%
%TD*%
%TA.AperFunction,ComponentPad*%
%ADD20C,1.700000*%
%TD*%
%TA.AperFunction,SMDPad,CuDef*%
%ADD21R,0.900000X1.700000*%
%TD*%
%TA.AperFunction,ComponentPad*%
%ADD22RoundRect,0.250000X-0.350000X-0.625000X0.350000X-0.625000X0.350000X0.625000X-0.350000X0.625000X0*%
%TD*%
%TA.AperFunction,ComponentPad*%
%ADD23O,1.200000X1.750000*%
%TD*%
%TA.AperFunction,SMDPad,CuDef*%
%ADD24RoundRect,0.060000X-0.240000X-0.060000X0.240000X-0.060000X0.240000X0.060000X-0.240000X0.060000X0*%
%TD*%
%TA.AperFunction,ComponentPad*%
%ADD25C,0.500000*%
%TD*%
%TA.AperFunction,SMDPad,CuDef*%
%ADD26FreePoly0,0.000000*%
%TD*%
%TA.AperFunction,SMDPad,CuDef*%
%ADD27RoundRect,0.150000X-0.425000X0.150000X-0.425000X-0.150000X0.425000X-0.150000X0.425000X0.150000X0*%
%TD*%
%TA.AperFunction,SMDPad,CuDef*%
%ADD28RoundRect,0.075000X-0.500000X0.075000X-0.500000X-0.075000X0.500000X-0.075000X0.500000X0.075000X0*%
%TD*%
%TA.AperFunction,ComponentPad*%
%ADD29O,2.100000X1.000000*%
%TD*%
%TA.AperFunction,ComponentPad*%
%ADD30O,1.800000X1.000000*%
%TD*%
%TA.AperFunction,SMDPad,CuDef*%
%ADD31R,1.500000X3.600000*%
%TD*%
%TA.AperFunction,ViaPad*%
%ADD32C,0.600000*%
%TD*%
%TA.AperFunction,Conductor*%
%ADD33C,0.200000*%
%TD*%
%TA.AperFunction,Conductor*%
%ADD34C,0.300000*%
%TD*%
G04 APERTURE END LIST*
D10*
%TO.P,R3,1*%
%TO.N,USB_CC1*%
X115175000Y-113000000D03*
%TO.P,R3,2*%
%TO.N,GND*%
X116825000Y-113000000D03*
%TD*%
D11*
%TO.P,D1,1*%
%TO.N,CHG_STAT*%
X157212500Y-86000000D03*
%TO.P,D1,2*%
%TO.N,STAT_LED_MID*%
X158787500Y-86000000D03*
%TD*%
D10*
%TO.P,R4,1*%
%TO.N,USB_CC2*%
X121175000Y-113000000D03*
%TO.P,R4,2*%
%TO.N,GND*%
X122825000Y-113000000D03*
%TD*%
D12*
%TO.P,U_CHG,1*%
%TO.N,CHG_STAT*%
X108862500Y-85050000D03*
%TO.P,U_CHG,2*%
%TO.N,GND*%
X108862500Y-86000000D03*
%TO.P,U_CHG,3*%
%TO.N,VBAT*%
X108862500Y-86950000D03*
%TO.P,U_CHG,4*%
%TO.N,VBUS*%
X111137500Y-86950000D03*
%TO.P,U_CHG,5*%
%TO.N,CHG_PROG*%
X111137500Y-85050000D03*
%TD*%
D10*
%TO.P,R2,1*%
%TO.N,STAT_LED_MID*%
X163175000Y-86000000D03*
%TO.P,R2,2*%
%TO.N,V3V3*%
X164825000Y-86000000D03*
%TD*%
D13*
%TO.P,U1,1*%
%TO.N,GND*%
X175600000Y-106000000D03*
%TO.P,U1,2*%
X176450000Y-106000000D03*
%TO.P,U1,3*%
%TO.N,V3V3*%
X177300000Y-106000000D03*
%TO.P,U1,4*%
%TO.N,BOOT_NET*%
X178150000Y-106000000D03*
%TO.P,U1,5*%
%TO.N,N/C*%
X179000000Y-106000000D03*
%TO.P,U1,6*%
X179850000Y-106000000D03*
%TO.P,U1,7*%
X180700000Y-106000000D03*
%TO.P,U1,8*%
X181550000Y-106000000D03*
%TO.P,U1,9*%
%TO.N,VBAT_SENSE*%
X182400000Y-106000000D03*
%TO.P,U1,10*%
%TO.N,N/C*%
X183250000Y-106000000D03*
%TO.P,U1,11*%
X184100000Y-106000000D03*
%TO.P,U1,12*%
X184950000Y-106000000D03*
%TO.P,U1,13*%
X185800000Y-106000000D03*
%TO.P,U1,14*%
%TO.N,SW1_NET*%
X186650000Y-106000000D03*
%TO.P,U1,15*%
%TO.N,SW2_NET*%
X187500000Y-106000000D03*
D14*
%TO.P,U1,16*%
%TO.N,SW3_NET*%
X188550000Y-104950000D03*
%TO.P,U1,17*%
%TO.N,N/C*%
X188550000Y-104100000D03*
%TO.P,U1,18*%
X188550000Y-103250000D03*
%TO.P,U1,19*%
X188550000Y-102400000D03*
%TO.P,U1,20*%
X188550000Y-101550000D03*
%TO.P,U1,21*%
X188550000Y-100700000D03*
%TO.P,U1,22*%
X188550000Y-99850000D03*
%TO.P,U1,23*%
%TO.N,USB_DM*%
X188550000Y-99000000D03*
%TO.P,U1,24*%
%TO.N,USB_DP*%
X188550000Y-98150000D03*
%TO.P,U1,25*%
%TO.N,N/C*%
X188550000Y-97300000D03*
%TO.P,U1,26*%
X188550000Y-96450000D03*
%TO.P,U1,27*%
X188550000Y-95600000D03*
%TO.P,U1,28*%
X188550000Y-94750000D03*
%TO.P,U1,29*%
X188550000Y-93900000D03*
%TO.P,U1,30*%
X188550000Y-93050000D03*
D13*
%TO.P,U1,31*%
X187500000Y-92000000D03*
%TO.P,U1,32*%
X186650000Y-92000000D03*
%TO.P,U1,33*%
X185800000Y-92000000D03*
%TO.P,U1,34*%
X184950000Y-92000000D03*
%TO.P,U1,35*%
X184100000Y-92000000D03*
%TO.P,U1,36*%
X183250000Y-92000000D03*
%TO.P,U1,37*%
X182400000Y-92000000D03*
%TO.P,U1,38*%
X181550000Y-92000000D03*
%TO.P,U1,39*%
X180700000Y-92000000D03*
%TO.P,U1,40*%
X179850000Y-92000000D03*
%TO.P,U1,41*%
X179000000Y-92000000D03*
%TO.P,U1,42*%
%TO.N,GND*%
X178150000Y-92000000D03*
%TO.P,U1,43*%
X177300000Y-92000000D03*
%TO.P,U1,44*%
%TO.N,N/C*%
X176450000Y-92000000D03*
%TO.P,U1,45*%
%TO.N,EN_NET*%
X175600000Y-92000000D03*
D14*
%TO.P,U1,46*%
%TO.N,GND*%
X174550000Y-93050000D03*
%TO.P,U1,47*%
X174550000Y-93900000D03*
%TO.P,U1,48*%
X174550000Y-94750000D03*
%TO.P,U1,49*%
X174550000Y-95600000D03*
%TO.P,U1,50*%
X174550000Y-96450000D03*
%TO.P,U1,51*%
X174550000Y-97300000D03*
%TO.P,U1,52*%
X174550000Y-98150000D03*
%TO.P,U1,53*%
X174550000Y-99000000D03*
%TO.P,U1,54*%
X174550000Y-99850000D03*
%TO.P,U1,55*%
X174550000Y-100700000D03*
%TO.P,U1,56*%
X174550000Y-101550000D03*
%TO.P,U1,57*%
X174550000Y-102400000D03*
%TO.P,U1,58*%
X174550000Y-103250000D03*
%TO.P,U1,59*%
X174550000Y-104100000D03*
%TO.P,U1,60*%
X174550000Y-104950000D03*
D15*
%TO.P,U1,61*%
X179900000Y-100650000D03*
D16*
X181550000Y-100650000D03*
X183200000Y-100650000D03*
X179900000Y-99000000D03*
X181550000Y-99000000D03*
X183200000Y-99000000D03*
X179900000Y-97350000D03*
X181550000Y-97350000D03*
X183200000Y-97350000D03*
D17*
%TO.P,U1,62*%
X174550000Y-106000000D03*
%TO.P,U1,63*%
X188550000Y-106000000D03*
%TO.P,U1,64*%
X188550000Y-92000000D03*
%TO.P,U1,65*%
X174550000Y-92000000D03*
%TD*%
D18*
%TO.P,C7,1*%
%TO.N,V3V3*%
X151225000Y-113000000D03*
%TO.P,C7,2*%
%TO.N,GND*%
X152775000Y-113000000D03*
%TD*%
%TO.P,C9,1*%
%TO.N,SW1_NET*%
X157225000Y-113000000D03*
%TO.P,C9,2*%
%TO.N,GND*%
X158775000Y-113000000D03*
%TD*%
D19*
%TO.P,SW1,1*%
%TO.N,SW1_NET*%
X101000000Y-99000000D03*
D20*
X107500000Y-99000000D03*
%TO.P,SW1,2*%
%TO.N,GND*%
X101000000Y-103500000D03*
X107500000Y-103500000D03*
%TD*%
D18*
%TO.P,C6,1*%
%TO.N,V3V3*%
X145225000Y-113000000D03*
%TO.P,C6,2*%
%TO.N,GND*%
X146775000Y-113000000D03*
%TD*%
D10*
%TO.P,R8,1*%
%TO.N,VBAT_SENSE*%
X103175000Y-113000000D03*
%TO.P,R8,2*%
%TO.N,GND*%
X104825000Y-113000000D03*
%TD*%
D21*
%TO.P,SW_RST,1*%
%TO.N,EN_NET*%
X92300000Y-113000000D03*
%TO.P,SW_RST,2*%
%TO.N,GND*%
X95700000Y-113000000D03*
%TD*%
D18*
%TO.P,C8,1*%
%TO.N,VBAT_SENSE*%
X109225000Y-113000000D03*
%TO.P,C8,2*%
%TO.N,GND*%
X110775000Y-113000000D03*
%TD*%
D22*
%TO.P,J_BAT,1*%
%TO.N,VBAT*%
X116000000Y-86000000D03*
D23*
%TO.P,J_BAT,2*%
%TO.N,GND*%
X118000000Y-86000000D03*
%TD*%
D18*
%TO.P,C5,1*%
%TO.N,V3V3*%
X139225000Y-113000000D03*
%TO.P,C5,2*%
%TO.N,GND*%
X140775000Y-113000000D03*
%TD*%
%TO.P,C10,1*%
%TO.N,SW2_NET*%
X163225000Y-113000000D03*
%TO.P,C10,2*%
%TO.N,GND*%
X164775000Y-113000000D03*
%TD*%
%TO.P,C4,1*%
%TO.N,VBUS*%
X151225000Y-86000000D03*
%TO.P,C4,2*%
%TO.N,GND*%
X152775000Y-86000000D03*
%TD*%
%TO.P,C3,1*%
%TO.N,V3V3*%
X139225000Y-86000000D03*
%TO.P,C3,2*%
%TO.N,GND*%
X140775000Y-86000000D03*
%TD*%
D24*
%TO.P,REG1,1*%
%TO.N,V3V3*%
X102600000Y-85000000D03*
%TO.P,REG1,2*%
%TO.N,L_B*%
X102600000Y-85500000D03*
%TO.P,REG1,3*%
%TO.N,GND*%
X102600000Y-86000000D03*
%TO.P,REG1,4*%
%TO.N,L_A*%
X102600000Y-86500000D03*
%TO.P,REG1,5*%
%TO.N,VBAT*%
X102600000Y-87000000D03*
%TO.P,REG1,6*%
X105400000Y-87000000D03*
%TO.P,REG1,7*%
%TO.N,GND*%
X105400000Y-86500000D03*
%TO.P,REG1,8*%
%TO.N,VBAT*%
X105400000Y-86000000D03*
%TO.P,REG1,9*%
%TO.N,GND*%
X105400000Y-85500000D03*
%TO.P,REG1,10*%
%TO.N,N/C*%
X105400000Y-85000000D03*
D25*
%TO.P,REG1,11*%
%TO.N,GND*%
X103425000Y-86000000D03*
X104000000Y-85050000D03*
D26*
X104000000Y-86000000D03*
D25*
X104000000Y-86950000D03*
X104575000Y-86000000D03*
%TD*%
D10*
%TO.P,R7,1*%
%TO.N,VBAT*%
X169175000Y-86000000D03*
%TO.P,R7,2*%
%TO.N,VBAT_SENSE*%
X170825000Y-86000000D03*
%TD*%
%TO.P,R6,1*%
%TO.N,V3V3*%
X133175000Y-113000000D03*
%TO.P,R6,2*%
%TO.N,BOOT_NET*%
X134825000Y-113000000D03*
%TD*%
D21*
%TO.P,SW_BOOT,1*%
%TO.N,BOOT_NET*%
X177300000Y-113000000D03*
%TO.P,SW_BOOT,2*%
%TO.N,GND*%
X180700000Y-113000000D03*
%TD*%
D19*
%TO.P,SW2,1*%
%TO.N,SW2_NET*%
X126000000Y-99000000D03*
D20*
X132500000Y-99000000D03*
%TO.P,SW2,2*%
%TO.N,GND*%
X126000000Y-103500000D03*
X132500000Y-103500000D03*
%TD*%
D10*
%TO.P,R5,1*%
%TO.N,V3V3*%
X127175000Y-113000000D03*
%TO.P,R5,2*%
%TO.N,EN_NET*%
X128825000Y-113000000D03*
%TD*%
D27*
%TO.P,J_USB,A1*%
%TO.N,GND*%
X87680000Y-95800000D03*
%TO.P,J_USB,A4*%
%TO.N,VBUS*%
X87680000Y-96600000D03*
D28*
%TO.P,J_USB,A5*%
%TO.N,USB_CC1*%
X87680000Y-97750000D03*
%TO.P,J_USB,A6*%
%TO.N,USB_DM*%
X87680000Y-98750000D03*
%TO.P,J_USB,A7*%
%TO.N,USB_DP*%
X87680000Y-99250000D03*
%TO.P,J_USB,A8*%
%TO.N,N/C*%
X87680000Y-100250000D03*
D27*
%TO.P,J_USB,A9*%
%TO.N,VBUS*%
X87680000Y-101400000D03*
%TO.P,J_USB,A12*%
%TO.N,GND*%
X87680000Y-102200000D03*
%TO.P,J_USB,B1*%
X87680000Y-102200000D03*
%TO.P,J_USB,B4*%
%TO.N,VBUS*%
X87680000Y-101400000D03*
D28*
%TO.P,J_USB,B5*%
%TO.N,USB_CC2*%
X87680000Y-100750000D03*
%TO.P,J_USB,B6*%
%TO.N,USB_DM*%
X87680000Y-99750000D03*
%TO.P,J_USB,B7*%
%TO.N,USB_DP*%
X87680000Y-98250000D03*
%TO.P,J_USB,B8*%
%TO.N,N/C*%
X87680000Y-97250000D03*
D27*
%TO.P,J_USB,B9*%
%TO.N,VBUS*%
X87680000Y-96600000D03*
%TO.P,J_USB,B12*%
%TO.N,GND*%
X87680000Y-95800000D03*
D29*
%TO.P,J_USB,S1*%
X87105000Y-94680000D03*
D30*
X82925000Y-94680000D03*
D29*
X87105000Y-103320000D03*
D30*
X82925000Y-103320000D03*
%TD*%
D18*
%TO.P,C2,1*%
%TO.N,V3V3*%
X127225000Y-86000000D03*
%TO.P,C2,2*%
%TO.N,GND*%
X128775000Y-86000000D03*
%TD*%
D19*
%TO.P,SW3,1*%
%TO.N,SW3_NET*%
X151000000Y-99000000D03*
D20*
X157500000Y-99000000D03*
%TO.P,SW3,2*%
%TO.N,GND*%
X151000000Y-103500000D03*
X157500000Y-103500000D03*
%TD*%
D18*
%TO.P,C1,1*%
%TO.N,VBAT*%
X121225000Y-86000000D03*
%TO.P,C1,2*%
%TO.N,GND*%
X122775000Y-86000000D03*
%TD*%
D10*
%TO.P,R1,1*%
%TO.N,CHG_PROG*%
X145175000Y-86000000D03*
%TO.P,R1,2*%
%TO.N,GND*%
X146825000Y-86000000D03*
%TD*%
D18*
%TO.P,C11,1*%
%TO.N,SW3_NET*%
X169225000Y-113000000D03*
%TO.P,C11,2*%
%TO.N,GND*%
X170775000Y-113000000D03*
%TD*%
D31*
%TO.P,L1,1*%
%TO.N,L_A*%
X132475000Y-86000000D03*
%TO.P,L1,2*%
%TO.N,L_B*%
X135525000Y-86000000D03*
%TD*%
D32*
%TO.N,USB_CC1*%
X115175000Y-113000000D03*
X85250000Y-102680000D03*
%TO.N,GND*%
X188550000Y-106000000D03*
X104000000Y-85050000D03*
X174550000Y-102400000D03*
X179900000Y-97350000D03*
X107500000Y-103500000D03*
X140775000Y-86000000D03*
X174550000Y-92000000D03*
X87199999Y-102680000D03*
X174550000Y-99850000D03*
X126000000Y-103500000D03*
X174550000Y-106000000D03*
X101000000Y-103500000D03*
X174550000Y-95600000D03*
X174550000Y-103250000D03*
X146825000Y-86000000D03*
X122825000Y-113000000D03*
X157500000Y-103500000D03*
X183200000Y-100650000D03*
X80800000Y-102680000D03*
X174550000Y-104950000D03*
X174550000Y-96450000D03*
X88320000Y-102105000D03*
X132500000Y-103500000D03*
X108862500Y-86000000D03*
X183200000Y-99000000D03*
X146775000Y-113000000D03*
X158775000Y-113000000D03*
X179900000Y-99000000D03*
X179900000Y-100650000D03*
X174550000Y-101550000D03*
X175600000Y-106000000D03*
X152775000Y-113000000D03*
X103425000Y-86000000D03*
X174550000Y-94750000D03*
X164775000Y-113000000D03*
X181550000Y-99000000D03*
X105400000Y-86500000D03*
X181550000Y-100650000D03*
X116825000Y-113000000D03*
X122775000Y-86000000D03*
X151000000Y-103500000D03*
X174550000Y-93900000D03*
X174550000Y-97300000D03*
X177300000Y-92000000D03*
X188550000Y-92000000D03*
X79680000Y-97925000D03*
X176450000Y-106000000D03*
X174550000Y-104100000D03*
X87199999Y-102680000D03*
X174550000Y-99000000D03*
X170775000Y-113000000D03*
X174550000Y-98150000D03*
X104575000Y-86000000D03*
X181550000Y-97350000D03*
X104825000Y-113000000D03*
X95700000Y-113000000D03*
X104000000Y-86950000D03*
X118000000Y-86000000D03*
X128775000Y-86000000D03*
X110775000Y-113000000D03*
X174550000Y-100700000D03*
X178150000Y-92000000D03*
X152775000Y-86000000D03*
X183200000Y-97350000D03*
X79680000Y-102105000D03*
X88320000Y-97925000D03*
X102600000Y-86000000D03*
X140775000Y-113000000D03*
X80800000Y-102680000D03*
X174550000Y-93050000D03*
X105400000Y-85500000D03*
X104000000Y-86000000D03*
X180700000Y-113000000D03*
%TO.N,CHG_STAT*%
X108862500Y-85050000D03*
X157212500Y-86000000D03*
%TO.N,VBAT*%
X116000000Y-86000000D03*
X105400000Y-87000000D03*
X105400000Y-86000000D03*
X121225000Y-86000000D03*
X108862500Y-86950000D03*
X116000000Y-86000000D03*
X108862500Y-86950000D03*
X105400000Y-87000000D03*
X121225000Y-86000000D03*
X105400000Y-86000000D03*
X169175000Y-86000000D03*
X102600000Y-87000000D03*
%TO.N,V3V3*%
X139225000Y-113000000D03*
X127225000Y-86000000D03*
X127175000Y-113000000D03*
X145224999Y-113000000D03*
X133175000Y-113000000D03*
X164825000Y-86000000D03*
X177300000Y-106000000D03*
X151225000Y-113000000D03*
X102600000Y-85000000D03*
X139225000Y-86000000D03*
%TO.N,BOOT_NET*%
X177300000Y-113000000D03*
X177300000Y-113000000D03*
X178150000Y-106000000D03*
X134825000Y-113000000D03*
%TO.N,VBAT_SENSE*%
X103175000Y-113000000D03*
X109225000Y-113000000D03*
X170825000Y-86000000D03*
X182400000Y-106000000D03*
X109225000Y-113000000D03*
X170825000Y-86000000D03*
%TO.N,SW2_NET*%
X126000000Y-99000000D03*
X187500000Y-106000000D03*
X163225000Y-113000000D03*
X163225000Y-113000000D03*
%TO.N,USB_DM*%
X188550000Y-99000000D03*
X84250000Y-102680000D03*
X83250000Y-102680000D03*
X84250000Y-102680000D03*
%TO.N,L_B*%
X135525000Y-86000000D03*
X102600000Y-85500000D03*
%TD*%
%TO.N,STAT_LED_MID*%
D33*
X158787500Y-86000000D02*
X163175000Y-86000000D01*
%TO.N,USB_CC2*%
X82250000Y-102680000D02*
X121175000Y-113000000D01*
%TO.N,VBUS*%
X86400000Y-102680000D02*
X111137500Y-86950000D01*
X111137500Y-86950000D02*
X151225000Y-86000000D01*
X81600000Y-102680000D02*
X86400000Y-102680000D01*
%TO.N,CHG_PROG*%
X111137500Y-85050000D02*
X145175000Y-86000000D01*
%TO.N,SW1_NET*%
X157225000Y-113000000D02*
X186650000Y-106000000D01*
X101000000Y-99000000D02*
X157225000Y-113000000D01*
D34*
X101000000Y-99000000D02*
X107500000Y-99000000D01*
%TO.N,SW2_NET*%
X126000000Y-99000000D02*
X132500000Y-99000000D01*
%TO.N,SW3_NET*%
X151000000Y-99000000D02*
X157500000Y-99000000D01*
D33*
X151000000Y-99000000D02*
X169225000Y-113000000D01*
X169225000Y-113000000D02*
X188550000Y-104950000D01*
%TO.N,USB_DP*%
X84750000Y-102680000D02*
X188550000Y-98150000D01*
X83750000Y-102680000D02*
X84750000Y-102680000D01*
%TO.N,EN_NET*%
X128825000Y-113000000D02*
X175600000Y-92000000D01*
X92300000Y-113000000D02*
X128825000Y-113000000D01*
%TO.N,L_A*%
X102600000Y-86500000D02*
X132475000Y-86000000D01*
%TD*%
M02*
