%TF.GenerationSoftware,KiCad,Pcbnew,10.0.6*%
%TF.CreationDate,2026-09-29T12:23:03-06:00*%
%TF.ProjectId,RB_Switch,52425f53-7769-4746-9368-2e6b69636164,rev?*%
%TF.SameCoordinates,Original*%
%TF.FileFunction,Copper,L4,Bot*%
%TF.FilePolarity,Positive*%
%FSLAX46Y46*%
G04 Gerber Fmt 4.6, Leading zero omitted, Abs format (unit mm)*
G04 Created by KiCad (PCBNEW 10.0.6) date 2026-09-29 12:23:03*
%MOMM*%
%LPD*%
G01*
G04 APERTURE LIST*
G04 Aperture macros list*
%AMRoundRect*
0 Rectangle with rounded corners*
0 $1 Rounding radius*
0 $2 $3 $4 $5 $6 $7 $8 $9 X,Y pos of 4 corners*
0 Add a 4 corners polygon primitive as box body*
4,1,4,$2,$3,$4,$5,$6,$7,$8,$9,$2,$3,0*
0 Add four circle primitives for the rounded corners*
1,1,$1+$1,$2,$3*
1,1,$1+$1,$4,$5*
1,1,$1+$1,$6,$7*
1,1,$1+$1,$8,$9*
0 Add four rect primitives between the rounded corners*
20,1,$1+$1,$2,$3,$4,$5,0*
20,1,$1+$1,$4,$5,$6,$7,0*
20,1,$1+$1,$6,$7,$8,$9,0*
20,1,$1+$1,$8,$9,$2,$3,0*%
G04 Aperture macros list end*
%TA.AperFunction,ComponentPad*%
%ADD10R,1.700000X1.700000*%
%TD*%
%TA.AperFunction,ComponentPad*%
%ADD11C,1.700000*%
%TD*%
%TA.AperFunction,ComponentPad*%
%ADD12RoundRect,0.250000X-0.350000X-0.625000X0.350000X-0.625000X0.350000X0.625000X-0.350000X0.625000X0*%
%TD*%
%TA.AperFunction,ComponentPad*%
%ADD13O,1.200000X1.750000*%
%TD*%
%TA.AperFunction,ComponentPad*%
%ADD14C,0.500000*%
%TD*%
%TA.AperFunction,ComponentPad*%
%ADD15O,2.100000X1.000000*%
%TD*%
%TA.AperFunction,ComponentPad*%
%ADD16O,1.800000X1.000000*%
%TD*%
%TA.AperFunction,ViaPad*%
%ADD17C,0.600000*%
%TD*%
%TA.AperFunction,Conductor*%
%ADD18C,0.200000*%
%TD*%
G04 APERTURE END LIST*
D10*
%TO.P,SW1,1*%
%TO.N,SW1_NET*%
X101000000Y-99000000D03*
D11*
X107500000Y-99000000D03*
%TO.P,SW1,2*%
%TO.N,GND*%
X101000000Y-103500000D03*
X107500000Y-103500000D03*
%TD*%
D12*
%TO.P,J_BAT,1*%
%TO.N,VBAT*%
X116000000Y-86000000D03*
D13*
%TO.P,J_BAT,2*%
%TO.N,GND*%
X118000000Y-86000000D03*
%TD*%
D14*
%TO.P,REG1,11*%
%TO.N,GND*%
X103425000Y-86000000D03*
X104000000Y-85050000D03*
X104000000Y-86950000D03*
X104575000Y-86000000D03*
%TD*%
D10*
%TO.P,SW2,1*%
%TO.N,SW2_NET*%
X126000000Y-99000000D03*
D11*
X132500000Y-99000000D03*
%TO.P,SW2,2*%
%TO.N,GND*%
X126000000Y-103500000D03*
X132500000Y-103500000D03*
%TD*%
D15*
%TO.P,J_USB,S1*%
%TO.N,GND*%
X87105000Y-94680000D03*
D16*
X82925000Y-94680000D03*
D15*
X87105000Y-103320000D03*
D16*
X82925000Y-103320000D03*
%TD*%
D10*
%TO.P,SW3,1*%
%TO.N,SW3_NET*%
X151000000Y-99000000D03*
D11*
X157500000Y-99000000D03*
%TO.P,SW3,2*%
%TO.N,GND*%
X151000000Y-103500000D03*
X157500000Y-103500000D03*
%TD*%
D17*
%TO.N,USB_CC1*%
X115175000Y-113000000D03*
X85250000Y-102680000D03*
%TO.N,GND*%
X188550000Y-106000000D03*
X104000000Y-85050000D03*
X174550000Y-102400000D03*
X179900000Y-97350000D03*
X107500000Y-103500000D03*
X140775000Y-86000000D03*
X174550000Y-92000000D03*
X87199999Y-102680000D03*
X174550000Y-99850000D03*
X126000000Y-103500000D03*
X174550000Y-106000000D03*
X101000000Y-103500000D03*
X174550000Y-95600000D03*
X174550000Y-103250000D03*
X146825000Y-86000000D03*
X122825000Y-113000000D03*
X157500000Y-103500000D03*
X183200000Y-100650000D03*
X80800000Y-102680000D03*
X174550000Y-104950000D03*
X174550000Y-96450000D03*
X88320000Y-102105000D03*
X132500000Y-103500000D03*
X108862500Y-86000000D03*
X183200000Y-99000000D03*
X146775000Y-113000000D03*
X158775000Y-113000000D03*
X179900000Y-99000000D03*
X179900000Y-100650000D03*
X174550000Y-101550000D03*
X175600000Y-106000000D03*
X152775000Y-113000000D03*
X103425000Y-86000000D03*
X174550000Y-94750000D03*
X164775000Y-113000000D03*
X181550000Y-99000000D03*
X105400000Y-86500000D03*
X181550000Y-100650000D03*
X116825000Y-113000000D03*
X122775000Y-86000000D03*
X151000000Y-103500000D03*
X174550000Y-93900000D03*
X174550000Y-97300000D03*
X177300000Y-92000000D03*
X188550000Y-92000000D03*
X79680000Y-97925000D03*
X176450000Y-106000000D03*
X174550000Y-104100000D03*
X87199999Y-102680000D03*
X174550000Y-99000000D03*
X170775000Y-113000000D03*
X174550000Y-98150000D03*
X104575000Y-86000000D03*
X181550000Y-97350000D03*
X104825000Y-113000000D03*
X95700000Y-113000000D03*
X104000000Y-86950000D03*
X118000000Y-86000000D03*
X128775000Y-86000000D03*
X110775000Y-113000000D03*
X174550000Y-100700000D03*
X178150000Y-92000000D03*
X152775000Y-86000000D03*
X183200000Y-97350000D03*
X79680000Y-102105000D03*
X88320000Y-97925000D03*
X102600000Y-86000000D03*
X140775000Y-113000000D03*
X80800000Y-102680000D03*
X174550000Y-93050000D03*
X105400000Y-85500000D03*
X104000000Y-86000000D03*
X180700000Y-113000000D03*
%TO.N,CHG_STAT*%
X108862500Y-85050000D03*
X157212500Y-86000000D03*
%TO.N,VBAT*%
X116000000Y-86000000D03*
X105400000Y-87000000D03*
X105400000Y-86000000D03*
X121225000Y-86000000D03*
X108862500Y-86950000D03*
X116000000Y-86000000D03*
X108862500Y-86950000D03*
X105400000Y-87000000D03*
X121225000Y-86000000D03*
X105400000Y-86000000D03*
X169175000Y-86000000D03*
X102600000Y-87000000D03*
%TO.N,V3V3*%
X139225000Y-113000000D03*
X127225000Y-86000000D03*
X127175000Y-113000000D03*
X145224999Y-113000000D03*
X133175000Y-113000000D03*
X164825000Y-86000000D03*
X177300000Y-106000000D03*
X151225000Y-113000000D03*
X102600000Y-85000000D03*
X139225000Y-86000000D03*
%TO.N,BOOT_NET*%
X177300000Y-113000000D03*
X177300000Y-113000000D03*
X178150000Y-106000000D03*
X134825000Y-113000000D03*
%TO.N,VBAT_SENSE*%
X103175000Y-113000000D03*
X109225000Y-113000000D03*
X170825000Y-86000000D03*
X182400000Y-106000000D03*
X109225000Y-113000000D03*
X170825000Y-86000000D03*
%TO.N,SW2_NET*%
X126000000Y-99000000D03*
X187500000Y-106000000D03*
X163225000Y-113000000D03*
X163225000Y-113000000D03*
%TO.N,USB_DM*%
X188550000Y-99000000D03*
X84250000Y-102680000D03*
X83250000Y-102680000D03*
X84250000Y-102680000D03*
%TO.N,L_B*%
X135525000Y-86000000D03*
X102600000Y-85500000D03*
%TD*%
%TO.N,USB_CC1*%
D18*
X85250000Y-102680000D02*
X115175000Y-113000000D01*
%TO.N,CHG_STAT*%
X108862500Y-85050000D02*
X157212500Y-86000000D01*
%TO.N,VBAT*%
X116000000Y-86000000D02*
X121225000Y-86000000D01*
X108862500Y-86950000D02*
X116000000Y-86000000D01*
X121225000Y-86000000D02*
X169175000Y-86000000D01*
X105400000Y-87000000D02*
X108862500Y-86950000D01*
X105400000Y-86000000D02*
X105400000Y-87000000D01*
X102600000Y-87000000D02*
X105400000Y-86000000D01*
%TO.N,BOOT_NET*%
X134825000Y-113000000D02*
X177300000Y-113000000D01*
X177300000Y-113000000D02*
X178150000Y-106000000D01*
%TO.N,VBAT_SENSE*%
X103175000Y-113000000D02*
X109225000Y-113000000D01*
X109225000Y-113000000D02*
X170825000Y-86000000D01*
X170825000Y-86000000D02*
X182400000Y-106000000D01*
%TO.N,SW2_NET*%
X126000000Y-99000000D02*
X163225000Y-113000000D01*
X163225000Y-113000000D02*
X187500000Y-106000000D01*
%TO.N,USB_DM*%
X83250000Y-102680000D02*
X84250000Y-102680000D01*
X84250000Y-102680000D02*
X188550000Y-99000000D01*
%TO.N,L_B*%
X102600000Y-85500000D02*
X135525000Y-86000000D01*
%TD*%
M02*
