%TF.GenerationSoftware,KiCad,Pcbnew,10.0.6*%
%TF.CreationDate,2026-10-03T07:34:57-06:00*%
%TF.ProjectId,RB_Switch,52425f53-7769-4746-9368-2e6b69636164,rev?*%
%TF.SameCoordinates,Original*%
%TF.FileFunction,Legend,Top*%
%TF.FilePolarity,Positive*%
%FSLAX46Y46*%
G04 Gerber Fmt 4.6, Leading zero omitted, Abs format (unit mm)*
G04 Created by KiCad (PCBNEW 10.0.6) date 2026-10-03 07:34:57*
%MOMM*%
%LPD*%
G01*
G04 APERTURE LIST*
%ADD10C,0.150000*%
%ADD11C,0.120000*%
G04 APERTURE END LIST*
D10*
X91833333Y-95024819D02*
X91500000Y-94548628D01*
X91261905Y-95024819D02*
X91261905Y-94024819D01*
X91261905Y-94024819D02*
X91642857Y-94024819D01*
X91642857Y-94024819D02*
X91738095Y-94072438D01*
X91738095Y-94072438D02*
X91785714Y-94120057D01*
X91785714Y-94120057D02*
X91833333Y-94215295D01*
X91833333Y-94215295D02*
X91833333Y-94358152D01*
X91833333Y-94358152D02*
X91785714Y-94453390D01*
X91785714Y-94453390D02*
X91738095Y-94501009D01*
X91738095Y-94501009D02*
X91642857Y-94548628D01*
X91642857Y-94548628D02*
X91261905Y-94548628D01*
X92166667Y-94024819D02*
X92785714Y-94024819D01*
X92785714Y-94024819D02*
X92452381Y-94405771D01*
X92452381Y-94405771D02*
X92595238Y-94405771D01*
X92595238Y-94405771D02*
X92690476Y-94453390D01*
X92690476Y-94453390D02*
X92738095Y-94501009D01*
X92738095Y-94501009D02*
X92785714Y-94596247D01*
X92785714Y-94596247D02*
X92785714Y-94834342D01*
X92785714Y-94834342D02*
X92738095Y-94929580D01*
X92738095Y-94929580D02*
X92690476Y-94977200D01*
X92690476Y-94977200D02*
X92595238Y-95024819D01*
X92595238Y-95024819D02*
X92309524Y-95024819D01*
X92309524Y-95024819D02*
X92214286Y-94977200D01*
X92214286Y-94977200D02*
X92166667Y-94929580D01*
X157261905Y-85024819D02*
X157261905Y-84024819D01*
X157261905Y-84024819D02*
X157500000Y-84024819D01*
X157500000Y-84024819D02*
X157642857Y-84072438D01*
X157642857Y-84072438D02*
X157738095Y-84167676D01*
X157738095Y-84167676D02*
X157785714Y-84262914D01*
X157785714Y-84262914D02*
X157833333Y-84453390D01*
X157833333Y-84453390D02*
X157833333Y-84596247D01*
X157833333Y-84596247D02*
X157785714Y-84786723D01*
X157785714Y-84786723D02*
X157738095Y-84881961D01*
X157738095Y-84881961D02*
X157642857Y-84977200D01*
X157642857Y-84977200D02*
X157500000Y-85024819D01*
X157500000Y-85024819D02*
X157261905Y-85024819D01*
X158785714Y-85024819D02*
X158214286Y-85024819D01*
X158500000Y-85024819D02*
X158500000Y-84024819D01*
X158500000Y-84024819D02*
X158404762Y-84167676D01*
X158404762Y-84167676D02*
X158309524Y-84262914D01*
X158309524Y-84262914D02*
X158214286Y-84310533D01*
X91833333Y-101024819D02*
X91500000Y-100548628D01*
X91261905Y-101024819D02*
X91261905Y-100024819D01*
X91261905Y-100024819D02*
X91642857Y-100024819D01*
X91642857Y-100024819D02*
X91738095Y-100072438D01*
X91738095Y-100072438D02*
X91785714Y-100120057D01*
X91785714Y-100120057D02*
X91833333Y-100215295D01*
X91833333Y-100215295D02*
X91833333Y-100358152D01*
X91833333Y-100358152D02*
X91785714Y-100453390D01*
X91785714Y-100453390D02*
X91738095Y-100501009D01*
X91738095Y-100501009D02*
X91642857Y-100548628D01*
X91642857Y-100548628D02*
X91261905Y-100548628D01*
X92690476Y-100358152D02*
X92690476Y-101024819D01*
X92452381Y-99977200D02*
X92214286Y-100691485D01*
X92214286Y-100691485D02*
X92833333Y-100691485D01*
X107333333Y-82854819D02*
X107333333Y-83664342D01*
X107333333Y-83664342D02*
X107380952Y-83759580D01*
X107380952Y-83759580D02*
X107428571Y-83807200D01*
X107428571Y-83807200D02*
X107523809Y-83854819D01*
X107523809Y-83854819D02*
X107714285Y-83854819D01*
X107714285Y-83854819D02*
X107809523Y-83807200D01*
X107809523Y-83807200D02*
X107857142Y-83759580D01*
X107857142Y-83759580D02*
X107904761Y-83664342D01*
X107904761Y-83664342D02*
X107904761Y-82854819D01*
X108142857Y-83950057D02*
X108904761Y-83950057D01*
X109714285Y-83759580D02*
X109666666Y-83807200D01*
X109666666Y-83807200D02*
X109523809Y-83854819D01*
X109523809Y-83854819D02*
X109428571Y-83854819D01*
X109428571Y-83854819D02*
X109285714Y-83807200D01*
X109285714Y-83807200D02*
X109190476Y-83711961D01*
X109190476Y-83711961D02*
X109142857Y-83616723D01*
X109142857Y-83616723D02*
X109095238Y-83426247D01*
X109095238Y-83426247D02*
X109095238Y-83283390D01*
X109095238Y-83283390D02*
X109142857Y-83092914D01*
X109142857Y-83092914D02*
X109190476Y-82997676D01*
X109190476Y-82997676D02*
X109285714Y-82902438D01*
X109285714Y-82902438D02*
X109428571Y-82854819D01*
X109428571Y-82854819D02*
X109523809Y-82854819D01*
X109523809Y-82854819D02*
X109666666Y-82902438D01*
X109666666Y-82902438D02*
X109714285Y-82950057D01*
X110142857Y-83854819D02*
X110142857Y-82854819D01*
X110142857Y-83331009D02*
X110714285Y-83331009D01*
X110714285Y-83854819D02*
X110714285Y-82854819D01*
X111714285Y-82902438D02*
X111619047Y-82854819D01*
X111619047Y-82854819D02*
X111476190Y-82854819D01*
X111476190Y-82854819D02*
X111333333Y-82902438D01*
X111333333Y-82902438D02*
X111238095Y-82997676D01*
X111238095Y-82997676D02*
X111190476Y-83092914D01*
X111190476Y-83092914D02*
X111142857Y-83283390D01*
X111142857Y-83283390D02*
X111142857Y-83426247D01*
X111142857Y-83426247D02*
X111190476Y-83616723D01*
X111190476Y-83616723D02*
X111238095Y-83711961D01*
X111238095Y-83711961D02*
X111333333Y-83807200D01*
X111333333Y-83807200D02*
X111476190Y-83854819D01*
X111476190Y-83854819D02*
X111571428Y-83854819D01*
X111571428Y-83854819D02*
X111714285Y-83807200D01*
X111714285Y-83807200D02*
X111761904Y-83759580D01*
X111761904Y-83759580D02*
X111761904Y-83426247D01*
X111761904Y-83426247D02*
X111571428Y-83426247D01*
X112714285Y-83854819D02*
X112142857Y-83854819D01*
X112428571Y-83854819D02*
X112428571Y-82854819D01*
X112428571Y-82854819D02*
X112333333Y-82997676D01*
X112333333Y-82997676D02*
X112238095Y-83092914D01*
X112238095Y-83092914D02*
X112142857Y-83140533D01*
X89666667Y-79154819D02*
X89666667Y-78154819D01*
X89666667Y-78154819D02*
X90000000Y-78869104D01*
X90000000Y-78869104D02*
X90333333Y-78154819D01*
X90333333Y-78154819D02*
X90333333Y-79154819D01*
X90809524Y-79154819D02*
X90809524Y-78154819D01*
X90809524Y-78631009D02*
X91380952Y-78631009D01*
X91380952Y-79154819D02*
X91380952Y-78154819D01*
X92380952Y-79154819D02*
X91809524Y-79154819D01*
X92095238Y-79154819D02*
X92095238Y-78154819D01*
X92095238Y-78154819D02*
X92000000Y-78297676D01*
X92000000Y-78297676D02*
X91904762Y-78392914D01*
X91904762Y-78392914D02*
X91809524Y-78440533D01*
X163833333Y-85024819D02*
X163500000Y-84548628D01*
X163261905Y-85024819D02*
X163261905Y-84024819D01*
X163261905Y-84024819D02*
X163642857Y-84024819D01*
X163642857Y-84024819D02*
X163738095Y-84072438D01*
X163738095Y-84072438D02*
X163785714Y-84120057D01*
X163785714Y-84120057D02*
X163833333Y-84215295D01*
X163833333Y-84215295D02*
X163833333Y-84358152D01*
X163833333Y-84358152D02*
X163785714Y-84453390D01*
X163785714Y-84453390D02*
X163738095Y-84501009D01*
X163738095Y-84501009D02*
X163642857Y-84548628D01*
X163642857Y-84548628D02*
X163261905Y-84548628D01*
X164214286Y-84120057D02*
X164261905Y-84072438D01*
X164261905Y-84072438D02*
X164357143Y-84024819D01*
X164357143Y-84024819D02*
X164595238Y-84024819D01*
X164595238Y-84024819D02*
X164690476Y-84072438D01*
X164690476Y-84072438D02*
X164738095Y-84120057D01*
X164738095Y-84120057D02*
X164785714Y-84215295D01*
X164785714Y-84215295D02*
X164785714Y-84310533D01*
X164785714Y-84310533D02*
X164738095Y-84453390D01*
X164738095Y-84453390D02*
X164166667Y-85024819D01*
X164166667Y-85024819D02*
X164785714Y-85024819D01*
X166604819Y-93811904D02*
X167414342Y-93811904D01*
X167414342Y-93811904D02*
X167509580Y-93764285D01*
X167509580Y-93764285D02*
X167557200Y-93716666D01*
X167557200Y-93716666D02*
X167604819Y-93621428D01*
X167604819Y-93621428D02*
X167604819Y-93430952D01*
X167604819Y-93430952D02*
X167557200Y-93335714D01*
X167557200Y-93335714D02*
X167509580Y-93288095D01*
X167509580Y-93288095D02*
X167414342Y-93240476D01*
X167414342Y-93240476D02*
X166604819Y-93240476D01*
X167604819Y-92240476D02*
X167604819Y-92811904D01*
X167604819Y-92526190D02*
X166604819Y-92526190D01*
X166604819Y-92526190D02*
X166747676Y-92621428D01*
X166747676Y-92621428D02*
X166842914Y-92716666D01*
X166842914Y-92716666D02*
X166890533Y-92811904D01*
X177833333Y-108729580D02*
X177785714Y-108777200D01*
X177785714Y-108777200D02*
X177642857Y-108824819D01*
X177642857Y-108824819D02*
X177547619Y-108824819D01*
X177547619Y-108824819D02*
X177404762Y-108777200D01*
X177404762Y-108777200D02*
X177309524Y-108681961D01*
X177309524Y-108681961D02*
X177261905Y-108586723D01*
X177261905Y-108586723D02*
X177214286Y-108396247D01*
X177214286Y-108396247D02*
X177214286Y-108253390D01*
X177214286Y-108253390D02*
X177261905Y-108062914D01*
X177261905Y-108062914D02*
X177309524Y-107967676D01*
X177309524Y-107967676D02*
X177404762Y-107872438D01*
X177404762Y-107872438D02*
X177547619Y-107824819D01*
X177547619Y-107824819D02*
X177642857Y-107824819D01*
X177642857Y-107824819D02*
X177785714Y-107872438D01*
X177785714Y-107872438D02*
X177833333Y-107920057D01*
X178166667Y-107824819D02*
X178833333Y-107824819D01*
X178833333Y-107824819D02*
X178404762Y-108824819D01*
X109833333Y-105929580D02*
X109785714Y-105977200D01*
X109785714Y-105977200D02*
X109642857Y-106024819D01*
X109642857Y-106024819D02*
X109547619Y-106024819D01*
X109547619Y-106024819D02*
X109404762Y-105977200D01*
X109404762Y-105977200D02*
X109309524Y-105881961D01*
X109309524Y-105881961D02*
X109261905Y-105786723D01*
X109261905Y-105786723D02*
X109214286Y-105596247D01*
X109214286Y-105596247D02*
X109214286Y-105453390D01*
X109214286Y-105453390D02*
X109261905Y-105262914D01*
X109261905Y-105262914D02*
X109309524Y-105167676D01*
X109309524Y-105167676D02*
X109404762Y-105072438D01*
X109404762Y-105072438D02*
X109547619Y-105024819D01*
X109547619Y-105024819D02*
X109642857Y-105024819D01*
X109642857Y-105024819D02*
X109785714Y-105072438D01*
X109785714Y-105072438D02*
X109833333Y-105120057D01*
X110309524Y-106024819D02*
X110500000Y-106024819D01*
X110500000Y-106024819D02*
X110595238Y-105977200D01*
X110595238Y-105977200D02*
X110642857Y-105929580D01*
X110642857Y-105929580D02*
X110738095Y-105786723D01*
X110738095Y-105786723D02*
X110785714Y-105596247D01*
X110785714Y-105596247D02*
X110785714Y-105215295D01*
X110785714Y-105215295D02*
X110738095Y-105120057D01*
X110738095Y-105120057D02*
X110690476Y-105072438D01*
X110690476Y-105072438D02*
X110595238Y-105024819D01*
X110595238Y-105024819D02*
X110404762Y-105024819D01*
X110404762Y-105024819D02*
X110309524Y-105072438D01*
X110309524Y-105072438D02*
X110261905Y-105120057D01*
X110261905Y-105120057D02*
X110214286Y-105215295D01*
X110214286Y-105215295D02*
X110214286Y-105453390D01*
X110214286Y-105453390D02*
X110261905Y-105548628D01*
X110261905Y-105548628D02*
X110309524Y-105596247D01*
X110309524Y-105596247D02*
X110404762Y-105643866D01*
X110404762Y-105643866D02*
X110595238Y-105643866D01*
X110595238Y-105643866D02*
X110690476Y-105596247D01*
X110690476Y-105596247D02*
X110738095Y-105548628D01*
X110738095Y-105548628D02*
X110785714Y-105453390D01*
X102916667Y-97357200D02*
X103059524Y-97404819D01*
X103059524Y-97404819D02*
X103297619Y-97404819D01*
X103297619Y-97404819D02*
X103392857Y-97357200D01*
X103392857Y-97357200D02*
X103440476Y-97309580D01*
X103440476Y-97309580D02*
X103488095Y-97214342D01*
X103488095Y-97214342D02*
X103488095Y-97119104D01*
X103488095Y-97119104D02*
X103440476Y-97023866D01*
X103440476Y-97023866D02*
X103392857Y-96976247D01*
X103392857Y-96976247D02*
X103297619Y-96928628D01*
X103297619Y-96928628D02*
X103107143Y-96881009D01*
X103107143Y-96881009D02*
X103011905Y-96833390D01*
X103011905Y-96833390D02*
X102964286Y-96785771D01*
X102964286Y-96785771D02*
X102916667Y-96690533D01*
X102916667Y-96690533D02*
X102916667Y-96595295D01*
X102916667Y-96595295D02*
X102964286Y-96500057D01*
X102964286Y-96500057D02*
X103011905Y-96452438D01*
X103011905Y-96452438D02*
X103107143Y-96404819D01*
X103107143Y-96404819D02*
X103345238Y-96404819D01*
X103345238Y-96404819D02*
X103488095Y-96452438D01*
X103821429Y-96404819D02*
X104059524Y-97404819D01*
X104059524Y-97404819D02*
X104250000Y-96690533D01*
X104250000Y-96690533D02*
X104440476Y-97404819D01*
X104440476Y-97404819D02*
X104678572Y-96404819D01*
X105583333Y-97404819D02*
X105011905Y-97404819D01*
X105297619Y-97404819D02*
X105297619Y-96404819D01*
X105297619Y-96404819D02*
X105202381Y-96547676D01*
X105202381Y-96547676D02*
X105107143Y-96642914D01*
X105107143Y-96642914D02*
X105011905Y-96690533D01*
X178166667Y-79154819D02*
X178166667Y-78154819D01*
X178166667Y-78154819D02*
X178500000Y-78869104D01*
X178500000Y-78869104D02*
X178833333Y-78154819D01*
X178833333Y-78154819D02*
X178833333Y-79154819D01*
X179309524Y-79154819D02*
X179309524Y-78154819D01*
X179309524Y-78631009D02*
X179880952Y-78631009D01*
X179880952Y-79154819D02*
X179880952Y-78154819D01*
X180309524Y-78250057D02*
X180357143Y-78202438D01*
X180357143Y-78202438D02*
X180452381Y-78154819D01*
X180452381Y-78154819D02*
X180690476Y-78154819D01*
X180690476Y-78154819D02*
X180785714Y-78202438D01*
X180785714Y-78202438D02*
X180833333Y-78250057D01*
X180833333Y-78250057D02*
X180880952Y-78345295D01*
X180880952Y-78345295D02*
X180880952Y-78440533D01*
X180880952Y-78440533D02*
X180833333Y-78583390D01*
X180833333Y-78583390D02*
X180261905Y-79154819D01*
X180261905Y-79154819D02*
X180880952Y-79154819D01*
X173833333Y-108729580D02*
X173785714Y-108777200D01*
X173785714Y-108777200D02*
X173642857Y-108824819D01*
X173642857Y-108824819D02*
X173547619Y-108824819D01*
X173547619Y-108824819D02*
X173404762Y-108777200D01*
X173404762Y-108777200D02*
X173309524Y-108681961D01*
X173309524Y-108681961D02*
X173261905Y-108586723D01*
X173261905Y-108586723D02*
X173214286Y-108396247D01*
X173214286Y-108396247D02*
X173214286Y-108253390D01*
X173214286Y-108253390D02*
X173261905Y-108062914D01*
X173261905Y-108062914D02*
X173309524Y-107967676D01*
X173309524Y-107967676D02*
X173404762Y-107872438D01*
X173404762Y-107872438D02*
X173547619Y-107824819D01*
X173547619Y-107824819D02*
X173642857Y-107824819D01*
X173642857Y-107824819D02*
X173785714Y-107872438D01*
X173785714Y-107872438D02*
X173833333Y-107920057D01*
X174690476Y-107824819D02*
X174500000Y-107824819D01*
X174500000Y-107824819D02*
X174404762Y-107872438D01*
X174404762Y-107872438D02*
X174357143Y-107920057D01*
X174357143Y-107920057D02*
X174261905Y-108062914D01*
X174261905Y-108062914D02*
X174214286Y-108253390D01*
X174214286Y-108253390D02*
X174214286Y-108634342D01*
X174214286Y-108634342D02*
X174261905Y-108729580D01*
X174261905Y-108729580D02*
X174309524Y-108777200D01*
X174309524Y-108777200D02*
X174404762Y-108824819D01*
X174404762Y-108824819D02*
X174595238Y-108824819D01*
X174595238Y-108824819D02*
X174690476Y-108777200D01*
X174690476Y-108777200D02*
X174738095Y-108729580D01*
X174738095Y-108729580D02*
X174785714Y-108634342D01*
X174785714Y-108634342D02*
X174785714Y-108396247D01*
X174785714Y-108396247D02*
X174738095Y-108301009D01*
X174738095Y-108301009D02*
X174690476Y-108253390D01*
X174690476Y-108253390D02*
X174595238Y-108205771D01*
X174595238Y-108205771D02*
X174404762Y-108205771D01*
X174404762Y-108205771D02*
X174309524Y-108253390D01*
X174309524Y-108253390D02*
X174261905Y-108301009D01*
X174261905Y-108301009D02*
X174214286Y-108396247D01*
X128483333Y-95454819D02*
X128150000Y-94978628D01*
X127911905Y-95454819D02*
X127911905Y-94454819D01*
X127911905Y-94454819D02*
X128292857Y-94454819D01*
X128292857Y-94454819D02*
X128388095Y-94502438D01*
X128388095Y-94502438D02*
X128435714Y-94550057D01*
X128435714Y-94550057D02*
X128483333Y-94645295D01*
X128483333Y-94645295D02*
X128483333Y-94788152D01*
X128483333Y-94788152D02*
X128435714Y-94883390D01*
X128435714Y-94883390D02*
X128388095Y-94931009D01*
X128388095Y-94931009D02*
X128292857Y-94978628D01*
X128292857Y-94978628D02*
X127911905Y-94978628D01*
X129054762Y-94883390D02*
X128959524Y-94835771D01*
X128959524Y-94835771D02*
X128911905Y-94788152D01*
X128911905Y-94788152D02*
X128864286Y-94692914D01*
X128864286Y-94692914D02*
X128864286Y-94645295D01*
X128864286Y-94645295D02*
X128911905Y-94550057D01*
X128911905Y-94550057D02*
X128959524Y-94502438D01*
X128959524Y-94502438D02*
X129054762Y-94454819D01*
X129054762Y-94454819D02*
X129245238Y-94454819D01*
X129245238Y-94454819D02*
X129340476Y-94502438D01*
X129340476Y-94502438D02*
X129388095Y-94550057D01*
X129388095Y-94550057D02*
X129435714Y-94645295D01*
X129435714Y-94645295D02*
X129435714Y-94692914D01*
X129435714Y-94692914D02*
X129388095Y-94788152D01*
X129388095Y-94788152D02*
X129340476Y-94835771D01*
X129340476Y-94835771D02*
X129245238Y-94883390D01*
X129245238Y-94883390D02*
X129054762Y-94883390D01*
X129054762Y-94883390D02*
X128959524Y-94931009D01*
X128959524Y-94931009D02*
X128911905Y-94978628D01*
X128911905Y-94978628D02*
X128864286Y-95073866D01*
X128864286Y-95073866D02*
X128864286Y-95264342D01*
X128864286Y-95264342D02*
X128911905Y-95359580D01*
X128911905Y-95359580D02*
X128959524Y-95407200D01*
X128959524Y-95407200D02*
X129054762Y-95454819D01*
X129054762Y-95454819D02*
X129245238Y-95454819D01*
X129245238Y-95454819D02*
X129340476Y-95407200D01*
X129340476Y-95407200D02*
X129388095Y-95359580D01*
X129388095Y-95359580D02*
X129435714Y-95264342D01*
X129435714Y-95264342D02*
X129435714Y-95073866D01*
X129435714Y-95073866D02*
X129388095Y-94978628D01*
X129388095Y-94978628D02*
X129340476Y-94931009D01*
X129340476Y-94931009D02*
X129245238Y-94883390D01*
X162928571Y-111407200D02*
X163071428Y-111454819D01*
X163071428Y-111454819D02*
X163309523Y-111454819D01*
X163309523Y-111454819D02*
X163404761Y-111407200D01*
X163404761Y-111407200D02*
X163452380Y-111359580D01*
X163452380Y-111359580D02*
X163499999Y-111264342D01*
X163499999Y-111264342D02*
X163499999Y-111169104D01*
X163499999Y-111169104D02*
X163452380Y-111073866D01*
X163452380Y-111073866D02*
X163404761Y-111026247D01*
X163404761Y-111026247D02*
X163309523Y-110978628D01*
X163309523Y-110978628D02*
X163119047Y-110931009D01*
X163119047Y-110931009D02*
X163023809Y-110883390D01*
X163023809Y-110883390D02*
X162976190Y-110835771D01*
X162976190Y-110835771D02*
X162928571Y-110740533D01*
X162928571Y-110740533D02*
X162928571Y-110645295D01*
X162928571Y-110645295D02*
X162976190Y-110550057D01*
X162976190Y-110550057D02*
X163023809Y-110502438D01*
X163023809Y-110502438D02*
X163119047Y-110454819D01*
X163119047Y-110454819D02*
X163357142Y-110454819D01*
X163357142Y-110454819D02*
X163499999Y-110502438D01*
X163833333Y-110454819D02*
X164071428Y-111454819D01*
X164071428Y-111454819D02*
X164261904Y-110740533D01*
X164261904Y-110740533D02*
X164452380Y-111454819D01*
X164452380Y-111454819D02*
X164690476Y-110454819D01*
X164833333Y-111550057D02*
X165595237Y-111550057D01*
X166404761Y-111454819D02*
X166071428Y-110978628D01*
X165833333Y-111454819D02*
X165833333Y-110454819D01*
X165833333Y-110454819D02*
X166214285Y-110454819D01*
X166214285Y-110454819D02*
X166309523Y-110502438D01*
X166309523Y-110502438D02*
X166357142Y-110550057D01*
X166357142Y-110550057D02*
X166404761Y-110645295D01*
X166404761Y-110645295D02*
X166404761Y-110788152D01*
X166404761Y-110788152D02*
X166357142Y-110883390D01*
X166357142Y-110883390D02*
X166309523Y-110931009D01*
X166309523Y-110931009D02*
X166214285Y-110978628D01*
X166214285Y-110978628D02*
X165833333Y-110978628D01*
X166785714Y-111407200D02*
X166928571Y-111454819D01*
X166928571Y-111454819D02*
X167166666Y-111454819D01*
X167166666Y-111454819D02*
X167261904Y-111407200D01*
X167261904Y-111407200D02*
X167309523Y-111359580D01*
X167309523Y-111359580D02*
X167357142Y-111264342D01*
X167357142Y-111264342D02*
X167357142Y-111169104D01*
X167357142Y-111169104D02*
X167309523Y-111073866D01*
X167309523Y-111073866D02*
X167261904Y-111026247D01*
X167261904Y-111026247D02*
X167166666Y-110978628D01*
X167166666Y-110978628D02*
X166976190Y-110931009D01*
X166976190Y-110931009D02*
X166880952Y-110883390D01*
X166880952Y-110883390D02*
X166833333Y-110835771D01*
X166833333Y-110835771D02*
X166785714Y-110740533D01*
X166785714Y-110740533D02*
X166785714Y-110645295D01*
X166785714Y-110645295D02*
X166833333Y-110550057D01*
X166833333Y-110550057D02*
X166880952Y-110502438D01*
X166880952Y-110502438D02*
X166976190Y-110454819D01*
X166976190Y-110454819D02*
X167214285Y-110454819D01*
X167214285Y-110454819D02*
X167357142Y-110502438D01*
X167642857Y-110454819D02*
X168214285Y-110454819D01*
X167928571Y-111454819D02*
X167928571Y-110454819D01*
X169071428Y-111454819D02*
X168500000Y-111454819D01*
X168785714Y-111454819D02*
X168785714Y-110454819D01*
X168785714Y-110454819D02*
X168690476Y-110597676D01*
X168690476Y-110597676D02*
X168595238Y-110692914D01*
X168595238Y-110692914D02*
X168500000Y-110740533D01*
X131333333Y-90429580D02*
X131285714Y-90477200D01*
X131285714Y-90477200D02*
X131142857Y-90524819D01*
X131142857Y-90524819D02*
X131047619Y-90524819D01*
X131047619Y-90524819D02*
X130904762Y-90477200D01*
X130904762Y-90477200D02*
X130809524Y-90381961D01*
X130809524Y-90381961D02*
X130761905Y-90286723D01*
X130761905Y-90286723D02*
X130714286Y-90096247D01*
X130714286Y-90096247D02*
X130714286Y-89953390D01*
X130714286Y-89953390D02*
X130761905Y-89762914D01*
X130761905Y-89762914D02*
X130809524Y-89667676D01*
X130809524Y-89667676D02*
X130904762Y-89572438D01*
X130904762Y-89572438D02*
X131047619Y-89524819D01*
X131047619Y-89524819D02*
X131142857Y-89524819D01*
X131142857Y-89524819D02*
X131285714Y-89572438D01*
X131285714Y-89572438D02*
X131333333Y-89620057D01*
X131904762Y-89953390D02*
X131809524Y-89905771D01*
X131809524Y-89905771D02*
X131761905Y-89858152D01*
X131761905Y-89858152D02*
X131714286Y-89762914D01*
X131714286Y-89762914D02*
X131714286Y-89715295D01*
X131714286Y-89715295D02*
X131761905Y-89620057D01*
X131761905Y-89620057D02*
X131809524Y-89572438D01*
X131809524Y-89572438D02*
X131904762Y-89524819D01*
X131904762Y-89524819D02*
X132095238Y-89524819D01*
X132095238Y-89524819D02*
X132190476Y-89572438D01*
X132190476Y-89572438D02*
X132238095Y-89620057D01*
X132238095Y-89620057D02*
X132285714Y-89715295D01*
X132285714Y-89715295D02*
X132285714Y-89762914D01*
X132285714Y-89762914D02*
X132238095Y-89858152D01*
X132238095Y-89858152D02*
X132190476Y-89905771D01*
X132190476Y-89905771D02*
X132095238Y-89953390D01*
X132095238Y-89953390D02*
X131904762Y-89953390D01*
X131904762Y-89953390D02*
X131809524Y-90001009D01*
X131809524Y-90001009D02*
X131761905Y-90048628D01*
X131761905Y-90048628D02*
X131714286Y-90143866D01*
X131714286Y-90143866D02*
X131714286Y-90334342D01*
X131714286Y-90334342D02*
X131761905Y-90429580D01*
X131761905Y-90429580D02*
X131809524Y-90477200D01*
X131809524Y-90477200D02*
X131904762Y-90524819D01*
X131904762Y-90524819D02*
X132095238Y-90524819D01*
X132095238Y-90524819D02*
X132190476Y-90477200D01*
X132190476Y-90477200D02*
X132238095Y-90429580D01*
X132238095Y-90429580D02*
X132285714Y-90334342D01*
X132285714Y-90334342D02*
X132285714Y-90143866D01*
X132285714Y-90143866D02*
X132238095Y-90048628D01*
X132238095Y-90048628D02*
X132190476Y-90001009D01*
X132190476Y-90001009D02*
X132095238Y-89953390D01*
X118976190Y-89204819D02*
X118976190Y-89919104D01*
X118976190Y-89919104D02*
X118928571Y-90061961D01*
X118928571Y-90061961D02*
X118833333Y-90157200D01*
X118833333Y-90157200D02*
X118690476Y-90204819D01*
X118690476Y-90204819D02*
X118595238Y-90204819D01*
X119214286Y-90300057D02*
X119976190Y-90300057D01*
X120547619Y-89681009D02*
X120690476Y-89728628D01*
X120690476Y-89728628D02*
X120738095Y-89776247D01*
X120738095Y-89776247D02*
X120785714Y-89871485D01*
X120785714Y-89871485D02*
X120785714Y-90014342D01*
X120785714Y-90014342D02*
X120738095Y-90109580D01*
X120738095Y-90109580D02*
X120690476Y-90157200D01*
X120690476Y-90157200D02*
X120595238Y-90204819D01*
X120595238Y-90204819D02*
X120214286Y-90204819D01*
X120214286Y-90204819D02*
X120214286Y-89204819D01*
X120214286Y-89204819D02*
X120547619Y-89204819D01*
X120547619Y-89204819D02*
X120642857Y-89252438D01*
X120642857Y-89252438D02*
X120690476Y-89300057D01*
X120690476Y-89300057D02*
X120738095Y-89395295D01*
X120738095Y-89395295D02*
X120738095Y-89490533D01*
X120738095Y-89490533D02*
X120690476Y-89585771D01*
X120690476Y-89585771D02*
X120642857Y-89633390D01*
X120642857Y-89633390D02*
X120547619Y-89681009D01*
X120547619Y-89681009D02*
X120214286Y-89681009D01*
X121166667Y-89919104D02*
X121642857Y-89919104D01*
X121071429Y-90204819D02*
X121404762Y-89204819D01*
X121404762Y-89204819D02*
X121738095Y-90204819D01*
X121928572Y-89204819D02*
X122500000Y-89204819D01*
X122214286Y-90204819D02*
X122214286Y-89204819D01*
X123357143Y-90204819D02*
X122785715Y-90204819D01*
X123071429Y-90204819D02*
X123071429Y-89204819D01*
X123071429Y-89204819D02*
X122976191Y-89347676D01*
X122976191Y-89347676D02*
X122880953Y-89442914D01*
X122880953Y-89442914D02*
X122785715Y-89490533D01*
X169833333Y-108729580D02*
X169785714Y-108777200D01*
X169785714Y-108777200D02*
X169642857Y-108824819D01*
X169642857Y-108824819D02*
X169547619Y-108824819D01*
X169547619Y-108824819D02*
X169404762Y-108777200D01*
X169404762Y-108777200D02*
X169309524Y-108681961D01*
X169309524Y-108681961D02*
X169261905Y-108586723D01*
X169261905Y-108586723D02*
X169214286Y-108396247D01*
X169214286Y-108396247D02*
X169214286Y-108253390D01*
X169214286Y-108253390D02*
X169261905Y-108062914D01*
X169261905Y-108062914D02*
X169309524Y-107967676D01*
X169309524Y-107967676D02*
X169404762Y-107872438D01*
X169404762Y-107872438D02*
X169547619Y-107824819D01*
X169547619Y-107824819D02*
X169642857Y-107824819D01*
X169642857Y-107824819D02*
X169785714Y-107872438D01*
X169785714Y-107872438D02*
X169833333Y-107920057D01*
X170738095Y-107824819D02*
X170261905Y-107824819D01*
X170261905Y-107824819D02*
X170214286Y-108301009D01*
X170214286Y-108301009D02*
X170261905Y-108253390D01*
X170261905Y-108253390D02*
X170357143Y-108205771D01*
X170357143Y-108205771D02*
X170595238Y-108205771D01*
X170595238Y-108205771D02*
X170690476Y-108253390D01*
X170690476Y-108253390D02*
X170738095Y-108301009D01*
X170738095Y-108301009D02*
X170785714Y-108396247D01*
X170785714Y-108396247D02*
X170785714Y-108634342D01*
X170785714Y-108634342D02*
X170738095Y-108729580D01*
X170738095Y-108729580D02*
X170690476Y-108777200D01*
X170690476Y-108777200D02*
X170595238Y-108824819D01*
X170595238Y-108824819D02*
X170357143Y-108824819D01*
X170357143Y-108824819D02*
X170261905Y-108777200D01*
X170261905Y-108777200D02*
X170214286Y-108729580D01*
X134357142Y-105929580D02*
X134309523Y-105977200D01*
X134309523Y-105977200D02*
X134166666Y-106024819D01*
X134166666Y-106024819D02*
X134071428Y-106024819D01*
X134071428Y-106024819D02*
X133928571Y-105977200D01*
X133928571Y-105977200D02*
X133833333Y-105881961D01*
X133833333Y-105881961D02*
X133785714Y-105786723D01*
X133785714Y-105786723D02*
X133738095Y-105596247D01*
X133738095Y-105596247D02*
X133738095Y-105453390D01*
X133738095Y-105453390D02*
X133785714Y-105262914D01*
X133785714Y-105262914D02*
X133833333Y-105167676D01*
X133833333Y-105167676D02*
X133928571Y-105072438D01*
X133928571Y-105072438D02*
X134071428Y-105024819D01*
X134071428Y-105024819D02*
X134166666Y-105024819D01*
X134166666Y-105024819D02*
X134309523Y-105072438D01*
X134309523Y-105072438D02*
X134357142Y-105120057D01*
X135309523Y-106024819D02*
X134738095Y-106024819D01*
X135023809Y-106024819D02*
X135023809Y-105024819D01*
X135023809Y-105024819D02*
X134928571Y-105167676D01*
X134928571Y-105167676D02*
X134833333Y-105262914D01*
X134833333Y-105262914D02*
X134738095Y-105310533D01*
X135928571Y-105024819D02*
X136023809Y-105024819D01*
X136023809Y-105024819D02*
X136119047Y-105072438D01*
X136119047Y-105072438D02*
X136166666Y-105120057D01*
X136166666Y-105120057D02*
X136214285Y-105215295D01*
X136214285Y-105215295D02*
X136261904Y-105405771D01*
X136261904Y-105405771D02*
X136261904Y-105643866D01*
X136261904Y-105643866D02*
X136214285Y-105834342D01*
X136214285Y-105834342D02*
X136166666Y-105929580D01*
X136166666Y-105929580D02*
X136119047Y-105977200D01*
X136119047Y-105977200D02*
X136023809Y-106024819D01*
X136023809Y-106024819D02*
X135928571Y-106024819D01*
X135928571Y-106024819D02*
X135833333Y-105977200D01*
X135833333Y-105977200D02*
X135785714Y-105929580D01*
X135785714Y-105929580D02*
X135738095Y-105834342D01*
X135738095Y-105834342D02*
X135690476Y-105643866D01*
X135690476Y-105643866D02*
X135690476Y-105405771D01*
X135690476Y-105405771D02*
X135738095Y-105215295D01*
X135738095Y-105215295D02*
X135785714Y-105120057D01*
X135785714Y-105120057D02*
X135833333Y-105072438D01*
X135833333Y-105072438D02*
X135928571Y-105024819D01*
X114333333Y-88429580D02*
X114285714Y-88477200D01*
X114285714Y-88477200D02*
X114142857Y-88524819D01*
X114142857Y-88524819D02*
X114047619Y-88524819D01*
X114047619Y-88524819D02*
X113904762Y-88477200D01*
X113904762Y-88477200D02*
X113809524Y-88381961D01*
X113809524Y-88381961D02*
X113761905Y-88286723D01*
X113761905Y-88286723D02*
X113714286Y-88096247D01*
X113714286Y-88096247D02*
X113714286Y-87953390D01*
X113714286Y-87953390D02*
X113761905Y-87762914D01*
X113761905Y-87762914D02*
X113809524Y-87667676D01*
X113809524Y-87667676D02*
X113904762Y-87572438D01*
X113904762Y-87572438D02*
X114047619Y-87524819D01*
X114047619Y-87524819D02*
X114142857Y-87524819D01*
X114142857Y-87524819D02*
X114285714Y-87572438D01*
X114285714Y-87572438D02*
X114333333Y-87620057D01*
X115190476Y-87858152D02*
X115190476Y-88524819D01*
X114952381Y-87477200D02*
X114714286Y-88191485D01*
X114714286Y-88191485D02*
X115333333Y-88191485D01*
X103833333Y-90729580D02*
X103785714Y-90777200D01*
X103785714Y-90777200D02*
X103642857Y-90824819D01*
X103642857Y-90824819D02*
X103547619Y-90824819D01*
X103547619Y-90824819D02*
X103404762Y-90777200D01*
X103404762Y-90777200D02*
X103309524Y-90681961D01*
X103309524Y-90681961D02*
X103261905Y-90586723D01*
X103261905Y-90586723D02*
X103214286Y-90396247D01*
X103214286Y-90396247D02*
X103214286Y-90253390D01*
X103214286Y-90253390D02*
X103261905Y-90062914D01*
X103261905Y-90062914D02*
X103309524Y-89967676D01*
X103309524Y-89967676D02*
X103404762Y-89872438D01*
X103404762Y-89872438D02*
X103547619Y-89824819D01*
X103547619Y-89824819D02*
X103642857Y-89824819D01*
X103642857Y-89824819D02*
X103785714Y-89872438D01*
X103785714Y-89872438D02*
X103833333Y-89920057D01*
X104166667Y-89824819D02*
X104785714Y-89824819D01*
X104785714Y-89824819D02*
X104452381Y-90205771D01*
X104452381Y-90205771D02*
X104595238Y-90205771D01*
X104595238Y-90205771D02*
X104690476Y-90253390D01*
X104690476Y-90253390D02*
X104738095Y-90301009D01*
X104738095Y-90301009D02*
X104785714Y-90396247D01*
X104785714Y-90396247D02*
X104785714Y-90634342D01*
X104785714Y-90634342D02*
X104738095Y-90729580D01*
X104738095Y-90729580D02*
X104690476Y-90777200D01*
X104690476Y-90777200D02*
X104595238Y-90824819D01*
X104595238Y-90824819D02*
X104309524Y-90824819D01*
X104309524Y-90824819D02*
X104214286Y-90777200D01*
X104214286Y-90777200D02*
X104166667Y-90729580D01*
X102901272Y-83754819D02*
X102567939Y-83278628D01*
X102329844Y-83754819D02*
X102329844Y-82754819D01*
X102329844Y-82754819D02*
X102710796Y-82754819D01*
X102710796Y-82754819D02*
X102806034Y-82802438D01*
X102806034Y-82802438D02*
X102853653Y-82850057D01*
X102853653Y-82850057D02*
X102901272Y-82945295D01*
X102901272Y-82945295D02*
X102901272Y-83088152D01*
X102901272Y-83088152D02*
X102853653Y-83183390D01*
X102853653Y-83183390D02*
X102806034Y-83231009D01*
X102806034Y-83231009D02*
X102710796Y-83278628D01*
X102710796Y-83278628D02*
X102329844Y-83278628D01*
X103329844Y-83231009D02*
X103663177Y-83231009D01*
X103806034Y-83754819D02*
X103329844Y-83754819D01*
X103329844Y-83754819D02*
X103329844Y-82754819D01*
X103329844Y-82754819D02*
X103806034Y-82754819D01*
X104758415Y-82802438D02*
X104663177Y-82754819D01*
X104663177Y-82754819D02*
X104520320Y-82754819D01*
X104520320Y-82754819D02*
X104377463Y-82802438D01*
X104377463Y-82802438D02*
X104282225Y-82897676D01*
X104282225Y-82897676D02*
X104234606Y-82992914D01*
X104234606Y-82992914D02*
X104186987Y-83183390D01*
X104186987Y-83183390D02*
X104186987Y-83326247D01*
X104186987Y-83326247D02*
X104234606Y-83516723D01*
X104234606Y-83516723D02*
X104282225Y-83611961D01*
X104282225Y-83611961D02*
X104377463Y-83707200D01*
X104377463Y-83707200D02*
X104520320Y-83754819D01*
X104520320Y-83754819D02*
X104615558Y-83754819D01*
X104615558Y-83754819D02*
X104758415Y-83707200D01*
X104758415Y-83707200D02*
X104806034Y-83659580D01*
X104806034Y-83659580D02*
X104806034Y-83326247D01*
X104806034Y-83326247D02*
X104615558Y-83326247D01*
X105758415Y-83754819D02*
X105186987Y-83754819D01*
X105472701Y-83754819D02*
X105472701Y-82754819D01*
X105472701Y-82754819D02*
X105377463Y-82897676D01*
X105377463Y-82897676D02*
X105282225Y-82992914D01*
X105282225Y-82992914D02*
X105186987Y-83040533D01*
X126833333Y-89524819D02*
X126500000Y-89048628D01*
X126261905Y-89524819D02*
X126261905Y-88524819D01*
X126261905Y-88524819D02*
X126642857Y-88524819D01*
X126642857Y-88524819D02*
X126738095Y-88572438D01*
X126738095Y-88572438D02*
X126785714Y-88620057D01*
X126785714Y-88620057D02*
X126833333Y-88715295D01*
X126833333Y-88715295D02*
X126833333Y-88858152D01*
X126833333Y-88858152D02*
X126785714Y-88953390D01*
X126785714Y-88953390D02*
X126738095Y-89001009D01*
X126738095Y-89001009D02*
X126642857Y-89048628D01*
X126642857Y-89048628D02*
X126261905Y-89048628D01*
X127166667Y-88524819D02*
X127833333Y-88524819D01*
X127833333Y-88524819D02*
X127404762Y-89524819D01*
X172333333Y-112524819D02*
X172000000Y-112048628D01*
X171761905Y-112524819D02*
X171761905Y-111524819D01*
X171761905Y-111524819D02*
X172142857Y-111524819D01*
X172142857Y-111524819D02*
X172238095Y-111572438D01*
X172238095Y-111572438D02*
X172285714Y-111620057D01*
X172285714Y-111620057D02*
X172333333Y-111715295D01*
X172333333Y-111715295D02*
X172333333Y-111858152D01*
X172333333Y-111858152D02*
X172285714Y-111953390D01*
X172285714Y-111953390D02*
X172238095Y-112001009D01*
X172238095Y-112001009D02*
X172142857Y-112048628D01*
X172142857Y-112048628D02*
X171761905Y-112048628D01*
X173190476Y-111524819D02*
X173000000Y-111524819D01*
X173000000Y-111524819D02*
X172904762Y-111572438D01*
X172904762Y-111572438D02*
X172857143Y-111620057D01*
X172857143Y-111620057D02*
X172761905Y-111762914D01*
X172761905Y-111762914D02*
X172714286Y-111953390D01*
X172714286Y-111953390D02*
X172714286Y-112334342D01*
X172714286Y-112334342D02*
X172761905Y-112429580D01*
X172761905Y-112429580D02*
X172809524Y-112477200D01*
X172809524Y-112477200D02*
X172904762Y-112524819D01*
X172904762Y-112524819D02*
X173095238Y-112524819D01*
X173095238Y-112524819D02*
X173190476Y-112477200D01*
X173190476Y-112477200D02*
X173238095Y-112429580D01*
X173238095Y-112429580D02*
X173285714Y-112334342D01*
X173285714Y-112334342D02*
X173285714Y-112096247D01*
X173285714Y-112096247D02*
X173238095Y-112001009D01*
X173238095Y-112001009D02*
X173190476Y-111953390D01*
X173190476Y-111953390D02*
X173095238Y-111905771D01*
X173095238Y-111905771D02*
X172904762Y-111905771D01*
X172904762Y-111905771D02*
X172809524Y-111953390D01*
X172809524Y-111953390D02*
X172761905Y-112001009D01*
X172761905Y-112001009D02*
X172714286Y-112096247D01*
X175357143Y-116007200D02*
X175500000Y-116054819D01*
X175500000Y-116054819D02*
X175738095Y-116054819D01*
X175738095Y-116054819D02*
X175833333Y-116007200D01*
X175833333Y-116007200D02*
X175880952Y-115959580D01*
X175880952Y-115959580D02*
X175928571Y-115864342D01*
X175928571Y-115864342D02*
X175928571Y-115769104D01*
X175928571Y-115769104D02*
X175880952Y-115673866D01*
X175880952Y-115673866D02*
X175833333Y-115626247D01*
X175833333Y-115626247D02*
X175738095Y-115578628D01*
X175738095Y-115578628D02*
X175547619Y-115531009D01*
X175547619Y-115531009D02*
X175452381Y-115483390D01*
X175452381Y-115483390D02*
X175404762Y-115435771D01*
X175404762Y-115435771D02*
X175357143Y-115340533D01*
X175357143Y-115340533D02*
X175357143Y-115245295D01*
X175357143Y-115245295D02*
X175404762Y-115150057D01*
X175404762Y-115150057D02*
X175452381Y-115102438D01*
X175452381Y-115102438D02*
X175547619Y-115054819D01*
X175547619Y-115054819D02*
X175785714Y-115054819D01*
X175785714Y-115054819D02*
X175928571Y-115102438D01*
X176261905Y-115054819D02*
X176500000Y-116054819D01*
X176500000Y-116054819D02*
X176690476Y-115340533D01*
X176690476Y-115340533D02*
X176880952Y-116054819D01*
X176880952Y-116054819D02*
X177119048Y-115054819D01*
X177261905Y-116150057D02*
X178023809Y-116150057D01*
X178595238Y-115531009D02*
X178738095Y-115578628D01*
X178738095Y-115578628D02*
X178785714Y-115626247D01*
X178785714Y-115626247D02*
X178833333Y-115721485D01*
X178833333Y-115721485D02*
X178833333Y-115864342D01*
X178833333Y-115864342D02*
X178785714Y-115959580D01*
X178785714Y-115959580D02*
X178738095Y-116007200D01*
X178738095Y-116007200D02*
X178642857Y-116054819D01*
X178642857Y-116054819D02*
X178261905Y-116054819D01*
X178261905Y-116054819D02*
X178261905Y-115054819D01*
X178261905Y-115054819D02*
X178595238Y-115054819D01*
X178595238Y-115054819D02*
X178690476Y-115102438D01*
X178690476Y-115102438D02*
X178738095Y-115150057D01*
X178738095Y-115150057D02*
X178785714Y-115245295D01*
X178785714Y-115245295D02*
X178785714Y-115340533D01*
X178785714Y-115340533D02*
X178738095Y-115435771D01*
X178738095Y-115435771D02*
X178690476Y-115483390D01*
X178690476Y-115483390D02*
X178595238Y-115531009D01*
X178595238Y-115531009D02*
X178261905Y-115531009D01*
X179452381Y-115054819D02*
X179642857Y-115054819D01*
X179642857Y-115054819D02*
X179738095Y-115102438D01*
X179738095Y-115102438D02*
X179833333Y-115197676D01*
X179833333Y-115197676D02*
X179880952Y-115388152D01*
X179880952Y-115388152D02*
X179880952Y-115721485D01*
X179880952Y-115721485D02*
X179833333Y-115911961D01*
X179833333Y-115911961D02*
X179738095Y-116007200D01*
X179738095Y-116007200D02*
X179642857Y-116054819D01*
X179642857Y-116054819D02*
X179452381Y-116054819D01*
X179452381Y-116054819D02*
X179357143Y-116007200D01*
X179357143Y-116007200D02*
X179261905Y-115911961D01*
X179261905Y-115911961D02*
X179214286Y-115721485D01*
X179214286Y-115721485D02*
X179214286Y-115388152D01*
X179214286Y-115388152D02*
X179261905Y-115197676D01*
X179261905Y-115197676D02*
X179357143Y-115102438D01*
X179357143Y-115102438D02*
X179452381Y-115054819D01*
X180500000Y-115054819D02*
X180690476Y-115054819D01*
X180690476Y-115054819D02*
X180785714Y-115102438D01*
X180785714Y-115102438D02*
X180880952Y-115197676D01*
X180880952Y-115197676D02*
X180928571Y-115388152D01*
X180928571Y-115388152D02*
X180928571Y-115721485D01*
X180928571Y-115721485D02*
X180880952Y-115911961D01*
X180880952Y-115911961D02*
X180785714Y-116007200D01*
X180785714Y-116007200D02*
X180690476Y-116054819D01*
X180690476Y-116054819D02*
X180500000Y-116054819D01*
X180500000Y-116054819D02*
X180404762Y-116007200D01*
X180404762Y-116007200D02*
X180309524Y-115911961D01*
X180309524Y-115911961D02*
X180261905Y-115721485D01*
X180261905Y-115721485D02*
X180261905Y-115388152D01*
X180261905Y-115388152D02*
X180309524Y-115197676D01*
X180309524Y-115197676D02*
X180404762Y-115102438D01*
X180404762Y-115102438D02*
X180500000Y-115054819D01*
X181214286Y-115054819D02*
X181785714Y-115054819D01*
X181500000Y-116054819D02*
X181500000Y-115054819D01*
X182642857Y-116054819D02*
X182071429Y-116054819D01*
X182357143Y-116054819D02*
X182357143Y-115054819D01*
X182357143Y-115054819D02*
X182261905Y-115197676D01*
X182261905Y-115197676D02*
X182166667Y-115292914D01*
X182166667Y-115292914D02*
X182071429Y-115340533D01*
X127916667Y-97357200D02*
X128059524Y-97404819D01*
X128059524Y-97404819D02*
X128297619Y-97404819D01*
X128297619Y-97404819D02*
X128392857Y-97357200D01*
X128392857Y-97357200D02*
X128440476Y-97309580D01*
X128440476Y-97309580D02*
X128488095Y-97214342D01*
X128488095Y-97214342D02*
X128488095Y-97119104D01*
X128488095Y-97119104D02*
X128440476Y-97023866D01*
X128440476Y-97023866D02*
X128392857Y-96976247D01*
X128392857Y-96976247D02*
X128297619Y-96928628D01*
X128297619Y-96928628D02*
X128107143Y-96881009D01*
X128107143Y-96881009D02*
X128011905Y-96833390D01*
X128011905Y-96833390D02*
X127964286Y-96785771D01*
X127964286Y-96785771D02*
X127916667Y-96690533D01*
X127916667Y-96690533D02*
X127916667Y-96595295D01*
X127916667Y-96595295D02*
X127964286Y-96500057D01*
X127964286Y-96500057D02*
X128011905Y-96452438D01*
X128011905Y-96452438D02*
X128107143Y-96404819D01*
X128107143Y-96404819D02*
X128345238Y-96404819D01*
X128345238Y-96404819D02*
X128488095Y-96452438D01*
X128821429Y-96404819D02*
X129059524Y-97404819D01*
X129059524Y-97404819D02*
X129250000Y-96690533D01*
X129250000Y-96690533D02*
X129440476Y-97404819D01*
X129440476Y-97404819D02*
X129678572Y-96404819D01*
X130011905Y-96500057D02*
X130059524Y-96452438D01*
X130059524Y-96452438D02*
X130154762Y-96404819D01*
X130154762Y-96404819D02*
X130392857Y-96404819D01*
X130392857Y-96404819D02*
X130488095Y-96452438D01*
X130488095Y-96452438D02*
X130535714Y-96500057D01*
X130535714Y-96500057D02*
X130583333Y-96595295D01*
X130583333Y-96595295D02*
X130583333Y-96690533D01*
X130583333Y-96690533D02*
X130535714Y-96833390D01*
X130535714Y-96833390D02*
X129964286Y-97404819D01*
X129964286Y-97404819D02*
X130583333Y-97404819D01*
X182233333Y-108824819D02*
X181900000Y-108348628D01*
X181661905Y-108824819D02*
X181661905Y-107824819D01*
X181661905Y-107824819D02*
X182042857Y-107824819D01*
X182042857Y-107824819D02*
X182138095Y-107872438D01*
X182138095Y-107872438D02*
X182185714Y-107920057D01*
X182185714Y-107920057D02*
X182233333Y-108015295D01*
X182233333Y-108015295D02*
X182233333Y-108158152D01*
X182233333Y-108158152D02*
X182185714Y-108253390D01*
X182185714Y-108253390D02*
X182138095Y-108301009D01*
X182138095Y-108301009D02*
X182042857Y-108348628D01*
X182042857Y-108348628D02*
X181661905Y-108348628D01*
X183138095Y-107824819D02*
X182661905Y-107824819D01*
X182661905Y-107824819D02*
X182614286Y-108301009D01*
X182614286Y-108301009D02*
X182661905Y-108253390D01*
X182661905Y-108253390D02*
X182757143Y-108205771D01*
X182757143Y-108205771D02*
X182995238Y-108205771D01*
X182995238Y-108205771D02*
X183090476Y-108253390D01*
X183090476Y-108253390D02*
X183138095Y-108301009D01*
X183138095Y-108301009D02*
X183185714Y-108396247D01*
X183185714Y-108396247D02*
X183185714Y-108634342D01*
X183185714Y-108634342D02*
X183138095Y-108729580D01*
X183138095Y-108729580D02*
X183090476Y-108777200D01*
X183090476Y-108777200D02*
X182995238Y-108824819D01*
X182995238Y-108824819D02*
X182757143Y-108824819D01*
X182757143Y-108824819D02*
X182661905Y-108777200D01*
X182661905Y-108777200D02*
X182614286Y-108729580D01*
X90045180Y-96785714D02*
X89330895Y-96785714D01*
X89330895Y-96785714D02*
X89188038Y-96738095D01*
X89188038Y-96738095D02*
X89092800Y-96642857D01*
X89092800Y-96642857D02*
X89045180Y-96500000D01*
X89045180Y-96500000D02*
X89045180Y-96404762D01*
X88949942Y-97023810D02*
X88949942Y-97785714D01*
X90045180Y-98023810D02*
X89235657Y-98023810D01*
X89235657Y-98023810D02*
X89140419Y-98071429D01*
X89140419Y-98071429D02*
X89092800Y-98119048D01*
X89092800Y-98119048D02*
X89045180Y-98214286D01*
X89045180Y-98214286D02*
X89045180Y-98404762D01*
X89045180Y-98404762D02*
X89092800Y-98500000D01*
X89092800Y-98500000D02*
X89140419Y-98547619D01*
X89140419Y-98547619D02*
X89235657Y-98595238D01*
X89235657Y-98595238D02*
X90045180Y-98595238D01*
X89092800Y-99023810D02*
X89045180Y-99166667D01*
X89045180Y-99166667D02*
X89045180Y-99404762D01*
X89045180Y-99404762D02*
X89092800Y-99500000D01*
X89092800Y-99500000D02*
X89140419Y-99547619D01*
X89140419Y-99547619D02*
X89235657Y-99595238D01*
X89235657Y-99595238D02*
X89330895Y-99595238D01*
X89330895Y-99595238D02*
X89426133Y-99547619D01*
X89426133Y-99547619D02*
X89473752Y-99500000D01*
X89473752Y-99500000D02*
X89521371Y-99404762D01*
X89521371Y-99404762D02*
X89568990Y-99214286D01*
X89568990Y-99214286D02*
X89616609Y-99119048D01*
X89616609Y-99119048D02*
X89664228Y-99071429D01*
X89664228Y-99071429D02*
X89759466Y-99023810D01*
X89759466Y-99023810D02*
X89854704Y-99023810D01*
X89854704Y-99023810D02*
X89949942Y-99071429D01*
X89949942Y-99071429D02*
X89997561Y-99119048D01*
X89997561Y-99119048D02*
X90045180Y-99214286D01*
X90045180Y-99214286D02*
X90045180Y-99452381D01*
X90045180Y-99452381D02*
X89997561Y-99595238D01*
X89568990Y-100357143D02*
X89521371Y-100500000D01*
X89521371Y-100500000D02*
X89473752Y-100547619D01*
X89473752Y-100547619D02*
X89378514Y-100595238D01*
X89378514Y-100595238D02*
X89235657Y-100595238D01*
X89235657Y-100595238D02*
X89140419Y-100547619D01*
X89140419Y-100547619D02*
X89092800Y-100500000D01*
X89092800Y-100500000D02*
X89045180Y-100404762D01*
X89045180Y-100404762D02*
X89045180Y-100023810D01*
X89045180Y-100023810D02*
X90045180Y-100023810D01*
X90045180Y-100023810D02*
X90045180Y-100357143D01*
X90045180Y-100357143D02*
X89997561Y-100452381D01*
X89997561Y-100452381D02*
X89949942Y-100500000D01*
X89949942Y-100500000D02*
X89854704Y-100547619D01*
X89854704Y-100547619D02*
X89759466Y-100547619D01*
X89759466Y-100547619D02*
X89664228Y-100500000D01*
X89664228Y-100500000D02*
X89616609Y-100452381D01*
X89616609Y-100452381D02*
X89568990Y-100357143D01*
X89568990Y-100357143D02*
X89568990Y-100023810D01*
X89045180Y-101547619D02*
X89045180Y-100976191D01*
X89045180Y-101261905D02*
X90045180Y-101261905D01*
X90045180Y-101261905D02*
X89902323Y-101166667D01*
X89902323Y-101166667D02*
X89807085Y-101071429D01*
X89807085Y-101071429D02*
X89759466Y-100976191D01*
X100333333Y-90729580D02*
X100285714Y-90777200D01*
X100285714Y-90777200D02*
X100142857Y-90824819D01*
X100142857Y-90824819D02*
X100047619Y-90824819D01*
X100047619Y-90824819D02*
X99904762Y-90777200D01*
X99904762Y-90777200D02*
X99809524Y-90681961D01*
X99809524Y-90681961D02*
X99761905Y-90586723D01*
X99761905Y-90586723D02*
X99714286Y-90396247D01*
X99714286Y-90396247D02*
X99714286Y-90253390D01*
X99714286Y-90253390D02*
X99761905Y-90062914D01*
X99761905Y-90062914D02*
X99809524Y-89967676D01*
X99809524Y-89967676D02*
X99904762Y-89872438D01*
X99904762Y-89872438D02*
X100047619Y-89824819D01*
X100047619Y-89824819D02*
X100142857Y-89824819D01*
X100142857Y-89824819D02*
X100285714Y-89872438D01*
X100285714Y-89872438D02*
X100333333Y-89920057D01*
X100714286Y-89920057D02*
X100761905Y-89872438D01*
X100761905Y-89872438D02*
X100857143Y-89824819D01*
X100857143Y-89824819D02*
X101095238Y-89824819D01*
X101095238Y-89824819D02*
X101190476Y-89872438D01*
X101190476Y-89872438D02*
X101238095Y-89920057D01*
X101238095Y-89920057D02*
X101285714Y-90015295D01*
X101285714Y-90015295D02*
X101285714Y-90110533D01*
X101285714Y-90110533D02*
X101238095Y-90253390D01*
X101238095Y-90253390D02*
X100666667Y-90824819D01*
X100666667Y-90824819D02*
X101285714Y-90824819D01*
X152916667Y-97357200D02*
X153059524Y-97404819D01*
X153059524Y-97404819D02*
X153297619Y-97404819D01*
X153297619Y-97404819D02*
X153392857Y-97357200D01*
X153392857Y-97357200D02*
X153440476Y-97309580D01*
X153440476Y-97309580D02*
X153488095Y-97214342D01*
X153488095Y-97214342D02*
X153488095Y-97119104D01*
X153488095Y-97119104D02*
X153440476Y-97023866D01*
X153440476Y-97023866D02*
X153392857Y-96976247D01*
X153392857Y-96976247D02*
X153297619Y-96928628D01*
X153297619Y-96928628D02*
X153107143Y-96881009D01*
X153107143Y-96881009D02*
X153011905Y-96833390D01*
X153011905Y-96833390D02*
X152964286Y-96785771D01*
X152964286Y-96785771D02*
X152916667Y-96690533D01*
X152916667Y-96690533D02*
X152916667Y-96595295D01*
X152916667Y-96595295D02*
X152964286Y-96500057D01*
X152964286Y-96500057D02*
X153011905Y-96452438D01*
X153011905Y-96452438D02*
X153107143Y-96404819D01*
X153107143Y-96404819D02*
X153345238Y-96404819D01*
X153345238Y-96404819D02*
X153488095Y-96452438D01*
X153821429Y-96404819D02*
X154059524Y-97404819D01*
X154059524Y-97404819D02*
X154250000Y-96690533D01*
X154250000Y-96690533D02*
X154440476Y-97404819D01*
X154440476Y-97404819D02*
X154678572Y-96404819D01*
X154964286Y-96404819D02*
X155583333Y-96404819D01*
X155583333Y-96404819D02*
X155250000Y-96785771D01*
X155250000Y-96785771D02*
X155392857Y-96785771D01*
X155392857Y-96785771D02*
X155488095Y-96833390D01*
X155488095Y-96833390D02*
X155535714Y-96881009D01*
X155535714Y-96881009D02*
X155583333Y-96976247D01*
X155583333Y-96976247D02*
X155583333Y-97214342D01*
X155583333Y-97214342D02*
X155535714Y-97309580D01*
X155535714Y-97309580D02*
X155488095Y-97357200D01*
X155488095Y-97357200D02*
X155392857Y-97404819D01*
X155392857Y-97404819D02*
X155107143Y-97404819D01*
X155107143Y-97404819D02*
X155011905Y-97357200D01*
X155011905Y-97357200D02*
X154964286Y-97309580D01*
X108333333Y-89729580D02*
X108285714Y-89777200D01*
X108285714Y-89777200D02*
X108142857Y-89824819D01*
X108142857Y-89824819D02*
X108047619Y-89824819D01*
X108047619Y-89824819D02*
X107904762Y-89777200D01*
X107904762Y-89777200D02*
X107809524Y-89681961D01*
X107809524Y-89681961D02*
X107761905Y-89586723D01*
X107761905Y-89586723D02*
X107714286Y-89396247D01*
X107714286Y-89396247D02*
X107714286Y-89253390D01*
X107714286Y-89253390D02*
X107761905Y-89062914D01*
X107761905Y-89062914D02*
X107809524Y-88967676D01*
X107809524Y-88967676D02*
X107904762Y-88872438D01*
X107904762Y-88872438D02*
X108047619Y-88824819D01*
X108047619Y-88824819D02*
X108142857Y-88824819D01*
X108142857Y-88824819D02*
X108285714Y-88872438D01*
X108285714Y-88872438D02*
X108333333Y-88920057D01*
X109285714Y-89824819D02*
X108714286Y-89824819D01*
X109000000Y-89824819D02*
X109000000Y-88824819D01*
X109000000Y-88824819D02*
X108904762Y-88967676D01*
X108904762Y-88967676D02*
X108809524Y-89062914D01*
X108809524Y-89062914D02*
X108714286Y-89110533D01*
X114333333Y-83524819D02*
X114000000Y-83048628D01*
X113761905Y-83524819D02*
X113761905Y-82524819D01*
X113761905Y-82524819D02*
X114142857Y-82524819D01*
X114142857Y-82524819D02*
X114238095Y-82572438D01*
X114238095Y-82572438D02*
X114285714Y-82620057D01*
X114285714Y-82620057D02*
X114333333Y-82715295D01*
X114333333Y-82715295D02*
X114333333Y-82858152D01*
X114333333Y-82858152D02*
X114285714Y-82953390D01*
X114285714Y-82953390D02*
X114238095Y-83001009D01*
X114238095Y-83001009D02*
X114142857Y-83048628D01*
X114142857Y-83048628D02*
X113761905Y-83048628D01*
X115285714Y-83524819D02*
X114714286Y-83524819D01*
X115000000Y-83524819D02*
X115000000Y-82524819D01*
X115000000Y-82524819D02*
X114904762Y-82667676D01*
X114904762Y-82667676D02*
X114809524Y-82762914D01*
X114809524Y-82762914D02*
X114714286Y-82810533D01*
X159357142Y-105929580D02*
X159309523Y-105977200D01*
X159309523Y-105977200D02*
X159166666Y-106024819D01*
X159166666Y-106024819D02*
X159071428Y-106024819D01*
X159071428Y-106024819D02*
X158928571Y-105977200D01*
X158928571Y-105977200D02*
X158833333Y-105881961D01*
X158833333Y-105881961D02*
X158785714Y-105786723D01*
X158785714Y-105786723D02*
X158738095Y-105596247D01*
X158738095Y-105596247D02*
X158738095Y-105453390D01*
X158738095Y-105453390D02*
X158785714Y-105262914D01*
X158785714Y-105262914D02*
X158833333Y-105167676D01*
X158833333Y-105167676D02*
X158928571Y-105072438D01*
X158928571Y-105072438D02*
X159071428Y-105024819D01*
X159071428Y-105024819D02*
X159166666Y-105024819D01*
X159166666Y-105024819D02*
X159309523Y-105072438D01*
X159309523Y-105072438D02*
X159357142Y-105120057D01*
X160309523Y-106024819D02*
X159738095Y-106024819D01*
X160023809Y-106024819D02*
X160023809Y-105024819D01*
X160023809Y-105024819D02*
X159928571Y-105167676D01*
X159928571Y-105167676D02*
X159833333Y-105262914D01*
X159833333Y-105262914D02*
X159738095Y-105310533D01*
X161261904Y-106024819D02*
X160690476Y-106024819D01*
X160976190Y-106024819D02*
X160976190Y-105024819D01*
X160976190Y-105024819D02*
X160880952Y-105167676D01*
X160880952Y-105167676D02*
X160785714Y-105262914D01*
X160785714Y-105262914D02*
X160690476Y-105310533D01*
X95433333Y-86454819D02*
X94957143Y-86454819D01*
X94957143Y-86454819D02*
X94957143Y-85454819D01*
X96290476Y-86454819D02*
X95719048Y-86454819D01*
X96004762Y-86454819D02*
X96004762Y-85454819D01*
X96004762Y-85454819D02*
X95909524Y-85597676D01*
X95909524Y-85597676D02*
X95814286Y-85692914D01*
X95814286Y-85692914D02*
X95719048Y-85740533D01*
%TO.C,R3*%
D11*
X91762742Y-95477500D02*
X92237258Y-95477500D01*
X91762742Y-96522500D02*
X92237258Y-96522500D01*
%TO.C,D1*%
X156515000Y-85265000D02*
X156515000Y-86735000D01*
X156515000Y-86735000D02*
X158800000Y-86735000D01*
X158800000Y-85265000D02*
X156515000Y-85265000D01*
%TO.C,R4*%
X91762742Y-101477500D02*
X92237258Y-101477500D01*
X91762742Y-102522500D02*
X92237258Y-102522500D01*
%TO.C,U_CHG1*%
X109090000Y-84440000D02*
X110910000Y-84440000D01*
X109090000Y-84490000D02*
X109090000Y-84440000D01*
X109090000Y-87560000D02*
X109090000Y-87510000D01*
X110910000Y-84440000D02*
X110910000Y-84490000D01*
X110910000Y-85610000D02*
X110910000Y-86390000D01*
X110910000Y-87510000D02*
X110910000Y-87560000D01*
X110910000Y-87560000D02*
X109090000Y-87560000D01*
X108550000Y-84490000D02*
X108310000Y-84160000D01*
X108790000Y-84160000D01*
X108550000Y-84490000D01*
G36*
X108550000Y-84490000D02*
G01*
X108310000Y-84160000D01*
X108790000Y-84160000D01*
X108550000Y-84490000D01*
G37*
%TO.C,R2*%
X163762742Y-85477500D02*
X164237258Y-85477500D01*
X163762742Y-86522500D02*
X164237258Y-86522500D01*
%TO.C,U1*%
X168650000Y-91200000D02*
X189350000Y-91200000D01*
X168650000Y-106800000D02*
X168650000Y-91200000D01*
X189350000Y-91200000D02*
X189350000Y-106800000D01*
X189350000Y-106800000D02*
X168650000Y-106800000D01*
X189600000Y-90925000D02*
X187150000Y-90925000D01*
X189600000Y-90925000D02*
X189600000Y-93375000D01*
X182400000Y-91025000D02*
X182160000Y-90689000D01*
X182640000Y-90689000D01*
X182400000Y-91025000D01*
G36*
X182400000Y-91025000D02*
G01*
X182160000Y-90689000D01*
X182640000Y-90689000D01*
X182400000Y-91025000D01*
G37*
%TO.C,C7*%
X177859420Y-109290000D02*
X178140580Y-109290000D01*
X177859420Y-110310000D02*
X178140580Y-110310000D01*
%TO.C,C9*%
X109859420Y-106490000D02*
X110140580Y-106490000D01*
X109859420Y-107510000D02*
X110140580Y-107510000D01*
%TO.C,SW1*%
X101130000Y-102400000D02*
X101130000Y-100200000D01*
X101600000Y-104370000D02*
X106800000Y-104370000D01*
X102200000Y-98130000D02*
X106600000Y-98130000D01*
X107370000Y-100200000D02*
X107370000Y-102400000D01*
X105664214Y-101250000D02*
G75*
G02*
X102835786Y-101250000I-1414214J0D01*
G01*
X102835786Y-101250000D02*
G75*
G02*
X105664214Y-101250000I1414214J0D01*
G01*
%TO.C,C6*%
X173859420Y-109290000D02*
X174140580Y-109290000D01*
X173859420Y-110310000D02*
X174140580Y-110310000D01*
%TO.C,R8*%
X128412742Y-92477500D02*
X128887258Y-92477500D01*
X128412742Y-93522500D02*
X128887258Y-93522500D01*
%TO.C,SW_RST1*%
X164350000Y-112100000D02*
X167650000Y-112100000D01*
X164350000Y-112400000D02*
X164350000Y-112100000D01*
X164350000Y-114600000D02*
X164350000Y-114900000D01*
X164350000Y-114900000D02*
X167650000Y-114900000D01*
X167650000Y-112100000D02*
X167650000Y-112400000D01*
X167650000Y-114900000D02*
X167650000Y-114600000D01*
%TO.C,C8*%
X131359420Y-90990000D02*
X131640580Y-90990000D01*
X131359420Y-92010000D02*
X131640580Y-92010000D01*
%TO.C,J_BAT1*%
X117940000Y-80840000D02*
X117940000Y-88660000D01*
X117940000Y-87060000D02*
X118860000Y-87060000D01*
X117940000Y-88660000D02*
X118860000Y-88660000D01*
X118860000Y-87060000D02*
X119140000Y-87060000D01*
X118860000Y-88660000D02*
X118860000Y-87060000D01*
X120500000Y-85200000D02*
X120500000Y-80840000D01*
X121500000Y-80840000D02*
X121500000Y-85200000D01*
X121500000Y-85200000D02*
X120500000Y-85200000D01*
X122300000Y-83100000D02*
X122300000Y-80840000D01*
X122800000Y-83100000D02*
X122800000Y-80840000D01*
X122860000Y-87060000D02*
X122860000Y-88275000D01*
X122860000Y-87060000D02*
X123140000Y-87060000D01*
X123140000Y-87060000D02*
X123140000Y-88660000D01*
X123140000Y-88660000D02*
X124060000Y-88660000D01*
X124060000Y-80840000D02*
X117940000Y-80840000D01*
X124060000Y-87060000D02*
X123140000Y-87060000D01*
X124060000Y-88660000D02*
X124060000Y-80840000D01*
X118700000Y-83100000D02*
X119700000Y-83100000D01*
X119700000Y-84700000D01*
X118700000Y-84700000D01*
X118700000Y-83100000D01*
X122300000Y-83100000D02*
X123300000Y-83100000D01*
X123300000Y-84700000D01*
X122300000Y-84700000D01*
X122300000Y-83100000D01*
%TO.C,C5*%
X169859420Y-109290000D02*
X170140580Y-109290000D01*
X169859420Y-110310000D02*
X170140580Y-110310000D01*
%TO.C,C10*%
X134859420Y-106490000D02*
X135140580Y-106490000D01*
X134859420Y-107510000D02*
X135140580Y-107510000D01*
%TO.C,C4*%
X114359420Y-88990000D02*
X114640580Y-88990000D01*
X114359420Y-90010000D02*
X114640580Y-90010000D01*
%TO.C,C3*%
X103859420Y-91290000D02*
X104140580Y-91290000D01*
X103859420Y-92310000D02*
X104140580Y-92310000D01*
%TO.C,REG1*%
X102390000Y-87380000D02*
X102390000Y-87610000D01*
X102390000Y-87610000D02*
X103365000Y-87610000D01*
X102680000Y-84390000D02*
X103365000Y-84390000D01*
X104635000Y-84390000D02*
X105610000Y-84390000D01*
X104635000Y-87610000D02*
X105610000Y-87610000D01*
X105610000Y-84390000D02*
X105610000Y-84620000D01*
X105610000Y-87380000D02*
X105610000Y-87610000D01*
X102360000Y-84390000D02*
X102080000Y-84390000D01*
X102360000Y-84110000D01*
X102360000Y-84390000D01*
G36*
X102360000Y-84390000D02*
G01*
X102080000Y-84390000D01*
X102360000Y-84110000D01*
X102360000Y-84390000D01*
G37*
%TO.C,R7*%
X126762742Y-89977500D02*
X127237258Y-89977500D01*
X126762742Y-91022500D02*
X127237258Y-91022500D01*
%TO.C,R6*%
X172262742Y-112977500D02*
X172737258Y-112977500D01*
X172262742Y-114022500D02*
X172737258Y-114022500D01*
%TO.C,SW_BOOT1*%
X177350000Y-111600000D02*
X180650000Y-111600000D01*
X177350000Y-111900000D02*
X177350000Y-111600000D01*
X177350000Y-114100000D02*
X177350000Y-114400000D01*
X177350000Y-114400000D02*
X180650000Y-114400000D01*
X180650000Y-111600000D02*
X180650000Y-111900000D01*
X180650000Y-114400000D02*
X180650000Y-114100000D01*
%TO.C,SW2*%
X126130000Y-102400000D02*
X126130000Y-100200000D01*
X126600000Y-104370000D02*
X131800000Y-104370000D01*
X127200000Y-98130000D02*
X131600000Y-98130000D01*
X132370000Y-100200000D02*
X132370000Y-102400000D01*
X130664214Y-101250000D02*
G75*
G02*
X127835786Y-101250000I-1414214J0D01*
G01*
X127835786Y-101250000D02*
G75*
G02*
X130664214Y-101250000I1414214J0D01*
G01*
%TO.C,R5*%
X182162742Y-109277500D02*
X182637258Y-109277500D01*
X182162742Y-110322500D02*
X182637258Y-110322500D01*
%TO.C,J_USB1*%
X84100000Y-94330000D02*
X85800000Y-94330000D01*
X84100000Y-103670000D02*
X85800000Y-103670000D01*
%TO.C,C2*%
X100359420Y-91290000D02*
X100640580Y-91290000D01*
X100359420Y-92310000D02*
X100640580Y-92310000D01*
%TO.C,SW3*%
X151130000Y-102400000D02*
X151130000Y-100200000D01*
X151600000Y-104370000D02*
X156800000Y-104370000D01*
X152200000Y-98130000D02*
X156600000Y-98130000D01*
X157370000Y-100200000D02*
X157370000Y-102400000D01*
X155664214Y-101250000D02*
G75*
G02*
X152835786Y-101250000I-1414214J0D01*
G01*
X152835786Y-101250000D02*
G75*
G02*
X155664214Y-101250000I1414214J0D01*
G01*
%TO.C,C1*%
X108359420Y-90290000D02*
X108640580Y-90290000D01*
X108359420Y-91310000D02*
X108640580Y-91310000D01*
%TO.C,R1*%
X114262742Y-83977500D02*
X114737258Y-83977500D01*
X114262742Y-85022500D02*
X114737258Y-85022500D01*
%TO.C,C11*%
X159859420Y-106490000D02*
X160140580Y-106490000D01*
X159859420Y-107510000D02*
X160140580Y-107510000D01*
%TO.C,L1*%
X96490000Y-83615000D02*
X96490000Y-84640000D01*
X96490000Y-83615000D02*
X97515000Y-83615000D01*
X96490000Y-88385000D02*
X96490000Y-87360000D01*
X96490000Y-88385000D02*
X97515000Y-88385000D01*
X100710000Y-83615000D02*
X99685000Y-83615000D01*
X100710000Y-83615000D02*
X100710000Y-84640000D01*
X100710000Y-88385000D02*
X99685000Y-88385000D01*
X100710000Y-88385000D02*
X100710000Y-87360000D01*
%TD*%
M02*
