%TF.GenerationSoftware,KiCad,Pcbnew,10.0.6*%
%TF.CreationDate,2026-09-29T12:23:03-06:00*%
%TF.ProjectId,RB_Switch,52425f53-7769-4746-9368-2e6b69636164,rev?*%
%TF.SameCoordinates,Original*%
%TF.FileFunction,Copper,L2,Inr*%
%TF.FilePolarity,Positive*%
%FSLAX46Y46*%
G04 Gerber Fmt 4.6, Leading zero omitted, Abs format (unit mm)*
G04 Created by KiCad (PCBNEW 10.0.6) date 2026-09-29 12:23:03*
%MOMM*%
%LPD*%
G01*
G04 APERTURE LIST*
G04 Aperture macros list*
%AMRoundRect*
0 Rectangle with rounded corners*
0 $1 Rounding radius*
0 $2 $3 $4 $5 $6 $7 $8 $9 X,Y pos of 4 corners*
0 Add a 4 corners polygon primitive as box body*
4,1,4,$2,$3,$4,$5,$6,$7,$8,$9,$2,$3,0*
0 Add four circle primitives for the rounded corners*
1,1,$1+$1,$2,$3*
1,1,$1+$1,$4,$5*
1,1,$1+$1,$6,$7*
1,1,$1+$1,$8,$9*
0 Add four rect primitives between the rounded corners*
20,1,$1+$1,$2,$3,$4,$5,0*
20,1,$1+$1,$4,$5,$6,$7,0*
20,1,$1+$1,$6,$7,$8,$9,0*
20,1,$1+$1,$8,$9,$2,$3,0*%
G04 Aperture macros list end*
%TA.AperFunction,ComponentPad*%
%ADD10R,1.700000X1.700000*%
%TD*%
%TA.AperFunction,ComponentPad*%
%ADD11C,1.700000*%
%TD*%
%TA.AperFunction,ComponentPad*%
%ADD12RoundRect,0.250000X-0.350000X-0.625000X0.350000X-0.625000X0.350000X0.625000X-0.350000X0.625000X0*%
%TD*%
%TA.AperFunction,ComponentPad*%
%ADD13O,1.200000X1.750000*%
%TD*%
%TA.AperFunction,ComponentPad*%
%ADD14C,0.500000*%
%TD*%
%TA.AperFunction,ComponentPad*%
%ADD15O,2.100000X1.000000*%
%TD*%
%TA.AperFunction,ComponentPad*%
%ADD16O,1.800000X1.000000*%
%TD*%
%TA.AperFunction,ViaPad*%
%ADD17C,0.600000*%
%TD*%
G04 APERTURE END LIST*
D10*
%TO.N,SW1_NET*%
%TO.C,SW1*%
X101000000Y-99000000D03*
D11*
X107500000Y-99000000D03*
%TO.N,GND*%
X101000000Y-103500000D03*
X107500000Y-103500000D03*
%TD*%
D12*
%TO.N,VBAT*%
%TO.C,J_BAT*%
X116000000Y-86000000D03*
D13*
%TO.N,GND*%
X118000000Y-86000000D03*
%TD*%
D14*
%TO.N,GND*%
%TO.C,REG1*%
X103425000Y-86000000D03*
X104000000Y-85050000D03*
X104000000Y-86950000D03*
X104575000Y-86000000D03*
%TD*%
D10*
%TO.N,SW2_NET*%
%TO.C,SW2*%
X126000000Y-99000000D03*
D11*
X132500000Y-99000000D03*
%TO.N,GND*%
X126000000Y-103500000D03*
X132500000Y-103500000D03*
%TD*%
D15*
%TO.N,GND*%
%TO.C,J_USB*%
X87105000Y-94680000D03*
D16*
X82925000Y-94680000D03*
D15*
X87105000Y-103320000D03*
D16*
X82925000Y-103320000D03*
%TD*%
D10*
%TO.N,SW3_NET*%
%TO.C,SW3*%
X151000000Y-99000000D03*
D11*
X157500000Y-99000000D03*
%TO.N,GND*%
X151000000Y-103500000D03*
X157500000Y-103500000D03*
%TD*%
D17*
%TO.N,USB_CC1*%
X115175000Y-113000000D03*
X85250000Y-102680000D03*
%TO.N,GND*%
X188550000Y-106000000D03*
X104000000Y-85050000D03*
X174550000Y-102400000D03*
X179900000Y-97350000D03*
X107500000Y-103500000D03*
X140775000Y-86000000D03*
X174550000Y-92000000D03*
X87199999Y-102680000D03*
X174550000Y-99850000D03*
X126000000Y-103500000D03*
X174550000Y-106000000D03*
X101000000Y-103500000D03*
X174550000Y-95600000D03*
X174550000Y-103250000D03*
X146825000Y-86000000D03*
X122825000Y-113000000D03*
X157500000Y-103500000D03*
X183200000Y-100650000D03*
X80800000Y-102680000D03*
X174550000Y-104950000D03*
X174550000Y-96450000D03*
X88320000Y-102105000D03*
X132500000Y-103500000D03*
X108862500Y-86000000D03*
X183200000Y-99000000D03*
X146775000Y-113000000D03*
X158775000Y-113000000D03*
X179900000Y-99000000D03*
X179900000Y-100650000D03*
X174550000Y-101550000D03*
X175600000Y-106000000D03*
X152775000Y-113000000D03*
X103425000Y-86000000D03*
X174550000Y-94750000D03*
X164775000Y-113000000D03*
X181550000Y-99000000D03*
X105400000Y-86500000D03*
X181550000Y-100650000D03*
X116825000Y-113000000D03*
X122775000Y-86000000D03*
X151000000Y-103500000D03*
X174550000Y-93900000D03*
X174550000Y-97300000D03*
X177300000Y-92000000D03*
X188550000Y-92000000D03*
X79680000Y-97925000D03*
X176450000Y-106000000D03*
X174550000Y-104100000D03*
X87199999Y-102680000D03*
X174550000Y-99000000D03*
X170775000Y-113000000D03*
X174550000Y-98150000D03*
X104575000Y-86000000D03*
X181550000Y-97350000D03*
X104825000Y-113000000D03*
X95700000Y-113000000D03*
X104000000Y-86950000D03*
X118000000Y-86000000D03*
X128775000Y-86000000D03*
X110775000Y-113000000D03*
X174550000Y-100700000D03*
X178150000Y-92000000D03*
X152775000Y-86000000D03*
X183200000Y-97350000D03*
X79680000Y-102105000D03*
X88320000Y-97925000D03*
X102600000Y-86000000D03*
X140775000Y-113000000D03*
X80800000Y-102680000D03*
X174550000Y-93050000D03*
X105400000Y-85500000D03*
X104000000Y-86000000D03*
X180700000Y-113000000D03*
%TO.N,CHG_STAT*%
X108862500Y-85050000D03*
X157212500Y-86000000D03*
%TO.N,VBAT*%
X116000000Y-86000000D03*
X105400000Y-87000000D03*
X105400000Y-86000000D03*
X121225000Y-86000000D03*
X108862500Y-86950000D03*
X116000000Y-86000000D03*
X108862500Y-86950000D03*
X105400000Y-87000000D03*
X121225000Y-86000000D03*
X105400000Y-86000000D03*
X169175000Y-86000000D03*
X102600000Y-87000000D03*
%TO.N,V3V3*%
X139225000Y-113000000D03*
X127225000Y-86000000D03*
X127175000Y-113000000D03*
X145224999Y-113000000D03*
X133175000Y-113000000D03*
X164825000Y-86000000D03*
X177300000Y-106000000D03*
X151225000Y-113000000D03*
X102600000Y-85000000D03*
X139225000Y-86000000D03*
%TO.N,BOOT_NET*%
X177300000Y-113000000D03*
X177300000Y-113000000D03*
X178150000Y-106000000D03*
X134825000Y-113000000D03*
%TO.N,VBAT_SENSE*%
X103175000Y-113000000D03*
X109225000Y-113000000D03*
X170825000Y-86000000D03*
X182400000Y-106000000D03*
X109225000Y-113000000D03*
X170825000Y-86000000D03*
%TO.N,SW2_NET*%
X126000000Y-99000000D03*
X187500000Y-106000000D03*
X163225000Y-113000000D03*
X163225000Y-113000000D03*
%TO.N,USB_DM*%
X188550000Y-99000000D03*
X84250000Y-102680000D03*
X83250000Y-102680000D03*
X84250000Y-102680000D03*
%TO.N,L_B*%
X135525000Y-86000000D03*
X102600000Y-85500000D03*
%TD*%
%TA.AperFunction,Conductor*%
%TO.N,GND*%
G36*
X154223566Y-81017313D02*
G01*
X154248876Y-81061150D01*
X154250000Y-81074000D01*
X154250000Y-116926000D01*
X154232687Y-116973566D01*
X154188850Y-116998876D01*
X154176000Y-117000000D01*
X80074000Y-117000000D01*
X80026434Y-116982687D01*
X80001124Y-116938850D01*
X80000000Y-116926000D01*
X80000000Y-113000000D01*
X102569318Y-113000000D01*
X102589955Y-113156760D01*
X102589955Y-113156761D01*
X102650464Y-113302841D01*
X102746715Y-113428279D01*
X102746720Y-113428284D01*
X102830345Y-113492451D01*
X102872159Y-113524536D01*
X103018238Y-113585044D01*
X103175000Y-113605682D01*
X103331762Y-113585044D01*
X103477841Y-113524536D01*
X103603282Y-113428282D01*
X103699536Y-113302841D01*
X103760044Y-113156762D01*
X103780682Y-113000000D01*
X108619318Y-113000000D01*
X108639955Y-113156760D01*
X108639955Y-113156761D01*
X108700464Y-113302841D01*
X108796715Y-113428279D01*
X108796720Y-113428284D01*
X108880345Y-113492451D01*
X108922159Y-113524536D01*
X109068238Y-113585044D01*
X109225000Y-113605682D01*
X109381762Y-113585044D01*
X109527841Y-113524536D01*
X109653282Y-113428282D01*
X109749536Y-113302841D01*
X109810044Y-113156762D01*
X109830682Y-113000000D01*
X114569318Y-113000000D01*
X114589955Y-113156760D01*
X114589955Y-113156761D01*
X114650464Y-113302841D01*
X114746715Y-113428279D01*
X114746720Y-113428284D01*
X114830345Y-113492451D01*
X114872159Y-113524536D01*
X115018238Y-113585044D01*
X115175000Y-113605682D01*
X115331762Y-113585044D01*
X115477841Y-113524536D01*
X115603282Y-113428282D01*
X115699536Y-113302841D01*
X115760044Y-113156762D01*
X115780682Y-113000000D01*
X126569318Y-113000000D01*
X126589955Y-113156760D01*
X126589955Y-113156761D01*
X126650464Y-113302841D01*
X126746715Y-113428279D01*
X126746720Y-113428284D01*
X126830345Y-113492451D01*
X126872159Y-113524536D01*
X127018238Y-113585044D01*
X127175000Y-113605682D01*
X127331762Y-113585044D01*
X127477841Y-113524536D01*
X127603282Y-113428282D01*
X127699536Y-113302841D01*
X127760044Y-113156762D01*
X127780682Y-113000000D01*
X132569318Y-113000000D01*
X132589955Y-113156760D01*
X132589955Y-113156761D01*
X132650464Y-113302841D01*
X132746715Y-113428279D01*
X132746720Y-113428284D01*
X132830345Y-113492451D01*
X132872159Y-113524536D01*
X133018238Y-113585044D01*
X133175000Y-113605682D01*
X133331762Y-113585044D01*
X133477841Y-113524536D01*
X133603282Y-113428282D01*
X133699536Y-113302841D01*
X133760044Y-113156762D01*
X133780682Y-113000000D01*
X134219318Y-113000000D01*
X134239955Y-113156760D01*
X134239955Y-113156761D01*
X134300464Y-113302841D01*
X134396715Y-113428279D01*
X134396720Y-113428284D01*
X134480345Y-113492451D01*
X134522159Y-113524536D01*
X134668238Y-113585044D01*
X134825000Y-113605682D01*
X134981762Y-113585044D01*
X135127841Y-113524536D01*
X135253282Y-113428282D01*
X135349536Y-113302841D01*
X135410044Y-113156762D01*
X135430682Y-113000000D01*
X138619318Y-113000000D01*
X138639955Y-113156760D01*
X138639955Y-113156761D01*
X138700464Y-113302841D01*
X138796715Y-113428279D01*
X138796720Y-113428284D01*
X138880345Y-113492451D01*
X138922159Y-113524536D01*
X139068238Y-113585044D01*
X139225000Y-113605682D01*
X139381762Y-113585044D01*
X139527841Y-113524536D01*
X139653282Y-113428282D01*
X139749536Y-113302841D01*
X139810044Y-113156762D01*
X139830682Y-113000000D01*
X144619317Y-113000000D01*
X144639954Y-113156760D01*
X144639954Y-113156761D01*
X144700463Y-113302841D01*
X144796714Y-113428279D01*
X144796719Y-113428284D01*
X144880344Y-113492451D01*
X144922158Y-113524536D01*
X145068237Y-113585044D01*
X145224999Y-113605682D01*
X145381761Y-113585044D01*
X145527840Y-113524536D01*
X145653281Y-113428282D01*
X145749535Y-113302841D01*
X145810043Y-113156762D01*
X145830681Y-113000000D01*
X150619318Y-113000000D01*
X150639955Y-113156760D01*
X150639955Y-113156761D01*
X150700464Y-113302841D01*
X150796715Y-113428279D01*
X150796720Y-113428284D01*
X150880345Y-113492451D01*
X150922159Y-113524536D01*
X151068238Y-113585044D01*
X151225000Y-113605682D01*
X151381762Y-113585044D01*
X151527841Y-113524536D01*
X151653282Y-113428282D01*
X151749536Y-113302841D01*
X151810044Y-113156762D01*
X151830682Y-113000000D01*
X151810044Y-112843238D01*
X151749536Y-112697159D01*
X151653282Y-112571718D01*
X151653279Y-112571715D01*
X151527841Y-112475464D01*
X151381761Y-112414955D01*
X151225000Y-112394318D01*
X151068239Y-112414955D01*
X151068238Y-112414955D01*
X150922158Y-112475464D01*
X150796720Y-112571715D01*
X150796715Y-112571720D01*
X150700464Y-112697158D01*
X150639955Y-112843238D01*
X150639955Y-112843239D01*
X150619318Y-113000000D01*
X145830681Y-113000000D01*
X145810043Y-112843238D01*
X145749535Y-112697159D01*
X145653281Y-112571718D01*
X145653278Y-112571715D01*
X145527840Y-112475464D01*
X145381760Y-112414955D01*
X145224999Y-112394318D01*
X145068238Y-112414955D01*
X145068237Y-112414955D01*
X144922157Y-112475464D01*
X144796719Y-112571715D01*
X144796714Y-112571720D01*
X144700463Y-112697158D01*
X144639954Y-112843238D01*
X144639954Y-112843239D01*
X144619317Y-113000000D01*
X139830682Y-113000000D01*
X139810044Y-112843238D01*
X139749536Y-112697159D01*
X139653282Y-112571718D01*
X139653279Y-112571715D01*
X139527841Y-112475464D01*
X139381761Y-112414955D01*
X139225000Y-112394318D01*
X139068239Y-112414955D01*
X139068238Y-112414955D01*
X138922158Y-112475464D01*
X138796720Y-112571715D01*
X138796715Y-112571720D01*
X138700464Y-112697158D01*
X138639955Y-112843238D01*
X138639955Y-112843239D01*
X138619318Y-113000000D01*
X135430682Y-113000000D01*
X135410044Y-112843238D01*
X135349536Y-112697159D01*
X135253282Y-112571718D01*
X135253279Y-112571715D01*
X135127841Y-112475464D01*
X134981761Y-112414955D01*
X134825000Y-112394318D01*
X134668239Y-112414955D01*
X134668238Y-112414955D01*
X134522158Y-112475464D01*
X134396720Y-112571715D01*
X134396715Y-112571720D01*
X134300464Y-112697158D01*
X134239955Y-112843238D01*
X134239955Y-112843239D01*
X134219318Y-113000000D01*
X133780682Y-113000000D01*
X133760044Y-112843238D01*
X133699536Y-112697159D01*
X133603282Y-112571718D01*
X133603279Y-112571715D01*
X133477841Y-112475464D01*
X133331761Y-112414955D01*
X133175000Y-112394318D01*
X133018239Y-112414955D01*
X133018238Y-112414955D01*
X132872158Y-112475464D01*
X132746720Y-112571715D01*
X132746715Y-112571720D01*
X132650464Y-112697158D01*
X132589955Y-112843238D01*
X132589955Y-112843239D01*
X132569318Y-113000000D01*
X127780682Y-113000000D01*
X127760044Y-112843238D01*
X127699536Y-112697159D01*
X127603282Y-112571718D01*
X127603279Y-112571715D01*
X127477841Y-112475464D01*
X127331761Y-112414955D01*
X127175000Y-112394318D01*
X127018239Y-112414955D01*
X127018238Y-112414955D01*
X126872158Y-112475464D01*
X126746720Y-112571715D01*
X126746715Y-112571720D01*
X126650464Y-112697158D01*
X126589955Y-112843238D01*
X126589955Y-112843239D01*
X126569318Y-113000000D01*
X115780682Y-113000000D01*
X115760044Y-112843238D01*
X115699536Y-112697159D01*
X115603282Y-112571718D01*
X115603279Y-112571715D01*
X115477841Y-112475464D01*
X115331761Y-112414955D01*
X115175000Y-112394318D01*
X115018239Y-112414955D01*
X115018238Y-112414955D01*
X114872158Y-112475464D01*
X114746720Y-112571715D01*
X114746715Y-112571720D01*
X114650464Y-112697158D01*
X114589955Y-112843238D01*
X114589955Y-112843239D01*
X114569318Y-113000000D01*
X109830682Y-113000000D01*
X109810044Y-112843238D01*
X109749536Y-112697159D01*
X109653282Y-112571718D01*
X109653279Y-112571715D01*
X109527841Y-112475464D01*
X109381761Y-112414955D01*
X109225000Y-112394318D01*
X109068239Y-112414955D01*
X109068238Y-112414955D01*
X108922158Y-112475464D01*
X108796720Y-112571715D01*
X108796715Y-112571720D01*
X108700464Y-112697158D01*
X108639955Y-112843238D01*
X108639955Y-112843239D01*
X108619318Y-113000000D01*
X103780682Y-113000000D01*
X103760044Y-112843238D01*
X103699536Y-112697159D01*
X103603282Y-112571718D01*
X103603279Y-112571715D01*
X103477841Y-112475464D01*
X103331761Y-112414955D01*
X103175000Y-112394318D01*
X103018239Y-112414955D01*
X103018238Y-112414955D01*
X102872158Y-112475464D01*
X102746720Y-112571715D01*
X102746715Y-112571720D01*
X102650464Y-112697158D01*
X102589955Y-112843238D01*
X102589955Y-112843239D01*
X102569318Y-113000000D01*
X80000000Y-113000000D01*
X80000000Y-103654369D01*
X80017313Y-103606803D01*
X80048300Y-103584975D01*
X80122667Y-103557433D01*
X80295260Y-103449855D01*
X80442671Y-103309731D01*
X80558857Y-103142802D01*
X80558857Y-103142801D01*
X80639058Y-102955911D01*
X80639061Y-102955901D01*
X80679999Y-102756696D01*
X80680000Y-102756688D01*
X80680000Y-102680000D01*
X82644318Y-102680000D01*
X82664955Y-102836760D01*
X82664955Y-102836761D01*
X82725464Y-102982841D01*
X82821715Y-103108279D01*
X82821720Y-103108284D01*
X82866704Y-103142801D01*
X82947159Y-103204536D01*
X83093238Y-103265044D01*
X83250000Y-103285682D01*
X83406762Y-103265044D01*
X83552841Y-103204536D01*
X83678282Y-103108282D01*
X83691291Y-103091327D01*
X83733982Y-103064129D01*
X83784168Y-103070735D01*
X83808709Y-103091328D01*
X83821716Y-103108280D01*
X83821720Y-103108284D01*
X83866704Y-103142801D01*
X83947159Y-103204536D01*
X84093238Y-103265044D01*
X84250000Y-103285682D01*
X84406762Y-103265044D01*
X84552841Y-103204536D01*
X84678282Y-103108282D01*
X84691291Y-103091327D01*
X84733982Y-103064129D01*
X84784168Y-103070735D01*
X84808709Y-103091328D01*
X84821716Y-103108280D01*
X84821720Y-103108284D01*
X84866704Y-103142801D01*
X84947159Y-103204536D01*
X85093238Y-103265044D01*
X85250000Y-103285682D01*
X85406762Y-103265044D01*
X85552841Y-103204536D01*
X85678282Y-103108282D01*
X85774536Y-102982841D01*
X85835044Y-102836762D01*
X85855682Y-102680000D01*
X85835044Y-102523238D01*
X85774536Y-102377159D01*
X85712161Y-102295870D01*
X85678284Y-102251720D01*
X85678279Y-102251715D01*
X85552841Y-102155464D01*
X85406761Y-102094955D01*
X85250000Y-102074318D01*
X85093239Y-102094955D01*
X85093238Y-102094955D01*
X84947158Y-102155464D01*
X84821722Y-102251713D01*
X84821718Y-102251717D01*
X84821718Y-102251718D01*
X84812719Y-102263444D01*
X84808707Y-102268674D01*
X84766014Y-102295870D01*
X84715828Y-102289262D01*
X84691293Y-102268674D01*
X84690282Y-102267357D01*
X84678282Y-102251718D01*
X84678279Y-102251715D01*
X84678277Y-102251713D01*
X84552841Y-102155464D01*
X84406761Y-102094955D01*
X84250000Y-102074318D01*
X84093239Y-102094955D01*
X84093238Y-102094955D01*
X83947158Y-102155464D01*
X83821722Y-102251713D01*
X83821718Y-102251717D01*
X83821718Y-102251718D01*
X83812719Y-102263444D01*
X83808707Y-102268674D01*
X83766014Y-102295870D01*
X83715828Y-102289262D01*
X83691293Y-102268674D01*
X83690282Y-102267357D01*
X83678282Y-102251718D01*
X83678279Y-102251715D01*
X83678277Y-102251713D01*
X83552841Y-102155464D01*
X83406761Y-102094955D01*
X83250000Y-102074318D01*
X83093239Y-102094955D01*
X83093238Y-102094955D01*
X82947158Y-102155464D01*
X82821720Y-102251715D01*
X82821715Y-102251720D01*
X82725464Y-102377158D01*
X82664955Y-102523238D01*
X82664955Y-102523239D01*
X82644318Y-102680000D01*
X80680000Y-102680000D01*
X80680000Y-102355000D01*
X80000000Y-102355000D01*
X80000000Y-101855000D01*
X80541349Y-101855000D01*
X80588915Y-101872313D01*
X80605435Y-101892000D01*
X80607301Y-101895232D01*
X80607302Y-101895233D01*
X80699549Y-102015451D01*
X80819767Y-102107698D01*
X80959764Y-102165687D01*
X81072280Y-102180500D01*
X81072282Y-102180500D01*
X81147718Y-102180500D01*
X81147720Y-102180500D01*
X81260236Y-102165687D01*
X81400233Y-102107698D01*
X81520451Y-102015451D01*
X81612698Y-101895233D01*
X81670687Y-101755236D01*
X81690466Y-101605000D01*
X86309534Y-101605000D01*
X86329312Y-101755234D01*
X86329312Y-101755235D01*
X86370637Y-101855000D01*
X86387302Y-101895233D01*
X86479549Y-102015451D01*
X86599767Y-102107698D01*
X86739764Y-102165687D01*
X86852280Y-102180500D01*
X86852282Y-102180500D01*
X86927718Y-102180500D01*
X86927720Y-102180500D01*
X87040236Y-102165687D01*
X87180233Y-102107698D01*
X87300451Y-102015451D01*
X87392698Y-101895233D01*
X87392699Y-101895229D01*
X87394565Y-101892000D01*
X87433341Y-101859463D01*
X87458651Y-101855000D01*
X88020000Y-101855000D01*
X88020000Y-102355000D01*
X87320000Y-102355000D01*
X87320000Y-102705719D01*
X87335417Y-102857333D01*
X87335419Y-102857338D01*
X87396300Y-103051384D01*
X87396301Y-103051385D01*
X87495006Y-103229217D01*
X87495010Y-103229222D01*
X87627477Y-103383528D01*
X87627479Y-103383531D01*
X87788303Y-103508017D01*
X87788305Y-103508019D01*
X87970902Y-103597586D01*
X87970906Y-103597588D01*
X88070000Y-103623244D01*
X88070000Y-102821110D01*
X88094457Y-102860610D01*
X88183962Y-102928201D01*
X88291840Y-102958895D01*
X88403521Y-102948546D01*
X88503922Y-102898552D01*
X88570000Y-102826069D01*
X88570000Y-103628365D01*
X88571944Y-103628068D01*
X88762665Y-103557434D01*
X88854802Y-103500005D01*
X99644843Y-103500005D01*
X99665430Y-103735317D01*
X99665431Y-103735325D01*
X99726566Y-103963483D01*
X99726571Y-103963494D01*
X99826402Y-104177582D01*
X99885072Y-104261373D01*
X100516922Y-103629522D01*
X100540507Y-103709844D01*
X100618239Y-103830798D01*
X100726900Y-103924952D01*
X100857685Y-103984680D01*
X100867466Y-103986086D01*
X100238626Y-104614925D01*
X100322420Y-104673598D01*
X100536505Y-104773428D01*
X100536516Y-104773433D01*
X100764674Y-104834568D01*
X100764682Y-104834569D01*
X100999995Y-104855157D01*
X101000005Y-104855157D01*
X101235317Y-104834569D01*
X101235325Y-104834568D01*
X101463483Y-104773433D01*
X101463494Y-104773428D01*
X101677579Y-104673598D01*
X101761373Y-104614926D01*
X101132533Y-103986086D01*
X101142315Y-103984680D01*
X101273100Y-103924952D01*
X101381761Y-103830798D01*
X101459493Y-103709844D01*
X101483076Y-103629523D01*
X102114926Y-104261373D01*
X102173598Y-104177579D01*
X102273428Y-103963494D01*
X102273433Y-103963483D01*
X102334568Y-103735325D01*
X102334569Y-103735317D01*
X102355157Y-103500005D01*
X106144843Y-103500005D01*
X106165430Y-103735317D01*
X106165431Y-103735325D01*
X106226566Y-103963483D01*
X106226571Y-103963494D01*
X106326402Y-104177582D01*
X106385072Y-104261373D01*
X107016922Y-103629522D01*
X107040507Y-103709844D01*
X107118239Y-103830798D01*
X107226900Y-103924952D01*
X107357685Y-103984680D01*
X107367466Y-103986086D01*
X106738626Y-104614925D01*
X106822420Y-104673598D01*
X107036505Y-104773428D01*
X107036516Y-104773433D01*
X107264674Y-104834568D01*
X107264682Y-104834569D01*
X107499995Y-104855157D01*
X107500005Y-104855157D01*
X107735317Y-104834569D01*
X107735325Y-104834568D01*
X107963483Y-104773433D01*
X107963494Y-104773428D01*
X108177579Y-104673598D01*
X108261373Y-104614926D01*
X107632533Y-103986086D01*
X107642315Y-103984680D01*
X107773100Y-103924952D01*
X107881761Y-103830798D01*
X107959493Y-103709844D01*
X107983076Y-103629523D01*
X108614926Y-104261373D01*
X108673598Y-104177579D01*
X108773428Y-103963494D01*
X108773433Y-103963483D01*
X108834568Y-103735325D01*
X108834569Y-103735317D01*
X108855157Y-103500005D01*
X124644843Y-103500005D01*
X124665430Y-103735317D01*
X124665431Y-103735325D01*
X124726566Y-103963483D01*
X124726571Y-103963494D01*
X124826402Y-104177582D01*
X124885072Y-104261373D01*
X125516922Y-103629522D01*
X125540507Y-103709844D01*
X125618239Y-103830798D01*
X125726900Y-103924952D01*
X125857685Y-103984680D01*
X125867466Y-103986086D01*
X125238626Y-104614925D01*
X125322420Y-104673598D01*
X125536505Y-104773428D01*
X125536516Y-104773433D01*
X125764674Y-104834568D01*
X125764682Y-104834569D01*
X125999995Y-104855157D01*
X126000005Y-104855157D01*
X126235317Y-104834569D01*
X126235325Y-104834568D01*
X126463483Y-104773433D01*
X126463494Y-104773428D01*
X126677579Y-104673598D01*
X126761373Y-104614926D01*
X126132533Y-103986086D01*
X126142315Y-103984680D01*
X126273100Y-103924952D01*
X126381761Y-103830798D01*
X126459493Y-103709844D01*
X126483076Y-103629523D01*
X127114926Y-104261373D01*
X127173598Y-104177579D01*
X127273428Y-103963494D01*
X127273433Y-103963483D01*
X127334568Y-103735325D01*
X127334569Y-103735317D01*
X127355157Y-103500005D01*
X131144843Y-103500005D01*
X131165430Y-103735317D01*
X131165431Y-103735325D01*
X131226566Y-103963483D01*
X131226571Y-103963494D01*
X131326402Y-104177582D01*
X131385072Y-104261373D01*
X132016922Y-103629522D01*
X132040507Y-103709844D01*
X132118239Y-103830798D01*
X132226900Y-103924952D01*
X132357685Y-103984680D01*
X132367466Y-103986086D01*
X131738626Y-104614925D01*
X131822420Y-104673598D01*
X132036505Y-104773428D01*
X132036516Y-104773433D01*
X132264674Y-104834568D01*
X132264682Y-104834569D01*
X132499995Y-104855157D01*
X132500005Y-104855157D01*
X132735317Y-104834569D01*
X132735325Y-104834568D01*
X132963483Y-104773433D01*
X132963494Y-104773428D01*
X133177579Y-104673598D01*
X133261373Y-104614926D01*
X132632533Y-103986086D01*
X132642315Y-103984680D01*
X132773100Y-103924952D01*
X132881761Y-103830798D01*
X132959493Y-103709844D01*
X132983076Y-103629523D01*
X133614926Y-104261373D01*
X133673598Y-104177579D01*
X133773428Y-103963494D01*
X133773433Y-103963483D01*
X133834568Y-103735325D01*
X133834569Y-103735317D01*
X133855157Y-103500005D01*
X149644843Y-103500005D01*
X149665430Y-103735317D01*
X149665431Y-103735325D01*
X149726566Y-103963483D01*
X149726571Y-103963494D01*
X149826402Y-104177582D01*
X149885072Y-104261373D01*
X150516922Y-103629522D01*
X150540507Y-103709844D01*
X150618239Y-103830798D01*
X150726900Y-103924952D01*
X150857685Y-103984680D01*
X150867466Y-103986086D01*
X150238626Y-104614925D01*
X150322420Y-104673598D01*
X150536505Y-104773428D01*
X150536516Y-104773433D01*
X150764674Y-104834568D01*
X150764682Y-104834569D01*
X150999995Y-104855157D01*
X151000005Y-104855157D01*
X151235317Y-104834569D01*
X151235325Y-104834568D01*
X151463483Y-104773433D01*
X151463494Y-104773428D01*
X151677579Y-104673598D01*
X151761373Y-104614926D01*
X151132533Y-103986086D01*
X151142315Y-103984680D01*
X151273100Y-103924952D01*
X151381761Y-103830798D01*
X151459493Y-103709844D01*
X151483076Y-103629523D01*
X152114926Y-104261373D01*
X152173598Y-104177579D01*
X152273428Y-103963494D01*
X152273433Y-103963483D01*
X152334568Y-103735325D01*
X152334569Y-103735317D01*
X152355157Y-103500005D01*
X152355157Y-103499994D01*
X152334569Y-103264682D01*
X152334568Y-103264674D01*
X152273433Y-103036516D01*
X152273428Y-103036505D01*
X152173596Y-102822416D01*
X152114925Y-102738625D01*
X151483076Y-103370475D01*
X151459493Y-103290156D01*
X151381761Y-103169202D01*
X151273100Y-103075048D01*
X151142315Y-103015320D01*
X151132531Y-103013913D01*
X151761373Y-102385072D01*
X151677582Y-102326402D01*
X151463494Y-102226571D01*
X151463483Y-102226566D01*
X151235325Y-102165431D01*
X151235317Y-102165430D01*
X151000005Y-102144843D01*
X150999995Y-102144843D01*
X150764682Y-102165430D01*
X150764674Y-102165431D01*
X150536516Y-102226566D01*
X150536505Y-102226571D01*
X150322420Y-102326401D01*
X150238625Y-102385072D01*
X150867466Y-103013913D01*
X150857685Y-103015320D01*
X150726900Y-103075048D01*
X150618239Y-103169202D01*
X150540507Y-103290156D01*
X150516923Y-103370476D01*
X149885072Y-102738625D01*
X149826401Y-102822420D01*
X149726571Y-103036505D01*
X149726566Y-103036516D01*
X149665431Y-103264674D01*
X149665430Y-103264682D01*
X149644843Y-103499994D01*
X149644843Y-103500005D01*
X133855157Y-103500005D01*
X133855157Y-103499994D01*
X133834569Y-103264682D01*
X133834568Y-103264674D01*
X133773433Y-103036516D01*
X133773428Y-103036505D01*
X133673596Y-102822416D01*
X133614925Y-102738625D01*
X132983076Y-103370475D01*
X132959493Y-103290156D01*
X132881761Y-103169202D01*
X132773100Y-103075048D01*
X132642315Y-103015320D01*
X132632531Y-103013913D01*
X133261373Y-102385072D01*
X133177582Y-102326402D01*
X132963494Y-102226571D01*
X132963483Y-102226566D01*
X132735325Y-102165431D01*
X132735317Y-102165430D01*
X132500005Y-102144843D01*
X132499995Y-102144843D01*
X132264682Y-102165430D01*
X132264674Y-102165431D01*
X132036516Y-102226566D01*
X132036505Y-102226571D01*
X131822420Y-102326401D01*
X131738625Y-102385072D01*
X132367466Y-103013913D01*
X132357685Y-103015320D01*
X132226900Y-103075048D01*
X132118239Y-103169202D01*
X132040507Y-103290156D01*
X132016923Y-103370476D01*
X131385072Y-102738625D01*
X131326401Y-102822420D01*
X131226571Y-103036505D01*
X131226566Y-103036516D01*
X131165431Y-103264674D01*
X131165430Y-103264682D01*
X131144843Y-103499994D01*
X131144843Y-103500005D01*
X127355157Y-103500005D01*
X127355157Y-103499994D01*
X127334569Y-103264682D01*
X127334568Y-103264674D01*
X127273433Y-103036516D01*
X127273428Y-103036505D01*
X127173596Y-102822416D01*
X127114925Y-102738625D01*
X126483076Y-103370475D01*
X126459493Y-103290156D01*
X126381761Y-103169202D01*
X126273100Y-103075048D01*
X126142315Y-103015320D01*
X126132531Y-103013913D01*
X126761373Y-102385072D01*
X126677582Y-102326402D01*
X126463494Y-102226571D01*
X126463483Y-102226566D01*
X126235325Y-102165431D01*
X126235317Y-102165430D01*
X126000005Y-102144843D01*
X125999995Y-102144843D01*
X125764682Y-102165430D01*
X125764674Y-102165431D01*
X125536516Y-102226566D01*
X125536505Y-102226571D01*
X125322420Y-102326401D01*
X125238625Y-102385072D01*
X125867466Y-103013913D01*
X125857685Y-103015320D01*
X125726900Y-103075048D01*
X125618239Y-103169202D01*
X125540507Y-103290156D01*
X125516923Y-103370476D01*
X124885072Y-102738625D01*
X124826401Y-102822420D01*
X124726571Y-103036505D01*
X124726566Y-103036516D01*
X124665431Y-103264674D01*
X124665430Y-103264682D01*
X124644843Y-103499994D01*
X124644843Y-103500005D01*
X108855157Y-103500005D01*
X108855157Y-103499994D01*
X108834569Y-103264682D01*
X108834568Y-103264674D01*
X108773433Y-103036516D01*
X108773428Y-103036505D01*
X108673596Y-102822416D01*
X108614925Y-102738625D01*
X107983076Y-103370475D01*
X107959493Y-103290156D01*
X107881761Y-103169202D01*
X107773100Y-103075048D01*
X107642315Y-103015320D01*
X107632531Y-103013913D01*
X108261373Y-102385072D01*
X108177582Y-102326402D01*
X107963494Y-102226571D01*
X107963483Y-102226566D01*
X107735325Y-102165431D01*
X107735317Y-102165430D01*
X107500005Y-102144843D01*
X107499995Y-102144843D01*
X107264682Y-102165430D01*
X107264674Y-102165431D01*
X107036516Y-102226566D01*
X107036505Y-102226571D01*
X106822420Y-102326401D01*
X106738625Y-102385072D01*
X107367466Y-103013913D01*
X107357685Y-103015320D01*
X107226900Y-103075048D01*
X107118239Y-103169202D01*
X107040507Y-103290156D01*
X107016923Y-103370476D01*
X106385072Y-102738625D01*
X106326401Y-102822420D01*
X106226571Y-103036505D01*
X106226566Y-103036516D01*
X106165431Y-103264674D01*
X106165430Y-103264682D01*
X106144843Y-103499994D01*
X106144843Y-103500005D01*
X102355157Y-103500005D01*
X102355157Y-103499994D01*
X102334569Y-103264682D01*
X102334568Y-103264674D01*
X102273433Y-103036516D01*
X102273428Y-103036505D01*
X102173596Y-102822416D01*
X102114925Y-102738625D01*
X101483076Y-103370475D01*
X101459493Y-103290156D01*
X101381761Y-103169202D01*
X101273100Y-103075048D01*
X101142315Y-103015320D01*
X101132531Y-103013913D01*
X101761373Y-102385072D01*
X101677582Y-102326402D01*
X101463494Y-102226571D01*
X101463483Y-102226566D01*
X101235325Y-102165431D01*
X101235317Y-102165430D01*
X101000005Y-102144843D01*
X100999995Y-102144843D01*
X100764682Y-102165430D01*
X100764674Y-102165431D01*
X100536516Y-102226566D01*
X100536505Y-102226571D01*
X100322420Y-102326401D01*
X100238625Y-102385072D01*
X100867466Y-103013913D01*
X100857685Y-103015320D01*
X100726900Y-103075048D01*
X100618239Y-103169202D01*
X100540507Y-103290156D01*
X100516923Y-103370476D01*
X99885072Y-102738625D01*
X99826401Y-102822420D01*
X99726571Y-103036505D01*
X99726566Y-103036516D01*
X99665431Y-103264674D01*
X99665430Y-103264682D01*
X99644843Y-103499994D01*
X99644843Y-103500005D01*
X88854802Y-103500005D01*
X88935260Y-103449855D01*
X89082671Y-103309731D01*
X89198857Y-103142802D01*
X89198857Y-103142801D01*
X89279058Y-102955911D01*
X89279061Y-102955901D01*
X89319999Y-102756696D01*
X89320000Y-102756688D01*
X89320000Y-102355000D01*
X88620000Y-102355000D01*
X88620000Y-101855000D01*
X89320000Y-101855000D01*
X89320000Y-101504289D01*
X89319999Y-101504280D01*
X89304582Y-101352666D01*
X89304580Y-101352661D01*
X89243699Y-101158615D01*
X89243698Y-101158614D01*
X89144993Y-100980782D01*
X89144989Y-100980777D01*
X89012522Y-100826471D01*
X89012520Y-100826468D01*
X88851696Y-100701982D01*
X88851694Y-100701980D01*
X88669097Y-100612413D01*
X88669092Y-100612411D01*
X88570000Y-100586754D01*
X88570000Y-101388889D01*
X88545543Y-101349390D01*
X88456038Y-101281799D01*
X88348160Y-101251105D01*
X88236479Y-101261454D01*
X88136078Y-101311448D01*
X88070000Y-101383930D01*
X88070000Y-100581632D01*
X88068059Y-100581930D01*
X88068054Y-100581931D01*
X87877334Y-100652565D01*
X87704739Y-100760144D01*
X87557328Y-100900268D01*
X87441142Y-101067197D01*
X87441142Y-101067198D01*
X87402715Y-101156745D01*
X87368047Y-101193629D01*
X87317782Y-101199600D01*
X87289663Y-101186271D01*
X87180233Y-101102302D01*
X87040235Y-101044312D01*
X86953897Y-101032946D01*
X86927720Y-101029500D01*
X86852280Y-101029500D01*
X86826102Y-101032946D01*
X86739765Y-101044312D01*
X86739764Y-101044312D01*
X86599766Y-101102302D01*
X86479549Y-101194549D01*
X86387302Y-101314766D01*
X86329312Y-101454764D01*
X86329312Y-101454765D01*
X86309534Y-101605000D01*
X81690466Y-101605000D01*
X81670687Y-101454764D01*
X81612698Y-101314767D01*
X81520451Y-101194549D01*
X81400233Y-101102302D01*
X81260235Y-101044312D01*
X81173897Y-101032946D01*
X81147720Y-101029500D01*
X81072280Y-101029500D01*
X81046102Y-101032946D01*
X80959765Y-101044312D01*
X80959764Y-101044312D01*
X80819766Y-101102302D01*
X80714412Y-101183144D01*
X80666135Y-101198366D01*
X80619370Y-101178995D01*
X80604661Y-101160348D01*
X80504995Y-100980786D01*
X80504989Y-100980777D01*
X80372522Y-100826471D01*
X80372520Y-100826468D01*
X80211696Y-100701982D01*
X80211694Y-100701980D01*
X80041411Y-100618453D01*
X80006330Y-100581961D01*
X80000000Y-100552015D01*
X80000000Y-99894863D01*
X99849500Y-99894863D01*
X99852414Y-99919986D01*
X99852415Y-99919991D01*
X99897794Y-100022765D01*
X99977235Y-100102206D01*
X100080009Y-100147585D01*
X100105135Y-100150500D01*
X101894864Y-100150499D01*
X101919991Y-100147585D01*
X102022765Y-100102206D01*
X102102206Y-100022765D01*
X102147585Y-99919991D01*
X102150500Y-99894865D01*
X102150500Y-99000003D01*
X106344571Y-99000003D01*
X106364242Y-99212303D01*
X106364243Y-99212309D01*
X106422593Y-99417383D01*
X106422596Y-99417393D01*
X106517632Y-99608252D01*
X106517634Y-99608255D01*
X106646128Y-99778407D01*
X106803698Y-99922052D01*
X106984981Y-100034298D01*
X107183802Y-100111321D01*
X107393390Y-100150500D01*
X107606610Y-100150500D01*
X107816198Y-100111321D01*
X108015019Y-100034298D01*
X108196302Y-99922052D01*
X108226127Y-99894863D01*
X124849500Y-99894863D01*
X124852414Y-99919986D01*
X124852415Y-99919991D01*
X124897794Y-100022765D01*
X124977235Y-100102206D01*
X125080009Y-100147585D01*
X125105135Y-100150500D01*
X126894864Y-100150499D01*
X126919991Y-100147585D01*
X127022765Y-100102206D01*
X127102206Y-100022765D01*
X127147585Y-99919991D01*
X127150500Y-99894865D01*
X127150500Y-99000003D01*
X131344571Y-99000003D01*
X131364242Y-99212303D01*
X131364243Y-99212309D01*
X131422593Y-99417383D01*
X131422596Y-99417393D01*
X131517632Y-99608252D01*
X131517634Y-99608255D01*
X131646128Y-99778407D01*
X131803698Y-99922052D01*
X131984981Y-100034298D01*
X132183802Y-100111321D01*
X132393390Y-100150500D01*
X132606610Y-100150500D01*
X132816198Y-100111321D01*
X133015019Y-100034298D01*
X133196302Y-99922052D01*
X133226127Y-99894863D01*
X149849500Y-99894863D01*
X149852414Y-99919986D01*
X149852415Y-99919991D01*
X149897794Y-100022765D01*
X149977235Y-100102206D01*
X150080009Y-100147585D01*
X150105135Y-100150500D01*
X151894864Y-100150499D01*
X151919991Y-100147585D01*
X152022765Y-100102206D01*
X152102206Y-100022765D01*
X152147585Y-99919991D01*
X152150500Y-99894865D01*
X152150499Y-98105136D01*
X152147585Y-98080009D01*
X152102206Y-97977235D01*
X152022765Y-97897794D01*
X151919991Y-97852415D01*
X151919990Y-97852414D01*
X151919988Y-97852414D01*
X151898659Y-97849940D01*
X151894865Y-97849500D01*
X151894864Y-97849500D01*
X150105136Y-97849500D01*
X150080013Y-97852414D01*
X150080007Y-97852415D01*
X149977234Y-97897794D01*
X149897794Y-97977234D01*
X149852414Y-98080011D01*
X149849500Y-98105135D01*
X149849500Y-99894863D01*
X133226127Y-99894863D01*
X133353872Y-99778407D01*
X133482366Y-99608255D01*
X133577405Y-99417389D01*
X133635756Y-99212310D01*
X133638934Y-99178019D01*
X133655429Y-99000003D01*
X133655429Y-98999996D01*
X133635757Y-98787696D01*
X133635756Y-98787690D01*
X133589722Y-98625901D01*
X133577405Y-98582611D01*
X133571979Y-98571715D01*
X133482367Y-98391747D01*
X133482363Y-98391741D01*
X133452957Y-98352802D01*
X133353872Y-98221593D01*
X133196302Y-98077948D01*
X133015019Y-97965702D01*
X132816198Y-97888679D01*
X132724150Y-97871472D01*
X132606613Y-97849500D01*
X132606610Y-97849500D01*
X132393390Y-97849500D01*
X132393386Y-97849500D01*
X132236670Y-97878796D01*
X132183802Y-97888679D01*
X132183800Y-97888679D01*
X132183798Y-97888680D01*
X131984986Y-97965700D01*
X131984981Y-97965702D01*
X131984976Y-97965704D01*
X131984976Y-97965705D01*
X131803700Y-98077946D01*
X131646130Y-98221590D01*
X131517636Y-98391741D01*
X131517632Y-98391747D01*
X131422596Y-98582606D01*
X131422593Y-98582616D01*
X131364243Y-98787690D01*
X131364242Y-98787696D01*
X131344571Y-98999996D01*
X131344571Y-99000003D01*
X127150500Y-99000003D01*
X127150499Y-98105136D01*
X127147585Y-98080009D01*
X127102206Y-97977235D01*
X127022765Y-97897794D01*
X126919991Y-97852415D01*
X126919990Y-97852414D01*
X126919988Y-97852414D01*
X126898659Y-97849940D01*
X126894865Y-97849500D01*
X126894864Y-97849500D01*
X125105136Y-97849500D01*
X125080013Y-97852414D01*
X125080007Y-97852415D01*
X124977234Y-97897794D01*
X124897794Y-97977234D01*
X124852414Y-98080011D01*
X124849500Y-98105135D01*
X124849500Y-99894863D01*
X108226127Y-99894863D01*
X108353872Y-99778407D01*
X108482366Y-99608255D01*
X108577405Y-99417389D01*
X108635756Y-99212310D01*
X108638934Y-99178019D01*
X108655429Y-99000003D01*
X108655429Y-98999996D01*
X108635757Y-98787696D01*
X108635756Y-98787690D01*
X108589722Y-98625901D01*
X108577405Y-98582611D01*
X108571979Y-98571715D01*
X108482367Y-98391747D01*
X108482363Y-98391741D01*
X108452957Y-98352802D01*
X108353872Y-98221593D01*
X108196302Y-98077948D01*
X108015019Y-97965702D01*
X107816198Y-97888679D01*
X107724150Y-97871472D01*
X107606613Y-97849500D01*
X107606610Y-97849500D01*
X107393390Y-97849500D01*
X107393386Y-97849500D01*
X107236670Y-97878796D01*
X107183802Y-97888679D01*
X107183800Y-97888679D01*
X107183798Y-97888680D01*
X106984986Y-97965700D01*
X106984981Y-97965702D01*
X106984976Y-97965704D01*
X106984976Y-97965705D01*
X106803700Y-98077946D01*
X106646130Y-98221590D01*
X106517636Y-98391741D01*
X106517632Y-98391747D01*
X106422596Y-98582606D01*
X106422593Y-98582616D01*
X106364243Y-98787690D01*
X106364242Y-98787696D01*
X106344571Y-98999996D01*
X106344571Y-99000003D01*
X102150500Y-99000003D01*
X102150499Y-98105136D01*
X102147585Y-98080009D01*
X102102206Y-97977235D01*
X102022765Y-97897794D01*
X101919991Y-97852415D01*
X101919990Y-97852414D01*
X101919988Y-97852414D01*
X101898659Y-97849940D01*
X101894865Y-97849500D01*
X101894864Y-97849500D01*
X100105136Y-97849500D01*
X100080013Y-97852414D01*
X100080007Y-97852415D01*
X99977234Y-97897794D01*
X99897794Y-97977234D01*
X99852414Y-98080011D01*
X99849500Y-98105135D01*
X99849500Y-99894863D01*
X80000000Y-99894863D01*
X80000000Y-99324369D01*
X80017313Y-99276803D01*
X80048300Y-99254975D01*
X80122667Y-99227433D01*
X80295260Y-99119855D01*
X80442671Y-98979731D01*
X80558857Y-98812802D01*
X80558857Y-98812801D01*
X80639058Y-98625911D01*
X80639061Y-98625901D01*
X80679999Y-98426696D01*
X80680000Y-98426688D01*
X80680000Y-98375719D01*
X87320000Y-98375719D01*
X87335417Y-98527333D01*
X87335419Y-98527338D01*
X87396300Y-98721384D01*
X87396301Y-98721385D01*
X87495006Y-98899217D01*
X87495010Y-98899222D01*
X87627477Y-99053528D01*
X87627479Y-99053531D01*
X87788303Y-99178017D01*
X87788305Y-99178019D01*
X87970902Y-99267586D01*
X87970906Y-99267588D01*
X88070000Y-99293244D01*
X88070000Y-98491110D01*
X88094457Y-98530610D01*
X88183962Y-98598201D01*
X88291840Y-98628895D01*
X88403521Y-98618546D01*
X88503922Y-98568552D01*
X88570000Y-98496069D01*
X88570000Y-99298365D01*
X88571944Y-99298068D01*
X88762665Y-99227434D01*
X88935260Y-99119855D01*
X89082671Y-98979731D01*
X89198857Y-98812802D01*
X89198857Y-98812801D01*
X89279058Y-98625911D01*
X89279061Y-98625901D01*
X89319999Y-98426696D01*
X89320000Y-98426688D01*
X89320000Y-98175000D01*
X88620000Y-98175000D01*
X88620000Y-97675000D01*
X89320000Y-97675000D01*
X89320000Y-97474289D01*
X89319999Y-97474280D01*
X89304582Y-97322666D01*
X89304580Y-97322661D01*
X89243699Y-97128615D01*
X89243698Y-97128614D01*
X89144993Y-96950782D01*
X89144989Y-96950777D01*
X89012522Y-96796471D01*
X89012520Y-96796468D01*
X88851696Y-96671982D01*
X88851694Y-96671980D01*
X88669097Y-96582413D01*
X88669092Y-96582411D01*
X88570000Y-96556754D01*
X88570000Y-97358889D01*
X88545543Y-97319390D01*
X88456038Y-97251799D01*
X88348160Y-97221105D01*
X88236479Y-97231454D01*
X88136078Y-97281448D01*
X88070000Y-97353930D01*
X88070000Y-96551632D01*
X88068059Y-96551930D01*
X88068054Y-96551931D01*
X87877334Y-96622565D01*
X87704739Y-96730144D01*
X87557328Y-96870268D01*
X87441142Y-97037197D01*
X87441142Y-97037198D01*
X87360941Y-97224088D01*
X87360938Y-97224098D01*
X87320000Y-97423303D01*
X87320000Y-97675000D01*
X88020000Y-97675000D01*
X88020000Y-98175000D01*
X87320000Y-98175000D01*
X87320000Y-98375719D01*
X80680000Y-98375719D01*
X80680000Y-98175000D01*
X80000000Y-98175000D01*
X80000000Y-97675000D01*
X80680000Y-97675000D01*
X80680000Y-97474289D01*
X80679999Y-97474280D01*
X80664582Y-97322666D01*
X80664580Y-97322661D01*
X80603699Y-97128615D01*
X80603698Y-97128614D01*
X80504993Y-96950782D01*
X80504989Y-96950777D01*
X80372522Y-96796471D01*
X80372520Y-96796468D01*
X80211696Y-96671982D01*
X80211694Y-96671980D01*
X80041411Y-96588453D01*
X80006330Y-96551961D01*
X80000000Y-96522015D01*
X80000000Y-87630267D01*
X103673285Y-87630267D01*
X103832045Y-87685820D01*
X103832052Y-87685822D01*
X104000000Y-87704745D01*
X104167947Y-87685822D01*
X104167954Y-87685820D01*
X104326713Y-87630267D01*
X104000000Y-87303553D01*
X103673285Y-87630266D01*
X103673285Y-87630267D01*
X80000000Y-87630267D01*
X80000000Y-87000000D01*
X101994318Y-87000000D01*
X102014955Y-87156760D01*
X102014955Y-87156761D01*
X102075464Y-87302841D01*
X102171715Y-87428279D01*
X102171720Y-87428284D01*
X102255345Y-87492451D01*
X102297159Y-87524536D01*
X102443238Y-87585044D01*
X102600000Y-87605682D01*
X102756762Y-87585044D01*
X102902841Y-87524536D01*
X103028282Y-87428282D01*
X103124536Y-87302841D01*
X103161116Y-87214528D01*
X103195312Y-87177210D01*
X103245498Y-87170602D01*
X103288190Y-87197799D01*
X103299329Y-87218407D01*
X103319731Y-87276713D01*
X103613952Y-86982492D01*
X103900000Y-86982492D01*
X103938197Y-87035065D01*
X103984162Y-87050000D01*
X104015838Y-87050000D01*
X104061803Y-87035065D01*
X104100000Y-86982492D01*
X104100000Y-86917508D01*
X104061803Y-86864935D01*
X104015838Y-86850000D01*
X103984162Y-86850000D01*
X103938197Y-86864935D01*
X103900000Y-86917508D01*
X103900000Y-86982492D01*
X103613952Y-86982492D01*
X103947673Y-86648772D01*
X103993549Y-86627380D01*
X104042444Y-86640481D01*
X104052325Y-86648772D01*
X104680267Y-87276713D01*
X104700669Y-87218408D01*
X104732720Y-87179228D01*
X104782456Y-87169818D01*
X104826606Y-87194579D01*
X104838883Y-87214529D01*
X104875464Y-87302841D01*
X104971715Y-87428279D01*
X104971720Y-87428284D01*
X105055345Y-87492451D01*
X105097159Y-87524536D01*
X105243238Y-87585044D01*
X105400000Y-87605682D01*
X105556762Y-87585044D01*
X105702841Y-87524536D01*
X105828282Y-87428282D01*
X105924536Y-87302841D01*
X105985044Y-87156762D01*
X106005682Y-87000000D01*
X105999099Y-86950000D01*
X108256818Y-86950000D01*
X108277455Y-87106760D01*
X108277455Y-87106761D01*
X108337964Y-87252841D01*
X108434215Y-87378279D01*
X108434220Y-87378284D01*
X108499379Y-87428282D01*
X108559659Y-87474536D01*
X108705738Y-87535044D01*
X108862500Y-87555682D01*
X109019262Y-87535044D01*
X109165341Y-87474536D01*
X109290782Y-87378282D01*
X109387036Y-87252841D01*
X109447544Y-87106762D01*
X109468182Y-86950000D01*
X109447544Y-86793238D01*
X109395712Y-86668104D01*
X115099499Y-86668104D01*
X115109185Y-86748753D01*
X115110123Y-86756564D01*
X115124586Y-86793239D01*
X115165638Y-86897341D01*
X115165639Y-86897342D01*
X115257078Y-87017922D01*
X115377658Y-87109361D01*
X115518436Y-87164877D01*
X115589764Y-87173442D01*
X115606896Y-87175500D01*
X115606898Y-87175500D01*
X116393104Y-87175500D01*
X116408722Y-87173624D01*
X116481564Y-87164877D01*
X116622342Y-87109361D01*
X116742922Y-87017922D01*
X116834361Y-86897342D01*
X116882384Y-86775563D01*
X116915939Y-86737666D01*
X116966004Y-86730203D01*
X117009154Y-86756668D01*
X117016998Y-86768803D01*
X117070410Y-86872408D01*
X117200271Y-87037540D01*
X117359031Y-87175107D01*
X117540964Y-87280146D01*
X117540969Y-87280148D01*
X117739484Y-87348855D01*
X117749999Y-87350366D01*
X117750000Y-87350366D01*
X117750000Y-86280617D01*
X117819052Y-86334363D01*
X117937424Y-86375000D01*
X118031073Y-86375000D01*
X118123446Y-86359586D01*
X118233514Y-86300019D01*
X118250000Y-86282110D01*
X118250000Y-87346258D01*
X118361407Y-87319230D01*
X118552503Y-87231960D01*
X118723624Y-87110105D01*
X118868589Y-86958071D01*
X118982168Y-86781340D01*
X119060244Y-86586314D01*
X119060244Y-86586312D01*
X119100000Y-86380036D01*
X119100000Y-86250000D01*
X118279560Y-86250000D01*
X118318278Y-86207941D01*
X118368551Y-86093330D01*
X118376285Y-86000000D01*
X120619318Y-86000000D01*
X120639955Y-86156760D01*
X120639955Y-86156761D01*
X120700464Y-86302841D01*
X120796715Y-86428279D01*
X120796720Y-86428284D01*
X120845654Y-86465832D01*
X120922159Y-86524536D01*
X121068238Y-86585044D01*
X121225000Y-86605682D01*
X121381762Y-86585044D01*
X121527841Y-86524536D01*
X121653282Y-86428282D01*
X121749536Y-86302841D01*
X121810044Y-86156762D01*
X121830682Y-86000000D01*
X126619318Y-86000000D01*
X126639955Y-86156760D01*
X126639955Y-86156761D01*
X126700464Y-86302841D01*
X126796715Y-86428279D01*
X126796720Y-86428284D01*
X126845654Y-86465832D01*
X126922159Y-86524536D01*
X127068238Y-86585044D01*
X127225000Y-86605682D01*
X127381762Y-86585044D01*
X127527841Y-86524536D01*
X127653282Y-86428282D01*
X127749536Y-86302841D01*
X127810044Y-86156762D01*
X127830682Y-86000000D01*
X134919318Y-86000000D01*
X134939955Y-86156760D01*
X134939955Y-86156761D01*
X135000464Y-86302841D01*
X135096715Y-86428279D01*
X135096720Y-86428284D01*
X135145654Y-86465832D01*
X135222159Y-86524536D01*
X135368238Y-86585044D01*
X135525000Y-86605682D01*
X135681762Y-86585044D01*
X135827841Y-86524536D01*
X135953282Y-86428282D01*
X136049536Y-86302841D01*
X136110044Y-86156762D01*
X136130682Y-86000000D01*
X138619318Y-86000000D01*
X138639955Y-86156760D01*
X138639955Y-86156761D01*
X138700464Y-86302841D01*
X138796715Y-86428279D01*
X138796720Y-86428284D01*
X138845654Y-86465832D01*
X138922159Y-86524536D01*
X139068238Y-86585044D01*
X139225000Y-86605682D01*
X139381762Y-86585044D01*
X139527841Y-86524536D01*
X139653282Y-86428282D01*
X139749536Y-86302841D01*
X139810044Y-86156762D01*
X139830682Y-86000000D01*
X139810044Y-85843238D01*
X139749536Y-85697159D01*
X139688164Y-85617177D01*
X139653284Y-85571720D01*
X139653279Y-85571715D01*
X139527841Y-85475464D01*
X139381761Y-85414955D01*
X139225000Y-85394318D01*
X139068239Y-85414955D01*
X139068238Y-85414955D01*
X138922158Y-85475464D01*
X138796720Y-85571715D01*
X138796715Y-85571720D01*
X138700464Y-85697158D01*
X138639955Y-85843238D01*
X138639955Y-85843239D01*
X138619318Y-86000000D01*
X136130682Y-86000000D01*
X136110044Y-85843238D01*
X136049536Y-85697159D01*
X135988164Y-85617177D01*
X135953284Y-85571720D01*
X135953279Y-85571715D01*
X135827841Y-85475464D01*
X135681761Y-85414955D01*
X135525000Y-85394318D01*
X135368239Y-85414955D01*
X135368238Y-85414955D01*
X135222158Y-85475464D01*
X135096720Y-85571715D01*
X135096715Y-85571720D01*
X135000464Y-85697158D01*
X134939955Y-85843238D01*
X134939955Y-85843239D01*
X134919318Y-86000000D01*
X127830682Y-86000000D01*
X127810044Y-85843238D01*
X127749536Y-85697159D01*
X127688164Y-85617177D01*
X127653284Y-85571720D01*
X127653279Y-85571715D01*
X127527841Y-85475464D01*
X127381761Y-85414955D01*
X127225000Y-85394318D01*
X127068239Y-85414955D01*
X127068238Y-85414955D01*
X126922158Y-85475464D01*
X126796720Y-85571715D01*
X126796715Y-85571720D01*
X126700464Y-85697158D01*
X126639955Y-85843238D01*
X126639955Y-85843239D01*
X126619318Y-86000000D01*
X121830682Y-86000000D01*
X121810044Y-85843238D01*
X121749536Y-85697159D01*
X121688164Y-85617177D01*
X121653284Y-85571720D01*
X121653279Y-85571715D01*
X121527841Y-85475464D01*
X121381761Y-85414955D01*
X121225000Y-85394318D01*
X121068239Y-85414955D01*
X121068238Y-85414955D01*
X120922158Y-85475464D01*
X120796720Y-85571715D01*
X120796715Y-85571720D01*
X120700464Y-85697158D01*
X120639955Y-85843238D01*
X120639955Y-85843239D01*
X120619318Y-86000000D01*
X118376285Y-86000000D01*
X118378886Y-85968605D01*
X118348163Y-85847281D01*
X118284606Y-85750000D01*
X119100000Y-85750000D01*
X119100000Y-85672603D01*
X119099999Y-85672596D01*
X119085034Y-85515872D01*
X119025851Y-85314315D01*
X119025848Y-85314308D01*
X118929591Y-85127592D01*
X118799728Y-84962459D01*
X118640968Y-84824892D01*
X118459035Y-84719853D01*
X118459030Y-84719851D01*
X118260517Y-84651144D01*
X118250000Y-84649632D01*
X118250000Y-85719382D01*
X118180948Y-85665637D01*
X118062576Y-85625000D01*
X117968927Y-85625000D01*
X117876554Y-85640414D01*
X117766486Y-85699981D01*
X117750000Y-85717889D01*
X117750000Y-84653741D01*
X117749999Y-84653741D01*
X117638591Y-84680769D01*
X117447496Y-84768039D01*
X117276375Y-84889894D01*
X117131410Y-85041928D01*
X117017829Y-85218663D01*
X117017662Y-85219082D01*
X117017548Y-85219208D01*
X117016219Y-85221788D01*
X117015549Y-85221442D01*
X116983905Y-85256801D01*
X116933800Y-85263996D01*
X116890792Y-85237301D01*
X116880129Y-85218718D01*
X116834361Y-85102658D01*
X116742922Y-84982078D01*
X116731868Y-84973695D01*
X116622341Y-84890638D01*
X116537079Y-84857015D01*
X116481564Y-84835123D01*
X116445198Y-84830756D01*
X116393104Y-84824500D01*
X116393102Y-84824500D01*
X115606898Y-84824500D01*
X115606896Y-84824500D01*
X115518436Y-84835123D01*
X115377658Y-84890638D01*
X115257078Y-84982077D01*
X115257077Y-84982078D01*
X115165638Y-85102658D01*
X115110123Y-85243436D01*
X115109702Y-85246946D01*
X115099500Y-85331898D01*
X115099500Y-86668102D01*
X115099500Y-86668104D01*
X115099499Y-86668104D01*
X109395712Y-86668104D01*
X109387036Y-86647159D01*
X109319166Y-86558709D01*
X109290784Y-86521720D01*
X109290779Y-86521715D01*
X109165341Y-86425464D01*
X109019261Y-86364955D01*
X108862500Y-86344318D01*
X108705739Y-86364955D01*
X108705738Y-86364955D01*
X108559658Y-86425464D01*
X108434220Y-86521715D01*
X108434215Y-86521720D01*
X108337964Y-86647158D01*
X108277455Y-86793238D01*
X108277455Y-86793239D01*
X108256818Y-86950000D01*
X105999099Y-86950000D01*
X105985044Y-86843238D01*
X105924536Y-86697159D01*
X105870993Y-86627380D01*
X105828284Y-86571720D01*
X105828280Y-86571716D01*
X105811328Y-86558709D01*
X105784129Y-86516018D01*
X105790735Y-86465832D01*
X105811328Y-86441291D01*
X105828279Y-86428284D01*
X105828282Y-86428282D01*
X105924536Y-86302841D01*
X105985044Y-86156762D01*
X106005682Y-86000000D01*
X105985044Y-85843238D01*
X105924536Y-85697159D01*
X105863164Y-85617177D01*
X105828284Y-85571720D01*
X105828279Y-85571715D01*
X105702841Y-85475464D01*
X105556761Y-85414955D01*
X105400000Y-85394318D01*
X105243239Y-85414955D01*
X105243238Y-85414955D01*
X105097158Y-85475464D01*
X104971720Y-85571715D01*
X104971715Y-85571720D01*
X104875464Y-85697158D01*
X104814955Y-85843238D01*
X104814955Y-85843239D01*
X104794318Y-86000000D01*
X104805170Y-86082438D01*
X104794213Y-86131857D01*
X104784129Y-86144422D01*
X104627325Y-86301226D01*
X104581449Y-86322618D01*
X104532554Y-86309517D01*
X104522673Y-86301226D01*
X104273772Y-86052325D01*
X104264524Y-86032492D01*
X104475000Y-86032492D01*
X104513197Y-86085065D01*
X104559162Y-86100000D01*
X104590838Y-86100000D01*
X104636803Y-86085065D01*
X104675000Y-86032492D01*
X104675000Y-85967508D01*
X104636803Y-85914935D01*
X104590838Y-85900000D01*
X104559162Y-85900000D01*
X104513197Y-85914935D01*
X104475000Y-85967508D01*
X104475000Y-86032492D01*
X104264524Y-86032492D01*
X104252380Y-86006449D01*
X104265481Y-85957554D01*
X104273772Y-85947673D01*
X104901713Y-85319731D01*
X104786782Y-85279515D01*
X104747603Y-85247464D01*
X104737688Y-85201382D01*
X104754745Y-85050000D01*
X108256818Y-85050000D01*
X108277455Y-85206760D01*
X108277455Y-85206761D01*
X108337964Y-85352841D01*
X108434215Y-85478279D01*
X108434220Y-85478284D01*
X108483206Y-85515872D01*
X108559659Y-85574536D01*
X108705738Y-85635044D01*
X108862500Y-85655682D01*
X109019262Y-85635044D01*
X109165341Y-85574536D01*
X109290782Y-85478282D01*
X109387036Y-85352841D01*
X109447544Y-85206762D01*
X109468182Y-85050000D01*
X109447544Y-84893238D01*
X109387036Y-84747159D01*
X109315354Y-84653741D01*
X109290784Y-84621720D01*
X109290779Y-84621715D01*
X109165341Y-84525464D01*
X109019261Y-84464955D01*
X108862500Y-84444318D01*
X108705739Y-84464955D01*
X108705738Y-84464955D01*
X108559658Y-84525464D01*
X108434220Y-84621715D01*
X108434215Y-84621720D01*
X108337964Y-84747158D01*
X108277455Y-84893238D01*
X108277455Y-84893239D01*
X108256818Y-85050000D01*
X104754745Y-85050000D01*
X104754745Y-85049999D01*
X104735822Y-84882052D01*
X104735820Y-84882045D01*
X104680267Y-84723285D01*
X104680266Y-84723285D01*
X104052325Y-85351227D01*
X104006449Y-85372619D01*
X103957554Y-85359518D01*
X103947673Y-85351227D01*
X103678938Y-85082492D01*
X103900000Y-85082492D01*
X103938197Y-85135065D01*
X103984162Y-85150000D01*
X104015838Y-85150000D01*
X104061803Y-85135065D01*
X104100000Y-85082492D01*
X104100000Y-85017508D01*
X104061803Y-84964935D01*
X104015838Y-84950000D01*
X103984162Y-84950000D01*
X103938197Y-84964935D01*
X103900000Y-85017508D01*
X103900000Y-85082492D01*
X103678938Y-85082492D01*
X103319731Y-84723285D01*
X103299329Y-84781591D01*
X103267278Y-84820770D01*
X103217541Y-84830180D01*
X103173392Y-84805419D01*
X103161115Y-84785468D01*
X103124536Y-84697159D01*
X103028284Y-84571720D01*
X103028279Y-84571715D01*
X102902841Y-84475464D01*
X102756761Y-84414955D01*
X102600000Y-84394318D01*
X102443239Y-84414955D01*
X102443238Y-84414955D01*
X102297158Y-84475464D01*
X102171720Y-84571715D01*
X102171715Y-84571720D01*
X102075464Y-84697158D01*
X102014955Y-84843238D01*
X102014955Y-84843239D01*
X101994318Y-85000000D01*
X102014955Y-85156761D01*
X102041846Y-85221682D01*
X102044054Y-85272253D01*
X102041846Y-85278318D01*
X102014955Y-85343238D01*
X101994318Y-85500000D01*
X102014955Y-85656760D01*
X102014955Y-85656761D01*
X102075464Y-85802841D01*
X102171715Y-85928279D01*
X102171720Y-85928284D01*
X102209866Y-85957554D01*
X102297159Y-86024536D01*
X102443238Y-86085044D01*
X102600000Y-86105682D01*
X102606204Y-86104865D01*
X102655623Y-86115817D01*
X102686441Y-86155974D01*
X102688128Y-86163927D01*
X102688254Y-86163899D01*
X102689179Y-86167955D01*
X102736802Y-86304053D01*
X102736171Y-86354669D01*
X102703153Y-86393036D01*
X102657296Y-86401861D01*
X102600000Y-86394318D01*
X102443239Y-86414955D01*
X102443238Y-86414955D01*
X102297158Y-86475464D01*
X102171720Y-86571715D01*
X102171715Y-86571720D01*
X102075464Y-86697158D01*
X102014955Y-86843238D01*
X102014955Y-86843239D01*
X101994318Y-87000000D01*
X80000000Y-87000000D01*
X80000000Y-83922900D01*
X88595793Y-83922900D01*
X88605672Y-84230971D01*
X88605674Y-84230989D01*
X88654865Y-84535254D01*
X88654868Y-84535267D01*
X88742398Y-84830180D01*
X88742569Y-84830756D01*
X88862932Y-85102658D01*
X88867341Y-85112617D01*
X88968516Y-85279515D01*
X89027123Y-85376193D01*
X89106289Y-85475464D01*
X89219300Y-85617177D01*
X89219303Y-85617180D01*
X89219304Y-85617181D01*
X89440724Y-85831614D01*
X89687747Y-86015972D01*
X89956318Y-86167228D01*
X90242025Y-86282899D01*
X90540179Y-86361084D01*
X90845878Y-86400499D01*
X90845882Y-86400500D01*
X90845883Y-86400500D01*
X91076974Y-86400500D01*
X91307601Y-86385693D01*
X91610151Y-86326772D01*
X91902683Y-86229644D01*
X92180393Y-86095907D01*
X92438720Y-85927754D01*
X92673424Y-85727948D01*
X92880650Y-85499769D01*
X93056996Y-85246963D01*
X93070185Y-85221682D01*
X93199561Y-84973695D01*
X93199561Y-84973692D01*
X93199567Y-84973683D01*
X93306020Y-84684415D01*
X93374609Y-84383908D01*
X93375977Y-84369731D01*
X103673285Y-84369731D01*
X103999999Y-84696446D01*
X104326713Y-84369731D01*
X104167955Y-84314179D01*
X104167947Y-84314177D01*
X104000000Y-84295254D01*
X103832052Y-84314177D01*
X103832041Y-84314180D01*
X103673285Y-84369730D01*
X103673285Y-84369731D01*
X93375977Y-84369731D01*
X93404206Y-84077098D01*
X93394327Y-83769022D01*
X93345133Y-83464739D01*
X93257431Y-83169244D01*
X93132663Y-82887391D01*
X92972877Y-82623807D01*
X92863802Y-82487031D01*
X92780699Y-82382822D01*
X92559277Y-82168387D01*
X92312252Y-81984027D01*
X92170325Y-81904096D01*
X92043682Y-81832772D01*
X91757975Y-81717101D01*
X91757971Y-81717100D01*
X91757969Y-81717099D01*
X91459818Y-81638915D01*
X91459820Y-81638915D01*
X91154123Y-81599500D01*
X91154117Y-81599500D01*
X90923026Y-81599500D01*
X90692397Y-81614307D01*
X90389851Y-81673227D01*
X90097322Y-81770354D01*
X90097315Y-81770357D01*
X89819605Y-81904094D01*
X89819600Y-81904096D01*
X89561285Y-82072242D01*
X89561278Y-82072247D01*
X89326578Y-82272049D01*
X89119351Y-82500229D01*
X89119349Y-82500231D01*
X88943007Y-82753033D01*
X88942994Y-82753053D01*
X88800438Y-83026304D01*
X88800432Y-83026319D01*
X88693979Y-83315588D01*
X88625392Y-83616087D01*
X88625390Y-83616096D01*
X88595793Y-83922900D01*
X80000000Y-83922900D01*
X80000000Y-81074000D01*
X80017313Y-81026434D01*
X80061150Y-81001124D01*
X80074000Y-81000000D01*
X154176000Y-81000000D01*
X154223566Y-81017313D01*
G37*
%TD.AperFunction*%
%TA.AperFunction,Conductor*%
G36*
X192973566Y-81017313D02*
G01*
X192998876Y-81061150D01*
X193000000Y-81074000D01*
X193000000Y-116926000D01*
X192982687Y-116973566D01*
X192938850Y-116998876D01*
X192926000Y-117000000D01*
X173824000Y-117000000D01*
X173776434Y-116982687D01*
X173751124Y-116938850D01*
X173750000Y-116926000D01*
X173750000Y-113000000D01*
X176694318Y-113000000D01*
X176714955Y-113156760D01*
X176714955Y-113156761D01*
X176775464Y-113302841D01*
X176871715Y-113428279D01*
X176871720Y-113428284D01*
X176955345Y-113492451D01*
X176997159Y-113524536D01*
X177143238Y-113585044D01*
X177300000Y-113605682D01*
X177456762Y-113585044D01*
X177602841Y-113524536D01*
X177728282Y-113428282D01*
X177824536Y-113302841D01*
X177885044Y-113156762D01*
X177905682Y-113000000D01*
X177885044Y-112843238D01*
X177824536Y-112697159D01*
X177728282Y-112571718D01*
X177728279Y-112571715D01*
X177602841Y-112475464D01*
X177456761Y-112414955D01*
X177300000Y-112394318D01*
X177143239Y-112414955D01*
X177143238Y-112414955D01*
X176997158Y-112475464D01*
X176871720Y-112571715D01*
X176871715Y-112571720D01*
X176775464Y-112697158D01*
X176714955Y-112843238D01*
X176714955Y-112843239D01*
X176694318Y-113000000D01*
X173750000Y-113000000D01*
X173750000Y-106000000D01*
X176694318Y-106000000D01*
X176714955Y-106156760D01*
X176714955Y-106156761D01*
X176775464Y-106302841D01*
X176871715Y-106428279D01*
X176871720Y-106428284D01*
X176900209Y-106450144D01*
X176997159Y-106524536D01*
X177143238Y-106585044D01*
X177300000Y-106605682D01*
X177456762Y-106585044D01*
X177602841Y-106524536D01*
X177679953Y-106465365D01*
X177728227Y-106450144D01*
X177770045Y-106465364D01*
X177847159Y-106524536D01*
X177993238Y-106585044D01*
X178150000Y-106605682D01*
X178306762Y-106585044D01*
X178452841Y-106524536D01*
X178578282Y-106428282D01*
X178674536Y-106302841D01*
X178735044Y-106156762D01*
X178755682Y-106000000D01*
X181794318Y-106000000D01*
X181814955Y-106156760D01*
X181814955Y-106156761D01*
X181875464Y-106302841D01*
X181971715Y-106428279D01*
X181971720Y-106428284D01*
X182000209Y-106450144D01*
X182097159Y-106524536D01*
X182243238Y-106585044D01*
X182400000Y-106605682D01*
X182556762Y-106585044D01*
X182702841Y-106524536D01*
X182828282Y-106428282D01*
X182924536Y-106302841D01*
X182985044Y-106156762D01*
X183005682Y-106000000D01*
X186894318Y-106000000D01*
X186914955Y-106156760D01*
X186914955Y-106156761D01*
X186975464Y-106302841D01*
X187071715Y-106428279D01*
X187071720Y-106428284D01*
X187100209Y-106450144D01*
X187197159Y-106524536D01*
X187343238Y-106585044D01*
X187500000Y-106605682D01*
X187656762Y-106585044D01*
X187802841Y-106524536D01*
X187928282Y-106428282D01*
X188024536Y-106302841D01*
X188085044Y-106156762D01*
X188105682Y-106000000D01*
X188085044Y-105843238D01*
X188024536Y-105697159D01*
X187928282Y-105571718D01*
X187928279Y-105571715D01*
X187802841Y-105475464D01*
X187656761Y-105414955D01*
X187500000Y-105394318D01*
X187343239Y-105414955D01*
X187343238Y-105414955D01*
X187197158Y-105475464D01*
X187071720Y-105571715D01*
X187071715Y-105571720D01*
X186975464Y-105697158D01*
X186914955Y-105843238D01*
X186914955Y-105843239D01*
X186894318Y-106000000D01*
X183005682Y-106000000D01*
X182985044Y-105843238D01*
X182924536Y-105697159D01*
X182828282Y-105571718D01*
X182828279Y-105571715D01*
X182702841Y-105475464D01*
X182556761Y-105414955D01*
X182400000Y-105394318D01*
X182243239Y-105414955D01*
X182243238Y-105414955D01*
X182097158Y-105475464D01*
X181971720Y-105571715D01*
X181971715Y-105571720D01*
X181875464Y-105697158D01*
X181814955Y-105843238D01*
X181814955Y-105843239D01*
X181794318Y-106000000D01*
X178755682Y-106000000D01*
X178735044Y-105843238D01*
X178674536Y-105697159D01*
X178578282Y-105571718D01*
X178578279Y-105571715D01*
X178452841Y-105475464D01*
X178306761Y-105414955D01*
X178150000Y-105394318D01*
X177993239Y-105414955D01*
X177993238Y-105414955D01*
X177847161Y-105475463D01*
X177847159Y-105475464D01*
X177770048Y-105534633D01*
X177721772Y-105549854D01*
X177679952Y-105534633D01*
X177602841Y-105475464D01*
X177560052Y-105457740D01*
X177456761Y-105414955D01*
X177300000Y-105394318D01*
X177143239Y-105414955D01*
X177143238Y-105414955D01*
X176997158Y-105475464D01*
X176871720Y-105571715D01*
X176871715Y-105571720D01*
X176775464Y-105697158D01*
X176714955Y-105843238D01*
X176714955Y-105843239D01*
X176694318Y-106000000D01*
X173750000Y-106000000D01*
X173750000Y-99000000D01*
X187944318Y-99000000D01*
X187964955Y-99156760D01*
X187964955Y-99156761D01*
X188025464Y-99302841D01*
X188121715Y-99428279D01*
X188121720Y-99428284D01*
X188205345Y-99492451D01*
X188247159Y-99524536D01*
X188393238Y-99585044D01*
X188550000Y-99605682D01*
X188706762Y-99585044D01*
X188852841Y-99524536D01*
X188978282Y-99428282D01*
X189074536Y-99302841D01*
X189135044Y-99156762D01*
X189155682Y-99000000D01*
X189135044Y-98843238D01*
X189074536Y-98697159D01*
X188998603Y-98598201D01*
X188978284Y-98571720D01*
X188978279Y-98571715D01*
X188852841Y-98475464D01*
X188706761Y-98414955D01*
X188550000Y-98394318D01*
X188393239Y-98414955D01*
X188393238Y-98414955D01*
X188247158Y-98475464D01*
X188121720Y-98571715D01*
X188121715Y-98571720D01*
X188025464Y-98697158D01*
X187964955Y-98843238D01*
X187964955Y-98843239D01*
X187944318Y-99000000D01*
X173750000Y-99000000D01*
X173750000Y-83922900D01*
X179595793Y-83922900D01*
X179605672Y-84230971D01*
X179605674Y-84230989D01*
X179654865Y-84535254D01*
X179654868Y-84535267D01*
X179742398Y-84830180D01*
X179742569Y-84830756D01*
X179862932Y-85102658D01*
X179867341Y-85112617D01*
X179968516Y-85279515D01*
X180027123Y-85376193D01*
X180106289Y-85475464D01*
X180219300Y-85617177D01*
X180219303Y-85617180D01*
X180219304Y-85617181D01*
X180440724Y-85831614D01*
X180687747Y-86015972D01*
X180956318Y-86167228D01*
X181242025Y-86282899D01*
X181540179Y-86361084D01*
X181845878Y-86400499D01*
X181845882Y-86400500D01*
X181845883Y-86400500D01*
X182076974Y-86400500D01*
X182307601Y-86385693D01*
X182610151Y-86326772D01*
X182902683Y-86229644D01*
X183180393Y-86095907D01*
X183438720Y-85927754D01*
X183673424Y-85727948D01*
X183880650Y-85499769D01*
X184056996Y-85246963D01*
X184070185Y-85221682D01*
X184199561Y-84973695D01*
X184199561Y-84973692D01*
X184199567Y-84973683D01*
X184306020Y-84684415D01*
X184374609Y-84383908D01*
X184404206Y-84077098D01*
X184394327Y-83769022D01*
X184345133Y-83464739D01*
X184257431Y-83169244D01*
X184132663Y-82887391D01*
X183972877Y-82623807D01*
X183863802Y-82487031D01*
X183780699Y-82382822D01*
X183559277Y-82168387D01*
X183312252Y-81984027D01*
X183170325Y-81904096D01*
X183043682Y-81832772D01*
X182757975Y-81717101D01*
X182757971Y-81717100D01*
X182757969Y-81717099D01*
X182459818Y-81638915D01*
X182459820Y-81638915D01*
X182154123Y-81599500D01*
X182154117Y-81599500D01*
X181923026Y-81599500D01*
X181692397Y-81614307D01*
X181389851Y-81673227D01*
X181097322Y-81770354D01*
X181097315Y-81770357D01*
X180819605Y-81904094D01*
X180819600Y-81904096D01*
X180561285Y-82072242D01*
X180561278Y-82072247D01*
X180326578Y-82272049D01*
X180119351Y-82500229D01*
X180119349Y-82500231D01*
X179943007Y-82753033D01*
X179942994Y-82753053D01*
X179800438Y-83026304D01*
X179800432Y-83026319D01*
X179693979Y-83315588D01*
X179625392Y-83616087D01*
X179625390Y-83616096D01*
X179595793Y-83922900D01*
X173750000Y-83922900D01*
X173750000Y-81074000D01*
X173767313Y-81026434D01*
X173811150Y-81001124D01*
X173824000Y-81000000D01*
X192926000Y-81000000D01*
X192973566Y-81017313D01*
G37*
%TD.AperFunction*%
%TD*%
M02*
