%TF.GenerationSoftware,KiCad,Pcbnew,10.0.6*%
%TF.CreationDate,2026-10-03T07:34:57-06:00*%
%TF.ProjectId,RB_Switch,52425f53-7769-4746-9368-2e6b69636164,rev?*%
%TF.SameCoordinates,Original*%
%TF.FileFunction,Copper,L3,Inr*%
%TF.FilePolarity,Positive*%
%FSLAX46Y46*%
G04 Gerber Fmt 4.6, Leading zero omitted, Abs format (unit mm)*
G04 Created by KiCad (PCBNEW 10.0.6) date 2026-10-03 07:34:57*
%MOMM*%
%LPD*%
G01*
G04 APERTURE LIST*
G04 Aperture macros list*
%AMRoundRect*
0 Rectangle with rounded corners*
0 $1 Rounding radius*
0 $2 $3 $4 $5 $6 $7 $8 $9 X,Y pos of 4 corners*
0 Add a 4 corners polygon primitive as box body*
4,1,4,$2,$3,$4,$5,$6,$7,$8,$9,$2,$3,0*
0 Add four circle primitives for the rounded corners*
1,1,$1+$1,$2,$3*
1,1,$1+$1,$4,$5*
1,1,$1+$1,$6,$7*
1,1,$1+$1,$8,$9*
0 Add four rect primitives between the rounded corners*
20,1,$1+$1,$2,$3,$4,$5,0*
20,1,$1+$1,$4,$5,$6,$7,0*
20,1,$1+$1,$6,$7,$8,$9,0*
20,1,$1+$1,$8,$9,$2,$3,0*%
G04 Aperture macros list end*
%TA.AperFunction,ComponentPad*%
%ADD10R,1.700000X1.700000*%
%TD*%
%TA.AperFunction,ComponentPad*%
%ADD11C,1.700000*%
%TD*%
%TA.AperFunction,ComponentPad*%
%ADD12RoundRect,0.250000X0.350000X0.625000X-0.350000X0.625000X-0.350000X-0.625000X0.350000X-0.625000X0*%
%TD*%
%TA.AperFunction,ComponentPad*%
%ADD13O,1.200000X1.750000*%
%TD*%
%TA.AperFunction,ComponentPad*%
%ADD14O,2.100000X1.000000*%
%TD*%
%TA.AperFunction,ComponentPad*%
%ADD15O,1.800000X1.000000*%
%TD*%
%TA.AperFunction,ViaPad*%
%ADD16C,0.500000*%
%TD*%
G04 APERTURE END LIST*
D10*
%TO.N,/SW1_NET*%
%TO.C,SW1*%
X101000000Y-99000000D03*
D11*
X107500000Y-99000000D03*
%TO.N,GND*%
X101000000Y-103500000D03*
X107500000Y-103500000D03*
%TD*%
D12*
%TO.N,VBAT*%
%TO.C,J_BAT1*%
X122000000Y-87200000D03*
D13*
%TO.N,GND*%
X120000000Y-87200000D03*
%TD*%
D10*
%TO.N,/SW2_NET*%
%TO.C,SW2*%
X126000000Y-99000000D03*
D11*
X132500000Y-99000000D03*
%TO.N,GND*%
X126000000Y-103500000D03*
X132500000Y-103500000D03*
%TD*%
D14*
%TO.N,GND*%
%TO.C,J_USB1*%
X87105000Y-94680000D03*
D15*
X82925000Y-94680000D03*
D14*
X87105000Y-103320000D03*
D15*
X82925000Y-103320000D03*
%TD*%
D10*
%TO.N,/SW3_NET*%
%TO.C,SW3*%
X151000000Y-99000000D03*
D11*
X157500000Y-99000000D03*
%TO.N,GND*%
X151000000Y-103500000D03*
X157500000Y-103500000D03*
%TD*%
D16*
%TO.N,/USB_CC1*%
X88650000Y-94300000D03*
X90350000Y-96000000D03*
%TO.N,GND*%
X161650000Y-107000000D03*
X104000000Y-85050000D03*
X104000000Y-86950000D03*
X93650000Y-96000000D03*
X111650000Y-107000000D03*
X136650000Y-107000000D03*
X179850000Y-105150000D03*
X171650000Y-109800000D03*
X110150000Y-90800000D03*
X175650000Y-109800000D03*
X116150000Y-84500000D03*
X88700000Y-102200000D03*
X168600000Y-92000000D03*
X179650000Y-109800000D03*
X177275000Y-99000000D03*
X168600000Y-106000000D03*
X104575000Y-86000000D03*
X107800000Y-86000000D03*
X133150000Y-91500000D03*
X175625000Y-97350000D03*
X102150000Y-91800000D03*
X168550000Y-113500000D03*
X103425000Y-86000000D03*
X181550000Y-91150000D03*
X181550000Y-113000000D03*
X175625000Y-99000000D03*
X177275000Y-100650000D03*
X88700000Y-95800000D03*
X116150000Y-89500000D03*
X105650000Y-91800000D03*
X130300000Y-93000000D03*
X93650000Y-102000000D03*
%TO.N,VBAT*%
X106850000Y-89250000D03*
X106850000Y-90550000D03*
%TO.N,VBUS*%
X88700000Y-96900000D03*
X88700000Y-101100000D03*
%TO.N,V3V3*%
X168350000Y-109800000D03*
X165650000Y-86000000D03*
X103200000Y-90900000D03*
X180700000Y-91150000D03*
X102600000Y-84450000D03*
X98850000Y-91800000D03*
X170850000Y-113500000D03*
X180750000Y-109800000D03*
X176350000Y-109800000D03*
X172350000Y-109800000D03*
X105400000Y-84450000D03*
%TO.N,/BOOT_NET*%
X179850000Y-104250000D03*
X178150000Y-112150000D03*
%TO.N,/SW1_NET*%
X110100000Y-106100000D03*
X171350000Y-92850000D03*
%TO.N,/SW2_NET*%
X170500000Y-93450000D03*
X132500000Y-101750000D03*
%TO.N,/SW3_NET*%
X158800000Y-97700000D03*
X157500000Y-101750000D03*
%TD*%
%TA.AperFunction,Conductor*%
%TO.N,V3V3*%
G36*
X184228326Y-81021674D02*
G01*
X184250000Y-81074000D01*
X184250000Y-116926000D01*
X184228326Y-116978326D01*
X184176000Y-117000000D01*
X80074000Y-117000000D01*
X80021674Y-116978326D01*
X80000000Y-116926000D01*
X80000000Y-113427522D01*
X167999500Y-113427522D01*
X167999500Y-113572477D01*
X168037014Y-113712481D01*
X168037016Y-113712486D01*
X168109491Y-113838015D01*
X168211985Y-113940509D01*
X168337515Y-114012984D01*
X168337516Y-114012984D01*
X168337518Y-114012985D01*
X168407520Y-114031742D01*
X168477522Y-114050499D01*
X168477523Y-114050500D01*
X168477525Y-114050500D01*
X168622477Y-114050500D01*
X168622477Y-114050499D01*
X168762485Y-114012984D01*
X168888015Y-113940509D01*
X168990509Y-113838015D01*
X169062984Y-113712485D01*
X169100499Y-113572477D01*
X169100500Y-113572477D01*
X169100500Y-113427523D01*
X169100499Y-113427522D01*
X169062985Y-113287518D01*
X169062983Y-113287513D01*
X168990508Y-113161984D01*
X168888015Y-113059491D01*
X168762488Y-112987017D01*
X168762481Y-112987014D01*
X168622477Y-112949500D01*
X168622475Y-112949500D01*
X168477525Y-112949500D01*
X168477523Y-112949500D01*
X168337518Y-112987014D01*
X168337513Y-112987016D01*
X168211984Y-113059491D01*
X168109491Y-113161984D01*
X168037016Y-113287513D01*
X168037014Y-113287518D01*
X167999500Y-113427522D01*
X80000000Y-113427522D01*
X80000000Y-112927522D01*
X180999500Y-112927522D01*
X180999500Y-113072477D01*
X181037014Y-113212481D01*
X181037016Y-113212486D01*
X181080336Y-113287518D01*
X181109491Y-113338015D01*
X181211985Y-113440509D01*
X181337515Y-113512984D01*
X181337516Y-113512984D01*
X181337518Y-113512985D01*
X181407520Y-113531742D01*
X181477522Y-113550499D01*
X181477523Y-113550500D01*
X181477525Y-113550500D01*
X181622477Y-113550500D01*
X181622477Y-113550499D01*
X181762485Y-113512984D01*
X181888015Y-113440509D01*
X181990509Y-113338015D01*
X182062984Y-113212485D01*
X182100499Y-113072477D01*
X182100500Y-113072477D01*
X182100500Y-112927523D01*
X182100499Y-112927522D01*
X182062985Y-112787518D01*
X182062983Y-112787513D01*
X182043563Y-112753876D01*
X181990509Y-112661985D01*
X181888015Y-112559491D01*
X181762486Y-112487016D01*
X181762481Y-112487014D01*
X181622477Y-112449500D01*
X181622475Y-112449500D01*
X181477525Y-112449500D01*
X181477523Y-112449500D01*
X181337518Y-112487014D01*
X181337513Y-112487016D01*
X181211984Y-112559491D01*
X181109491Y-112661984D01*
X181037016Y-112787513D01*
X181037014Y-112787518D01*
X180999500Y-112927522D01*
X80000000Y-112927522D01*
X80000000Y-112077522D01*
X177599500Y-112077522D01*
X177599500Y-112222477D01*
X177637014Y-112362481D01*
X177637016Y-112362486D01*
X177687254Y-112449500D01*
X177709491Y-112488015D01*
X177811985Y-112590509D01*
X177903876Y-112643563D01*
X177935784Y-112661985D01*
X177937515Y-112662984D01*
X177937516Y-112662984D01*
X177937518Y-112662985D01*
X178007520Y-112681742D01*
X178077522Y-112700499D01*
X178077523Y-112700500D01*
X178077525Y-112700500D01*
X178222477Y-112700500D01*
X178222477Y-112700499D01*
X178362485Y-112662984D01*
X178488015Y-112590509D01*
X178590509Y-112488015D01*
X178662984Y-112362485D01*
X178700499Y-112222477D01*
X178700500Y-112222477D01*
X178700500Y-112077523D01*
X178700499Y-112077522D01*
X178662985Y-111937518D01*
X178662983Y-111937513D01*
X178590508Y-111811984D01*
X178488015Y-111709491D01*
X178362486Y-111637016D01*
X178362481Y-111637014D01*
X178222477Y-111599500D01*
X178222475Y-111599500D01*
X178077525Y-111599500D01*
X178077523Y-111599500D01*
X177937518Y-111637014D01*
X177937513Y-111637016D01*
X177811984Y-111709491D01*
X177709491Y-111811984D01*
X177637016Y-111937513D01*
X177637014Y-111937518D01*
X177599500Y-112077522D01*
X80000000Y-112077522D01*
X80000000Y-109727522D01*
X171099500Y-109727522D01*
X171099500Y-109872477D01*
X171137014Y-110012481D01*
X171137016Y-110012486D01*
X171209491Y-110138015D01*
X171311985Y-110240509D01*
X171437515Y-110312984D01*
X171437516Y-110312984D01*
X171437518Y-110312985D01*
X171507520Y-110331742D01*
X171577522Y-110350499D01*
X171577523Y-110350500D01*
X171577525Y-110350500D01*
X171722477Y-110350500D01*
X171722477Y-110350499D01*
X171862485Y-110312984D01*
X171988015Y-110240509D01*
X172090509Y-110138015D01*
X172162984Y-110012485D01*
X172200499Y-109872477D01*
X172200500Y-109872477D01*
X172200500Y-109727523D01*
X172200499Y-109727522D01*
X175099500Y-109727522D01*
X175099500Y-109872477D01*
X175137014Y-110012481D01*
X175137016Y-110012486D01*
X175209491Y-110138015D01*
X175311985Y-110240509D01*
X175437515Y-110312984D01*
X175437516Y-110312984D01*
X175437518Y-110312985D01*
X175507520Y-110331742D01*
X175577522Y-110350499D01*
X175577523Y-110350500D01*
X175577525Y-110350500D01*
X175722477Y-110350500D01*
X175722477Y-110350499D01*
X175862485Y-110312984D01*
X175988015Y-110240509D01*
X176090509Y-110138015D01*
X176162984Y-110012485D01*
X176200499Y-109872477D01*
X176200500Y-109872477D01*
X176200500Y-109727523D01*
X176200499Y-109727522D01*
X179099500Y-109727522D01*
X179099500Y-109872477D01*
X179137014Y-110012481D01*
X179137016Y-110012486D01*
X179209491Y-110138015D01*
X179311985Y-110240509D01*
X179437515Y-110312984D01*
X179437516Y-110312984D01*
X179437518Y-110312985D01*
X179507520Y-110331742D01*
X179577522Y-110350499D01*
X179577523Y-110350500D01*
X179577525Y-110350500D01*
X179722477Y-110350500D01*
X179722477Y-110350499D01*
X179862485Y-110312984D01*
X179988015Y-110240509D01*
X180090509Y-110138015D01*
X180162984Y-110012485D01*
X180200499Y-109872477D01*
X180200500Y-109872477D01*
X180200500Y-109727523D01*
X180200499Y-109727522D01*
X180162985Y-109587518D01*
X180162983Y-109587513D01*
X180090508Y-109461984D01*
X179988015Y-109359491D01*
X179862486Y-109287016D01*
X179862481Y-109287014D01*
X179722477Y-109249500D01*
X179722475Y-109249500D01*
X179577525Y-109249500D01*
X179577523Y-109249500D01*
X179437518Y-109287014D01*
X179437513Y-109287016D01*
X179311984Y-109359491D01*
X179209491Y-109461984D01*
X179137016Y-109587513D01*
X179137014Y-109587518D01*
X179099500Y-109727522D01*
X176200499Y-109727522D01*
X176162985Y-109587518D01*
X176162983Y-109587513D01*
X176090508Y-109461984D01*
X175988015Y-109359491D01*
X175862486Y-109287016D01*
X175862481Y-109287014D01*
X175722477Y-109249500D01*
X175722475Y-109249500D01*
X175577525Y-109249500D01*
X175577523Y-109249500D01*
X175437518Y-109287014D01*
X175437513Y-109287016D01*
X175311984Y-109359491D01*
X175209491Y-109461984D01*
X175137016Y-109587513D01*
X175137014Y-109587518D01*
X175099500Y-109727522D01*
X172200499Y-109727522D01*
X172162985Y-109587518D01*
X172162983Y-109587513D01*
X172090508Y-109461984D01*
X171988015Y-109359491D01*
X171862486Y-109287016D01*
X171862481Y-109287014D01*
X171722477Y-109249500D01*
X171722475Y-109249500D01*
X171577525Y-109249500D01*
X171577523Y-109249500D01*
X171437518Y-109287014D01*
X171437513Y-109287016D01*
X171311984Y-109359491D01*
X171209491Y-109461984D01*
X171137016Y-109587513D01*
X171137014Y-109587518D01*
X171099500Y-109727522D01*
X80000000Y-109727522D01*
X80000000Y-106927522D01*
X111099500Y-106927522D01*
X111099500Y-107072477D01*
X111137014Y-107212481D01*
X111137016Y-107212486D01*
X111209491Y-107338015D01*
X111311985Y-107440509D01*
X111437515Y-107512984D01*
X111437516Y-107512984D01*
X111437518Y-107512985D01*
X111507520Y-107531742D01*
X111577522Y-107550499D01*
X111577523Y-107550500D01*
X111577525Y-107550500D01*
X111722477Y-107550500D01*
X111722477Y-107550499D01*
X111862485Y-107512984D01*
X111988015Y-107440509D01*
X112090509Y-107338015D01*
X112162984Y-107212485D01*
X112200499Y-107072477D01*
X112200500Y-107072477D01*
X112200500Y-106927523D01*
X112200499Y-106927522D01*
X136099500Y-106927522D01*
X136099500Y-107072477D01*
X136137014Y-107212481D01*
X136137016Y-107212486D01*
X136209491Y-107338015D01*
X136311985Y-107440509D01*
X136437515Y-107512984D01*
X136437516Y-107512984D01*
X136437518Y-107512985D01*
X136507520Y-107531742D01*
X136577522Y-107550499D01*
X136577523Y-107550500D01*
X136577525Y-107550500D01*
X136722477Y-107550500D01*
X136722477Y-107550499D01*
X136862485Y-107512984D01*
X136988015Y-107440509D01*
X137090509Y-107338015D01*
X137162984Y-107212485D01*
X137200499Y-107072477D01*
X137200500Y-107072477D01*
X137200500Y-106927523D01*
X137200499Y-106927522D01*
X161099500Y-106927522D01*
X161099500Y-107072477D01*
X161137014Y-107212481D01*
X161137016Y-107212486D01*
X161209491Y-107338015D01*
X161311985Y-107440509D01*
X161437515Y-107512984D01*
X161437516Y-107512984D01*
X161437518Y-107512985D01*
X161507520Y-107531742D01*
X161577522Y-107550499D01*
X161577523Y-107550500D01*
X161577525Y-107550500D01*
X161722477Y-107550500D01*
X161722477Y-107550499D01*
X161862485Y-107512984D01*
X161988015Y-107440509D01*
X162090509Y-107338015D01*
X162162984Y-107212485D01*
X162200499Y-107072477D01*
X162200500Y-107072477D01*
X162200500Y-106927523D01*
X162200499Y-106927522D01*
X162162985Y-106787518D01*
X162162983Y-106787513D01*
X162090508Y-106661984D01*
X161988015Y-106559491D01*
X161862486Y-106487016D01*
X161862481Y-106487014D01*
X161722477Y-106449500D01*
X161722475Y-106449500D01*
X161577525Y-106449500D01*
X161577523Y-106449500D01*
X161437518Y-106487014D01*
X161437513Y-106487016D01*
X161311984Y-106559491D01*
X161209491Y-106661984D01*
X161137016Y-106787513D01*
X161137014Y-106787518D01*
X161099500Y-106927522D01*
X137200499Y-106927522D01*
X137162985Y-106787518D01*
X137162983Y-106787513D01*
X137090508Y-106661984D01*
X136988015Y-106559491D01*
X136862486Y-106487016D01*
X136862481Y-106487014D01*
X136722477Y-106449500D01*
X136722475Y-106449500D01*
X136577525Y-106449500D01*
X136577523Y-106449500D01*
X136437518Y-106487014D01*
X136437513Y-106487016D01*
X136311984Y-106559491D01*
X136209491Y-106661984D01*
X136137016Y-106787513D01*
X136137014Y-106787518D01*
X136099500Y-106927522D01*
X112200499Y-106927522D01*
X112162985Y-106787518D01*
X112162983Y-106787513D01*
X112090508Y-106661984D01*
X111988015Y-106559491D01*
X111862486Y-106487016D01*
X111862481Y-106487014D01*
X111722477Y-106449500D01*
X111722475Y-106449500D01*
X111577525Y-106449500D01*
X111577523Y-106449500D01*
X111437518Y-106487014D01*
X111437513Y-106487016D01*
X111311984Y-106559491D01*
X111209491Y-106661984D01*
X111137016Y-106787513D01*
X111137014Y-106787518D01*
X111099500Y-106927522D01*
X80000000Y-106927522D01*
X80000000Y-106027522D01*
X109549500Y-106027522D01*
X109549500Y-106172477D01*
X109587014Y-106312481D01*
X109587016Y-106312486D01*
X109659491Y-106438015D01*
X109761985Y-106540509D01*
X109887515Y-106612984D01*
X109887516Y-106612984D01*
X109887518Y-106612985D01*
X109957520Y-106631742D01*
X110027522Y-106650499D01*
X110027523Y-106650500D01*
X110027525Y-106650500D01*
X110172477Y-106650500D01*
X110172477Y-106650499D01*
X110312485Y-106612984D01*
X110438015Y-106540509D01*
X110540509Y-106438015D01*
X110612984Y-106312485D01*
X110650499Y-106172477D01*
X110650500Y-106172477D01*
X110650500Y-106027523D01*
X110650499Y-106027522D01*
X110627538Y-105941828D01*
X110623705Y-105927522D01*
X168049500Y-105927522D01*
X168049500Y-106072477D01*
X168087014Y-106212481D01*
X168087016Y-106212486D01*
X168144749Y-106312481D01*
X168159491Y-106338015D01*
X168261985Y-106440509D01*
X168387515Y-106512984D01*
X168387516Y-106512984D01*
X168387518Y-106512985D01*
X168457520Y-106531742D01*
X168527522Y-106550499D01*
X168527523Y-106550500D01*
X168527525Y-106550500D01*
X168672477Y-106550500D01*
X168672477Y-106550499D01*
X168812485Y-106512984D01*
X168938015Y-106440509D01*
X169040509Y-106338015D01*
X169112984Y-106212485D01*
X169150499Y-106072477D01*
X169150500Y-106072477D01*
X169150500Y-105927523D01*
X169150499Y-105927522D01*
X169112985Y-105787518D01*
X169112983Y-105787513D01*
X169093563Y-105753876D01*
X169040509Y-105661985D01*
X168938015Y-105559491D01*
X168920710Y-105549500D01*
X168812486Y-105487016D01*
X168812481Y-105487014D01*
X168672477Y-105449500D01*
X168672475Y-105449500D01*
X168527525Y-105449500D01*
X168527523Y-105449500D01*
X168387518Y-105487014D01*
X168387513Y-105487016D01*
X168261984Y-105559491D01*
X168159491Y-105661984D01*
X168087016Y-105787513D01*
X168087014Y-105787518D01*
X168049500Y-105927522D01*
X110623705Y-105927522D01*
X110612985Y-105887518D01*
X110612983Y-105887513D01*
X110593563Y-105853876D01*
X110540509Y-105761985D01*
X110438015Y-105659491D01*
X110312486Y-105587016D01*
X110312481Y-105587014D01*
X110172477Y-105549500D01*
X110172475Y-105549500D01*
X110027525Y-105549500D01*
X110027523Y-105549500D01*
X109887518Y-105587014D01*
X109887513Y-105587016D01*
X109761984Y-105659491D01*
X109659491Y-105761984D01*
X109587016Y-105887513D01*
X109587014Y-105887518D01*
X109549500Y-106027522D01*
X80000000Y-106027522D01*
X80000000Y-103241159D01*
X81724500Y-103241159D01*
X81724500Y-103398840D01*
X81755261Y-103553491D01*
X81755264Y-103553501D01*
X81815603Y-103699174D01*
X81815605Y-103699177D01*
X81815606Y-103699179D01*
X81903211Y-103830289D01*
X82014711Y-103941789D01*
X82145821Y-104029394D01*
X82145826Y-104029396D01*
X82145825Y-104029396D01*
X82291498Y-104089735D01*
X82291503Y-104089737D01*
X82446158Y-104120500D01*
X82446160Y-104120500D01*
X83403840Y-104120500D01*
X83403842Y-104120500D01*
X83558497Y-104089737D01*
X83704179Y-104029394D01*
X83835289Y-103941789D01*
X83946789Y-103830289D01*
X84034394Y-103699179D01*
X84094737Y-103553497D01*
X84125500Y-103398842D01*
X84125500Y-103241159D01*
X85754500Y-103241159D01*
X85754500Y-103398840D01*
X85785261Y-103553491D01*
X85785264Y-103553501D01*
X85845603Y-103699174D01*
X85845605Y-103699177D01*
X85845606Y-103699179D01*
X85933211Y-103830289D01*
X86044711Y-103941789D01*
X86175821Y-104029394D01*
X86175826Y-104029396D01*
X86175825Y-104029396D01*
X86321498Y-104089735D01*
X86321503Y-104089737D01*
X86476158Y-104120500D01*
X86476160Y-104120500D01*
X87733840Y-104120500D01*
X87733842Y-104120500D01*
X87888497Y-104089737D01*
X88034179Y-104029394D01*
X88165289Y-103941789D01*
X88276789Y-103830289D01*
X88364394Y-103699179D01*
X88424737Y-103553497D01*
X88453389Y-103409453D01*
X99849500Y-103409453D01*
X99849500Y-103590546D01*
X99877828Y-103769406D01*
X99877831Y-103769419D01*
X99933787Y-103941635D01*
X99933788Y-103941638D01*
X99933789Y-103941639D01*
X100016002Y-104102991D01*
X100016005Y-104102995D01*
X100016005Y-104102996D01*
X100035028Y-104129179D01*
X100122447Y-104249501D01*
X100250499Y-104377553D01*
X100397006Y-104483996D01*
X100558361Y-104566211D01*
X100558364Y-104566212D01*
X100558363Y-104566212D01*
X100730580Y-104622168D01*
X100730586Y-104622169D01*
X100730591Y-104622171D01*
X100849833Y-104641057D01*
X100909453Y-104650500D01*
X100909454Y-104650500D01*
X101090547Y-104650500D01*
X101135261Y-104643417D01*
X101269409Y-104622171D01*
X101269416Y-104622168D01*
X101269419Y-104622168D01*
X101374532Y-104588015D01*
X101441639Y-104566211D01*
X101602994Y-104483996D01*
X101749501Y-104377553D01*
X101877553Y-104249501D01*
X101983996Y-104102994D01*
X102066211Y-103941639D01*
X102122171Y-103769409D01*
X102150500Y-103590546D01*
X102150500Y-103409454D01*
X102150500Y-103409453D01*
X106349500Y-103409453D01*
X106349500Y-103590546D01*
X106377828Y-103769406D01*
X106377831Y-103769419D01*
X106433787Y-103941635D01*
X106433788Y-103941638D01*
X106433789Y-103941639D01*
X106516002Y-104102991D01*
X106516005Y-104102995D01*
X106516005Y-104102996D01*
X106535028Y-104129179D01*
X106622447Y-104249501D01*
X106750499Y-104377553D01*
X106897006Y-104483996D01*
X107058361Y-104566211D01*
X107058364Y-104566212D01*
X107058363Y-104566212D01*
X107230580Y-104622168D01*
X107230586Y-104622169D01*
X107230591Y-104622171D01*
X107349833Y-104641057D01*
X107409453Y-104650500D01*
X107409454Y-104650500D01*
X107590547Y-104650500D01*
X107635261Y-104643417D01*
X107769409Y-104622171D01*
X107769416Y-104622168D01*
X107769419Y-104622168D01*
X107874532Y-104588015D01*
X107941639Y-104566211D01*
X108102994Y-104483996D01*
X108249501Y-104377553D01*
X108377553Y-104249501D01*
X108483996Y-104102994D01*
X108566211Y-103941639D01*
X108622171Y-103769409D01*
X108650500Y-103590546D01*
X108650500Y-103409454D01*
X108650500Y-103409453D01*
X124849500Y-103409453D01*
X124849500Y-103590546D01*
X124877828Y-103769406D01*
X124877831Y-103769419D01*
X124933787Y-103941635D01*
X124933788Y-103941638D01*
X124933789Y-103941639D01*
X125016002Y-104102991D01*
X125016005Y-104102995D01*
X125016005Y-104102996D01*
X125035028Y-104129179D01*
X125122447Y-104249501D01*
X125250499Y-104377553D01*
X125397006Y-104483996D01*
X125558361Y-104566211D01*
X125558364Y-104566212D01*
X125558363Y-104566212D01*
X125730580Y-104622168D01*
X125730586Y-104622169D01*
X125730591Y-104622171D01*
X125849833Y-104641057D01*
X125909453Y-104650500D01*
X125909454Y-104650500D01*
X126090547Y-104650500D01*
X126135261Y-104643417D01*
X126269409Y-104622171D01*
X126269416Y-104622168D01*
X126269419Y-104622168D01*
X126374532Y-104588015D01*
X126441639Y-104566211D01*
X126602994Y-104483996D01*
X126749501Y-104377553D01*
X126877553Y-104249501D01*
X126983996Y-104102994D01*
X127066211Y-103941639D01*
X127122171Y-103769409D01*
X127150500Y-103590546D01*
X127150500Y-103409454D01*
X127150500Y-103409453D01*
X131349500Y-103409453D01*
X131349500Y-103590546D01*
X131377828Y-103769406D01*
X131377831Y-103769419D01*
X131433787Y-103941635D01*
X131433788Y-103941638D01*
X131433789Y-103941639D01*
X131516002Y-104102991D01*
X131516005Y-104102995D01*
X131516005Y-104102996D01*
X131535028Y-104129179D01*
X131622447Y-104249501D01*
X131750499Y-104377553D01*
X131897006Y-104483996D01*
X132058361Y-104566211D01*
X132058364Y-104566212D01*
X132058363Y-104566212D01*
X132230580Y-104622168D01*
X132230586Y-104622169D01*
X132230591Y-104622171D01*
X132349833Y-104641057D01*
X132409453Y-104650500D01*
X132409454Y-104650500D01*
X132590547Y-104650500D01*
X132635261Y-104643417D01*
X132769409Y-104622171D01*
X132769416Y-104622168D01*
X132769419Y-104622168D01*
X132874532Y-104588015D01*
X132941639Y-104566211D01*
X133102994Y-104483996D01*
X133249501Y-104377553D01*
X133377553Y-104249501D01*
X133483996Y-104102994D01*
X133566211Y-103941639D01*
X133622171Y-103769409D01*
X133650500Y-103590546D01*
X133650500Y-103409454D01*
X133650500Y-103409453D01*
X149849500Y-103409453D01*
X149849500Y-103590546D01*
X149877828Y-103769406D01*
X149877831Y-103769419D01*
X149933787Y-103941635D01*
X149933788Y-103941638D01*
X149933789Y-103941639D01*
X150016002Y-104102991D01*
X150016005Y-104102995D01*
X150016005Y-104102996D01*
X150035028Y-104129179D01*
X150122447Y-104249501D01*
X150250499Y-104377553D01*
X150397006Y-104483996D01*
X150558361Y-104566211D01*
X150558364Y-104566212D01*
X150558363Y-104566212D01*
X150730580Y-104622168D01*
X150730586Y-104622169D01*
X150730591Y-104622171D01*
X150849833Y-104641057D01*
X150909453Y-104650500D01*
X150909454Y-104650500D01*
X151090547Y-104650500D01*
X151135261Y-104643417D01*
X151269409Y-104622171D01*
X151269416Y-104622168D01*
X151269419Y-104622168D01*
X151374532Y-104588015D01*
X151441639Y-104566211D01*
X151602994Y-104483996D01*
X151749501Y-104377553D01*
X151877553Y-104249501D01*
X151983996Y-104102994D01*
X152066211Y-103941639D01*
X152122171Y-103769409D01*
X152150500Y-103590546D01*
X152150500Y-103409454D01*
X152150500Y-103409453D01*
X156349500Y-103409453D01*
X156349500Y-103590546D01*
X156377828Y-103769406D01*
X156377831Y-103769419D01*
X156433787Y-103941635D01*
X156433788Y-103941638D01*
X156433789Y-103941639D01*
X156516002Y-104102991D01*
X156516005Y-104102995D01*
X156516005Y-104102996D01*
X156535028Y-104129179D01*
X156622447Y-104249501D01*
X156750499Y-104377553D01*
X156897006Y-104483996D01*
X157058361Y-104566211D01*
X157058364Y-104566212D01*
X157058363Y-104566212D01*
X157230580Y-104622168D01*
X157230586Y-104622169D01*
X157230591Y-104622171D01*
X157349833Y-104641057D01*
X157409453Y-104650500D01*
X157409454Y-104650500D01*
X157590547Y-104650500D01*
X157635261Y-104643417D01*
X157769409Y-104622171D01*
X157769416Y-104622168D01*
X157769419Y-104622168D01*
X157874532Y-104588015D01*
X157941639Y-104566211D01*
X158102994Y-104483996D01*
X158249501Y-104377553D01*
X158377553Y-104249501D01*
X158429849Y-104177522D01*
X179299500Y-104177522D01*
X179299500Y-104322477D01*
X179337014Y-104462481D01*
X179337016Y-104462486D01*
X179409491Y-104588015D01*
X179469150Y-104647674D01*
X179490824Y-104700000D01*
X179469150Y-104752326D01*
X179409491Y-104811984D01*
X179337016Y-104937513D01*
X179337014Y-104937518D01*
X179299500Y-105077522D01*
X179299500Y-105222477D01*
X179337014Y-105362481D01*
X179337016Y-105362486D01*
X179387254Y-105449500D01*
X179409491Y-105488015D01*
X179511985Y-105590509D01*
X179603876Y-105643563D01*
X179635784Y-105661985D01*
X179637515Y-105662984D01*
X179637516Y-105662984D01*
X179637518Y-105662985D01*
X179707520Y-105681742D01*
X179777522Y-105700499D01*
X179777523Y-105700500D01*
X179777525Y-105700500D01*
X179922477Y-105700500D01*
X179922477Y-105700499D01*
X180062485Y-105662984D01*
X180188015Y-105590509D01*
X180290509Y-105488015D01*
X180362984Y-105362485D01*
X180400499Y-105222477D01*
X180400500Y-105222477D01*
X180400500Y-105077523D01*
X180400499Y-105077522D01*
X180362985Y-104937518D01*
X180362983Y-104937513D01*
X180290508Y-104811984D01*
X180230850Y-104752326D01*
X180209176Y-104700000D01*
X180230850Y-104647674D01*
X180256356Y-104622168D01*
X180290509Y-104588015D01*
X180362984Y-104462485D01*
X180400499Y-104322477D01*
X180400500Y-104322477D01*
X180400500Y-104177523D01*
X180400499Y-104177522D01*
X180362985Y-104037518D01*
X180362983Y-104037513D01*
X180290508Y-103911984D01*
X180188015Y-103809491D01*
X180062486Y-103737016D01*
X180062481Y-103737014D01*
X179922477Y-103699500D01*
X179922475Y-103699500D01*
X179777525Y-103699500D01*
X179777523Y-103699500D01*
X179637518Y-103737014D01*
X179637513Y-103737016D01*
X179511984Y-103809491D01*
X179409491Y-103911984D01*
X179337016Y-104037513D01*
X179337014Y-104037518D01*
X179299500Y-104177522D01*
X158429849Y-104177522D01*
X158483996Y-104102994D01*
X158566211Y-103941639D01*
X158622171Y-103769409D01*
X158650500Y-103590546D01*
X158650500Y-103409454D01*
X158622171Y-103230591D01*
X158622169Y-103230586D01*
X158622168Y-103230580D01*
X158566212Y-103058364D01*
X158566211Y-103058363D01*
X158566211Y-103058361D01*
X158483996Y-102897006D01*
X158377553Y-102750499D01*
X158249501Y-102622447D01*
X158107806Y-102519500D01*
X158102996Y-102516005D01*
X157941635Y-102433787D01*
X157941636Y-102433787D01*
X157769417Y-102377831D01*
X157769071Y-102377748D01*
X157768997Y-102377694D01*
X157766644Y-102376930D01*
X157766892Y-102376165D01*
X157723248Y-102344461D01*
X157714383Y-102288522D01*
X157747670Y-102242699D01*
X157749301Y-102241728D01*
X157838015Y-102190509D01*
X157940509Y-102088015D01*
X158012984Y-101962485D01*
X158050499Y-101822477D01*
X158050500Y-101822477D01*
X158050500Y-101677523D01*
X158050499Y-101677522D01*
X158043124Y-101650000D01*
X158012984Y-101537515D01*
X157940509Y-101411985D01*
X157838015Y-101309491D01*
X157712486Y-101237016D01*
X157712481Y-101237014D01*
X157572477Y-101199500D01*
X157572475Y-101199500D01*
X157427525Y-101199500D01*
X157427523Y-101199500D01*
X157287518Y-101237014D01*
X157287513Y-101237016D01*
X157161984Y-101309491D01*
X157059491Y-101411984D01*
X156987016Y-101537513D01*
X156987014Y-101537518D01*
X156949500Y-101677522D01*
X156949500Y-101822477D01*
X156987014Y-101962481D01*
X156987016Y-101962486D01*
X157059491Y-102088015D01*
X157161985Y-102190509D01*
X157250659Y-102241705D01*
X157285138Y-102286638D01*
X157277745Y-102342791D01*
X157233335Y-102376868D01*
X157233356Y-102376930D01*
X157233180Y-102376986D01*
X157232812Y-102377270D01*
X157230933Y-102377747D01*
X157230582Y-102377831D01*
X157058364Y-102433787D01*
X156897004Y-102516005D01*
X156897003Y-102516005D01*
X156766801Y-102610603D01*
X156750499Y-102622447D01*
X156622447Y-102750499D01*
X156622444Y-102750502D01*
X156622444Y-102750503D01*
X156516005Y-102897003D01*
X156516005Y-102897004D01*
X156433787Y-103058364D01*
X156377831Y-103230580D01*
X156377828Y-103230593D01*
X156349500Y-103409453D01*
X152150500Y-103409453D01*
X152122171Y-103230591D01*
X152122169Y-103230586D01*
X152122168Y-103230580D01*
X152066212Y-103058364D01*
X152066211Y-103058363D01*
X152066211Y-103058361D01*
X151983996Y-102897006D01*
X151877553Y-102750499D01*
X151749501Y-102622447D01*
X151607806Y-102519500D01*
X151602996Y-102516005D01*
X151441635Y-102433787D01*
X151441636Y-102433787D01*
X151269419Y-102377831D01*
X151269406Y-102377828D01*
X151090547Y-102349500D01*
X151090546Y-102349500D01*
X150909454Y-102349500D01*
X150909453Y-102349500D01*
X150730593Y-102377828D01*
X150730580Y-102377831D01*
X150558364Y-102433787D01*
X150397004Y-102516005D01*
X150397003Y-102516005D01*
X150266801Y-102610603D01*
X150250499Y-102622447D01*
X150122447Y-102750499D01*
X150122444Y-102750502D01*
X150122444Y-102750503D01*
X150016005Y-102897003D01*
X150016005Y-102897004D01*
X149933787Y-103058364D01*
X149877831Y-103230580D01*
X149877828Y-103230593D01*
X149849500Y-103409453D01*
X133650500Y-103409453D01*
X133622171Y-103230591D01*
X133622169Y-103230586D01*
X133622168Y-103230580D01*
X133566212Y-103058364D01*
X133566211Y-103058363D01*
X133566211Y-103058361D01*
X133483996Y-102897006D01*
X133377553Y-102750499D01*
X133249501Y-102622447D01*
X133107806Y-102519500D01*
X133102996Y-102516005D01*
X132941635Y-102433787D01*
X132941636Y-102433787D01*
X132769417Y-102377831D01*
X132769071Y-102377748D01*
X132768997Y-102377694D01*
X132766644Y-102376930D01*
X132766892Y-102376165D01*
X132723248Y-102344461D01*
X132714383Y-102288522D01*
X132747670Y-102242699D01*
X132749301Y-102241728D01*
X132838015Y-102190509D01*
X132940509Y-102088015D01*
X133012984Y-101962485D01*
X133050499Y-101822477D01*
X133050500Y-101822477D01*
X133050500Y-101677523D01*
X133050499Y-101677522D01*
X133043124Y-101650000D01*
X133012984Y-101537515D01*
X132940509Y-101411985D01*
X132838015Y-101309491D01*
X132712486Y-101237016D01*
X132712481Y-101237014D01*
X132572477Y-101199500D01*
X132572475Y-101199500D01*
X132427525Y-101199500D01*
X132427523Y-101199500D01*
X132287518Y-101237014D01*
X132287513Y-101237016D01*
X132161984Y-101309491D01*
X132059491Y-101411984D01*
X131987016Y-101537513D01*
X131987014Y-101537518D01*
X131949500Y-101677522D01*
X131949500Y-101822477D01*
X131987014Y-101962481D01*
X131987016Y-101962486D01*
X132059491Y-102088015D01*
X132161985Y-102190509D01*
X132250659Y-102241705D01*
X132285138Y-102286638D01*
X132277745Y-102342791D01*
X132233335Y-102376868D01*
X132233356Y-102376930D01*
X132233180Y-102376986D01*
X132232812Y-102377270D01*
X132230933Y-102377747D01*
X132230582Y-102377831D01*
X132058364Y-102433787D01*
X131897004Y-102516005D01*
X131897003Y-102516005D01*
X131766801Y-102610603D01*
X131750499Y-102622447D01*
X131622447Y-102750499D01*
X131622444Y-102750502D01*
X131622444Y-102750503D01*
X131516005Y-102897003D01*
X131516005Y-102897004D01*
X131433787Y-103058364D01*
X131377831Y-103230580D01*
X131377828Y-103230593D01*
X131349500Y-103409453D01*
X127150500Y-103409453D01*
X127122171Y-103230591D01*
X127122169Y-103230586D01*
X127122168Y-103230580D01*
X127066212Y-103058364D01*
X127066211Y-103058363D01*
X127066211Y-103058361D01*
X126983996Y-102897006D01*
X126877553Y-102750499D01*
X126749501Y-102622447D01*
X126607806Y-102519500D01*
X126602996Y-102516005D01*
X126441635Y-102433787D01*
X126441636Y-102433787D01*
X126269419Y-102377831D01*
X126269406Y-102377828D01*
X126090547Y-102349500D01*
X126090546Y-102349500D01*
X125909454Y-102349500D01*
X125909453Y-102349500D01*
X125730593Y-102377828D01*
X125730580Y-102377831D01*
X125558364Y-102433787D01*
X125397004Y-102516005D01*
X125397003Y-102516005D01*
X125266801Y-102610603D01*
X125250499Y-102622447D01*
X125122447Y-102750499D01*
X125122444Y-102750502D01*
X125122444Y-102750503D01*
X125016005Y-102897003D01*
X125016005Y-102897004D01*
X124933787Y-103058364D01*
X124877831Y-103230580D01*
X124877828Y-103230593D01*
X124849500Y-103409453D01*
X108650500Y-103409453D01*
X108622171Y-103230591D01*
X108622169Y-103230586D01*
X108622168Y-103230580D01*
X108566212Y-103058364D01*
X108566211Y-103058363D01*
X108566211Y-103058361D01*
X108483996Y-102897006D01*
X108377553Y-102750499D01*
X108249501Y-102622447D01*
X108107806Y-102519500D01*
X108102996Y-102516005D01*
X107941635Y-102433787D01*
X107941636Y-102433787D01*
X107769419Y-102377831D01*
X107769406Y-102377828D01*
X107590547Y-102349500D01*
X107590546Y-102349500D01*
X107409454Y-102349500D01*
X107409453Y-102349500D01*
X107230593Y-102377828D01*
X107230580Y-102377831D01*
X107058364Y-102433787D01*
X106897004Y-102516005D01*
X106897003Y-102516005D01*
X106766801Y-102610603D01*
X106750499Y-102622447D01*
X106622447Y-102750499D01*
X106622444Y-102750502D01*
X106622444Y-102750503D01*
X106516005Y-102897003D01*
X106516005Y-102897004D01*
X106433787Y-103058364D01*
X106377831Y-103230580D01*
X106377828Y-103230593D01*
X106349500Y-103409453D01*
X102150500Y-103409453D01*
X102122171Y-103230591D01*
X102122169Y-103230586D01*
X102122168Y-103230580D01*
X102066212Y-103058364D01*
X102066211Y-103058363D01*
X102066211Y-103058361D01*
X101983996Y-102897006D01*
X101877553Y-102750499D01*
X101749501Y-102622447D01*
X101607806Y-102519500D01*
X101602996Y-102516005D01*
X101441635Y-102433787D01*
X101441636Y-102433787D01*
X101269419Y-102377831D01*
X101269406Y-102377828D01*
X101090547Y-102349500D01*
X101090546Y-102349500D01*
X100909454Y-102349500D01*
X100909453Y-102349500D01*
X100730593Y-102377828D01*
X100730580Y-102377831D01*
X100558364Y-102433787D01*
X100397004Y-102516005D01*
X100397003Y-102516005D01*
X100266801Y-102610603D01*
X100250499Y-102622447D01*
X100122447Y-102750499D01*
X100122444Y-102750502D01*
X100122444Y-102750503D01*
X100016005Y-102897003D01*
X100016005Y-102897004D01*
X99933787Y-103058364D01*
X99877831Y-103230580D01*
X99877828Y-103230593D01*
X99849500Y-103409453D01*
X88453389Y-103409453D01*
X88455500Y-103398842D01*
X88455500Y-103241158D01*
X88424737Y-103086503D01*
X88364394Y-102940821D01*
X88276789Y-102809711D01*
X88165289Y-102698211D01*
X88034179Y-102610606D01*
X88034175Y-102610604D01*
X88034173Y-102610603D01*
X88034174Y-102610603D01*
X87888501Y-102550264D01*
X87888491Y-102550261D01*
X87784925Y-102529661D01*
X87733842Y-102519500D01*
X86476158Y-102519500D01*
X86432315Y-102528220D01*
X86321508Y-102550261D01*
X86321498Y-102550264D01*
X86175825Y-102610603D01*
X86044711Y-102698210D01*
X86044710Y-102698212D01*
X85933212Y-102809710D01*
X85933210Y-102809711D01*
X85845603Y-102940825D01*
X85785264Y-103086498D01*
X85785261Y-103086508D01*
X85754500Y-103241159D01*
X84125500Y-103241159D01*
X84125500Y-103241158D01*
X84094737Y-103086503D01*
X84034394Y-102940821D01*
X83946789Y-102809711D01*
X83835289Y-102698211D01*
X83704179Y-102610606D01*
X83704175Y-102610604D01*
X83704173Y-102610603D01*
X83704174Y-102610603D01*
X83558501Y-102550264D01*
X83558491Y-102550261D01*
X83454925Y-102529661D01*
X83403842Y-102519500D01*
X82446158Y-102519500D01*
X82402315Y-102528220D01*
X82291508Y-102550261D01*
X82291498Y-102550264D01*
X82145825Y-102610603D01*
X82014711Y-102698210D01*
X82014710Y-102698212D01*
X81903212Y-102809710D01*
X81903210Y-102809711D01*
X81815603Y-102940825D01*
X81755264Y-103086498D01*
X81755261Y-103086508D01*
X81724500Y-103241159D01*
X80000000Y-103241159D01*
X80000000Y-101827396D01*
X86129500Y-101827396D01*
X86129500Y-101952603D01*
X86161904Y-102073535D01*
X86161905Y-102073536D01*
X86224505Y-102181964D01*
X86313036Y-102270495D01*
X86421464Y-102333095D01*
X86421463Y-102333095D01*
X86482687Y-102349500D01*
X86542396Y-102365499D01*
X86542397Y-102365500D01*
X86542399Y-102365500D01*
X86667603Y-102365500D01*
X86667603Y-102365499D01*
X86788536Y-102333095D01*
X86896964Y-102270495D01*
X86985495Y-102181964D01*
X87048095Y-102073536D01*
X87080499Y-101952603D01*
X87080500Y-101952603D01*
X87080500Y-101827397D01*
X87080499Y-101827396D01*
X87079180Y-101822475D01*
X87048095Y-101706464D01*
X86985495Y-101598036D01*
X86896964Y-101509505D01*
X86896963Y-101509504D01*
X86788534Y-101446904D01*
X86788536Y-101446904D01*
X86667603Y-101414500D01*
X86667601Y-101414500D01*
X86542399Y-101414500D01*
X86542397Y-101414500D01*
X86421464Y-101446904D01*
X86313036Y-101509504D01*
X86224504Y-101598036D01*
X86161904Y-101706464D01*
X86129500Y-101827396D01*
X80000000Y-101827396D01*
X80000000Y-101027522D01*
X88149500Y-101027522D01*
X88149500Y-101172477D01*
X88187014Y-101312481D01*
X88187016Y-101312486D01*
X88259491Y-101438015D01*
X88361985Y-101540509D01*
X88394863Y-101559491D01*
X88440628Y-101585914D01*
X88475107Y-101630848D01*
X88467714Y-101687000D01*
X88440628Y-101714086D01*
X88361984Y-101759491D01*
X88259491Y-101861984D01*
X88187016Y-101987513D01*
X88187014Y-101987518D01*
X88149500Y-102127522D01*
X88149500Y-102272477D01*
X88187014Y-102412481D01*
X88187016Y-102412486D01*
X88245039Y-102512983D01*
X88259491Y-102538015D01*
X88361985Y-102640509D01*
X88487515Y-102712984D01*
X88487516Y-102712984D01*
X88487518Y-102712985D01*
X88557520Y-102731742D01*
X88627522Y-102750499D01*
X88627523Y-102750500D01*
X88627525Y-102750500D01*
X88772477Y-102750500D01*
X88772477Y-102750499D01*
X88912485Y-102712984D01*
X89038015Y-102640509D01*
X89140509Y-102538015D01*
X89212984Y-102412485D01*
X89250499Y-102272477D01*
X89250500Y-102272477D01*
X89250500Y-102127523D01*
X89250499Y-102127522D01*
X89236033Y-102073536D01*
X89212984Y-101987515D01*
X89207228Y-101977545D01*
X89196911Y-101959675D01*
X89178347Y-101927522D01*
X93099500Y-101927522D01*
X93099500Y-102072477D01*
X93137014Y-102212481D01*
X93137016Y-102212486D01*
X93206650Y-102333095D01*
X93209491Y-102338015D01*
X93311985Y-102440509D01*
X93437515Y-102512984D01*
X93437516Y-102512984D01*
X93437518Y-102512985D01*
X93507520Y-102531742D01*
X93577522Y-102550499D01*
X93577523Y-102550500D01*
X93577525Y-102550500D01*
X93722477Y-102550500D01*
X93722477Y-102550499D01*
X93862485Y-102512984D01*
X93988015Y-102440509D01*
X94090509Y-102338015D01*
X94162984Y-102212485D01*
X94200499Y-102072477D01*
X94200500Y-102072477D01*
X94200500Y-101927523D01*
X94200499Y-101927522D01*
X94162985Y-101787518D01*
X94162983Y-101787513D01*
X94143563Y-101753876D01*
X94090509Y-101661985D01*
X93988015Y-101559491D01*
X93862486Y-101487016D01*
X93862481Y-101487014D01*
X93722477Y-101449500D01*
X93722475Y-101449500D01*
X93577525Y-101449500D01*
X93577523Y-101449500D01*
X93437518Y-101487014D01*
X93437513Y-101487016D01*
X93311984Y-101559491D01*
X93209491Y-101661984D01*
X93137016Y-101787513D01*
X93137014Y-101787518D01*
X93099500Y-101927522D01*
X89178347Y-101927522D01*
X89140508Y-101861984D01*
X89038015Y-101759491D01*
X88959371Y-101714086D01*
X88924892Y-101669153D01*
X88932285Y-101613000D01*
X88959371Y-101585914D01*
X89038015Y-101540509D01*
X89140509Y-101438015D01*
X89212984Y-101312485D01*
X89250499Y-101172477D01*
X89250500Y-101172477D01*
X89250500Y-101027523D01*
X89250499Y-101027522D01*
X89212985Y-100887518D01*
X89212983Y-100887513D01*
X89140508Y-100761984D01*
X89038015Y-100659491D01*
X88998646Y-100636761D01*
X88912486Y-100587016D01*
X88912481Y-100587014D01*
X88877056Y-100577522D01*
X176724500Y-100577522D01*
X176724500Y-100722477D01*
X176762014Y-100862481D01*
X176762016Y-100862486D01*
X176834491Y-100988015D01*
X176936985Y-101090509D01*
X177062515Y-101162984D01*
X177062516Y-101162984D01*
X177062518Y-101162985D01*
X177097935Y-101172475D01*
X177202522Y-101200499D01*
X177202523Y-101200500D01*
X177202525Y-101200500D01*
X177347477Y-101200500D01*
X177347477Y-101200499D01*
X177487485Y-101162984D01*
X177613015Y-101090509D01*
X177715509Y-100988015D01*
X177787984Y-100862485D01*
X177825499Y-100722477D01*
X177825500Y-100722477D01*
X177825500Y-100577523D01*
X177825499Y-100577522D01*
X177787985Y-100437518D01*
X177787983Y-100437513D01*
X177715508Y-100311984D01*
X177613015Y-100209491D01*
X177487486Y-100137016D01*
X177487481Y-100137014D01*
X177347477Y-100099500D01*
X177347475Y-100099500D01*
X177202525Y-100099500D01*
X177202523Y-100099500D01*
X177062518Y-100137014D01*
X177062513Y-100137016D01*
X176936984Y-100209491D01*
X176834491Y-100311984D01*
X176762016Y-100437513D01*
X176762014Y-100437518D01*
X176724500Y-100577522D01*
X88877056Y-100577522D01*
X88772477Y-100549500D01*
X88772475Y-100549500D01*
X88627525Y-100549500D01*
X88627523Y-100549500D01*
X88487518Y-100587014D01*
X88487513Y-100587016D01*
X88361984Y-100659491D01*
X88259491Y-100761984D01*
X88187016Y-100887513D01*
X88187014Y-100887518D01*
X88149500Y-101027522D01*
X80000000Y-101027522D01*
X80000000Y-98105135D01*
X99849500Y-98105135D01*
X99849500Y-99894863D01*
X99852414Y-99919986D01*
X99852415Y-99919991D01*
X99897794Y-100022765D01*
X99977235Y-100102206D01*
X100080009Y-100147585D01*
X100105135Y-100150500D01*
X101894864Y-100150499D01*
X101919991Y-100147585D01*
X102022765Y-100102206D01*
X102102206Y-100022765D01*
X102147585Y-99919991D01*
X102150500Y-99894865D01*
X102150499Y-98909453D01*
X106349500Y-98909453D01*
X106349500Y-99090546D01*
X106377828Y-99269406D01*
X106377831Y-99269419D01*
X106433787Y-99441635D01*
X106433788Y-99441638D01*
X106433789Y-99441639D01*
X106516004Y-99602994D01*
X106622447Y-99749501D01*
X106750499Y-99877553D01*
X106897006Y-99983996D01*
X107058361Y-100066211D01*
X107058364Y-100066212D01*
X107058363Y-100066212D01*
X107230580Y-100122168D01*
X107230586Y-100122169D01*
X107230591Y-100122171D01*
X107324319Y-100137016D01*
X107409453Y-100150500D01*
X107409454Y-100150500D01*
X107590547Y-100150500D01*
X107635261Y-100143417D01*
X107769409Y-100122171D01*
X107769416Y-100122168D01*
X107769419Y-100122168D01*
X107847601Y-100096765D01*
X107941639Y-100066211D01*
X108102994Y-99983996D01*
X108249501Y-99877553D01*
X108377553Y-99749501D01*
X108483996Y-99602994D01*
X108566211Y-99441639D01*
X108622171Y-99269409D01*
X108650500Y-99090546D01*
X108650500Y-98909454D01*
X108622171Y-98730591D01*
X108622169Y-98730586D01*
X108622168Y-98730580D01*
X108566212Y-98558364D01*
X108566211Y-98558363D01*
X108566211Y-98558361D01*
X108483996Y-98397006D01*
X108377553Y-98250499D01*
X108249501Y-98122447D01*
X108225673Y-98105135D01*
X124849500Y-98105135D01*
X124849500Y-99894863D01*
X124852414Y-99919986D01*
X124852415Y-99919991D01*
X124897794Y-100022765D01*
X124977235Y-100102206D01*
X125080009Y-100147585D01*
X125105135Y-100150500D01*
X126894864Y-100150499D01*
X126919991Y-100147585D01*
X127022765Y-100102206D01*
X127102206Y-100022765D01*
X127147585Y-99919991D01*
X127150500Y-99894865D01*
X127150499Y-98909453D01*
X131349500Y-98909453D01*
X131349500Y-99090546D01*
X131377828Y-99269406D01*
X131377831Y-99269419D01*
X131433787Y-99441635D01*
X131433788Y-99441638D01*
X131433789Y-99441639D01*
X131516004Y-99602994D01*
X131622447Y-99749501D01*
X131750499Y-99877553D01*
X131897006Y-99983996D01*
X132058361Y-100066211D01*
X132058364Y-100066212D01*
X132058363Y-100066212D01*
X132230580Y-100122168D01*
X132230586Y-100122169D01*
X132230591Y-100122171D01*
X132324319Y-100137016D01*
X132409453Y-100150500D01*
X132409454Y-100150500D01*
X132590547Y-100150500D01*
X132635261Y-100143417D01*
X132769409Y-100122171D01*
X132769416Y-100122168D01*
X132769419Y-100122168D01*
X132847601Y-100096765D01*
X132941639Y-100066211D01*
X133102994Y-99983996D01*
X133249501Y-99877553D01*
X133377553Y-99749501D01*
X133483996Y-99602994D01*
X133566211Y-99441639D01*
X133622171Y-99269409D01*
X133650500Y-99090546D01*
X133650500Y-98909454D01*
X133622171Y-98730591D01*
X133622169Y-98730586D01*
X133622168Y-98730580D01*
X133566212Y-98558364D01*
X133566211Y-98558363D01*
X133566211Y-98558361D01*
X133483996Y-98397006D01*
X133377553Y-98250499D01*
X133249501Y-98122447D01*
X133225673Y-98105135D01*
X149849500Y-98105135D01*
X149849500Y-99894863D01*
X149852414Y-99919986D01*
X149852415Y-99919991D01*
X149897794Y-100022765D01*
X149977235Y-100102206D01*
X150080009Y-100147585D01*
X150105135Y-100150500D01*
X151894864Y-100150499D01*
X151919991Y-100147585D01*
X152022765Y-100102206D01*
X152102206Y-100022765D01*
X152147585Y-99919991D01*
X152150500Y-99894865D01*
X152150499Y-98909453D01*
X156349500Y-98909453D01*
X156349500Y-99090546D01*
X156377828Y-99269406D01*
X156377831Y-99269419D01*
X156433787Y-99441635D01*
X156433788Y-99441638D01*
X156433789Y-99441639D01*
X156516004Y-99602994D01*
X156622447Y-99749501D01*
X156750499Y-99877553D01*
X156897006Y-99983996D01*
X157058361Y-100066211D01*
X157058364Y-100066212D01*
X157058363Y-100066212D01*
X157230580Y-100122168D01*
X157230586Y-100122169D01*
X157230591Y-100122171D01*
X157324319Y-100137016D01*
X157409453Y-100150500D01*
X157409454Y-100150500D01*
X157590547Y-100150500D01*
X157635261Y-100143417D01*
X157769409Y-100122171D01*
X157769416Y-100122168D01*
X157769419Y-100122168D01*
X157847601Y-100096765D01*
X157941639Y-100066211D01*
X158102994Y-99983996D01*
X158249501Y-99877553D01*
X158377553Y-99749501D01*
X158483996Y-99602994D01*
X158566211Y-99441639D01*
X158622171Y-99269409D01*
X158650500Y-99090546D01*
X158650500Y-98927522D01*
X175074500Y-98927522D01*
X175074500Y-99072477D01*
X175112014Y-99212481D01*
X175112016Y-99212486D01*
X175144879Y-99269406D01*
X175184491Y-99338015D01*
X175286985Y-99440509D01*
X175412515Y-99512984D01*
X175412516Y-99512984D01*
X175412518Y-99512985D01*
X175482520Y-99531742D01*
X175552522Y-99550499D01*
X175552523Y-99550500D01*
X175552525Y-99550500D01*
X175697477Y-99550500D01*
X175697477Y-99550499D01*
X175837485Y-99512984D01*
X175963015Y-99440509D01*
X176065509Y-99338015D01*
X176137984Y-99212485D01*
X176175499Y-99072477D01*
X176175500Y-99072477D01*
X176175500Y-98927523D01*
X176175499Y-98927522D01*
X176724500Y-98927522D01*
X176724500Y-99072477D01*
X176762014Y-99212481D01*
X176762016Y-99212486D01*
X176794879Y-99269406D01*
X176834491Y-99338015D01*
X176936985Y-99440509D01*
X177062515Y-99512984D01*
X177062516Y-99512984D01*
X177062518Y-99512985D01*
X177132520Y-99531742D01*
X177202522Y-99550499D01*
X177202523Y-99550500D01*
X177202525Y-99550500D01*
X177347477Y-99550500D01*
X177347477Y-99550499D01*
X177487485Y-99512984D01*
X177613015Y-99440509D01*
X177715509Y-99338015D01*
X177787984Y-99212485D01*
X177825499Y-99072477D01*
X177825500Y-99072477D01*
X177825500Y-98927523D01*
X177825499Y-98927522D01*
X177820657Y-98909453D01*
X177787984Y-98787515D01*
X177715509Y-98661985D01*
X177613015Y-98559491D01*
X177611058Y-98558361D01*
X177487486Y-98487016D01*
X177487481Y-98487014D01*
X177347477Y-98449500D01*
X177347475Y-98449500D01*
X177202525Y-98449500D01*
X177202523Y-98449500D01*
X177062518Y-98487014D01*
X177062513Y-98487016D01*
X176936984Y-98559491D01*
X176834491Y-98661984D01*
X176762016Y-98787513D01*
X176762014Y-98787518D01*
X176724500Y-98927522D01*
X176175499Y-98927522D01*
X176170657Y-98909453D01*
X176137984Y-98787515D01*
X176065509Y-98661985D01*
X175963015Y-98559491D01*
X175961058Y-98558361D01*
X175837486Y-98487016D01*
X175837481Y-98487014D01*
X175697477Y-98449500D01*
X175697475Y-98449500D01*
X175552525Y-98449500D01*
X175552523Y-98449500D01*
X175412518Y-98487014D01*
X175412513Y-98487016D01*
X175286984Y-98559491D01*
X175184491Y-98661984D01*
X175112016Y-98787513D01*
X175112014Y-98787518D01*
X175074500Y-98927522D01*
X158650500Y-98927522D01*
X158650500Y-98909454D01*
X158622171Y-98730591D01*
X158622169Y-98730586D01*
X158622168Y-98730580D01*
X158566212Y-98558364D01*
X158566211Y-98558363D01*
X158566211Y-98558361D01*
X158483996Y-98397006D01*
X158383524Y-98258717D01*
X158370302Y-98203645D01*
X158399895Y-98155354D01*
X158454967Y-98142132D01*
X158480387Y-98151133D01*
X158587515Y-98212984D01*
X158587516Y-98212984D01*
X158587518Y-98212985D01*
X158657520Y-98231742D01*
X158727522Y-98250499D01*
X158727523Y-98250500D01*
X158727525Y-98250500D01*
X158872477Y-98250500D01*
X158872477Y-98250499D01*
X159012485Y-98212984D01*
X159138015Y-98140509D01*
X159240509Y-98038015D01*
X159312984Y-97912485D01*
X159350499Y-97772477D01*
X159350500Y-97772477D01*
X159350500Y-97627523D01*
X159350499Y-97627522D01*
X159312985Y-97487518D01*
X159312983Y-97487513D01*
X159240508Y-97361984D01*
X159156046Y-97277522D01*
X175074500Y-97277522D01*
X175074500Y-97422477D01*
X175112014Y-97562481D01*
X175112016Y-97562486D01*
X175149565Y-97627522D01*
X175184491Y-97688015D01*
X175286985Y-97790509D01*
X175412515Y-97862984D01*
X175412516Y-97862984D01*
X175412518Y-97862985D01*
X175467913Y-97877828D01*
X175552522Y-97900499D01*
X175552523Y-97900500D01*
X175552525Y-97900500D01*
X175697477Y-97900500D01*
X175697477Y-97900499D01*
X175837485Y-97862984D01*
X175963015Y-97790509D01*
X176065509Y-97688015D01*
X176137984Y-97562485D01*
X176175499Y-97422477D01*
X176175500Y-97422477D01*
X176175500Y-97277523D01*
X176175499Y-97277522D01*
X176137985Y-97137518D01*
X176137983Y-97137513D01*
X176065508Y-97011984D01*
X175963015Y-96909491D01*
X175837486Y-96837016D01*
X175837481Y-96837014D01*
X175697477Y-96799500D01*
X175697475Y-96799500D01*
X175552525Y-96799500D01*
X175552523Y-96799500D01*
X175412518Y-96837014D01*
X175412513Y-96837016D01*
X175286984Y-96909491D01*
X175184491Y-97011984D01*
X175112016Y-97137513D01*
X175112014Y-97137518D01*
X175074500Y-97277522D01*
X159156046Y-97277522D01*
X159138015Y-97259491D01*
X159012486Y-97187016D01*
X159012481Y-97187014D01*
X158872477Y-97149500D01*
X158872475Y-97149500D01*
X158727525Y-97149500D01*
X158727523Y-97149500D01*
X158587518Y-97187014D01*
X158587513Y-97187016D01*
X158461984Y-97259491D01*
X158359491Y-97361984D01*
X158287016Y-97487513D01*
X158287014Y-97487518D01*
X158249500Y-97627522D01*
X158249500Y-97772477D01*
X158287014Y-97912481D01*
X158287016Y-97912486D01*
X158299316Y-97933789D01*
X158346783Y-98016005D01*
X158348864Y-98019608D01*
X158356257Y-98075760D01*
X158321778Y-98120694D01*
X158265626Y-98128087D01*
X158241282Y-98116475D01*
X158102997Y-98016006D01*
X158102995Y-98016005D01*
X158102996Y-98016005D01*
X158102994Y-98016004D01*
X157941639Y-97933789D01*
X157941638Y-97933788D01*
X157941635Y-97933787D01*
X157941636Y-97933787D01*
X157769419Y-97877831D01*
X157769406Y-97877828D01*
X157590547Y-97849500D01*
X157590546Y-97849500D01*
X157409454Y-97849500D01*
X157409453Y-97849500D01*
X157230593Y-97877828D01*
X157230580Y-97877831D01*
X157058364Y-97933787D01*
X156897004Y-98016005D01*
X156897003Y-98016005D01*
X156758719Y-98116475D01*
X156750499Y-98122447D01*
X156622447Y-98250499D01*
X156622444Y-98250502D01*
X156622444Y-98250503D01*
X156516005Y-98397003D01*
X156516005Y-98397004D01*
X156433787Y-98558364D01*
X156377831Y-98730580D01*
X156377828Y-98730593D01*
X156349500Y-98909453D01*
X152150499Y-98909453D01*
X152150499Y-98105136D01*
X152147585Y-98080009D01*
X152102206Y-97977235D01*
X152022765Y-97897794D01*
X151919991Y-97852415D01*
X151919990Y-97852414D01*
X151919988Y-97852414D01*
X151898659Y-97849940D01*
X151894865Y-97849500D01*
X151894864Y-97849500D01*
X150105136Y-97849500D01*
X150080013Y-97852414D01*
X150080007Y-97852415D01*
X149977234Y-97897794D01*
X149897794Y-97977234D01*
X149852414Y-98080011D01*
X149849500Y-98105135D01*
X133225673Y-98105135D01*
X133102997Y-98016006D01*
X133102996Y-98016005D01*
X132941635Y-97933787D01*
X132941636Y-97933787D01*
X132769419Y-97877831D01*
X132769406Y-97877828D01*
X132590547Y-97849500D01*
X132590546Y-97849500D01*
X132409454Y-97849500D01*
X132409453Y-97849500D01*
X132230593Y-97877828D01*
X132230580Y-97877831D01*
X132058364Y-97933787D01*
X131897004Y-98016005D01*
X131897003Y-98016005D01*
X131758719Y-98116475D01*
X131750499Y-98122447D01*
X131622447Y-98250499D01*
X131622444Y-98250502D01*
X131622444Y-98250503D01*
X131516005Y-98397003D01*
X131516005Y-98397004D01*
X131433787Y-98558364D01*
X131377831Y-98730580D01*
X131377828Y-98730593D01*
X131349500Y-98909453D01*
X127150499Y-98909453D01*
X127150499Y-98105136D01*
X127147585Y-98080009D01*
X127102206Y-97977235D01*
X127022765Y-97897794D01*
X126919991Y-97852415D01*
X126919990Y-97852414D01*
X126919988Y-97852414D01*
X126898659Y-97849940D01*
X126894865Y-97849500D01*
X126894864Y-97849500D01*
X125105136Y-97849500D01*
X125080013Y-97852414D01*
X125080007Y-97852415D01*
X124977234Y-97897794D01*
X124897794Y-97977234D01*
X124852414Y-98080011D01*
X124849500Y-98105135D01*
X108225673Y-98105135D01*
X108102997Y-98016006D01*
X108102996Y-98016005D01*
X107941635Y-97933787D01*
X107941636Y-97933787D01*
X107769419Y-97877831D01*
X107769406Y-97877828D01*
X107590547Y-97849500D01*
X107590546Y-97849500D01*
X107409454Y-97849500D01*
X107409453Y-97849500D01*
X107230593Y-97877828D01*
X107230580Y-97877831D01*
X107058364Y-97933787D01*
X106897004Y-98016005D01*
X106897003Y-98016005D01*
X106758719Y-98116475D01*
X106750499Y-98122447D01*
X106622447Y-98250499D01*
X106622444Y-98250502D01*
X106622444Y-98250503D01*
X106516005Y-98397003D01*
X106516005Y-98397004D01*
X106433787Y-98558364D01*
X106377831Y-98730580D01*
X106377828Y-98730593D01*
X106349500Y-98909453D01*
X102150499Y-98909453D01*
X102150499Y-98105136D01*
X102147585Y-98080009D01*
X102102206Y-97977235D01*
X102022765Y-97897794D01*
X101919991Y-97852415D01*
X101919990Y-97852414D01*
X101919988Y-97852414D01*
X101898659Y-97849940D01*
X101894865Y-97849500D01*
X101894864Y-97849500D01*
X100105136Y-97849500D01*
X100080013Y-97852414D01*
X100080007Y-97852415D01*
X99977234Y-97897794D01*
X99897794Y-97977234D01*
X99852414Y-98080011D01*
X99849500Y-98105135D01*
X80000000Y-98105135D01*
X80000000Y-96047396D01*
X86129500Y-96047396D01*
X86129500Y-96172603D01*
X86161904Y-96293535D01*
X86215875Y-96387016D01*
X86224505Y-96401964D01*
X86313036Y-96490495D01*
X86421464Y-96553095D01*
X86421463Y-96553095D01*
X86454641Y-96561985D01*
X86542396Y-96585499D01*
X86542397Y-96585500D01*
X86542399Y-96585500D01*
X86667603Y-96585500D01*
X86667603Y-96585499D01*
X86788536Y-96553095D01*
X86896964Y-96490495D01*
X86985495Y-96401964D01*
X87048095Y-96293536D01*
X87080499Y-96172603D01*
X87080500Y-96172603D01*
X87080500Y-96047397D01*
X87080499Y-96047396D01*
X87071143Y-96012481D01*
X87048095Y-95926464D01*
X86985495Y-95818036D01*
X86896964Y-95729505D01*
X86896963Y-95729504D01*
X86893530Y-95727522D01*
X88149500Y-95727522D01*
X88149500Y-95872477D01*
X88187014Y-96012481D01*
X88187016Y-96012486D01*
X88259491Y-96138015D01*
X88361985Y-96240509D01*
X88407694Y-96266899D01*
X88440628Y-96285914D01*
X88475107Y-96330848D01*
X88467714Y-96387000D01*
X88440628Y-96414086D01*
X88361984Y-96459491D01*
X88259491Y-96561984D01*
X88187016Y-96687513D01*
X88187014Y-96687518D01*
X88149500Y-96827522D01*
X88149500Y-96972477D01*
X88187014Y-97112481D01*
X88187016Y-97112486D01*
X88259491Y-97238015D01*
X88361985Y-97340509D01*
X88487515Y-97412984D01*
X88487516Y-97412984D01*
X88487518Y-97412985D01*
X88522935Y-97422475D01*
X88627522Y-97450499D01*
X88627523Y-97450500D01*
X88627525Y-97450500D01*
X88772477Y-97450500D01*
X88772477Y-97450499D01*
X88912485Y-97412984D01*
X89038015Y-97340509D01*
X89140509Y-97238015D01*
X89212984Y-97112485D01*
X89250499Y-96972477D01*
X89250500Y-96972477D01*
X89250500Y-96827523D01*
X89250499Y-96827522D01*
X89212985Y-96687518D01*
X89212983Y-96687513D01*
X89140508Y-96561984D01*
X89038015Y-96459491D01*
X89005137Y-96440509D01*
X88959370Y-96414085D01*
X88924892Y-96369153D01*
X88932285Y-96313000D01*
X88959371Y-96285914D01*
X89038015Y-96240509D01*
X89140509Y-96138015D01*
X89212984Y-96012485D01*
X89235750Y-95927522D01*
X89799500Y-95927522D01*
X89799500Y-96072477D01*
X89837014Y-96212481D01*
X89837016Y-96212486D01*
X89905353Y-96330848D01*
X89909491Y-96338015D01*
X90011985Y-96440509D01*
X90137515Y-96512984D01*
X90137516Y-96512984D01*
X90137518Y-96512985D01*
X90207520Y-96531742D01*
X90277522Y-96550499D01*
X90277523Y-96550500D01*
X90277525Y-96550500D01*
X90422477Y-96550500D01*
X90422477Y-96550499D01*
X90562485Y-96512984D01*
X90688015Y-96440509D01*
X90790509Y-96338015D01*
X90862984Y-96212485D01*
X90900499Y-96072477D01*
X90900500Y-96072477D01*
X90900500Y-95927523D01*
X90900499Y-95927522D01*
X93099500Y-95927522D01*
X93099500Y-96072477D01*
X93137014Y-96212481D01*
X93137016Y-96212486D01*
X93205353Y-96330848D01*
X93209491Y-96338015D01*
X93311985Y-96440509D01*
X93437515Y-96512984D01*
X93437516Y-96512984D01*
X93437518Y-96512985D01*
X93507520Y-96531742D01*
X93577522Y-96550499D01*
X93577523Y-96550500D01*
X93577525Y-96550500D01*
X93722477Y-96550500D01*
X93722477Y-96550499D01*
X93862485Y-96512984D01*
X93988015Y-96440509D01*
X94090509Y-96338015D01*
X94162984Y-96212485D01*
X94200499Y-96072477D01*
X94200500Y-96072477D01*
X94200500Y-95927523D01*
X94200499Y-95927522D01*
X94162985Y-95787518D01*
X94162983Y-95787513D01*
X94128347Y-95727522D01*
X94090509Y-95661985D01*
X93988015Y-95559491D01*
X93862486Y-95487016D01*
X93862481Y-95487014D01*
X93722477Y-95449500D01*
X93722475Y-95449500D01*
X93577525Y-95449500D01*
X93577523Y-95449500D01*
X93437518Y-95487014D01*
X93437513Y-95487016D01*
X93311984Y-95559491D01*
X93209491Y-95661984D01*
X93137016Y-95787513D01*
X93137014Y-95787518D01*
X93099500Y-95927522D01*
X90900499Y-95927522D01*
X90862985Y-95787518D01*
X90862983Y-95787513D01*
X90828347Y-95727522D01*
X90790509Y-95661985D01*
X90688015Y-95559491D01*
X90562486Y-95487016D01*
X90562481Y-95487014D01*
X90422477Y-95449500D01*
X90422475Y-95449500D01*
X90277525Y-95449500D01*
X90277523Y-95449500D01*
X90137518Y-95487014D01*
X90137513Y-95487016D01*
X90011984Y-95559491D01*
X89909491Y-95661984D01*
X89837016Y-95787513D01*
X89837014Y-95787518D01*
X89799500Y-95927522D01*
X89235750Y-95927522D01*
X89245207Y-95892226D01*
X89250500Y-95872476D01*
X89250500Y-95727523D01*
X89250499Y-95727522D01*
X89212985Y-95587518D01*
X89212983Y-95587513D01*
X89193563Y-95553876D01*
X89140509Y-95461985D01*
X89038015Y-95359491D01*
X88938073Y-95301789D01*
X88912486Y-95287016D01*
X88912481Y-95287014D01*
X88772477Y-95249500D01*
X88772475Y-95249500D01*
X88627525Y-95249500D01*
X88627523Y-95249500D01*
X88487518Y-95287014D01*
X88487513Y-95287016D01*
X88361984Y-95359491D01*
X88259491Y-95461984D01*
X88187016Y-95587513D01*
X88187014Y-95587518D01*
X88149500Y-95727522D01*
X86893530Y-95727522D01*
X86788534Y-95666904D01*
X86788536Y-95666904D01*
X86667603Y-95634500D01*
X86667601Y-95634500D01*
X86542399Y-95634500D01*
X86542397Y-95634500D01*
X86421464Y-95666904D01*
X86313036Y-95729504D01*
X86224504Y-95818036D01*
X86161904Y-95926464D01*
X86129500Y-96047396D01*
X80000000Y-96047396D01*
X80000000Y-94601159D01*
X81724500Y-94601159D01*
X81724500Y-94758840D01*
X81755261Y-94913491D01*
X81755264Y-94913501D01*
X81815603Y-95059174D01*
X81815605Y-95059177D01*
X81815606Y-95059179D01*
X81903211Y-95190289D01*
X82014711Y-95301789D01*
X82145821Y-95389394D01*
X82145826Y-95389396D01*
X82145825Y-95389396D01*
X82290931Y-95449500D01*
X82291503Y-95449737D01*
X82446158Y-95480500D01*
X82446160Y-95480500D01*
X83403840Y-95480500D01*
X83403842Y-95480500D01*
X83558497Y-95449737D01*
X83704179Y-95389394D01*
X83835289Y-95301789D01*
X83946789Y-95190289D01*
X84034394Y-95059179D01*
X84094737Y-94913497D01*
X84125500Y-94758842D01*
X84125500Y-94601159D01*
X85754500Y-94601159D01*
X85754500Y-94758840D01*
X85785261Y-94913491D01*
X85785264Y-94913501D01*
X85845603Y-95059174D01*
X85845605Y-95059177D01*
X85845606Y-95059179D01*
X85933211Y-95190289D01*
X86044711Y-95301789D01*
X86175821Y-95389394D01*
X86175826Y-95389396D01*
X86175825Y-95389396D01*
X86320931Y-95449500D01*
X86321503Y-95449737D01*
X86476158Y-95480500D01*
X86476160Y-95480500D01*
X87733840Y-95480500D01*
X87733842Y-95480500D01*
X87888497Y-95449737D01*
X88034179Y-95389394D01*
X88165289Y-95301789D01*
X88276789Y-95190289D01*
X88364394Y-95059179D01*
X88424737Y-94913497D01*
X88428951Y-94892312D01*
X88460416Y-94845219D01*
X88515964Y-94834169D01*
X88520682Y-94835269D01*
X88559249Y-94845602D01*
X88577522Y-94850499D01*
X88577523Y-94850500D01*
X88577525Y-94850500D01*
X88722477Y-94850500D01*
X88722477Y-94850499D01*
X88862485Y-94812984D01*
X88988015Y-94740509D01*
X89090509Y-94638015D01*
X89162984Y-94512485D01*
X89200499Y-94372477D01*
X89200500Y-94372477D01*
X89200500Y-94227523D01*
X89200499Y-94227522D01*
X89162985Y-94087518D01*
X89162983Y-94087513D01*
X89117561Y-94008841D01*
X89090509Y-93961985D01*
X88988015Y-93859491D01*
X88862486Y-93787016D01*
X88862481Y-93787014D01*
X88722477Y-93749500D01*
X88722475Y-93749500D01*
X88577525Y-93749500D01*
X88577523Y-93749500D01*
X88437518Y-93787014D01*
X88437513Y-93787016D01*
X88311984Y-93859491D01*
X88209488Y-93961988D01*
X88196598Y-93984314D01*
X88151663Y-94018791D01*
X88095511Y-94011397D01*
X88091409Y-94008846D01*
X88034179Y-93970606D01*
X88034175Y-93970604D01*
X88034173Y-93970603D01*
X88034174Y-93970603D01*
X87888501Y-93910264D01*
X87888491Y-93910261D01*
X87784925Y-93889661D01*
X87733842Y-93879500D01*
X86476158Y-93879500D01*
X86432315Y-93888220D01*
X86321508Y-93910261D01*
X86321498Y-93910264D01*
X86175825Y-93970603D01*
X86044711Y-94058210D01*
X86044710Y-94058212D01*
X85933212Y-94169710D01*
X85933210Y-94169711D01*
X85845603Y-94300825D01*
X85785264Y-94446498D01*
X85785261Y-94446508D01*
X85754500Y-94601159D01*
X84125500Y-94601159D01*
X84125500Y-94601158D01*
X84094737Y-94446503D01*
X84034394Y-94300821D01*
X83946789Y-94169711D01*
X83835289Y-94058211D01*
X83704179Y-93970606D01*
X83704175Y-93970604D01*
X83704173Y-93970603D01*
X83704174Y-93970603D01*
X83558501Y-93910264D01*
X83558491Y-93910261D01*
X83454925Y-93889661D01*
X83403842Y-93879500D01*
X82446158Y-93879500D01*
X82402315Y-93888220D01*
X82291508Y-93910261D01*
X82291498Y-93910264D01*
X82145825Y-93970603D01*
X82014711Y-94058210D01*
X82014710Y-94058212D01*
X81903212Y-94169710D01*
X81903210Y-94169711D01*
X81815603Y-94300825D01*
X81755264Y-94446498D01*
X81755261Y-94446508D01*
X81724500Y-94601159D01*
X80000000Y-94601159D01*
X80000000Y-92927522D01*
X129749500Y-92927522D01*
X129749500Y-93072477D01*
X129787014Y-93212481D01*
X129787016Y-93212486D01*
X129832063Y-93290508D01*
X129859491Y-93338015D01*
X129961985Y-93440509D01*
X130087515Y-93512984D01*
X130087516Y-93512984D01*
X130087518Y-93512985D01*
X130122935Y-93522475D01*
X130227522Y-93550499D01*
X130227523Y-93550500D01*
X130227525Y-93550500D01*
X130372477Y-93550500D01*
X130372477Y-93550499D01*
X130512485Y-93512984D01*
X130638015Y-93440509D01*
X130701002Y-93377522D01*
X169949500Y-93377522D01*
X169949500Y-93522477D01*
X169987014Y-93662481D01*
X169987016Y-93662486D01*
X170037254Y-93749500D01*
X170059491Y-93788015D01*
X170161985Y-93890509D01*
X170196200Y-93910263D01*
X170285784Y-93961985D01*
X170287515Y-93962984D01*
X170287516Y-93962984D01*
X170287518Y-93962985D01*
X170315949Y-93970603D01*
X170427522Y-94000499D01*
X170427523Y-94000500D01*
X170427525Y-94000500D01*
X170572477Y-94000500D01*
X170572477Y-94000499D01*
X170712485Y-93962984D01*
X170838015Y-93890509D01*
X170940509Y-93788015D01*
X171012984Y-93662485D01*
X171050499Y-93522477D01*
X171050500Y-93522477D01*
X171050500Y-93436107D01*
X171072174Y-93383781D01*
X171124500Y-93362107D01*
X171143653Y-93364629D01*
X171225526Y-93386566D01*
X171277522Y-93400499D01*
X171277523Y-93400500D01*
X171277525Y-93400500D01*
X171422477Y-93400500D01*
X171422477Y-93400499D01*
X171562485Y-93362984D01*
X171688015Y-93290509D01*
X171790509Y-93188015D01*
X171862984Y-93062485D01*
X171900499Y-92922477D01*
X171900500Y-92922477D01*
X171900500Y-92777523D01*
X171900499Y-92777522D01*
X171862985Y-92637518D01*
X171862983Y-92637513D01*
X171843563Y-92603876D01*
X171790509Y-92511985D01*
X171688015Y-92409491D01*
X171562486Y-92337016D01*
X171562481Y-92337014D01*
X171422477Y-92299500D01*
X171422475Y-92299500D01*
X171277525Y-92299500D01*
X171277523Y-92299500D01*
X171137518Y-92337014D01*
X171137513Y-92337016D01*
X171011984Y-92409491D01*
X170909491Y-92511984D01*
X170837016Y-92637513D01*
X170837014Y-92637518D01*
X170799500Y-92777522D01*
X170799500Y-92863892D01*
X170777826Y-92916218D01*
X170725500Y-92937892D01*
X170706348Y-92935371D01*
X170572475Y-92899500D01*
X170427525Y-92899500D01*
X170427523Y-92899500D01*
X170287518Y-92937014D01*
X170287513Y-92937016D01*
X170161984Y-93009491D01*
X170059491Y-93111984D01*
X169987016Y-93237513D01*
X169987014Y-93237518D01*
X169949500Y-93377522D01*
X130701002Y-93377522D01*
X130740509Y-93338015D01*
X130812984Y-93212485D01*
X130850499Y-93072477D01*
X130850500Y-93072477D01*
X130850500Y-92927523D01*
X130850499Y-92927522D01*
X130812985Y-92787518D01*
X130812983Y-92787513D01*
X130740508Y-92661984D01*
X130638015Y-92559491D01*
X130512486Y-92487016D01*
X130512481Y-92487014D01*
X130372477Y-92449500D01*
X130372475Y-92449500D01*
X130227525Y-92449500D01*
X130227523Y-92449500D01*
X130087518Y-92487014D01*
X130087513Y-92487016D01*
X129961984Y-92559491D01*
X129859491Y-92661984D01*
X129787016Y-92787513D01*
X129787014Y-92787518D01*
X129749500Y-92927522D01*
X80000000Y-92927522D01*
X80000000Y-91727522D01*
X101599500Y-91727522D01*
X101599500Y-91872477D01*
X101637014Y-92012481D01*
X101637016Y-92012486D01*
X101709491Y-92138015D01*
X101811985Y-92240509D01*
X101937515Y-92312984D01*
X101937516Y-92312984D01*
X101937518Y-92312985D01*
X102007520Y-92331742D01*
X102077522Y-92350499D01*
X102077523Y-92350500D01*
X102077525Y-92350500D01*
X102222477Y-92350500D01*
X102222477Y-92350499D01*
X102362485Y-92312984D01*
X102488015Y-92240509D01*
X102590509Y-92138015D01*
X102662984Y-92012485D01*
X102700499Y-91872477D01*
X102700500Y-91872477D01*
X102700500Y-91727523D01*
X102700499Y-91727522D01*
X105099500Y-91727522D01*
X105099500Y-91872477D01*
X105137014Y-92012481D01*
X105137016Y-92012486D01*
X105209491Y-92138015D01*
X105311985Y-92240509D01*
X105437515Y-92312984D01*
X105437516Y-92312984D01*
X105437518Y-92312985D01*
X105507520Y-92331742D01*
X105577522Y-92350499D01*
X105577523Y-92350500D01*
X105577525Y-92350500D01*
X105722477Y-92350500D01*
X105722477Y-92350499D01*
X105862485Y-92312984D01*
X105988015Y-92240509D01*
X106090509Y-92138015D01*
X106162984Y-92012485D01*
X106200499Y-91872477D01*
X106200500Y-91872477D01*
X106200500Y-91727523D01*
X106200499Y-91727522D01*
X106193258Y-91700500D01*
X106162984Y-91587515D01*
X106090509Y-91461985D01*
X106056046Y-91427522D01*
X132599500Y-91427522D01*
X132599500Y-91572477D01*
X132637014Y-91712481D01*
X132637016Y-91712486D01*
X132680336Y-91787518D01*
X132709491Y-91838015D01*
X132811985Y-91940509D01*
X132903876Y-91993563D01*
X132936650Y-92012485D01*
X132937515Y-92012984D01*
X132937516Y-92012984D01*
X132937518Y-92012985D01*
X133007520Y-92031742D01*
X133077522Y-92050499D01*
X133077523Y-92050500D01*
X133077525Y-92050500D01*
X133222477Y-92050500D01*
X133222477Y-92050499D01*
X133362485Y-92012984D01*
X133488015Y-91940509D01*
X133501002Y-91927522D01*
X168049500Y-91927522D01*
X168049500Y-92072477D01*
X168087014Y-92212481D01*
X168087016Y-92212486D01*
X168137254Y-92299500D01*
X168159491Y-92338015D01*
X168261985Y-92440509D01*
X168277558Y-92449500D01*
X168385784Y-92511985D01*
X168387515Y-92512984D01*
X168387516Y-92512984D01*
X168387518Y-92512985D01*
X168457520Y-92531742D01*
X168527522Y-92550499D01*
X168527523Y-92550500D01*
X168527525Y-92550500D01*
X168672477Y-92550500D01*
X168672477Y-92550499D01*
X168812485Y-92512984D01*
X168938015Y-92440509D01*
X169040509Y-92338015D01*
X169112984Y-92212485D01*
X169150499Y-92072477D01*
X169150500Y-92072477D01*
X169150500Y-91927523D01*
X169150499Y-91927522D01*
X169112985Y-91787518D01*
X169112983Y-91787513D01*
X169069663Y-91712481D01*
X169040509Y-91661985D01*
X168938015Y-91559491D01*
X168812486Y-91487016D01*
X168812481Y-91487014D01*
X168672477Y-91449500D01*
X168672475Y-91449500D01*
X168527525Y-91449500D01*
X168527523Y-91449500D01*
X168387518Y-91487014D01*
X168387513Y-91487016D01*
X168261984Y-91559491D01*
X168159491Y-91661984D01*
X168087016Y-91787513D01*
X168087014Y-91787518D01*
X168049500Y-91927522D01*
X133501002Y-91927522D01*
X133590509Y-91838015D01*
X133662984Y-91712485D01*
X133700499Y-91572477D01*
X133700500Y-91572477D01*
X133700500Y-91427523D01*
X133700499Y-91427522D01*
X133662985Y-91287518D01*
X133662983Y-91287513D01*
X133590508Y-91161984D01*
X133506046Y-91077522D01*
X180999500Y-91077522D01*
X180999500Y-91222477D01*
X181037014Y-91362481D01*
X181037016Y-91362486D01*
X181108913Y-91487014D01*
X181109491Y-91488015D01*
X181211985Y-91590509D01*
X181303876Y-91643563D01*
X181335784Y-91661985D01*
X181337515Y-91662984D01*
X181337516Y-91662984D01*
X181337518Y-91662985D01*
X181407520Y-91681742D01*
X181477522Y-91700499D01*
X181477523Y-91700500D01*
X181477525Y-91700500D01*
X181622477Y-91700500D01*
X181622477Y-91700499D01*
X181762485Y-91662984D01*
X181888015Y-91590509D01*
X181990509Y-91488015D01*
X182062984Y-91362485D01*
X182100499Y-91222477D01*
X182100500Y-91222477D01*
X182100500Y-91077523D01*
X182100499Y-91077522D01*
X182062985Y-90937518D01*
X182062983Y-90937513D01*
X181990508Y-90811984D01*
X181888015Y-90709491D01*
X181762486Y-90637016D01*
X181762481Y-90637014D01*
X181622477Y-90599500D01*
X181622475Y-90599500D01*
X181477525Y-90599500D01*
X181477523Y-90599500D01*
X181337518Y-90637014D01*
X181337513Y-90637016D01*
X181211984Y-90709491D01*
X181109491Y-90811984D01*
X181037016Y-90937513D01*
X181037014Y-90937518D01*
X180999500Y-91077522D01*
X133506046Y-91077522D01*
X133488015Y-91059491D01*
X133362486Y-90987016D01*
X133362481Y-90987014D01*
X133222477Y-90949500D01*
X133222475Y-90949500D01*
X133077525Y-90949500D01*
X133077523Y-90949500D01*
X132937518Y-90987014D01*
X132937513Y-90987016D01*
X132811984Y-91059491D01*
X132709491Y-91161984D01*
X132637016Y-91287513D01*
X132637014Y-91287518D01*
X132599500Y-91427522D01*
X106056046Y-91427522D01*
X105988015Y-91359491D01*
X105972442Y-91350500D01*
X105862486Y-91287016D01*
X105862481Y-91287014D01*
X105722477Y-91249500D01*
X105722475Y-91249500D01*
X105577525Y-91249500D01*
X105577523Y-91249500D01*
X105437518Y-91287014D01*
X105437513Y-91287016D01*
X105311984Y-91359491D01*
X105209491Y-91461984D01*
X105137016Y-91587513D01*
X105137014Y-91587518D01*
X105099500Y-91727522D01*
X102700499Y-91727522D01*
X102693258Y-91700500D01*
X102662984Y-91587515D01*
X102590509Y-91461985D01*
X102488015Y-91359491D01*
X102472442Y-91350500D01*
X102362486Y-91287016D01*
X102362481Y-91287014D01*
X102222477Y-91249500D01*
X102222475Y-91249500D01*
X102077525Y-91249500D01*
X102077523Y-91249500D01*
X101937518Y-91287014D01*
X101937513Y-91287016D01*
X101811984Y-91359491D01*
X101709491Y-91461984D01*
X101637016Y-91587513D01*
X101637014Y-91587518D01*
X101599500Y-91727522D01*
X80000000Y-91727522D01*
X80000000Y-90477522D01*
X106299500Y-90477522D01*
X106299500Y-90622477D01*
X106337014Y-90762481D01*
X106337016Y-90762486D01*
X106365594Y-90811984D01*
X106409491Y-90888015D01*
X106511985Y-90990509D01*
X106637515Y-91062984D01*
X106637516Y-91062984D01*
X106637518Y-91062985D01*
X106691782Y-91077525D01*
X106777522Y-91100499D01*
X106777523Y-91100500D01*
X106777525Y-91100500D01*
X106922477Y-91100500D01*
X106922477Y-91100499D01*
X107062485Y-91062984D01*
X107188015Y-90990509D01*
X107290509Y-90888015D01*
X107362984Y-90762485D01*
X107372352Y-90727525D01*
X107372353Y-90727522D01*
X109599500Y-90727522D01*
X109599500Y-90872477D01*
X109637014Y-91012481D01*
X109637016Y-91012486D01*
X109709491Y-91138015D01*
X109811985Y-91240509D01*
X109937515Y-91312984D01*
X109937516Y-91312984D01*
X109937518Y-91312985D01*
X110007520Y-91331742D01*
X110077522Y-91350499D01*
X110077523Y-91350500D01*
X110077525Y-91350500D01*
X110222477Y-91350500D01*
X110222477Y-91350499D01*
X110362485Y-91312984D01*
X110488015Y-91240509D01*
X110590509Y-91138015D01*
X110662984Y-91012485D01*
X110700499Y-90872477D01*
X110700500Y-90872477D01*
X110700500Y-90727523D01*
X110700499Y-90727522D01*
X110662985Y-90587518D01*
X110662983Y-90587513D01*
X110590508Y-90461984D01*
X110488015Y-90359491D01*
X110362486Y-90287016D01*
X110362481Y-90287014D01*
X110222477Y-90249500D01*
X110222475Y-90249500D01*
X110077525Y-90249500D01*
X110077523Y-90249500D01*
X109937518Y-90287014D01*
X109937513Y-90287016D01*
X109811984Y-90359491D01*
X109709491Y-90461984D01*
X109637016Y-90587513D01*
X109637014Y-90587518D01*
X109599500Y-90727522D01*
X107372353Y-90727522D01*
X107378784Y-90703522D01*
X107392053Y-90653997D01*
X107400499Y-90622477D01*
X107400500Y-90622477D01*
X107400500Y-90477523D01*
X107400499Y-90477522D01*
X107362985Y-90337518D01*
X107362983Y-90337513D01*
X107290508Y-90211984D01*
X107188015Y-90109491D01*
X107062486Y-90037016D01*
X107062481Y-90037014D01*
X106922477Y-89999500D01*
X106922475Y-89999500D01*
X106777525Y-89999500D01*
X106777523Y-89999500D01*
X106637518Y-90037014D01*
X106637513Y-90037016D01*
X106511984Y-90109491D01*
X106409491Y-90211984D01*
X106337016Y-90337513D01*
X106337014Y-90337518D01*
X106299500Y-90477522D01*
X80000000Y-90477522D01*
X80000000Y-89177522D01*
X106299500Y-89177522D01*
X106299500Y-89322477D01*
X106337014Y-89462481D01*
X106337016Y-89462486D01*
X106400519Y-89572475D01*
X106409491Y-89588015D01*
X106511985Y-89690509D01*
X106637515Y-89762984D01*
X106637516Y-89762984D01*
X106637518Y-89762985D01*
X106707520Y-89781742D01*
X106777522Y-89800499D01*
X106777523Y-89800500D01*
X106777525Y-89800500D01*
X106922477Y-89800500D01*
X106922477Y-89800499D01*
X107062485Y-89762984D01*
X107188015Y-89690509D01*
X107290509Y-89588015D01*
X107362984Y-89462485D01*
X107372352Y-89427525D01*
X107372353Y-89427522D01*
X115599500Y-89427522D01*
X115599500Y-89572477D01*
X115637014Y-89712481D01*
X115637016Y-89712486D01*
X115709491Y-89838015D01*
X115811985Y-89940509D01*
X115937515Y-90012984D01*
X115937516Y-90012984D01*
X115937518Y-90012985D01*
X116007520Y-90031742D01*
X116077522Y-90050499D01*
X116077523Y-90050500D01*
X116077525Y-90050500D01*
X116222477Y-90050500D01*
X116222477Y-90050499D01*
X116362485Y-90012984D01*
X116488015Y-89940509D01*
X116590509Y-89838015D01*
X116662984Y-89712485D01*
X116700499Y-89572477D01*
X116700500Y-89572477D01*
X116700500Y-89427523D01*
X116700499Y-89427522D01*
X116662985Y-89287518D01*
X116662983Y-89287513D01*
X116590508Y-89161984D01*
X116488015Y-89059491D01*
X116362486Y-88987016D01*
X116362481Y-88987014D01*
X116222477Y-88949500D01*
X116222475Y-88949500D01*
X116077525Y-88949500D01*
X116077523Y-88949500D01*
X115937518Y-88987014D01*
X115937513Y-88987016D01*
X115811984Y-89059491D01*
X115709491Y-89161984D01*
X115637016Y-89287513D01*
X115637014Y-89287518D01*
X115599500Y-89427522D01*
X107372353Y-89427522D01*
X107378784Y-89403522D01*
X107400499Y-89322477D01*
X107400500Y-89322477D01*
X107400500Y-89177523D01*
X107400499Y-89177522D01*
X107362985Y-89037518D01*
X107362983Y-89037513D01*
X107290508Y-88911984D01*
X107188015Y-88809491D01*
X107062486Y-88737016D01*
X107062481Y-88737014D01*
X106922477Y-88699500D01*
X106922475Y-88699500D01*
X106777525Y-88699500D01*
X106777523Y-88699500D01*
X106637518Y-88737014D01*
X106637513Y-88737016D01*
X106511984Y-88809491D01*
X106409491Y-88911984D01*
X106337016Y-89037513D01*
X106337014Y-89037518D01*
X106299500Y-89177522D01*
X80000000Y-89177522D01*
X80000000Y-83849218D01*
X88699500Y-83849218D01*
X88699500Y-84150781D01*
X88738861Y-84449766D01*
X88816912Y-84741054D01*
X88816914Y-84741061D01*
X88932313Y-85019659D01*
X88932316Y-85019667D01*
X89083097Y-85280828D01*
X89083101Y-85280834D01*
X89266681Y-85520080D01*
X89479919Y-85733318D01*
X89719165Y-85916898D01*
X89719171Y-85916902D01*
X89737571Y-85927525D01*
X89980332Y-86067683D01*
X90258942Y-86183087D01*
X90550232Y-86261138D01*
X90849217Y-86300500D01*
X90849219Y-86300500D01*
X91150781Y-86300500D01*
X91150783Y-86300500D01*
X91449768Y-86261138D01*
X91741058Y-86183087D01*
X92019668Y-86067683D01*
X92262434Y-85927522D01*
X102874500Y-85927522D01*
X102874500Y-86072477D01*
X102912014Y-86212481D01*
X102912016Y-86212486D01*
X102984491Y-86338015D01*
X103086985Y-86440509D01*
X103212515Y-86512984D01*
X103212516Y-86512984D01*
X103212518Y-86512985D01*
X103282520Y-86531742D01*
X103352522Y-86550499D01*
X103352523Y-86550500D01*
X103466817Y-86550500D01*
X103519143Y-86572174D01*
X103540817Y-86624500D01*
X103530903Y-86661500D01*
X103487016Y-86737513D01*
X103487014Y-86737518D01*
X103449500Y-86877522D01*
X103449500Y-87022477D01*
X103487014Y-87162481D01*
X103487016Y-87162486D01*
X103559491Y-87288015D01*
X103661985Y-87390509D01*
X103787515Y-87462984D01*
X103787516Y-87462984D01*
X103787518Y-87462985D01*
X103857520Y-87481742D01*
X103927522Y-87500499D01*
X103927523Y-87500500D01*
X103927525Y-87500500D01*
X104072477Y-87500500D01*
X104072477Y-87500499D01*
X104212485Y-87462984D01*
X104338015Y-87390509D01*
X104440509Y-87288015D01*
X104512984Y-87162485D01*
X104550499Y-87022477D01*
X104550500Y-87022477D01*
X104550500Y-86877525D01*
X104543614Y-86851826D01*
X104543614Y-86851824D01*
X104539457Y-86836310D01*
X119099500Y-86836310D01*
X119099500Y-87563689D01*
X119134104Y-87737660D01*
X119134107Y-87737670D01*
X119201985Y-87901544D01*
X119201986Y-87901546D01*
X119201987Y-87901547D01*
X119300536Y-88049035D01*
X119425965Y-88174464D01*
X119573453Y-88273013D01*
X119573454Y-88273013D01*
X119573455Y-88273014D01*
X119737329Y-88340892D01*
X119737334Y-88340894D01*
X119911309Y-88375500D01*
X119911311Y-88375500D01*
X120088689Y-88375500D01*
X120088691Y-88375500D01*
X120262666Y-88340894D01*
X120426547Y-88273013D01*
X120574035Y-88174464D01*
X120699464Y-88049035D01*
X120798013Y-87901547D01*
X120811865Y-87868104D01*
X121099499Y-87868104D01*
X121110123Y-87956563D01*
X121165638Y-88097341D01*
X121224123Y-88174464D01*
X121257078Y-88217922D01*
X121377658Y-88309361D01*
X121518436Y-88364877D01*
X121589764Y-88373442D01*
X121606896Y-88375500D01*
X121606898Y-88375500D01*
X122393104Y-88375500D01*
X122408722Y-88373624D01*
X122481564Y-88364877D01*
X122622342Y-88309361D01*
X122742922Y-88217922D01*
X122834361Y-88097342D01*
X122889877Y-87956564D01*
X122900500Y-87868102D01*
X122900500Y-86531898D01*
X122889877Y-86443436D01*
X122834361Y-86302658D01*
X122742922Y-86182078D01*
X122670272Y-86126985D01*
X122622341Y-86090638D01*
X122537079Y-86057015D01*
X122481564Y-86035123D01*
X122452076Y-86031582D01*
X122393104Y-86024500D01*
X122393102Y-86024500D01*
X121606898Y-86024500D01*
X121606896Y-86024500D01*
X121518436Y-86035123D01*
X121377658Y-86090638D01*
X121257078Y-86182077D01*
X121257077Y-86182078D01*
X121165638Y-86302658D01*
X121110123Y-86443436D01*
X121102191Y-86509491D01*
X121099500Y-86531898D01*
X121099500Y-87868102D01*
X121099500Y-87868104D01*
X121099499Y-87868104D01*
X120811865Y-87868104D01*
X120865894Y-87737666D01*
X120900500Y-87563691D01*
X120900500Y-86836309D01*
X120865894Y-86662334D01*
X120845039Y-86611985D01*
X120822680Y-86558004D01*
X120798014Y-86498455D01*
X120761251Y-86443436D01*
X120699464Y-86350965D01*
X120574035Y-86225536D01*
X120554504Y-86212486D01*
X120426544Y-86126985D01*
X120262670Y-86059107D01*
X120262660Y-86059104D01*
X120142096Y-86035123D01*
X120088691Y-86024500D01*
X119911309Y-86024500D01*
X119861989Y-86034310D01*
X119737339Y-86059104D01*
X119737329Y-86059107D01*
X119573455Y-86126985D01*
X119425968Y-86225533D01*
X119300533Y-86350968D01*
X119201985Y-86498455D01*
X119134107Y-86662329D01*
X119134104Y-86662339D01*
X119099500Y-86836310D01*
X104539457Y-86836310D01*
X104512985Y-86737518D01*
X104512983Y-86737513D01*
X104469097Y-86661500D01*
X104461705Y-86605347D01*
X104496183Y-86560414D01*
X104533183Y-86550500D01*
X104647477Y-86550500D01*
X104647477Y-86550499D01*
X104787485Y-86512984D01*
X104913015Y-86440509D01*
X105015509Y-86338015D01*
X105087984Y-86212485D01*
X105125499Y-86072477D01*
X105125500Y-86072477D01*
X105125500Y-85927523D01*
X105125499Y-85927522D01*
X107249500Y-85927522D01*
X107249500Y-86072477D01*
X107287014Y-86212481D01*
X107287016Y-86212486D01*
X107359491Y-86338015D01*
X107461985Y-86440509D01*
X107587515Y-86512984D01*
X107587516Y-86512984D01*
X107587518Y-86512985D01*
X107657520Y-86531742D01*
X107727522Y-86550499D01*
X107727523Y-86550500D01*
X107727525Y-86550500D01*
X107872477Y-86550500D01*
X107872477Y-86550499D01*
X108012485Y-86512984D01*
X108138015Y-86440509D01*
X108240509Y-86338015D01*
X108312984Y-86212485D01*
X108350499Y-86072477D01*
X108350500Y-86072477D01*
X108350500Y-85927523D01*
X108350499Y-85927522D01*
X108347653Y-85916902D01*
X108312984Y-85787515D01*
X108240509Y-85661985D01*
X108138015Y-85559491D01*
X108012486Y-85487016D01*
X108012481Y-85487014D01*
X107872477Y-85449500D01*
X107872475Y-85449500D01*
X107727525Y-85449500D01*
X107727523Y-85449500D01*
X107587518Y-85487014D01*
X107587513Y-85487016D01*
X107461984Y-85559491D01*
X107359491Y-85661984D01*
X107287016Y-85787513D01*
X107287014Y-85787518D01*
X107249500Y-85927522D01*
X105125499Y-85927522D01*
X105122653Y-85916902D01*
X105087984Y-85787515D01*
X105015509Y-85661985D01*
X104913015Y-85559491D01*
X104787486Y-85487016D01*
X104787481Y-85487014D01*
X104647477Y-85449500D01*
X104647475Y-85449500D01*
X104533183Y-85449500D01*
X104480857Y-85427826D01*
X104459183Y-85375500D01*
X104469097Y-85338500D01*
X104502391Y-85280832D01*
X104512984Y-85262485D01*
X104550499Y-85122477D01*
X104550500Y-85122477D01*
X104550500Y-84977523D01*
X104550499Y-84977522D01*
X104512985Y-84837518D01*
X104512983Y-84837513D01*
X104440798Y-84712486D01*
X104440509Y-84711985D01*
X104338015Y-84609491D01*
X104212486Y-84537016D01*
X104212481Y-84537014D01*
X104072477Y-84499500D01*
X104072475Y-84499500D01*
X103927525Y-84499500D01*
X103927523Y-84499500D01*
X103787518Y-84537014D01*
X103787513Y-84537016D01*
X103661984Y-84609491D01*
X103559491Y-84711984D01*
X103487016Y-84837513D01*
X103487014Y-84837518D01*
X103449500Y-84977522D01*
X103449500Y-85122477D01*
X103487014Y-85262481D01*
X103487016Y-85262486D01*
X103530903Y-85338500D01*
X103538295Y-85394653D01*
X103503817Y-85439586D01*
X103466817Y-85449500D01*
X103352523Y-85449500D01*
X103212518Y-85487014D01*
X103212513Y-85487016D01*
X103086984Y-85559491D01*
X102984491Y-85661984D01*
X102912016Y-85787513D01*
X102912014Y-85787518D01*
X102874500Y-85927522D01*
X92262434Y-85927522D01*
X92280832Y-85916900D01*
X92520080Y-85733319D01*
X92733319Y-85520080D01*
X92916900Y-85280832D01*
X93067683Y-85019668D01*
X93183087Y-84741058D01*
X93261138Y-84449768D01*
X93262759Y-84437450D01*
X93264067Y-84427522D01*
X115599500Y-84427522D01*
X115599500Y-84572477D01*
X115637014Y-84712481D01*
X115637016Y-84712486D01*
X115653514Y-84741061D01*
X115709491Y-84838015D01*
X115811985Y-84940509D01*
X115937515Y-85012984D01*
X115937516Y-85012984D01*
X115937518Y-85012985D01*
X116007520Y-85031742D01*
X116077522Y-85050499D01*
X116077523Y-85050500D01*
X116077525Y-85050500D01*
X116222477Y-85050500D01*
X116222477Y-85050499D01*
X116362485Y-85012984D01*
X116488015Y-84940509D01*
X116590509Y-84838015D01*
X116662984Y-84712485D01*
X116700499Y-84572477D01*
X116700500Y-84572477D01*
X116700500Y-84427523D01*
X116700499Y-84427522D01*
X116662985Y-84287518D01*
X116662983Y-84287513D01*
X116590508Y-84161984D01*
X116488015Y-84059491D01*
X116362486Y-83987016D01*
X116362481Y-83987014D01*
X116222477Y-83949500D01*
X116222475Y-83949500D01*
X116077525Y-83949500D01*
X116077523Y-83949500D01*
X115937518Y-83987014D01*
X115937513Y-83987016D01*
X115811984Y-84059491D01*
X115709491Y-84161984D01*
X115637016Y-84287513D01*
X115637014Y-84287518D01*
X115599500Y-84427522D01*
X93264067Y-84427522D01*
X93265977Y-84413016D01*
X93300500Y-84150781D01*
X93300500Y-83849218D01*
X177199500Y-83849218D01*
X177199500Y-84150781D01*
X177238861Y-84449766D01*
X177316912Y-84741054D01*
X177316914Y-84741061D01*
X177432313Y-85019659D01*
X177432316Y-85019667D01*
X177583097Y-85280828D01*
X177583101Y-85280834D01*
X177766681Y-85520080D01*
X177979919Y-85733318D01*
X178219165Y-85916898D01*
X178219171Y-85916902D01*
X178237571Y-85927525D01*
X178480332Y-86067683D01*
X178758942Y-86183087D01*
X179050232Y-86261138D01*
X179349217Y-86300500D01*
X179349219Y-86300500D01*
X179650781Y-86300500D01*
X179650783Y-86300500D01*
X179949768Y-86261138D01*
X180241058Y-86183087D01*
X180519668Y-86067683D01*
X180780832Y-85916900D01*
X181020080Y-85733319D01*
X181233319Y-85520080D01*
X181416900Y-85280832D01*
X181567683Y-85019668D01*
X181683087Y-84741058D01*
X181761138Y-84449768D01*
X181800500Y-84150783D01*
X181800500Y-83849217D01*
X181761138Y-83550232D01*
X181683087Y-83258942D01*
X181567683Y-82980332D01*
X181416900Y-82719168D01*
X181233319Y-82479920D01*
X181020080Y-82266681D01*
X180780834Y-82083101D01*
X180780828Y-82083097D01*
X180519667Y-81932316D01*
X180519659Y-81932313D01*
X180241061Y-81816914D01*
X180241059Y-81816913D01*
X180241058Y-81816913D01*
X180202028Y-81806455D01*
X179949766Y-81738861D01*
X179729505Y-81709863D01*
X179650783Y-81699500D01*
X179349217Y-81699500D01*
X179279653Y-81708658D01*
X179050233Y-81738861D01*
X178758945Y-81816912D01*
X178758938Y-81816914D01*
X178480340Y-81932313D01*
X178480332Y-81932316D01*
X178219171Y-82083097D01*
X178219165Y-82083101D01*
X177979919Y-82266681D01*
X177766681Y-82479919D01*
X177583101Y-82719165D01*
X177583097Y-82719171D01*
X177432316Y-82980332D01*
X177432313Y-82980340D01*
X177316914Y-83258938D01*
X177316912Y-83258945D01*
X177238861Y-83550233D01*
X177199500Y-83849218D01*
X93300500Y-83849218D01*
X93261138Y-83550233D01*
X93261138Y-83550232D01*
X93183087Y-83258942D01*
X93067683Y-82980332D01*
X92916900Y-82719168D01*
X92733319Y-82479920D01*
X92520080Y-82266681D01*
X92280834Y-82083101D01*
X92280828Y-82083097D01*
X92019667Y-81932316D01*
X92019659Y-81932313D01*
X91741061Y-81816914D01*
X91741059Y-81816913D01*
X91741058Y-81816913D01*
X91702028Y-81806455D01*
X91449766Y-81738861D01*
X91229505Y-81709863D01*
X91150783Y-81699500D01*
X90849217Y-81699500D01*
X90779653Y-81708658D01*
X90550233Y-81738861D01*
X90258945Y-81816912D01*
X90258938Y-81816914D01*
X89980340Y-81932313D01*
X89980332Y-81932316D01*
X89719171Y-82083097D01*
X89719165Y-82083101D01*
X89479919Y-82266681D01*
X89266681Y-82479919D01*
X89083101Y-82719165D01*
X89083097Y-82719171D01*
X88932316Y-82980332D01*
X88932313Y-82980340D01*
X88816914Y-83258938D01*
X88816912Y-83258945D01*
X88738861Y-83550233D01*
X88699500Y-83849218D01*
X80000000Y-83849218D01*
X80000000Y-81074000D01*
X80021674Y-81021674D01*
X80074000Y-81000000D01*
X184176000Y-81000000D01*
X184228326Y-81021674D01*
G37*
%TD.AperFunction*%
%TD*%
M02*
