%TF.GenerationSoftware,KiCad,Pcbnew,10.0.6*%
%TF.CreationDate,2026-10-03T07:34:57-06:00*%
%TF.ProjectId,RB_Switch,52425f53-7769-4746-9368-2e6b69636164,rev?*%
%TF.SameCoordinates,Original*%
%TF.FileFunction,Copper,L1,Top*%
%TF.FilePolarity,Positive*%
%FSLAX46Y46*%
G04 Gerber Fmt 4.6, Leading zero omitted, Abs format (unit mm)*
G04 Created by KiCad (PCBNEW 10.0.6) date 2026-10-03 07:34:57*
%MOMM*%
%LPD*%
G01*
G04 APERTURE LIST*
G04 Aperture macros list*
%AMRoundRect*
0 Rectangle with rounded corners*
0 $1 Rounding radius*
0 $2 $3 $4 $5 $6 $7 $8 $9 X,Y pos of 4 corners*
0 Add a 4 corners polygon primitive as box body*
4,1,4,$2,$3,$4,$5,$6,$7,$8,$9,$2,$3,0*
0 Add four circle primitives for the rounded corners*
1,1,$1+$1,$2,$3*
1,1,$1+$1,$4,$5*
1,1,$1+$1,$6,$7*
1,1,$1+$1,$8,$9*
0 Add four rect primitives between the rounded corners*
20,1,$1+$1,$2,$3,$4,$5,0*
20,1,$1+$1,$4,$5,$6,$7,0*
20,1,$1+$1,$6,$7,$8,$9,0*
20,1,$1+$1,$8,$9,$2,$3,0*%
%AMOutline5P*
0 Free polygon, 5 corners , with rotation*
0 The origin of the aperture is its center*
0 number of corners: always 5*
0 $1 to $10 corner X, Y*
0 $11 Rotation angle, in degrees counterclockwise*
0 create outline with 5 corners*
4,1,5,$1,$2,$3,$4,$5,$6,$7,$8,$9,$10,$1,$2,$11*%
%AMOutline6P*
0 Free polygon, 6 corners , with rotation*
0 The origin of the aperture is its center*
0 number of corners: always 6*
0 $1 to $12 corner X, Y*
0 $13 Rotation angle, in degrees counterclockwise*
0 create outline with 6 corners*
4,1,6,$1,$2,$3,$4,$5,$6,$7,$8,$9,$10,$11,$12,$1,$2,$13*%
%AMOutline7P*
0 Free polygon, 7 corners , with rotation*
0 The origin of the aperture is its center*
0 number of corners: always 7*
0 $1 to $14 corner X, Y*
0 $15 Rotation angle, in degrees counterclockwise*
0 create outline with 7 corners*
4,1,7,$1,$2,$3,$4,$5,$6,$7,$8,$9,$10,$11,$12,$13,$14,$1,$2,$15*%
%AMOutline8P*
0 Free polygon, 8 corners , with rotation*
0 The origin of the aperture is its center*
0 number of corners: always 8*
0 $1 to $16 corner X, Y*
0 $17 Rotation angle, in degrees counterclockwise*
0 create outline with 8 corners*
4,1,8,$1,$2,$3,$4,$5,$6,$7,$8,$9,$10,$11,$12,$13,$14,$15,$16,$1,$2,$17*%
%AMFreePoly0*
4,1,21,-0.125000,1.200000,0.125000,1.200000,0.125000,1.700000,0.375000,1.700000,0.375000,1.200000,0.825000,1.200000,0.825000,-1.200000,0.375000,-1.200000,0.375000,-1.700000,0.125000,-1.700000,0.125000,-1.200000,-0.125000,-1.200000,-0.125000,-1.700000,-0.375000,-1.700000,-0.375000,-1.200000,-0.825000,-1.200000,-0.825000,1.200000,-0.375000,1.200000,-0.375000,1.700000,-0.125000,1.700000,
-0.125000,1.200000,-0.125000,1.200000,$1*%
G04 Aperture macros list end*
%TA.AperFunction,SMDPad,CuDef*%
%ADD10RoundRect,0.200000X-0.200000X-0.275000X0.200000X-0.275000X0.200000X0.275000X-0.200000X0.275000X0*%
%TD*%
%TA.AperFunction,SMDPad,CuDef*%
%ADD11RoundRect,0.218750X-0.218750X-0.256250X0.218750X-0.256250X0.218750X0.256250X-0.218750X0.256250X0*%
%TD*%
%TA.AperFunction,SMDPad,CuDef*%
%ADD12RoundRect,0.150000X-0.512500X-0.150000X0.512500X-0.150000X0.512500X0.150000X-0.512500X0.150000X0*%
%TD*%
%TA.AperFunction,SMDPad,CuDef*%
%ADD13R,0.400000X0.800000*%
%TD*%
%TA.AperFunction,SMDPad,CuDef*%
%ADD14R,0.800000X0.400000*%
%TD*%
%TA.AperFunction,HeatsinkPad*%
%ADD15Outline5P,-0.600000X0.204000X-0.204000X0.600000X0.600000X0.600000X0.600000X-0.600000X-0.600000X-0.600000X270.000000*%
%TD*%
%TA.AperFunction,HeatsinkPad*%
%ADD16R,1.200000X1.200000*%
%TD*%
%TA.AperFunction,SMDPad,CuDef*%
%ADD17R,0.800000X0.800000*%
%TD*%
%TA.AperFunction,SMDPad,CuDef*%
%ADD18RoundRect,0.225000X-0.225000X-0.250000X0.225000X-0.250000X0.225000X0.250000X-0.225000X0.250000X0*%
%TD*%
%TA.AperFunction,ComponentPad*%
%ADD19R,1.700000X1.700000*%
%TD*%
%TA.AperFunction,ComponentPad*%
%ADD20C,1.700000*%
%TD*%
%TA.AperFunction,SMDPad,CuDef*%
%ADD21R,0.900000X1.700000*%
%TD*%
%TA.AperFunction,ComponentPad*%
%ADD22RoundRect,0.250000X0.350000X0.625000X-0.350000X0.625000X-0.350000X-0.625000X0.350000X-0.625000X0*%
%TD*%
%TA.AperFunction,ComponentPad*%
%ADD23O,1.200000X1.750000*%
%TD*%
%TA.AperFunction,SMDPad,CuDef*%
%ADD24RoundRect,0.060000X-0.240000X-0.060000X0.240000X-0.060000X0.240000X0.060000X-0.240000X0.060000X0*%
%TD*%
%TA.AperFunction,SMDPad,CuDef*%
%ADD25FreePoly0,0.000000*%
%TD*%
%TA.AperFunction,SMDPad,CuDef*%
%ADD26RoundRect,0.150000X-0.425000X0.150000X-0.425000X-0.150000X0.425000X-0.150000X0.425000X0.150000X0*%
%TD*%
%TA.AperFunction,SMDPad,CuDef*%
%ADD27RoundRect,0.075000X-0.500000X0.075000X-0.500000X-0.075000X0.500000X-0.075000X0.500000X0.075000X0*%
%TD*%
%TA.AperFunction,ComponentPad*%
%ADD28O,2.100000X1.000000*%
%TD*%
%TA.AperFunction,ComponentPad*%
%ADD29O,1.800000X1.000000*%
%TD*%
%TA.AperFunction,SMDPad,CuDef*%
%ADD30R,3.600000X1.500000*%
%TD*%
%TA.AperFunction,ViaPad*%
%ADD31C,0.500000*%
%TD*%
%TA.AperFunction,Conductor*%
%ADD32C,0.200000*%
%TD*%
%TA.AperFunction,Conductor*%
%ADD33C,0.250000*%
%TD*%
%TA.AperFunction,Conductor*%
%ADD34C,0.300000*%
%TD*%
G04 APERTURE END LIST*
D10*
%TO.P,R3,1*%
%TO.N,/USB_CC1*%
X91175000Y-96000000D03*
%TO.P,R3,2*%
%TO.N,GND*%
X92825000Y-96000000D03*
%TD*%
D11*
%TO.P,D1,1*%
%TO.N,/CHG_STAT*%
X157212500Y-86000000D03*
%TO.P,D1,2*%
%TO.N,/STAT_LED_MID*%
X158787500Y-86000000D03*
%TD*%
D10*
%TO.P,R4,1*%
%TO.N,/USB_CC2*%
X91175000Y-102000000D03*
%TO.P,R4,2*%
%TO.N,GND*%
X92825000Y-102000000D03*
%TD*%
D12*
%TO.P,U_CHG1,1*%
%TO.N,/CHG_STAT*%
X108862500Y-85050000D03*
%TO.P,U_CHG1,2*%
%TO.N,GND*%
X108862500Y-86000000D03*
%TO.P,U_CHG1,3*%
%TO.N,VBAT*%
X108862500Y-86950000D03*
%TO.P,U_CHG1,4*%
%TO.N,VBUS*%
X111137500Y-86950000D03*
%TO.P,U_CHG1,5*%
%TO.N,/CHG_PROG*%
X111137500Y-85050000D03*
%TD*%
D10*
%TO.P,R2,1*%
%TO.N,/STAT_LED_MID*%
X163175000Y-86000000D03*
%TO.P,R2,2*%
%TO.N,V3V3*%
X164825000Y-86000000D03*
%TD*%
D13*
%TO.P,U1,1*%
%TO.N,GND*%
X182400000Y-92000000D03*
%TO.P,U1,2*%
X181550000Y-92000000D03*
%TO.P,U1,3*%
%TO.N,V3V3*%
X180700000Y-92000000D03*
%TO.P,U1,4*%
%TO.N,/BOOT_NET*%
X179850000Y-92000000D03*
%TO.P,U1,5*%
%TO.N,unconnected-(U1-IO1-Pad5)*%
X179000000Y-92000000D03*
%TO.P,U1,6*%
%TO.N,unconnected-(U1-IO2-Pad6)*%
X178150000Y-92000000D03*
%TO.P,U1,7*%
%TO.N,unconnected-(U1-IO3-Pad7)*%
X177300000Y-92000000D03*
%TO.P,U1,8*%
%TO.N,unconnected-(U1-IO4-Pad8)*%
X176450000Y-92000000D03*
%TO.P,U1,9*%
%TO.N,/VBAT_SENSE*%
X175600000Y-92000000D03*
%TO.P,U1,10*%
%TO.N,unconnected-(U1-IO6-Pad10)*%
X174750000Y-92000000D03*
%TO.P,U1,11*%
%TO.N,unconnected-(U1-IO7-Pad11)*%
X173900000Y-92000000D03*
%TO.P,U1,12*%
%TO.N,unconnected-(U1-IO8-Pad12)*%
X173050000Y-92000000D03*
%TO.P,U1,13*%
%TO.N,unconnected-(U1-IO9-Pad13)*%
X172200000Y-92000000D03*
%TO.P,U1,14*%
%TO.N,/SW1_NET*%
X171350000Y-92000000D03*
%TO.P,U1,15*%
%TO.N,/SW2_NET*%
X170500000Y-92000000D03*
D14*
%TO.P,U1,16*%
%TO.N,/SW3_NET*%
X169450000Y-93050000D03*
%TO.P,U1,17*%
%TO.N,unconnected-(U1-IO13-Pad17)*%
X169450000Y-93900000D03*
%TO.P,U1,18*%
%TO.N,unconnected-(U1-IO14-Pad18)*%
X169450000Y-94750000D03*
%TO.P,U1,19*%
%TO.N,unconnected-(U1-IO15-Pad19)*%
X169450000Y-95600000D03*
%TO.P,U1,20*%
%TO.N,unconnected-(U1-IO16-Pad20)*%
X169450000Y-96450000D03*
%TO.P,U1,21*%
%TO.N,unconnected-(U1-IO17-Pad21)*%
X169450000Y-97300000D03*
%TO.P,U1,22*%
%TO.N,unconnected-(U1-IO18-Pad22)*%
X169450000Y-98150000D03*
%TO.P,U1,23*%
%TO.N,/USB_DM*%
X169450000Y-99000000D03*
%TO.P,U1,24*%
%TO.N,/USB_DP*%
X169450000Y-99850000D03*
%TO.P,U1,25*%
%TO.N,unconnected-(U1-IO21-Pad25)*%
X169450000Y-100700000D03*
%TO.P,U1,26*%
%TO.N,unconnected-(U1-IO26-Pad26)*%
X169450000Y-101550000D03*
%TO.P,U1,27*%
%TO.N,unconnected-(U1-IO47-Pad27)*%
X169450000Y-102400000D03*
%TO.P,U1,28*%
%TO.N,unconnected-(U1-IO33-Pad28)*%
X169450000Y-103250000D03*
%TO.P,U1,29*%
%TO.N,unconnected-(U1-IO34-Pad29)*%
X169450000Y-104100000D03*
%TO.P,U1,30*%
%TO.N,unconnected-(U1-IO48-Pad30)*%
X169450000Y-104950000D03*
D13*
%TO.P,U1,31*%
%TO.N,unconnected-(U1-IO35-Pad31)*%
X170500000Y-106000000D03*
%TO.P,U1,32*%
%TO.N,unconnected-(U1-IO36-Pad32)*%
X171350000Y-106000000D03*
%TO.P,U1,33*%
%TO.N,unconnected-(U1-IO37-Pad33)*%
X172200000Y-106000000D03*
%TO.P,U1,34*%
%TO.N,unconnected-(U1-IO38-Pad34)*%
X173050000Y-106000000D03*
%TO.P,U1,35*%
%TO.N,unconnected-(U1-IO39-Pad35)*%
X173900000Y-106000000D03*
%TO.P,U1,36*%
%TO.N,unconnected-(U1-IO40-Pad36)*%
X174750000Y-106000000D03*
%TO.P,U1,37*%
%TO.N,unconnected-(U1-IO41-Pad37)*%
X175600000Y-106000000D03*
%TO.P,U1,38*%
%TO.N,unconnected-(U1-IO42-Pad38)*%
X176450000Y-106000000D03*
%TO.P,U1,39*%
%TO.N,unconnected-(U1-TXD0-Pad39)*%
X177300000Y-106000000D03*
%TO.P,U1,40*%
%TO.N,unconnected-(U1-RXD0-Pad40)*%
X178150000Y-106000000D03*
%TO.P,U1,41*%
%TO.N,unconnected-(U1-IO45-Pad41)*%
X179000000Y-106000000D03*
%TO.P,U1,42*%
%TO.N,GND*%
X179850000Y-106000000D03*
%TO.P,U1,43*%
X180700000Y-106000000D03*
%TO.P,U1,44*%
%TO.N,unconnected-(U1-IO46-Pad44)*%
X181550000Y-106000000D03*
%TO.P,U1,45*%
%TO.N,/EN_NET*%
X182400000Y-106000000D03*
D14*
%TO.P,U1,46*%
%TO.N,GND*%
X183450000Y-104950000D03*
%TO.P,U1,47*%
X183450000Y-104100000D03*
%TO.P,U1,48*%
X183450000Y-103250000D03*
%TO.P,U1,49*%
X183450000Y-102400000D03*
%TO.P,U1,50*%
X183450000Y-101550000D03*
%TO.P,U1,51*%
X183450000Y-100700000D03*
%TO.P,U1,52*%
X183450000Y-99850000D03*
%TO.P,U1,53*%
X183450000Y-99000000D03*
%TO.P,U1,54*%
X183450000Y-98150000D03*
%TO.P,U1,55*%
X183450000Y-97300000D03*
%TO.P,U1,56*%
X183450000Y-96450000D03*
%TO.P,U1,57*%
X183450000Y-95600000D03*
%TO.P,U1,58*%
X183450000Y-94750000D03*
%TO.P,U1,59*%
X183450000Y-93900000D03*
%TO.P,U1,60*%
X183450000Y-93050000D03*
D15*
%TO.P,U1,61*%
X178100000Y-97350000D03*
D16*
X176450000Y-97350000D03*
X174800000Y-97350000D03*
X178100000Y-99000000D03*
X176450000Y-99000000D03*
X174800000Y-99000000D03*
X178100000Y-100650000D03*
X176450000Y-100650000D03*
X174800000Y-100650000D03*
D17*
%TO.P,U1,62*%
X183450000Y-92000000D03*
%TO.P,U1,63*%
X169450000Y-92000000D03*
%TO.P,U1,64*%
X169450000Y-106000000D03*
%TO.P,U1,65*%
X183450000Y-106000000D03*
%TD*%
D18*
%TO.P,C7,1*%
%TO.N,V3V3*%
X177225000Y-109800000D03*
%TO.P,C7,2*%
%TO.N,GND*%
X178775000Y-109800000D03*
%TD*%
%TO.P,C9,1*%
%TO.N,/SW1_NET*%
X109225000Y-107000000D03*
%TO.P,C9,2*%
%TO.N,GND*%
X110775000Y-107000000D03*
%TD*%
D19*
%TO.P,SW1,1*%
%TO.N,/SW1_NET*%
X101000000Y-99000000D03*
D20*
X107500000Y-99000000D03*
%TO.P,SW1,2*%
%TO.N,GND*%
X101000000Y-103500000D03*
X107500000Y-103500000D03*
%TD*%
D18*
%TO.P,C6,1*%
%TO.N,V3V3*%
X173225000Y-109800000D03*
%TO.P,C6,2*%
%TO.N,GND*%
X174775000Y-109800000D03*
%TD*%
D10*
%TO.P,R8,1*%
%TO.N,/VBAT_SENSE*%
X127825000Y-93000000D03*
%TO.P,R8,2*%
%TO.N,GND*%
X129475000Y-93000000D03*
%TD*%
D21*
%TO.P,SW_RST1,1*%
%TO.N,/EN_NET*%
X164300000Y-113500000D03*
%TO.P,SW_RST1,2*%
%TO.N,GND*%
X167700000Y-113500000D03*
%TD*%
D18*
%TO.P,C8,1*%
%TO.N,/VBAT_SENSE*%
X130725000Y-91500000D03*
%TO.P,C8,2*%
%TO.N,GND*%
X132275000Y-91500000D03*
%TD*%
D22*
%TO.P,J_BAT1,1*%
%TO.N,VBAT*%
X122000000Y-87200000D03*
D23*
%TO.P,J_BAT1,2*%
%TO.N,GND*%
X120000000Y-87200000D03*
%TD*%
D18*
%TO.P,C5,1*%
%TO.N,V3V3*%
X169225000Y-109800000D03*
%TO.P,C5,2*%
%TO.N,GND*%
X170775000Y-109800000D03*
%TD*%
%TO.P,C10,1*%
%TO.N,/SW2_NET*%
X134225000Y-107000000D03*
%TO.P,C10,2*%
%TO.N,GND*%
X135775000Y-107000000D03*
%TD*%
%TO.P,C4,1*%
%TO.N,VBUS*%
X113725000Y-89500000D03*
%TO.P,C4,2*%
%TO.N,GND*%
X115275000Y-89500000D03*
%TD*%
%TO.P,C3,1*%
%TO.N,V3V3*%
X103225000Y-91800000D03*
%TO.P,C3,2*%
%TO.N,GND*%
X104775000Y-91800000D03*
%TD*%
D24*
%TO.P,REG1,1*%
%TO.N,V3V3*%
X102600000Y-85000000D03*
%TO.P,REG1,2*%
%TO.N,/L_B*%
X102600000Y-85500000D03*
%TO.P,REG1,3*%
%TO.N,GND*%
X102600000Y-86000000D03*
%TO.P,REG1,4*%
%TO.N,/L_A*%
X102600000Y-86500000D03*
%TO.P,REG1,5*%
%TO.N,VBAT*%
X102600000Y-87000000D03*
%TO.P,REG1,6*%
X105400000Y-87000000D03*
%TO.P,REG1,7*%
%TO.N,GND*%
X105400000Y-86500000D03*
%TO.P,REG1,8*%
%TO.N,VBAT*%
X105400000Y-86000000D03*
%TO.P,REG1,9*%
%TO.N,GND*%
X105400000Y-85500000D03*
%TO.P,REG1,10*%
%TO.N,V3V3*%
X105400000Y-85000000D03*
D25*
%TO.P,REG1,11*%
%TO.N,GND*%
X104000000Y-86000000D03*
%TD*%
D10*
%TO.P,R7,1*%
%TO.N,VBAT*%
X126175000Y-90500000D03*
%TO.P,R7,2*%
%TO.N,/VBAT_SENSE*%
X127825000Y-90500000D03*
%TD*%
%TO.P,R6,1*%
%TO.N,V3V3*%
X171675000Y-113500000D03*
%TO.P,R6,2*%
%TO.N,/BOOT_NET*%
X173325000Y-113500000D03*
%TD*%
D21*
%TO.P,SW_BOOT1,1*%
%TO.N,/BOOT_NET*%
X177300000Y-113000000D03*
%TO.P,SW_BOOT1,2*%
%TO.N,GND*%
X180700000Y-113000000D03*
%TD*%
D19*
%TO.P,SW2,1*%
%TO.N,/SW2_NET*%
X126000000Y-99000000D03*
D20*
X132500000Y-99000000D03*
%TO.P,SW2,2*%
%TO.N,GND*%
X126000000Y-103500000D03*
X132500000Y-103500000D03*
%TD*%
D10*
%TO.P,R5,1*%
%TO.N,V3V3*%
X181575000Y-109800000D03*
%TO.P,R5,2*%
%TO.N,/EN_NET*%
X183225000Y-109800000D03*
%TD*%
D26*
%TO.P,J_USB1,A1*%
%TO.N,GND*%
X87680000Y-95800000D03*
%TO.P,J_USB1,A4*%
%TO.N,VBUS*%
X87680000Y-96600000D03*
D27*
%TO.P,J_USB1,A5*%
%TO.N,/USB_CC1*%
X87680000Y-97750000D03*
%TO.P,J_USB1,A6*%
%TO.N,/USB_DP*%
X87680000Y-98750000D03*
%TO.P,J_USB1,A7*%
%TO.N,/USB_DM*%
X87680000Y-99250000D03*
%TO.P,J_USB1,A8*%
%TO.N,unconnected-(J_USB1-SBU1-PadA8)*%
X87680000Y-100250000D03*
D26*
%TO.P,J_USB1,A9*%
%TO.N,VBUS*%
X87680000Y-101400000D03*
%TO.P,J_USB1,A12*%
%TO.N,GND*%
X87680000Y-102200000D03*
%TO.P,J_USB1,B1*%
X87680000Y-102200000D03*
%TO.P,J_USB1,B4*%
%TO.N,VBUS*%
X87680000Y-101400000D03*
D27*
%TO.P,J_USB1,B5*%
%TO.N,/USB_CC2*%
X87680000Y-100750000D03*
%TO.P,J_USB1,B6*%
%TO.N,/USB_DP*%
X87680000Y-99750000D03*
%TO.P,J_USB1,B7*%
%TO.N,/USB_DM*%
X87680000Y-98250000D03*
%TO.P,J_USB1,B8*%
%TO.N,unconnected-(J_USB1-SBU2-PadB8)*%
X87680000Y-97250000D03*
D26*
%TO.P,J_USB1,B9*%
%TO.N,VBUS*%
X87680000Y-96600000D03*
%TO.P,J_USB1,B12*%
%TO.N,GND*%
X87680000Y-95800000D03*
D28*
%TO.P,J_USB1,SH*%
X87105000Y-94680000D03*
D29*
X82925000Y-94680000D03*
D28*
X87105000Y-103320000D03*
D29*
X82925000Y-103320000D03*
%TD*%
D18*
%TO.P,C2,1*%
%TO.N,V3V3*%
X99725000Y-91800000D03*
%TO.P,C2,2*%
%TO.N,GND*%
X101275000Y-91800000D03*
%TD*%
D19*
%TO.P,SW3,1*%
%TO.N,/SW3_NET*%
X151000000Y-99000000D03*
D20*
X157500000Y-99000000D03*
%TO.P,SW3,2*%
%TO.N,GND*%
X151000000Y-103500000D03*
X157500000Y-103500000D03*
%TD*%
D18*
%TO.P,C1,1*%
%TO.N,VBAT*%
X107725000Y-90800000D03*
%TO.P,C1,2*%
%TO.N,GND*%
X109275000Y-90800000D03*
%TD*%
D10*
%TO.P,R1,1*%
%TO.N,/CHG_PROG*%
X113675000Y-84500000D03*
%TO.P,R1,2*%
%TO.N,GND*%
X115325000Y-84500000D03*
%TD*%
D18*
%TO.P,C11,1*%
%TO.N,/SW3_NET*%
X159225000Y-107000000D03*
%TO.P,C11,2*%
%TO.N,GND*%
X160775000Y-107000000D03*
%TD*%
D30*
%TO.P,L1,1*%
%TO.N,/L_A*%
X98600000Y-87525000D03*
%TO.P,L1,2*%
%TO.N,/L_B*%
X98600000Y-84475000D03*
%TD*%
D31*
%TO.N,/USB_CC1*%
X88650000Y-94300000D03*
X90350000Y-96000000D03*
%TO.N,GND*%
X161650000Y-107000000D03*
X104000000Y-85050000D03*
X104000000Y-86950000D03*
X93650000Y-96000000D03*
X111650000Y-107000000D03*
X136650000Y-107000000D03*
X179850000Y-105150000D03*
X171650000Y-109800000D03*
X110150000Y-90800000D03*
X175650000Y-109800000D03*
X116150000Y-84500000D03*
X88700000Y-102200000D03*
X168600000Y-92000000D03*
X179650000Y-109800000D03*
X177275000Y-99000000D03*
X168600000Y-106000000D03*
X104575000Y-86000000D03*
X107800000Y-86000000D03*
X133150000Y-91500000D03*
X175625000Y-97350000D03*
X102150000Y-91800000D03*
X168550000Y-113500000D03*
X103425000Y-86000000D03*
X181550000Y-91150000D03*
X181550000Y-113000000D03*
X175625000Y-99000000D03*
X177275000Y-100650000D03*
X88700000Y-95800000D03*
X116150000Y-89500000D03*
X105650000Y-91800000D03*
X130300000Y-93000000D03*
X93650000Y-102000000D03*
%TO.N,VBAT*%
X106850000Y-89250000D03*
X106850000Y-90550000D03*
%TO.N,VBUS*%
X88700000Y-96900000D03*
X88700000Y-101100000D03*
%TO.N,V3V3*%
X168350000Y-109800000D03*
X165650000Y-86000000D03*
X103200000Y-90900000D03*
X180700000Y-91150000D03*
X102600000Y-84450000D03*
X98850000Y-91800000D03*
X170850000Y-113500000D03*
X180750000Y-109800000D03*
X176350000Y-109800000D03*
X172350000Y-109800000D03*
X105400000Y-84450000D03*
%TO.N,/BOOT_NET*%
X179850000Y-104250000D03*
X178150000Y-112150000D03*
%TO.N,/SW1_NET*%
X110100000Y-106100000D03*
X171350000Y-92850000D03*
%TO.N,/SW2_NET*%
X170500000Y-93450000D03*
X132500000Y-101750000D03*
%TO.N,/SW3_NET*%
X158800000Y-97700000D03*
X157500000Y-101750000D03*
%TD*%
%TO.N,/USB_CC1*%
D32*
X85700000Y-96550000D02*
X86900000Y-97750000D01*
X85850000Y-93850000D02*
X85700000Y-94000000D01*
X85700000Y-94000000D02*
X85700000Y-96550000D01*
X86900000Y-97750000D02*
X87700000Y-97750000D01*
X91150000Y-96000000D02*
X90350000Y-96000000D01*
X88350000Y-93850000D02*
X85850000Y-93850000D01*
X88650000Y-94150000D02*
X88350000Y-93850000D01*
X88650000Y-94300000D02*
X88650000Y-94150000D01*
%TO.N,GND*%
X183450000Y-95600000D02*
X183450000Y-94800000D01*
X182400000Y-92000000D02*
X181600000Y-92000000D01*
X176450000Y-99000000D02*
X175250000Y-99000000D01*
X178100000Y-99000000D02*
X176900000Y-99000000D01*
X105400000Y-85500000D02*
X104675000Y-85500000D01*
X169450000Y-92000000D02*
X168600000Y-92000000D01*
X104800000Y-91800000D02*
X105650000Y-91800000D01*
X92850000Y-102000000D02*
X93650000Y-102000000D01*
X170800000Y-109800000D02*
X171650000Y-109800000D01*
X176450000Y-99000000D02*
X176450000Y-100200000D01*
X183450000Y-93050000D02*
X183450000Y-92250000D01*
X132300000Y-91500000D02*
X133150000Y-91500000D01*
X178800000Y-109800000D02*
X179650000Y-109800000D01*
X115300000Y-84500000D02*
X116150000Y-84500000D01*
X183450000Y-103250000D02*
X183450000Y-102450000D01*
X174800000Y-99000000D02*
X178100000Y-99000000D01*
X174800000Y-97350000D02*
X178100000Y-97350000D01*
X179850000Y-106000000D02*
X180650000Y-106000000D01*
X101300000Y-91800000D02*
X102150000Y-91800000D01*
X176450000Y-97350000D02*
X175250000Y-97350000D01*
X167700000Y-113500000D02*
X168550000Y-113500000D01*
X183450000Y-96450000D02*
X183450000Y-95650000D01*
X183450000Y-98150000D02*
X183450000Y-97350000D01*
X109300000Y-90800000D02*
X110150000Y-90800000D01*
X180700000Y-113000000D02*
X181550000Y-113000000D01*
X183450000Y-93900000D02*
X183450000Y-93100000D01*
X183450000Y-104100000D02*
X183450000Y-103300000D01*
X110800000Y-107000000D02*
X111650000Y-107000000D01*
X183450000Y-102400000D02*
X183450000Y-101600000D01*
X176450000Y-100650000D02*
X175250000Y-100650000D01*
X108850000Y-86000000D02*
X107800000Y-86000000D01*
X183450000Y-101550000D02*
X183450000Y-100750000D01*
X105400000Y-86500000D02*
X104675000Y-86500000D01*
X182400000Y-92000000D02*
X183200000Y-92000000D01*
X92850000Y-96000000D02*
X93650000Y-96000000D01*
X174800000Y-109800000D02*
X175650000Y-109800000D01*
X174800000Y-99000000D02*
X174800000Y-100200000D01*
X183450000Y-104950000D02*
X183450000Y-105750000D01*
X178100000Y-97350000D02*
X178100000Y-98550000D01*
X178100000Y-97350000D02*
X176900000Y-97350000D01*
X183450000Y-97300000D02*
X183450000Y-96500000D01*
X178100000Y-100650000D02*
X176900000Y-100650000D01*
X183450000Y-99850000D02*
X183450000Y-99050000D01*
X183450000Y-94750000D02*
X183450000Y-93950000D01*
X178100000Y-99000000D02*
X178100000Y-100200000D01*
X87700000Y-95800000D02*
X88700000Y-95800000D01*
X174800000Y-100650000D02*
X178100000Y-100650000D01*
X183450000Y-104950000D02*
X183450000Y-104150000D01*
X129500000Y-93000000D02*
X130300000Y-93000000D01*
X176450000Y-97350000D02*
X176450000Y-100650000D01*
X176450000Y-97350000D02*
X176450000Y-98550000D01*
X169450000Y-106000000D02*
X168600000Y-106000000D01*
X181550000Y-92000000D02*
X181550000Y-91150000D01*
X160800000Y-107000000D02*
X161650000Y-107000000D01*
X115300000Y-89500000D02*
X116150000Y-89500000D01*
X183450000Y-100700000D02*
X183450000Y-99900000D01*
X135800000Y-107000000D02*
X136650000Y-107000000D01*
X179850000Y-106000000D02*
X179850000Y-105150000D01*
X87700000Y-102200000D02*
X88700000Y-102200000D01*
X102600000Y-86000000D02*
X103325000Y-86000000D01*
X174800000Y-97350000D02*
X174800000Y-98550000D01*
X183450000Y-99000000D02*
X183450000Y-98200000D01*
%TO.N,/CHG_STAT*%
X113150000Y-85700000D02*
X110050000Y-85700000D01*
X109400000Y-85050000D02*
X108850000Y-85050000D01*
X122100000Y-85350000D02*
X113500000Y-85350000D01*
X122750000Y-86000000D02*
X122100000Y-85350000D01*
X110050000Y-85700000D02*
X109400000Y-85050000D01*
X157200000Y-86000000D02*
X122750000Y-86000000D01*
X113500000Y-85350000D02*
X113150000Y-85700000D01*
%TO.N,/STAT_LED_MID*%
X158800000Y-86000000D02*
X163200000Y-86000000D01*
%TO.N,/USB_CC2*%
X85700000Y-101700000D02*
X86650000Y-100750000D01*
X88350000Y-104150000D02*
X85850000Y-104150000D01*
X86650000Y-100750000D02*
X87700000Y-100750000D01*
X90500000Y-102000000D02*
X88350000Y-104150000D01*
X85700000Y-104000000D02*
X85700000Y-101700000D01*
X85850000Y-104150000D02*
X85700000Y-104000000D01*
X91150000Y-102000000D02*
X90500000Y-102000000D01*
%TO.N,VBAT*%
D33*
X118900000Y-86250000D02*
X119200000Y-85950000D01*
X102600000Y-87250000D02*
X102600000Y-87000000D01*
X110300000Y-86250000D02*
X118900000Y-86250000D01*
X105850000Y-87000000D02*
X105400000Y-87000000D01*
X122000000Y-87150000D02*
X122000000Y-87200000D01*
X104550000Y-88100000D02*
X103450000Y-88100000D01*
X106100000Y-86200000D02*
X105900000Y-86000000D01*
X105900000Y-86950000D02*
X105850000Y-87000000D01*
X109600000Y-86950000D02*
X110300000Y-86250000D01*
X125300000Y-90500000D02*
X126150000Y-90500000D01*
X105900000Y-86000000D02*
X105400000Y-86000000D01*
X106850000Y-90550000D02*
X107450000Y-90550000D01*
X122000000Y-87200000D02*
X125300000Y-90500000D01*
X103450000Y-88100000D02*
X102600000Y-87250000D01*
X108850000Y-86950000D02*
X105900000Y-86950000D01*
X119200000Y-85950000D02*
X120800000Y-85950000D01*
X105400000Y-87000000D02*
X105200000Y-87200000D01*
X107450000Y-90550000D02*
X107700000Y-90800000D01*
X106100000Y-86950000D02*
X106100000Y-86200000D01*
X106850000Y-86950000D02*
X106850000Y-89250000D01*
X120800000Y-85950000D02*
X122000000Y-87150000D01*
X105200000Y-87450000D02*
X104550000Y-88100000D01*
X108850000Y-86950000D02*
X109600000Y-86950000D01*
X105200000Y-87200000D02*
X105200000Y-87450000D01*
%TO.N,VBUS*%
D34*
X108200000Y-89900000D02*
X100150000Y-89900000D01*
X99100000Y-90950000D02*
X94500000Y-90950000D01*
X111150000Y-86950000D02*
X113700000Y-89500000D01*
X111150000Y-86950000D02*
X108200000Y-89900000D01*
X100150000Y-89900000D02*
X99100000Y-90950000D01*
X88400000Y-101400000D02*
X87700000Y-101400000D01*
X88700000Y-96600000D02*
X88700000Y-96900000D01*
X88700000Y-101100000D02*
X88400000Y-101400000D01*
X88850000Y-96600000D02*
X87700000Y-96600000D01*
X94500000Y-90950000D02*
X88850000Y-96600000D01*
%TO.N,/CHG_PROG*%
D32*
X111150000Y-85050000D02*
X113100000Y-85050000D01*
X113100000Y-85050000D02*
X113650000Y-84500000D01*
%TO.N,V3V3*%
X169200000Y-109800000D02*
X168350000Y-109800000D01*
X102600000Y-85000000D02*
X102600000Y-84450000D01*
X103200000Y-91800000D02*
X103200000Y-90900000D01*
X99700000Y-91800000D02*
X98850000Y-91800000D01*
X105400000Y-85000000D02*
X105400000Y-84450000D01*
X180700000Y-92000000D02*
X180700000Y-91150000D01*
X171700000Y-113500000D02*
X170850000Y-113500000D01*
X173200000Y-109800000D02*
X172350000Y-109800000D01*
X181550000Y-109800000D02*
X180750000Y-109800000D01*
X164800000Y-86000000D02*
X165650000Y-86000000D01*
X177200000Y-109800000D02*
X176350000Y-109800000D01*
%TO.N,/BOOT_NET*%
X173800000Y-113000000D02*
X173300000Y-113500000D01*
X177300000Y-113000000D02*
X173800000Y-113000000D01*
X179850000Y-92000000D02*
X179850000Y-104250000D01*
X178150000Y-112150000D02*
X177300000Y-113000000D01*
%TO.N,/VBAT_SENSE*%
X128800000Y-91500000D02*
X127800000Y-92500000D01*
X130700000Y-91500000D02*
X128800000Y-91500000D01*
X175300000Y-91700000D02*
X175300000Y-91400000D01*
X175150000Y-91250000D02*
X133800000Y-91250000D01*
X133800000Y-91250000D02*
X133200000Y-90650000D01*
X175600000Y-92000000D02*
X175300000Y-91700000D01*
X128800000Y-91500000D02*
X127800000Y-90500000D01*
X127800000Y-92500000D02*
X127800000Y-93000000D01*
X133200000Y-90650000D02*
X131550000Y-90650000D01*
X131550000Y-90650000D02*
X130700000Y-91500000D01*
X175300000Y-91400000D02*
X175150000Y-91250000D01*
%TO.N,/SW1_NET*%
X110100000Y-106100000D02*
X109200000Y-107000000D01*
X107500000Y-99000000D02*
X101000000Y-99000000D01*
X171350000Y-92000000D02*
X171350000Y-92850000D01*
%TO.N,/SW2_NET*%
X134200000Y-103450000D02*
X134200000Y-107000000D01*
X170500000Y-92000000D02*
X170500000Y-93450000D01*
X132500000Y-99000000D02*
X126000000Y-99000000D01*
X132500000Y-101750000D02*
X134200000Y-103450000D01*
%TO.N,/SW3_NET*%
X157500000Y-101750000D02*
X159200000Y-103450000D01*
X163450000Y-93050000D02*
X158800000Y-97700000D01*
X159200000Y-103450000D02*
X159200000Y-107000000D01*
X169450000Y-93050000D02*
X163450000Y-93050000D01*
X157500000Y-99000000D02*
X151000000Y-99000000D01*
%TO.N,/USB_DM*%
X88450000Y-98250000D02*
X86900000Y-98250000D01*
X86750000Y-99100000D02*
X86900000Y-99250000D01*
X86750000Y-98400000D02*
X86750000Y-99100000D01*
X86900000Y-99250000D02*
X87700000Y-99250000D01*
X86900000Y-98250000D02*
X86750000Y-98400000D01*
X158050000Y-97800000D02*
X88900000Y-97800000D01*
X159250000Y-99000000D02*
X158050000Y-97800000D01*
X88900000Y-97800000D02*
X88450000Y-98250000D01*
X169450000Y-99000000D02*
X159250000Y-99000000D01*
%TO.N,/USB_DP*%
X158400000Y-99850000D02*
X158050000Y-100200000D01*
X88450000Y-98750000D02*
X87700000Y-98750000D01*
X88450000Y-99750000D02*
X88600000Y-99600000D01*
X88900000Y-100200000D02*
X88450000Y-99750000D01*
X88450000Y-99750000D02*
X87700000Y-99750000D01*
X88600000Y-98900000D02*
X88450000Y-98750000D01*
X158050000Y-100200000D02*
X88900000Y-100200000D01*
X88600000Y-99600000D02*
X88600000Y-98900000D01*
X169450000Y-99850000D02*
X158400000Y-99850000D01*
%TO.N,/EN_NET*%
X164300000Y-112950000D02*
X164300000Y-113500000D01*
X168300000Y-108950000D02*
X164300000Y-112950000D01*
X182400000Y-106000000D02*
X182400000Y-109000000D01*
X182400000Y-109000000D02*
X183200000Y-109800000D01*
X182400000Y-108950000D02*
X168300000Y-108950000D01*
%TO.N,/L_B*%
D33*
X100400000Y-85500000D02*
X98600000Y-83700000D01*
X102600000Y-85500000D02*
X100400000Y-85500000D01*
%TO.N,/L_A*%
X102600000Y-86500000D02*
X100400000Y-86500000D01*
X100400000Y-86500000D02*
X98600000Y-88300000D01*
%TD*%
M02*
