M48
; DRILL file KiCad 10.0.6 date 2026-10-03T07:34:58
; FORMAT={-:-/ absolute / metric / decimal}
; #@! TF.CreationDate,2026-10-03T07:34:58-06:00
; #@! TF.GenerationSoftware,Kicad,Pcbnew,10.0.6
; #@! TF.FileFunction,Plated,1,4,PTH
FMAT,2
METRIC
; #@! TA.AperFunction,Plated,PTH,ViaDrill
T1C0.300
; #@! TA.AperFunction,Plated,PTH,ComponentDrill
T2C0.600
; #@! TA.AperFunction,Plated,PTH,ComponentDrill
T3C0.750
; #@! TA.AperFunction,Plated,PTH,ComponentDrill
T4C1.000
%
G90
G05
T1
X88.65Y-94.3
X88.7Y-95.8
X88.7Y-96.9
X88.7Y-101.1
X88.7Y-102.2
X90.35Y-96.0
X93.65Y-96.0
X93.65Y-102.0
X98.85Y-91.8
X102.15Y-91.8
X102.6Y-84.45
X103.2Y-90.9
X103.425Y-86.0
X104.0Y-85.05
X104.0Y-86.95
X104.575Y-86.0
X105.4Y-84.45
X105.65Y-91.8
X106.85Y-89.25
X106.85Y-90.55
X107.8Y-86.0
X110.1Y-106.1
X110.15Y-90.8
X111.65Y-107.0
X116.15Y-84.5
X116.15Y-89.5
X130.3Y-93.0
X132.5Y-101.75
X133.15Y-91.5
X136.65Y-107.0
X157.5Y-101.75
X158.8Y-97.7
X161.65Y-107.0
X165.65Y-86.0
X168.35Y-109.8
X168.55Y-113.5
X168.6Y-92.0
X168.6Y-106.0
X170.5Y-93.45
X170.85Y-113.5
X171.35Y-92.85
X171.65Y-109.8
X172.35Y-109.8
X175.625Y-97.35
X175.625Y-99.0
X175.65Y-109.8
X176.35Y-109.8
X177.275Y-99.0
X177.275Y-100.65
X178.15Y-112.15
X179.65Y-109.8
X179.85Y-104.25
X179.85Y-105.15
X180.7Y-91.15
X180.75Y-109.8
X181.55Y-91.15
X181.55Y-113.0
T3
X120.0Y-87.2
X122.0Y-87.2
T4
X101.0Y-99.0
X101.0Y-103.5
X107.5Y-99.0
X107.5Y-103.5
X126.0Y-99.0
X126.0Y-103.5
X132.5Y-99.0
X132.5Y-103.5
X151.0Y-99.0
X151.0Y-103.5
X157.5Y-99.0
X157.5Y-103.5
T2
X83.325Y-94.68G85X82.525Y-94.68
G05
X83.325Y-103.32G85X82.525Y-103.32
G05
X87.655Y-94.68G85X86.555Y-94.68
G05
X87.655Y-103.32G85X86.555Y-103.32
G05
M30
