%TF.GenerationSoftware,KiCad,Pcbnew,10.0.6*%
%TF.CreationDate,2026-10-03T07:34:57-06:00*%
%TF.ProjectId,RB_Switch,52425f53-7769-4746-9368-2e6b69636164,rev?*%
%TF.SameCoordinates,Original*%
%TF.FileFunction,Copper,L2,Inr*%
%TF.FilePolarity,Positive*%
%FSLAX46Y46*%
G04 Gerber Fmt 4.6, Leading zero omitted, Abs format (unit mm)*
G04 Created by KiCad (PCBNEW 10.0.6) date 2026-10-03 07:34:57*
%MOMM*%
%LPD*%
G01*
G04 APERTURE LIST*
G04 Aperture macros list*
%AMRoundRect*
0 Rectangle with rounded corners*
0 $1 Rounding radius*
0 $2 $3 $4 $5 $6 $7 $8 $9 X,Y pos of 4 corners*
0 Add a 4 corners polygon primitive as box body*
4,1,4,$2,$3,$4,$5,$6,$7,$8,$9,$2,$3,0*
0 Add four circle primitives for the rounded corners*
1,1,$1+$1,$2,$3*
1,1,$1+$1,$4,$5*
1,1,$1+$1,$6,$7*
1,1,$1+$1,$8,$9*
0 Add four rect primitives between the rounded corners*
20,1,$1+$1,$2,$3,$4,$5,0*
20,1,$1+$1,$4,$5,$6,$7,0*
20,1,$1+$1,$6,$7,$8,$9,0*
20,1,$1+$1,$8,$9,$2,$3,0*%
G04 Aperture macros list end*
%TA.AperFunction,ComponentPad*%
%ADD10R,1.700000X1.700000*%
%TD*%
%TA.AperFunction,ComponentPad*%
%ADD11C,1.700000*%
%TD*%
%TA.AperFunction,ComponentPad*%
%ADD12RoundRect,0.250000X0.350000X0.625000X-0.350000X0.625000X-0.350000X-0.625000X0.350000X-0.625000X0*%
%TD*%
%TA.AperFunction,ComponentPad*%
%ADD13O,1.200000X1.750000*%
%TD*%
%TA.AperFunction,ComponentPad*%
%ADD14O,2.100000X1.000000*%
%TD*%
%TA.AperFunction,ComponentPad*%
%ADD15O,1.800000X1.000000*%
%TD*%
%TA.AperFunction,ViaPad*%
%ADD16C,0.500000*%
%TD*%
G04 APERTURE END LIST*
D10*
%TO.N,/SW1_NET*%
%TO.C,SW1*%
X101000000Y-99000000D03*
D11*
X107500000Y-99000000D03*
%TO.N,GND*%
X101000000Y-103500000D03*
X107500000Y-103500000D03*
%TD*%
D12*
%TO.N,VBAT*%
%TO.C,J_BAT1*%
X122000000Y-87200000D03*
D13*
%TO.N,GND*%
X120000000Y-87200000D03*
%TD*%
D10*
%TO.N,/SW2_NET*%
%TO.C,SW2*%
X126000000Y-99000000D03*
D11*
X132500000Y-99000000D03*
%TO.N,GND*%
X126000000Y-103500000D03*
X132500000Y-103500000D03*
%TD*%
D14*
%TO.N,GND*%
%TO.C,J_USB1*%
X87105000Y-94680000D03*
D15*
X82925000Y-94680000D03*
D14*
X87105000Y-103320000D03*
D15*
X82925000Y-103320000D03*
%TD*%
D10*
%TO.N,/SW3_NET*%
%TO.C,SW3*%
X151000000Y-99000000D03*
D11*
X157500000Y-99000000D03*
%TO.N,GND*%
X151000000Y-103500000D03*
X157500000Y-103500000D03*
%TD*%
D16*
%TO.N,/USB_CC1*%
X88650000Y-94300000D03*
X90350000Y-96000000D03*
%TO.N,GND*%
X161650000Y-107000000D03*
X104000000Y-85050000D03*
X104000000Y-86950000D03*
X93650000Y-96000000D03*
X111650000Y-107000000D03*
X136650000Y-107000000D03*
X179850000Y-105150000D03*
X171650000Y-109800000D03*
X110150000Y-90800000D03*
X175650000Y-109800000D03*
X116150000Y-84500000D03*
X88700000Y-102200000D03*
X168600000Y-92000000D03*
X179650000Y-109800000D03*
X177275000Y-99000000D03*
X168600000Y-106000000D03*
X104575000Y-86000000D03*
X107800000Y-86000000D03*
X133150000Y-91500000D03*
X175625000Y-97350000D03*
X102150000Y-91800000D03*
X168550000Y-113500000D03*
X103425000Y-86000000D03*
X181550000Y-91150000D03*
X181550000Y-113000000D03*
X175625000Y-99000000D03*
X177275000Y-100650000D03*
X88700000Y-95800000D03*
X116150000Y-89500000D03*
X105650000Y-91800000D03*
X130300000Y-93000000D03*
X93650000Y-102000000D03*
%TO.N,VBAT*%
X106850000Y-89250000D03*
X106850000Y-90550000D03*
%TO.N,VBUS*%
X88700000Y-96900000D03*
X88700000Y-101100000D03*
%TO.N,V3V3*%
X168350000Y-109800000D03*
X165650000Y-86000000D03*
X103200000Y-90900000D03*
X180700000Y-91150000D03*
X102600000Y-84450000D03*
X98850000Y-91800000D03*
X170850000Y-113500000D03*
X180750000Y-109800000D03*
X176350000Y-109800000D03*
X172350000Y-109800000D03*
X105400000Y-84450000D03*
%TO.N,/BOOT_NET*%
X179850000Y-104250000D03*
X178150000Y-112150000D03*
%TO.N,/SW1_NET*%
X110100000Y-106100000D03*
X171350000Y-92850000D03*
%TO.N,/SW2_NET*%
X170500000Y-93450000D03*
X132500000Y-101750000D03*
%TO.N,/SW3_NET*%
X158800000Y-97700000D03*
X157500000Y-101750000D03*
%TD*%
%TA.AperFunction,Conductor*%
%TO.N,GND*%
G36*
X184228326Y-81021674D02*
G01*
X184250000Y-81074000D01*
X184250000Y-116926000D01*
X184228326Y-116978326D01*
X184176000Y-117000000D01*
X80074000Y-117000000D01*
X80021674Y-116978326D01*
X80000000Y-116926000D01*
X80000000Y-113427522D01*
X170299500Y-113427522D01*
X170299500Y-113572477D01*
X170337014Y-113712481D01*
X170337016Y-113712486D01*
X170409491Y-113838015D01*
X170511985Y-113940509D01*
X170637515Y-114012984D01*
X170637516Y-114012984D01*
X170637518Y-114012985D01*
X170707520Y-114031742D01*
X170777522Y-114050499D01*
X170777523Y-114050500D01*
X170777525Y-114050500D01*
X170922477Y-114050500D01*
X170922477Y-114050499D01*
X171062485Y-114012984D01*
X171188015Y-113940509D01*
X171290509Y-113838015D01*
X171362984Y-113712485D01*
X171400499Y-113572477D01*
X171400500Y-113572477D01*
X171400500Y-113427523D01*
X171400499Y-113427522D01*
X171362985Y-113287518D01*
X171362983Y-113287513D01*
X171290508Y-113161984D01*
X171188015Y-113059491D01*
X171062486Y-112987016D01*
X171062481Y-112987014D01*
X170922477Y-112949500D01*
X170922475Y-112949500D01*
X170777525Y-112949500D01*
X170777523Y-112949500D01*
X170637518Y-112987014D01*
X170637513Y-112987016D01*
X170511984Y-113059491D01*
X170409491Y-113161984D01*
X170337016Y-113287513D01*
X170337014Y-113287518D01*
X170299500Y-113427522D01*
X80000000Y-113427522D01*
X80000000Y-112077522D01*
X177599500Y-112077522D01*
X177599500Y-112222477D01*
X177637014Y-112362481D01*
X177637016Y-112362486D01*
X177709491Y-112488015D01*
X177811985Y-112590509D01*
X177937515Y-112662984D01*
X177937516Y-112662984D01*
X177937518Y-112662985D01*
X178007520Y-112681742D01*
X178077522Y-112700499D01*
X178077523Y-112700500D01*
X178077525Y-112700500D01*
X178222477Y-112700500D01*
X178222477Y-112700499D01*
X178362485Y-112662984D01*
X178488015Y-112590509D01*
X178590509Y-112488015D01*
X178662984Y-112362485D01*
X178700499Y-112222477D01*
X178700500Y-112222477D01*
X178700500Y-112077523D01*
X178700499Y-112077522D01*
X178662985Y-111937518D01*
X178662983Y-111937513D01*
X178590508Y-111811984D01*
X178488015Y-111709491D01*
X178362486Y-111637016D01*
X178362481Y-111637014D01*
X178222477Y-111599500D01*
X178222475Y-111599500D01*
X178077525Y-111599500D01*
X178077523Y-111599500D01*
X177937518Y-111637014D01*
X177937513Y-111637016D01*
X177811984Y-111709491D01*
X177709491Y-111811984D01*
X177637016Y-111937513D01*
X177637014Y-111937518D01*
X177599500Y-112077522D01*
X80000000Y-112077522D01*
X80000000Y-109727522D01*
X167799500Y-109727522D01*
X167799500Y-109872477D01*
X167837014Y-110012481D01*
X167837016Y-110012486D01*
X167909491Y-110138015D01*
X168011985Y-110240509D01*
X168137515Y-110312984D01*
X168137516Y-110312984D01*
X168137518Y-110312985D01*
X168207520Y-110331742D01*
X168277522Y-110350499D01*
X168277523Y-110350500D01*
X168277525Y-110350500D01*
X168422477Y-110350500D01*
X168422477Y-110350499D01*
X168562485Y-110312984D01*
X168688015Y-110240509D01*
X168790509Y-110138015D01*
X168862984Y-110012485D01*
X168900499Y-109872477D01*
X168900500Y-109872477D01*
X168900500Y-109727523D01*
X168900499Y-109727522D01*
X171799500Y-109727522D01*
X171799500Y-109872477D01*
X171837014Y-110012481D01*
X171837016Y-110012486D01*
X171909491Y-110138015D01*
X172011985Y-110240509D01*
X172137515Y-110312984D01*
X172137516Y-110312984D01*
X172137518Y-110312985D01*
X172207520Y-110331742D01*
X172277522Y-110350499D01*
X172277523Y-110350500D01*
X172277525Y-110350500D01*
X172422477Y-110350500D01*
X172422477Y-110350499D01*
X172562485Y-110312984D01*
X172688015Y-110240509D01*
X172790509Y-110138015D01*
X172862984Y-110012485D01*
X172900499Y-109872477D01*
X172900500Y-109872477D01*
X172900500Y-109727523D01*
X172900499Y-109727522D01*
X175799500Y-109727522D01*
X175799500Y-109872477D01*
X175837014Y-110012481D01*
X175837016Y-110012486D01*
X175909491Y-110138015D01*
X176011985Y-110240509D01*
X176137515Y-110312984D01*
X176137516Y-110312984D01*
X176137518Y-110312985D01*
X176207520Y-110331742D01*
X176277522Y-110350499D01*
X176277523Y-110350500D01*
X176277525Y-110350500D01*
X176422477Y-110350500D01*
X176422477Y-110350499D01*
X176562485Y-110312984D01*
X176688015Y-110240509D01*
X176790509Y-110138015D01*
X176862984Y-110012485D01*
X176900499Y-109872477D01*
X176900500Y-109872477D01*
X176900500Y-109727523D01*
X176900499Y-109727522D01*
X180199500Y-109727522D01*
X180199500Y-109872477D01*
X180237014Y-110012481D01*
X180237016Y-110012486D01*
X180309491Y-110138015D01*
X180411985Y-110240509D01*
X180537515Y-110312984D01*
X180537516Y-110312984D01*
X180537518Y-110312985D01*
X180607520Y-110331742D01*
X180677522Y-110350499D01*
X180677523Y-110350500D01*
X180677525Y-110350500D01*
X180822477Y-110350500D01*
X180822477Y-110350499D01*
X180962485Y-110312984D01*
X181088015Y-110240509D01*
X181190509Y-110138015D01*
X181262984Y-110012485D01*
X181300499Y-109872477D01*
X181300500Y-109872477D01*
X181300500Y-109727523D01*
X181300499Y-109727522D01*
X181262985Y-109587518D01*
X181262983Y-109587513D01*
X181190508Y-109461984D01*
X181088015Y-109359491D01*
X180962486Y-109287016D01*
X180962481Y-109287014D01*
X180822477Y-109249500D01*
X180822475Y-109249500D01*
X180677525Y-109249500D01*
X180677523Y-109249500D01*
X180537518Y-109287014D01*
X180537513Y-109287016D01*
X180411984Y-109359491D01*
X180309491Y-109461984D01*
X180237016Y-109587513D01*
X180237014Y-109587518D01*
X180199500Y-109727522D01*
X176900499Y-109727522D01*
X176862985Y-109587518D01*
X176862983Y-109587513D01*
X176790508Y-109461984D01*
X176688015Y-109359491D01*
X176562486Y-109287016D01*
X176562481Y-109287014D01*
X176422477Y-109249500D01*
X176422475Y-109249500D01*
X176277525Y-109249500D01*
X176277523Y-109249500D01*
X176137518Y-109287014D01*
X176137513Y-109287016D01*
X176011984Y-109359491D01*
X175909491Y-109461984D01*
X175837016Y-109587513D01*
X175837014Y-109587518D01*
X175799500Y-109727522D01*
X172900499Y-109727522D01*
X172862985Y-109587518D01*
X172862983Y-109587513D01*
X172790508Y-109461984D01*
X172688015Y-109359491D01*
X172562486Y-109287016D01*
X172562481Y-109287014D01*
X172422477Y-109249500D01*
X172422475Y-109249500D01*
X172277525Y-109249500D01*
X172277523Y-109249500D01*
X172137518Y-109287014D01*
X172137513Y-109287016D01*
X172011984Y-109359491D01*
X171909491Y-109461984D01*
X171837016Y-109587513D01*
X171837014Y-109587518D01*
X171799500Y-109727522D01*
X168900499Y-109727522D01*
X168862985Y-109587518D01*
X168862983Y-109587513D01*
X168790508Y-109461984D01*
X168688015Y-109359491D01*
X168562486Y-109287016D01*
X168562481Y-109287014D01*
X168422477Y-109249500D01*
X168422475Y-109249500D01*
X168277525Y-109249500D01*
X168277523Y-109249500D01*
X168137518Y-109287014D01*
X168137513Y-109287016D01*
X168011984Y-109359491D01*
X167909491Y-109461984D01*
X167837016Y-109587513D01*
X167837014Y-109587518D01*
X167799500Y-109727522D01*
X80000000Y-109727522D01*
X80000000Y-106027522D01*
X109549500Y-106027522D01*
X109549500Y-106172477D01*
X109587014Y-106312481D01*
X109587016Y-106312486D01*
X109659491Y-106438015D01*
X109761985Y-106540509D01*
X109887515Y-106612984D01*
X109887516Y-106612984D01*
X109887518Y-106612985D01*
X109957520Y-106631742D01*
X110027522Y-106650499D01*
X110027523Y-106650500D01*
X110027525Y-106650500D01*
X110172477Y-106650500D01*
X110172477Y-106650499D01*
X110312485Y-106612984D01*
X110438015Y-106540509D01*
X110540509Y-106438015D01*
X110612984Y-106312485D01*
X110650499Y-106172477D01*
X110650500Y-106172477D01*
X110650500Y-106027523D01*
X110650499Y-106027522D01*
X110612985Y-105887518D01*
X110612983Y-105887513D01*
X110540508Y-105761984D01*
X110438015Y-105659491D01*
X110312486Y-105587016D01*
X110312481Y-105587014D01*
X110172477Y-105549500D01*
X110172475Y-105549500D01*
X110027525Y-105549500D01*
X110027523Y-105549500D01*
X109887518Y-105587014D01*
X109887513Y-105587016D01*
X109761984Y-105659491D01*
X109659491Y-105761984D01*
X109587016Y-105887513D01*
X109587014Y-105887518D01*
X109549500Y-106027522D01*
X80000000Y-106027522D01*
X80000000Y-103069999D01*
X81555136Y-103069999D01*
X81555137Y-103070000D01*
X82358012Y-103070000D01*
X82340795Y-103079940D01*
X82284940Y-103135795D01*
X82245444Y-103204204D01*
X82225000Y-103280504D01*
X82225000Y-103359496D01*
X82245444Y-103435796D01*
X82284940Y-103504205D01*
X82340795Y-103560060D01*
X82358012Y-103570000D01*
X81555137Y-103570000D01*
X81563427Y-103611682D01*
X81563430Y-103611693D01*
X81638809Y-103793675D01*
X81748246Y-103957459D01*
X81887540Y-104096753D01*
X82051324Y-104206190D01*
X82233306Y-104281569D01*
X82233317Y-104281572D01*
X82426510Y-104320000D01*
X82675000Y-104320000D01*
X82675000Y-103620000D01*
X83175000Y-103620000D01*
X83175000Y-104320000D01*
X83423490Y-104320000D01*
X83616682Y-104281572D01*
X83616693Y-104281569D01*
X83798675Y-104206190D01*
X83962459Y-104096753D01*
X84101753Y-103957459D01*
X84211190Y-103793675D01*
X84286569Y-103611693D01*
X84286572Y-103611682D01*
X84294863Y-103570000D01*
X83491988Y-103570000D01*
X83509205Y-103560060D01*
X83565060Y-103504205D01*
X83604556Y-103435796D01*
X83625000Y-103359496D01*
X83625000Y-103280504D01*
X83604556Y-103204204D01*
X83565060Y-103135795D01*
X83509205Y-103079940D01*
X83491988Y-103070000D01*
X84294863Y-103070000D01*
X84294863Y-103069999D01*
X85585136Y-103069999D01*
X85585137Y-103070000D01*
X86388012Y-103070000D01*
X86370795Y-103079940D01*
X86314940Y-103135795D01*
X86275444Y-103204204D01*
X86255000Y-103280504D01*
X86255000Y-103359496D01*
X86275444Y-103435796D01*
X86314940Y-103504205D01*
X86370795Y-103560060D01*
X86388012Y-103570000D01*
X85585137Y-103570000D01*
X85593427Y-103611682D01*
X85593430Y-103611693D01*
X85668809Y-103793675D01*
X85778246Y-103957459D01*
X85917540Y-104096753D01*
X86081324Y-104206190D01*
X86263306Y-104281569D01*
X86263317Y-104281572D01*
X86456510Y-104320000D01*
X86855000Y-104320000D01*
X86855000Y-103620000D01*
X87355000Y-103620000D01*
X87355000Y-104320000D01*
X87753490Y-104320000D01*
X87946682Y-104281572D01*
X87946693Y-104281569D01*
X88128675Y-104206190D01*
X88292459Y-104096753D01*
X88431753Y-103957459D01*
X88541190Y-103793675D01*
X88616569Y-103611693D01*
X88616572Y-103611682D01*
X88624863Y-103570000D01*
X87821988Y-103570000D01*
X87839205Y-103560060D01*
X87895060Y-103504205D01*
X87934556Y-103435796D01*
X87945822Y-103393751D01*
X99650000Y-103393751D01*
X99650000Y-103606248D01*
X99683241Y-103816123D01*
X99683244Y-103816136D01*
X99748904Y-104018217D01*
X99748906Y-104018221D01*
X99845375Y-104207550D01*
X99845378Y-104207556D01*
X99884728Y-104261716D01*
X100517037Y-103629407D01*
X100534075Y-103692993D01*
X100599901Y-103807007D01*
X100692993Y-103900099D01*
X100807007Y-103965925D01*
X100870590Y-103982962D01*
X100238282Y-104615270D01*
X100292449Y-104654624D01*
X100481778Y-104751093D01*
X100481782Y-104751095D01*
X100683863Y-104816755D01*
X100683876Y-104816758D01*
X100893751Y-104850000D01*
X101106249Y-104850000D01*
X101316123Y-104816758D01*
X101316136Y-104816755D01*
X101518217Y-104751095D01*
X101518221Y-104751093D01*
X101707554Y-104654623D01*
X101707561Y-104654618D01*
X101761716Y-104615270D01*
X101761717Y-104615270D01*
X101129409Y-103982962D01*
X101192993Y-103965925D01*
X101307007Y-103900099D01*
X101400099Y-103807007D01*
X101465925Y-103692993D01*
X101482962Y-103629409D01*
X102115270Y-104261717D01*
X102115270Y-104261716D01*
X102154618Y-104207561D01*
X102154623Y-104207554D01*
X102251093Y-104018221D01*
X102251095Y-104018217D01*
X102316755Y-103816136D01*
X102316758Y-103816123D01*
X102350000Y-103606248D01*
X102350000Y-103393751D01*
X106150000Y-103393751D01*
X106150000Y-103606248D01*
X106183241Y-103816123D01*
X106183244Y-103816136D01*
X106248904Y-104018217D01*
X106248906Y-104018221D01*
X106345375Y-104207550D01*
X106345378Y-104207556D01*
X106384728Y-104261716D01*
X107017037Y-103629407D01*
X107034075Y-103692993D01*
X107099901Y-103807007D01*
X107192993Y-103900099D01*
X107307007Y-103965925D01*
X107370590Y-103982962D01*
X106738282Y-104615270D01*
X106792449Y-104654624D01*
X106981778Y-104751093D01*
X106981782Y-104751095D01*
X107183863Y-104816755D01*
X107183876Y-104816758D01*
X107393751Y-104850000D01*
X107606249Y-104850000D01*
X107816123Y-104816758D01*
X107816136Y-104816755D01*
X108018217Y-104751095D01*
X108018221Y-104751093D01*
X108207554Y-104654623D01*
X108207561Y-104654618D01*
X108261716Y-104615270D01*
X108261717Y-104615270D01*
X107629409Y-103982962D01*
X107692993Y-103965925D01*
X107807007Y-103900099D01*
X107900099Y-103807007D01*
X107965925Y-103692993D01*
X107982962Y-103629409D01*
X108615270Y-104261717D01*
X108615270Y-104261716D01*
X108654618Y-104207561D01*
X108654623Y-104207554D01*
X108751093Y-104018221D01*
X108751095Y-104018217D01*
X108816755Y-103816136D01*
X108816758Y-103816123D01*
X108850000Y-103606248D01*
X108850000Y-103393751D01*
X124650000Y-103393751D01*
X124650000Y-103606248D01*
X124683241Y-103816123D01*
X124683244Y-103816136D01*
X124748904Y-104018217D01*
X124748906Y-104018221D01*
X124845375Y-104207550D01*
X124845378Y-104207556D01*
X124884728Y-104261716D01*
X125517037Y-103629407D01*
X125534075Y-103692993D01*
X125599901Y-103807007D01*
X125692993Y-103900099D01*
X125807007Y-103965925D01*
X125870590Y-103982962D01*
X125238282Y-104615270D01*
X125292449Y-104654624D01*
X125481778Y-104751093D01*
X125481782Y-104751095D01*
X125683863Y-104816755D01*
X125683876Y-104816758D01*
X125893751Y-104850000D01*
X126106249Y-104850000D01*
X126316123Y-104816758D01*
X126316136Y-104816755D01*
X126518217Y-104751095D01*
X126518221Y-104751093D01*
X126707554Y-104654623D01*
X126707561Y-104654618D01*
X126761716Y-104615270D01*
X126761717Y-104615270D01*
X126129409Y-103982962D01*
X126192993Y-103965925D01*
X126307007Y-103900099D01*
X126400099Y-103807007D01*
X126465925Y-103692993D01*
X126482962Y-103629409D01*
X127115270Y-104261717D01*
X127115270Y-104261716D01*
X127154618Y-104207561D01*
X127154623Y-104207554D01*
X127251093Y-104018221D01*
X127251095Y-104018217D01*
X127316755Y-103816136D01*
X127316758Y-103816123D01*
X127350000Y-103606248D01*
X127350000Y-103393751D01*
X131150000Y-103393751D01*
X131150000Y-103606248D01*
X131183241Y-103816123D01*
X131183244Y-103816136D01*
X131248904Y-104018217D01*
X131248906Y-104018221D01*
X131345375Y-104207550D01*
X131345378Y-104207556D01*
X131384728Y-104261716D01*
X132017037Y-103629407D01*
X132034075Y-103692993D01*
X132099901Y-103807007D01*
X132192993Y-103900099D01*
X132307007Y-103965925D01*
X132370590Y-103982962D01*
X131738282Y-104615270D01*
X131792449Y-104654624D01*
X131981778Y-104751093D01*
X131981782Y-104751095D01*
X132183863Y-104816755D01*
X132183876Y-104816758D01*
X132393751Y-104850000D01*
X132606249Y-104850000D01*
X132816123Y-104816758D01*
X132816136Y-104816755D01*
X133018217Y-104751095D01*
X133018221Y-104751093D01*
X133207554Y-104654623D01*
X133207561Y-104654618D01*
X133261716Y-104615270D01*
X133261717Y-104615270D01*
X132629409Y-103982962D01*
X132692993Y-103965925D01*
X132807007Y-103900099D01*
X132900099Y-103807007D01*
X132965925Y-103692993D01*
X132982962Y-103629409D01*
X133615270Y-104261717D01*
X133615270Y-104261716D01*
X133654618Y-104207561D01*
X133654623Y-104207554D01*
X133751093Y-104018221D01*
X133751095Y-104018217D01*
X133816755Y-103816136D01*
X133816758Y-103816123D01*
X133850000Y-103606248D01*
X133850000Y-103393751D01*
X149650000Y-103393751D01*
X149650000Y-103606248D01*
X149683241Y-103816123D01*
X149683244Y-103816136D01*
X149748904Y-104018217D01*
X149748906Y-104018221D01*
X149845375Y-104207550D01*
X149845378Y-104207556D01*
X149884728Y-104261716D01*
X150517037Y-103629407D01*
X150534075Y-103692993D01*
X150599901Y-103807007D01*
X150692993Y-103900099D01*
X150807007Y-103965925D01*
X150870590Y-103982962D01*
X150238282Y-104615270D01*
X150292449Y-104654624D01*
X150481778Y-104751093D01*
X150481782Y-104751095D01*
X150683863Y-104816755D01*
X150683876Y-104816758D01*
X150893751Y-104850000D01*
X151106249Y-104850000D01*
X151316123Y-104816758D01*
X151316136Y-104816755D01*
X151518217Y-104751095D01*
X151518221Y-104751093D01*
X151707554Y-104654623D01*
X151707561Y-104654618D01*
X151761716Y-104615270D01*
X151761717Y-104615270D01*
X151129409Y-103982962D01*
X151192993Y-103965925D01*
X151307007Y-103900099D01*
X151400099Y-103807007D01*
X151465925Y-103692993D01*
X151482962Y-103629409D01*
X152115270Y-104261717D01*
X152115270Y-104261716D01*
X152154618Y-104207561D01*
X152154623Y-104207554D01*
X152251093Y-104018221D01*
X152251095Y-104018217D01*
X152316755Y-103816136D01*
X152316758Y-103816123D01*
X152350000Y-103606248D01*
X152350000Y-103393751D01*
X156150000Y-103393751D01*
X156150000Y-103606248D01*
X156183241Y-103816123D01*
X156183244Y-103816136D01*
X156248904Y-104018217D01*
X156248906Y-104018221D01*
X156345375Y-104207550D01*
X156345378Y-104207556D01*
X156384728Y-104261716D01*
X157017037Y-103629407D01*
X157034075Y-103692993D01*
X157099901Y-103807007D01*
X157192993Y-103900099D01*
X157307007Y-103965925D01*
X157370590Y-103982962D01*
X156738282Y-104615270D01*
X156792449Y-104654624D01*
X156981778Y-104751093D01*
X156981782Y-104751095D01*
X157183863Y-104816755D01*
X157183876Y-104816758D01*
X157393751Y-104850000D01*
X157606249Y-104850000D01*
X157816123Y-104816758D01*
X157816136Y-104816755D01*
X158018217Y-104751095D01*
X158018221Y-104751093D01*
X158207554Y-104654623D01*
X158207561Y-104654618D01*
X158261716Y-104615270D01*
X158261717Y-104615270D01*
X157629409Y-103982962D01*
X157692993Y-103965925D01*
X157807007Y-103900099D01*
X157900099Y-103807007D01*
X157965925Y-103692993D01*
X157982962Y-103629409D01*
X158615270Y-104261717D01*
X158615270Y-104261716D01*
X158654618Y-104207561D01*
X158654620Y-104207559D01*
X158669925Y-104177522D01*
X179299500Y-104177522D01*
X179299500Y-104322477D01*
X179337014Y-104462481D01*
X179337016Y-104462486D01*
X179409491Y-104588015D01*
X179511985Y-104690509D01*
X179637515Y-104762984D01*
X179637516Y-104762984D01*
X179637518Y-104762985D01*
X179707520Y-104781742D01*
X179777522Y-104800499D01*
X179777523Y-104800500D01*
X179777525Y-104800500D01*
X179922477Y-104800500D01*
X179922477Y-104800499D01*
X180062485Y-104762984D01*
X180188015Y-104690509D01*
X180290509Y-104588015D01*
X180362984Y-104462485D01*
X180400499Y-104322477D01*
X180400500Y-104322477D01*
X180400500Y-104177523D01*
X180400499Y-104177522D01*
X180362985Y-104037518D01*
X180362983Y-104037513D01*
X180321651Y-103965925D01*
X180290509Y-103911985D01*
X180188015Y-103809491D01*
X180160621Y-103793675D01*
X180062486Y-103737016D01*
X180062481Y-103737014D01*
X179922477Y-103699500D01*
X179922475Y-103699500D01*
X179777525Y-103699500D01*
X179777523Y-103699500D01*
X179637518Y-103737014D01*
X179637513Y-103737016D01*
X179511984Y-103809491D01*
X179409491Y-103911984D01*
X179337016Y-104037513D01*
X179337014Y-104037518D01*
X179299500Y-104177522D01*
X158669925Y-104177522D01*
X158689513Y-104139079D01*
X158689513Y-104139078D01*
X158751093Y-104018222D01*
X158751095Y-104018217D01*
X158816755Y-103816136D01*
X158816758Y-103816123D01*
X158850000Y-103606248D01*
X158850000Y-103393751D01*
X158816758Y-103183876D01*
X158816755Y-103183863D01*
X158751095Y-102981782D01*
X158751093Y-102981778D01*
X158654624Y-102792449D01*
X158654625Y-102792449D01*
X158615269Y-102738282D01*
X157982962Y-103370590D01*
X157965925Y-103307007D01*
X157900099Y-103192993D01*
X157807007Y-103099901D01*
X157692993Y-103034075D01*
X157629407Y-103017037D01*
X158261716Y-102384728D01*
X158207556Y-102345378D01*
X158207550Y-102345375D01*
X158018221Y-102248906D01*
X158018216Y-102248904D01*
X157952978Y-102227707D01*
X157909910Y-102190924D01*
X157905467Y-102134462D01*
X157923520Y-102105003D01*
X157940509Y-102088015D01*
X158012984Y-101962485D01*
X158050499Y-101822477D01*
X158050500Y-101822477D01*
X158050500Y-101677523D01*
X158050499Y-101677522D01*
X158043258Y-101650500D01*
X158012984Y-101537515D01*
X157940509Y-101411985D01*
X157838015Y-101309491D01*
X157712486Y-101237016D01*
X157712481Y-101237014D01*
X157572477Y-101199500D01*
X157572475Y-101199500D01*
X157427525Y-101199500D01*
X157427523Y-101199500D01*
X157287518Y-101237014D01*
X157287513Y-101237016D01*
X157161984Y-101309491D01*
X157059491Y-101411984D01*
X156987016Y-101537513D01*
X156987014Y-101537518D01*
X156949500Y-101677522D01*
X156949500Y-101822477D01*
X156987014Y-101962481D01*
X156987016Y-101962486D01*
X157059491Y-102088015D01*
X157076479Y-102105003D01*
X157098153Y-102157329D01*
X157076479Y-102209655D01*
X157047021Y-102227707D01*
X156981784Y-102248904D01*
X156792450Y-102345374D01*
X156738282Y-102384729D01*
X157370590Y-103017037D01*
X157307007Y-103034075D01*
X157192993Y-103099901D01*
X157099901Y-103192993D01*
X157034075Y-103307007D01*
X157017037Y-103370590D01*
X156384729Y-102738282D01*
X156345374Y-102792450D01*
X156248903Y-102981785D01*
X156183244Y-103183863D01*
X156183241Y-103183876D01*
X156150000Y-103393751D01*
X152350000Y-103393751D01*
X152316758Y-103183876D01*
X152316755Y-103183863D01*
X152251095Y-102981782D01*
X152251093Y-102981778D01*
X152154624Y-102792449D01*
X152154625Y-102792449D01*
X152115269Y-102738282D01*
X151482962Y-103370590D01*
X151465925Y-103307007D01*
X151400099Y-103192993D01*
X151307007Y-103099901D01*
X151192993Y-103034075D01*
X151129407Y-103017037D01*
X151761716Y-102384728D01*
X151707556Y-102345378D01*
X151707550Y-102345375D01*
X151518221Y-102248906D01*
X151518217Y-102248904D01*
X151316136Y-102183244D01*
X151316123Y-102183241D01*
X151106249Y-102150000D01*
X150893751Y-102150000D01*
X150683876Y-102183241D01*
X150683863Y-102183244D01*
X150481785Y-102248903D01*
X150292450Y-102345374D01*
X150238282Y-102384729D01*
X150870590Y-103017037D01*
X150807007Y-103034075D01*
X150692993Y-103099901D01*
X150599901Y-103192993D01*
X150534075Y-103307007D01*
X150517037Y-103370590D01*
X149884729Y-102738282D01*
X149845374Y-102792450D01*
X149748903Y-102981785D01*
X149683244Y-103183863D01*
X149683241Y-103183876D01*
X149650000Y-103393751D01*
X133850000Y-103393751D01*
X133816758Y-103183876D01*
X133816755Y-103183863D01*
X133751095Y-102981782D01*
X133751093Y-102981778D01*
X133654624Y-102792449D01*
X133654625Y-102792449D01*
X133615269Y-102738282D01*
X132982962Y-103370590D01*
X132965925Y-103307007D01*
X132900099Y-103192993D01*
X132807007Y-103099901D01*
X132692993Y-103034075D01*
X132629407Y-103017037D01*
X133261716Y-102384728D01*
X133207556Y-102345378D01*
X133207550Y-102345375D01*
X133018221Y-102248906D01*
X133018216Y-102248904D01*
X132952978Y-102227707D01*
X132909910Y-102190924D01*
X132905467Y-102134462D01*
X132923520Y-102105003D01*
X132940509Y-102088015D01*
X133012984Y-101962485D01*
X133050499Y-101822477D01*
X133050500Y-101822477D01*
X133050500Y-101677523D01*
X133050499Y-101677522D01*
X133043258Y-101650500D01*
X133012984Y-101537515D01*
X132940509Y-101411985D01*
X132838015Y-101309491D01*
X132712486Y-101237016D01*
X132712481Y-101237014D01*
X132572477Y-101199500D01*
X132572475Y-101199500D01*
X132427525Y-101199500D01*
X132427523Y-101199500D01*
X132287518Y-101237014D01*
X132287513Y-101237016D01*
X132161984Y-101309491D01*
X132059491Y-101411984D01*
X131987016Y-101537513D01*
X131987014Y-101537518D01*
X131949500Y-101677522D01*
X131949500Y-101822477D01*
X131987014Y-101962481D01*
X131987016Y-101962486D01*
X132059491Y-102088015D01*
X132076479Y-102105003D01*
X132098153Y-102157329D01*
X132076479Y-102209655D01*
X132047021Y-102227707D01*
X131981784Y-102248904D01*
X131792450Y-102345374D01*
X131738282Y-102384729D01*
X132370590Y-103017037D01*
X132307007Y-103034075D01*
X132192993Y-103099901D01*
X132099901Y-103192993D01*
X132034075Y-103307007D01*
X132017037Y-103370590D01*
X131384729Y-102738282D01*
X131345374Y-102792450D01*
X131248903Y-102981785D01*
X131183244Y-103183863D01*
X131183241Y-103183876D01*
X131150000Y-103393751D01*
X127350000Y-103393751D01*
X127316758Y-103183876D01*
X127316755Y-103183863D01*
X127251095Y-102981782D01*
X127251093Y-102981778D01*
X127154624Y-102792449D01*
X127154625Y-102792449D01*
X127115269Y-102738282D01*
X126482962Y-103370590D01*
X126465925Y-103307007D01*
X126400099Y-103192993D01*
X126307007Y-103099901D01*
X126192993Y-103034075D01*
X126129407Y-103017037D01*
X126761716Y-102384728D01*
X126707556Y-102345378D01*
X126707550Y-102345375D01*
X126518221Y-102248906D01*
X126518217Y-102248904D01*
X126316136Y-102183244D01*
X126316123Y-102183241D01*
X126106249Y-102150000D01*
X125893751Y-102150000D01*
X125683876Y-102183241D01*
X125683863Y-102183244D01*
X125481785Y-102248903D01*
X125292450Y-102345374D01*
X125238282Y-102384729D01*
X125870590Y-103017037D01*
X125807007Y-103034075D01*
X125692993Y-103099901D01*
X125599901Y-103192993D01*
X125534075Y-103307007D01*
X125517037Y-103370590D01*
X124884729Y-102738282D01*
X124845374Y-102792450D01*
X124748903Y-102981785D01*
X124683244Y-103183863D01*
X124683241Y-103183876D01*
X124650000Y-103393751D01*
X108850000Y-103393751D01*
X108816758Y-103183876D01*
X108816755Y-103183863D01*
X108751095Y-102981782D01*
X108751093Y-102981778D01*
X108654624Y-102792449D01*
X108654625Y-102792449D01*
X108615269Y-102738282D01*
X107982962Y-103370590D01*
X107965925Y-103307007D01*
X107900099Y-103192993D01*
X107807007Y-103099901D01*
X107692993Y-103034075D01*
X107629407Y-103017037D01*
X108261716Y-102384728D01*
X108207556Y-102345378D01*
X108207550Y-102345375D01*
X108018221Y-102248906D01*
X108018217Y-102248904D01*
X107816136Y-102183244D01*
X107816123Y-102183241D01*
X107606249Y-102150000D01*
X107393751Y-102150000D01*
X107183876Y-102183241D01*
X107183863Y-102183244D01*
X106981785Y-102248903D01*
X106792450Y-102345374D01*
X106738282Y-102384729D01*
X107370590Y-103017037D01*
X107307007Y-103034075D01*
X107192993Y-103099901D01*
X107099901Y-103192993D01*
X107034075Y-103307007D01*
X107017037Y-103370590D01*
X106384729Y-102738282D01*
X106345374Y-102792450D01*
X106248903Y-102981785D01*
X106183244Y-103183863D01*
X106183241Y-103183876D01*
X106150000Y-103393751D01*
X102350000Y-103393751D01*
X102316758Y-103183876D01*
X102316755Y-103183863D01*
X102251095Y-102981782D01*
X102251093Y-102981778D01*
X102154624Y-102792449D01*
X102154625Y-102792449D01*
X102115269Y-102738282D01*
X101482962Y-103370590D01*
X101465925Y-103307007D01*
X101400099Y-103192993D01*
X101307007Y-103099901D01*
X101192993Y-103034075D01*
X101129407Y-103017037D01*
X101761716Y-102384728D01*
X101707556Y-102345378D01*
X101707550Y-102345375D01*
X101518221Y-102248906D01*
X101518217Y-102248904D01*
X101316136Y-102183244D01*
X101316123Y-102183241D01*
X101106249Y-102150000D01*
X100893751Y-102150000D01*
X100683876Y-102183241D01*
X100683863Y-102183244D01*
X100481785Y-102248903D01*
X100292450Y-102345374D01*
X100238282Y-102384729D01*
X100870590Y-103017037D01*
X100807007Y-103034075D01*
X100692993Y-103099901D01*
X100599901Y-103192993D01*
X100534075Y-103307007D01*
X100517037Y-103370590D01*
X99884729Y-102738282D01*
X99845374Y-102792450D01*
X99748903Y-102981785D01*
X99683244Y-103183863D01*
X99683241Y-103183876D01*
X99650000Y-103393751D01*
X87945822Y-103393751D01*
X87955000Y-103359496D01*
X87955000Y-103280504D01*
X87934556Y-103204204D01*
X87895060Y-103135795D01*
X87839205Y-103079940D01*
X87821988Y-103070000D01*
X88624863Y-103070000D01*
X88624863Y-103069999D01*
X88616572Y-103028317D01*
X88616569Y-103028306D01*
X88541190Y-102846324D01*
X88431753Y-102682540D01*
X88292459Y-102543246D01*
X88189515Y-102474461D01*
X88128675Y-102433809D01*
X87946693Y-102358430D01*
X87946682Y-102358427D01*
X87753490Y-102320000D01*
X87355000Y-102320000D01*
X87355000Y-103020000D01*
X86855000Y-103020000D01*
X86855000Y-102337446D01*
X86876674Y-102285120D01*
X86879660Y-102282295D01*
X86885363Y-102277192D01*
X86896964Y-102270495D01*
X86985495Y-102181964D01*
X87048095Y-102073536D01*
X87080499Y-101952603D01*
X87080500Y-101952603D01*
X87080500Y-101827397D01*
X87080499Y-101827396D01*
X87079180Y-101822475D01*
X87048095Y-101706464D01*
X86985495Y-101598036D01*
X86896964Y-101509505D01*
X86896963Y-101509504D01*
X86788534Y-101446904D01*
X86788536Y-101446904D01*
X86667603Y-101414500D01*
X86667601Y-101414500D01*
X86542399Y-101414500D01*
X86542397Y-101414500D01*
X86421464Y-101446904D01*
X86313036Y-101509504D01*
X86224504Y-101598036D01*
X86161904Y-101706464D01*
X86129500Y-101827396D01*
X86129500Y-101952603D01*
X86161904Y-102073535D01*
X86224504Y-102181963D01*
X86282339Y-102239798D01*
X86304013Y-102292124D01*
X86282339Y-102344450D01*
X86258332Y-102360491D01*
X86081322Y-102433810D01*
X85917540Y-102543246D01*
X85778246Y-102682540D01*
X85668809Y-102846324D01*
X85593430Y-103028306D01*
X85593427Y-103028317D01*
X85585136Y-103069999D01*
X84294863Y-103069999D01*
X84286572Y-103028317D01*
X84286569Y-103028306D01*
X84211190Y-102846324D01*
X84101753Y-102682540D01*
X83962459Y-102543246D01*
X83798675Y-102433809D01*
X83616693Y-102358430D01*
X83616682Y-102358427D01*
X83423490Y-102320000D01*
X83175000Y-102320000D01*
X83175000Y-103020000D01*
X82675000Y-103020000D01*
X82675000Y-102320000D01*
X82426510Y-102320000D01*
X82233317Y-102358427D01*
X82233306Y-102358430D01*
X82051324Y-102433809D01*
X81887540Y-102543246D01*
X81748246Y-102682540D01*
X81638809Y-102846324D01*
X81563430Y-103028306D01*
X81563427Y-103028317D01*
X81555136Y-103069999D01*
X80000000Y-103069999D01*
X80000000Y-101027522D01*
X88149500Y-101027522D01*
X88149500Y-101172477D01*
X88187014Y-101312481D01*
X88187016Y-101312486D01*
X88259491Y-101438015D01*
X88361985Y-101540509D01*
X88487515Y-101612984D01*
X88487516Y-101612984D01*
X88487518Y-101612985D01*
X88557520Y-101631742D01*
X88627522Y-101650499D01*
X88627523Y-101650500D01*
X88627525Y-101650500D01*
X88772477Y-101650500D01*
X88772477Y-101650499D01*
X88912485Y-101612984D01*
X89038015Y-101540509D01*
X89140509Y-101438015D01*
X89212984Y-101312485D01*
X89250499Y-101172477D01*
X89250500Y-101172477D01*
X89250500Y-101027523D01*
X89250499Y-101027522D01*
X89212985Y-100887518D01*
X89212983Y-100887513D01*
X89140508Y-100761984D01*
X89038015Y-100659491D01*
X88912486Y-100587016D01*
X88912481Y-100587014D01*
X88772477Y-100549500D01*
X88772475Y-100549500D01*
X88627525Y-100549500D01*
X88627523Y-100549500D01*
X88487518Y-100587014D01*
X88487513Y-100587016D01*
X88361984Y-100659491D01*
X88259491Y-100761984D01*
X88187016Y-100887513D01*
X88187014Y-100887518D01*
X88149500Y-101027522D01*
X80000000Y-101027522D01*
X80000000Y-98105135D01*
X99849500Y-98105135D01*
X99849500Y-99894863D01*
X99852414Y-99919986D01*
X99852415Y-99919991D01*
X99897794Y-100022765D01*
X99977235Y-100102206D01*
X100080009Y-100147585D01*
X100105135Y-100150500D01*
X101894864Y-100150499D01*
X101919991Y-100147585D01*
X102022765Y-100102206D01*
X102102206Y-100022765D01*
X102147585Y-99919991D01*
X102150500Y-99894865D01*
X102150499Y-98909453D01*
X106349500Y-98909453D01*
X106349500Y-99090546D01*
X106377828Y-99269406D01*
X106377831Y-99269419D01*
X106433787Y-99441635D01*
X106433788Y-99441638D01*
X106433789Y-99441639D01*
X106516004Y-99602994D01*
X106622447Y-99749501D01*
X106750499Y-99877553D01*
X106897006Y-99983996D01*
X107058361Y-100066211D01*
X107058364Y-100066212D01*
X107058363Y-100066212D01*
X107230580Y-100122168D01*
X107230586Y-100122169D01*
X107230591Y-100122171D01*
X107349833Y-100141057D01*
X107409453Y-100150500D01*
X107409454Y-100150500D01*
X107590547Y-100150500D01*
X107635261Y-100143417D01*
X107769409Y-100122171D01*
X107769416Y-100122168D01*
X107769419Y-100122168D01*
X107847601Y-100096765D01*
X107941639Y-100066211D01*
X108102994Y-99983996D01*
X108249501Y-99877553D01*
X108377553Y-99749501D01*
X108483996Y-99602994D01*
X108566211Y-99441639D01*
X108622171Y-99269409D01*
X108650500Y-99090546D01*
X108650500Y-98909454D01*
X108622171Y-98730591D01*
X108622169Y-98730586D01*
X108622168Y-98730580D01*
X108566212Y-98558364D01*
X108566211Y-98558363D01*
X108566211Y-98558361D01*
X108483996Y-98397006D01*
X108377553Y-98250499D01*
X108249501Y-98122447D01*
X108225673Y-98105135D01*
X124849500Y-98105135D01*
X124849500Y-99894863D01*
X124852414Y-99919986D01*
X124852415Y-99919991D01*
X124897794Y-100022765D01*
X124977235Y-100102206D01*
X125080009Y-100147585D01*
X125105135Y-100150500D01*
X126894864Y-100150499D01*
X126919991Y-100147585D01*
X127022765Y-100102206D01*
X127102206Y-100022765D01*
X127147585Y-99919991D01*
X127150500Y-99894865D01*
X127150499Y-98909453D01*
X131349500Y-98909453D01*
X131349500Y-99090546D01*
X131377828Y-99269406D01*
X131377831Y-99269419D01*
X131433787Y-99441635D01*
X131433788Y-99441638D01*
X131433789Y-99441639D01*
X131516004Y-99602994D01*
X131622447Y-99749501D01*
X131750499Y-99877553D01*
X131897006Y-99983996D01*
X132058361Y-100066211D01*
X132058364Y-100066212D01*
X132058363Y-100066212D01*
X132230580Y-100122168D01*
X132230586Y-100122169D01*
X132230591Y-100122171D01*
X132349833Y-100141057D01*
X132409453Y-100150500D01*
X132409454Y-100150500D01*
X132590547Y-100150500D01*
X132635261Y-100143417D01*
X132769409Y-100122171D01*
X132769416Y-100122168D01*
X132769419Y-100122168D01*
X132847601Y-100096765D01*
X132941639Y-100066211D01*
X133102994Y-99983996D01*
X133249501Y-99877553D01*
X133377553Y-99749501D01*
X133483996Y-99602994D01*
X133566211Y-99441639D01*
X133622171Y-99269409D01*
X133650500Y-99090546D01*
X133650500Y-98909454D01*
X133622171Y-98730591D01*
X133622169Y-98730586D01*
X133622168Y-98730580D01*
X133566212Y-98558364D01*
X133566211Y-98558363D01*
X133566211Y-98558361D01*
X133483996Y-98397006D01*
X133377553Y-98250499D01*
X133249501Y-98122447D01*
X133225673Y-98105135D01*
X149849500Y-98105135D01*
X149849500Y-99894863D01*
X149852414Y-99919986D01*
X149852415Y-99919991D01*
X149897794Y-100022765D01*
X149977235Y-100102206D01*
X150080009Y-100147585D01*
X150105135Y-100150500D01*
X151894864Y-100150499D01*
X151919991Y-100147585D01*
X152022765Y-100102206D01*
X152102206Y-100022765D01*
X152147585Y-99919991D01*
X152150500Y-99894865D01*
X152150499Y-98909453D01*
X156349500Y-98909453D01*
X156349500Y-99090546D01*
X156377828Y-99269406D01*
X156377831Y-99269419D01*
X156433787Y-99441635D01*
X156433788Y-99441638D01*
X156433789Y-99441639D01*
X156516004Y-99602994D01*
X156622447Y-99749501D01*
X156750499Y-99877553D01*
X156897006Y-99983996D01*
X157058361Y-100066211D01*
X157058364Y-100066212D01*
X157058363Y-100066212D01*
X157230580Y-100122168D01*
X157230586Y-100122169D01*
X157230591Y-100122171D01*
X157349833Y-100141057D01*
X157409453Y-100150500D01*
X157409454Y-100150500D01*
X157590547Y-100150500D01*
X157635261Y-100143417D01*
X157769409Y-100122171D01*
X157769416Y-100122168D01*
X157769419Y-100122168D01*
X157847601Y-100096765D01*
X157941639Y-100066211D01*
X158102994Y-99983996D01*
X158249501Y-99877553D01*
X158377553Y-99749501D01*
X158483996Y-99602994D01*
X158566211Y-99441639D01*
X158622171Y-99269409D01*
X158650500Y-99090546D01*
X158650500Y-98909454D01*
X158622171Y-98730591D01*
X158622169Y-98730586D01*
X158622168Y-98730580D01*
X158566212Y-98558364D01*
X158566211Y-98558363D01*
X158566211Y-98558361D01*
X158483996Y-98397006D01*
X158383524Y-98258717D01*
X158370302Y-98203645D01*
X158399895Y-98155354D01*
X158454967Y-98142132D01*
X158480387Y-98151133D01*
X158587515Y-98212984D01*
X158587516Y-98212984D01*
X158587518Y-98212985D01*
X158657520Y-98231742D01*
X158727522Y-98250499D01*
X158727523Y-98250500D01*
X158727525Y-98250500D01*
X158872477Y-98250500D01*
X158872477Y-98250499D01*
X159012485Y-98212984D01*
X159138015Y-98140509D01*
X159240509Y-98038015D01*
X159312984Y-97912485D01*
X159350499Y-97772477D01*
X159350500Y-97772477D01*
X159350500Y-97627523D01*
X159350499Y-97627522D01*
X159312985Y-97487518D01*
X159312983Y-97487513D01*
X159240508Y-97361984D01*
X159138015Y-97259491D01*
X159012486Y-97187016D01*
X159012481Y-97187014D01*
X158872477Y-97149500D01*
X158872475Y-97149500D01*
X158727525Y-97149500D01*
X158727523Y-97149500D01*
X158587518Y-97187014D01*
X158587513Y-97187016D01*
X158461984Y-97259491D01*
X158359491Y-97361984D01*
X158287016Y-97487513D01*
X158287014Y-97487518D01*
X158249500Y-97627522D01*
X158249500Y-97772477D01*
X158287014Y-97912481D01*
X158287016Y-97912486D01*
X158299316Y-97933789D01*
X158346783Y-98016005D01*
X158348864Y-98019608D01*
X158356257Y-98075760D01*
X158321778Y-98120694D01*
X158265626Y-98128087D01*
X158241282Y-98116475D01*
X158102997Y-98016006D01*
X158102995Y-98016005D01*
X158102996Y-98016005D01*
X158102994Y-98016004D01*
X157941639Y-97933789D01*
X157941638Y-97933788D01*
X157941635Y-97933787D01*
X157941636Y-97933787D01*
X157769419Y-97877831D01*
X157769406Y-97877828D01*
X157590547Y-97849500D01*
X157590546Y-97849500D01*
X157409454Y-97849500D01*
X157409453Y-97849500D01*
X157230593Y-97877828D01*
X157230580Y-97877831D01*
X157058364Y-97933787D01*
X156897004Y-98016005D01*
X156897003Y-98016005D01*
X156758719Y-98116475D01*
X156750499Y-98122447D01*
X156622447Y-98250499D01*
X156622444Y-98250502D01*
X156622444Y-98250503D01*
X156516005Y-98397003D01*
X156516005Y-98397004D01*
X156433787Y-98558364D01*
X156377831Y-98730580D01*
X156377828Y-98730593D01*
X156349500Y-98909453D01*
X152150499Y-98909453D01*
X152150499Y-98105136D01*
X152147585Y-98080009D01*
X152102206Y-97977235D01*
X152022765Y-97897794D01*
X151919991Y-97852415D01*
X151919990Y-97852414D01*
X151919988Y-97852414D01*
X151898659Y-97849940D01*
X151894865Y-97849500D01*
X151894864Y-97849500D01*
X150105136Y-97849500D01*
X150080013Y-97852414D01*
X150080007Y-97852415D01*
X149977234Y-97897794D01*
X149897794Y-97977234D01*
X149852414Y-98080011D01*
X149849500Y-98105135D01*
X133225673Y-98105135D01*
X133102997Y-98016006D01*
X133102996Y-98016005D01*
X132941635Y-97933787D01*
X132941636Y-97933787D01*
X132769419Y-97877831D01*
X132769406Y-97877828D01*
X132590547Y-97849500D01*
X132590546Y-97849500D01*
X132409454Y-97849500D01*
X132409453Y-97849500D01*
X132230593Y-97877828D01*
X132230580Y-97877831D01*
X132058364Y-97933787D01*
X131897004Y-98016005D01*
X131897003Y-98016005D01*
X131758719Y-98116475D01*
X131750499Y-98122447D01*
X131622447Y-98250499D01*
X131622444Y-98250502D01*
X131622444Y-98250503D01*
X131516005Y-98397003D01*
X131516005Y-98397004D01*
X131433787Y-98558364D01*
X131377831Y-98730580D01*
X131377828Y-98730593D01*
X131349500Y-98909453D01*
X127150499Y-98909453D01*
X127150499Y-98105136D01*
X127147585Y-98080009D01*
X127102206Y-97977235D01*
X127022765Y-97897794D01*
X126919991Y-97852415D01*
X126919990Y-97852414D01*
X126919988Y-97852414D01*
X126898659Y-97849940D01*
X126894865Y-97849500D01*
X126894864Y-97849500D01*
X125105136Y-97849500D01*
X125080013Y-97852414D01*
X125080007Y-97852415D01*
X124977234Y-97897794D01*
X124897794Y-97977234D01*
X124852414Y-98080011D01*
X124849500Y-98105135D01*
X108225673Y-98105135D01*
X108102997Y-98016006D01*
X108102996Y-98016005D01*
X107941635Y-97933787D01*
X107941636Y-97933787D01*
X107769419Y-97877831D01*
X107769406Y-97877828D01*
X107590547Y-97849500D01*
X107590546Y-97849500D01*
X107409454Y-97849500D01*
X107409453Y-97849500D01*
X107230593Y-97877828D01*
X107230580Y-97877831D01*
X107058364Y-97933787D01*
X106897004Y-98016005D01*
X106897003Y-98016005D01*
X106758719Y-98116475D01*
X106750499Y-98122447D01*
X106622447Y-98250499D01*
X106622444Y-98250502D01*
X106622444Y-98250503D01*
X106516005Y-98397003D01*
X106516005Y-98397004D01*
X106433787Y-98558364D01*
X106377831Y-98730580D01*
X106377828Y-98730593D01*
X106349500Y-98909453D01*
X102150499Y-98909453D01*
X102150499Y-98105136D01*
X102147585Y-98080009D01*
X102102206Y-97977235D01*
X102022765Y-97897794D01*
X101919991Y-97852415D01*
X101919990Y-97852414D01*
X101919988Y-97852414D01*
X101898659Y-97849940D01*
X101894865Y-97849500D01*
X101894864Y-97849500D01*
X100105136Y-97849500D01*
X100080013Y-97852414D01*
X100080007Y-97852415D01*
X99977234Y-97897794D01*
X99897794Y-97977234D01*
X99852414Y-98080011D01*
X99849500Y-98105135D01*
X80000000Y-98105135D01*
X80000000Y-96827522D01*
X88149500Y-96827522D01*
X88149500Y-96972477D01*
X88187014Y-97112481D01*
X88187016Y-97112486D01*
X88259491Y-97238015D01*
X88361985Y-97340509D01*
X88487515Y-97412984D01*
X88487516Y-97412984D01*
X88487518Y-97412985D01*
X88557520Y-97431742D01*
X88627522Y-97450499D01*
X88627523Y-97450500D01*
X88627525Y-97450500D01*
X88772477Y-97450500D01*
X88772477Y-97450499D01*
X88912485Y-97412984D01*
X89038015Y-97340509D01*
X89140509Y-97238015D01*
X89212984Y-97112485D01*
X89250499Y-96972477D01*
X89250500Y-96972477D01*
X89250500Y-96827523D01*
X89250499Y-96827522D01*
X89212985Y-96687518D01*
X89212983Y-96687513D01*
X89140508Y-96561984D01*
X89038015Y-96459491D01*
X88912486Y-96387016D01*
X88912481Y-96387014D01*
X88772477Y-96349500D01*
X88772475Y-96349500D01*
X88627525Y-96349500D01*
X88627523Y-96349500D01*
X88487518Y-96387014D01*
X88487513Y-96387016D01*
X88361984Y-96459491D01*
X88259491Y-96561984D01*
X88187016Y-96687513D01*
X88187014Y-96687518D01*
X88149500Y-96827522D01*
X80000000Y-96827522D01*
X80000000Y-94429999D01*
X81555136Y-94429999D01*
X81555137Y-94430000D01*
X82358012Y-94430000D01*
X82340795Y-94439940D01*
X82284940Y-94495795D01*
X82245444Y-94564204D01*
X82225000Y-94640504D01*
X82225000Y-94719496D01*
X82245444Y-94795796D01*
X82284940Y-94864205D01*
X82340795Y-94920060D01*
X82358012Y-94930000D01*
X81555137Y-94930000D01*
X81563427Y-94971682D01*
X81563430Y-94971693D01*
X81638809Y-95153675D01*
X81748246Y-95317459D01*
X81887540Y-95456753D01*
X82051324Y-95566190D01*
X82233306Y-95641569D01*
X82233317Y-95641572D01*
X82426510Y-95680000D01*
X82675000Y-95680000D01*
X82675000Y-94980000D01*
X83175000Y-94980000D01*
X83175000Y-95680000D01*
X83423490Y-95680000D01*
X83616682Y-95641572D01*
X83616693Y-95641569D01*
X83798675Y-95566190D01*
X83962459Y-95456753D01*
X84101753Y-95317459D01*
X84211190Y-95153675D01*
X84286569Y-94971693D01*
X84286572Y-94971682D01*
X84294863Y-94930000D01*
X83491988Y-94930000D01*
X83509205Y-94920060D01*
X83565060Y-94864205D01*
X83604556Y-94795796D01*
X83625000Y-94719496D01*
X83625000Y-94640504D01*
X83604556Y-94564204D01*
X83565060Y-94495795D01*
X83509205Y-94439940D01*
X83491988Y-94430000D01*
X84294863Y-94430000D01*
X84294863Y-94429999D01*
X85585136Y-94429999D01*
X85585137Y-94430000D01*
X86388012Y-94430000D01*
X86370795Y-94439940D01*
X86314940Y-94495795D01*
X86275444Y-94564204D01*
X86255000Y-94640504D01*
X86255000Y-94719496D01*
X86275444Y-94795796D01*
X86314940Y-94864205D01*
X86370795Y-94920060D01*
X86388012Y-94930000D01*
X85585137Y-94930000D01*
X85593427Y-94971682D01*
X85593430Y-94971693D01*
X85668809Y-95153675D01*
X85778246Y-95317459D01*
X85917540Y-95456753D01*
X86081324Y-95566190D01*
X86258331Y-95639508D01*
X86298380Y-95679556D01*
X86298380Y-95736193D01*
X86282339Y-95760200D01*
X86224507Y-95818032D01*
X86224504Y-95818036D01*
X86161904Y-95926464D01*
X86129500Y-96047396D01*
X86129500Y-96172603D01*
X86161904Y-96293535D01*
X86215875Y-96387016D01*
X86224505Y-96401964D01*
X86313036Y-96490495D01*
X86421464Y-96553095D01*
X86421463Y-96553095D01*
X86454641Y-96561985D01*
X86542396Y-96585499D01*
X86542397Y-96585500D01*
X86542399Y-96585500D01*
X86667603Y-96585500D01*
X86667603Y-96585499D01*
X86788536Y-96553095D01*
X86896964Y-96490495D01*
X86985495Y-96401964D01*
X87048095Y-96293536D01*
X87080499Y-96172603D01*
X87080500Y-96172603D01*
X87080500Y-96047397D01*
X87080499Y-96047396D01*
X87052212Y-95941828D01*
X87052211Y-95941827D01*
X87048378Y-95927522D01*
X89799500Y-95927522D01*
X89799500Y-96072477D01*
X89837014Y-96212481D01*
X89837016Y-96212486D01*
X89883810Y-96293535D01*
X89909491Y-96338015D01*
X90011985Y-96440509D01*
X90137515Y-96512984D01*
X90137516Y-96512984D01*
X90137518Y-96512985D01*
X90207520Y-96531742D01*
X90277522Y-96550499D01*
X90277523Y-96550500D01*
X90277525Y-96550500D01*
X90422477Y-96550500D01*
X90422477Y-96550499D01*
X90562485Y-96512984D01*
X90688015Y-96440509D01*
X90790509Y-96338015D01*
X90862984Y-96212485D01*
X90900499Y-96072477D01*
X90900500Y-96072477D01*
X90900500Y-95927523D01*
X90900499Y-95927522D01*
X90862985Y-95787518D01*
X90862983Y-95787513D01*
X90829491Y-95729504D01*
X90790509Y-95661985D01*
X90688015Y-95559491D01*
X90562486Y-95487016D01*
X90562481Y-95487014D01*
X90422477Y-95449500D01*
X90422475Y-95449500D01*
X90277525Y-95449500D01*
X90277523Y-95449500D01*
X90137518Y-95487014D01*
X90137513Y-95487016D01*
X90011984Y-95559491D01*
X89909491Y-95661984D01*
X89837016Y-95787513D01*
X89837014Y-95787518D01*
X89799500Y-95927522D01*
X87048378Y-95927522D01*
X87048095Y-95926464D01*
X86985495Y-95818036D01*
X86896964Y-95729505D01*
X86896963Y-95729504D01*
X86891999Y-95726638D01*
X86857521Y-95681705D01*
X86855000Y-95662553D01*
X86855000Y-94980000D01*
X87355000Y-94980000D01*
X87355000Y-95680000D01*
X87753490Y-95680000D01*
X87946682Y-95641572D01*
X87946693Y-95641569D01*
X88128675Y-95566190D01*
X88292459Y-95456753D01*
X88431753Y-95317459D01*
X88541190Y-95153675D01*
X88616569Y-94971693D01*
X88616572Y-94971682D01*
X88628829Y-94910064D01*
X88660295Y-94862971D01*
X88701407Y-94850500D01*
X88722477Y-94850500D01*
X88722477Y-94850499D01*
X88862485Y-94812984D01*
X88988015Y-94740509D01*
X89090509Y-94638015D01*
X89162984Y-94512485D01*
X89200499Y-94372477D01*
X89200500Y-94372477D01*
X89200500Y-94227523D01*
X89200499Y-94227522D01*
X89162985Y-94087518D01*
X89162983Y-94087513D01*
X89137018Y-94042540D01*
X89090509Y-93961985D01*
X88988015Y-93859491D01*
X88862486Y-93787016D01*
X88862481Y-93787014D01*
X88722477Y-93749500D01*
X88722475Y-93749500D01*
X88577525Y-93749500D01*
X88577523Y-93749500D01*
X88437518Y-93787014D01*
X88437513Y-93787016D01*
X88307785Y-93861916D01*
X88306512Y-93859712D01*
X88259766Y-93872229D01*
X88228325Y-93860393D01*
X88128675Y-93793809D01*
X87946693Y-93718430D01*
X87946682Y-93718427D01*
X87753490Y-93680000D01*
X87355000Y-93680000D01*
X87355000Y-94380000D01*
X86855000Y-94380000D01*
X86855000Y-93680000D01*
X86456510Y-93680000D01*
X86263317Y-93718427D01*
X86263306Y-93718430D01*
X86081324Y-93793809D01*
X85917540Y-93903246D01*
X85778246Y-94042540D01*
X85668809Y-94206324D01*
X85593430Y-94388306D01*
X85593427Y-94388317D01*
X85585136Y-94429999D01*
X84294863Y-94429999D01*
X84286572Y-94388317D01*
X84286569Y-94388306D01*
X84211190Y-94206324D01*
X84101753Y-94042540D01*
X83962459Y-93903246D01*
X83798675Y-93793809D01*
X83616693Y-93718430D01*
X83616682Y-93718427D01*
X83423490Y-93680000D01*
X83175000Y-93680000D01*
X83175000Y-94380000D01*
X82675000Y-94380000D01*
X82675000Y-93680000D01*
X82426510Y-93680000D01*
X82233317Y-93718427D01*
X82233306Y-93718430D01*
X82051324Y-93793809D01*
X81887540Y-93903246D01*
X81748246Y-94042540D01*
X81638809Y-94206324D01*
X81563430Y-94388306D01*
X81563427Y-94388317D01*
X81555136Y-94429999D01*
X80000000Y-94429999D01*
X80000000Y-93377522D01*
X169949500Y-93377522D01*
X169949500Y-93522477D01*
X169987014Y-93662481D01*
X169987016Y-93662486D01*
X169997128Y-93680000D01*
X170059491Y-93788015D01*
X170161985Y-93890509D01*
X170253876Y-93943563D01*
X170285784Y-93961985D01*
X170287515Y-93962984D01*
X170287516Y-93962984D01*
X170287518Y-93962985D01*
X170357520Y-93981742D01*
X170427522Y-94000499D01*
X170427523Y-94000500D01*
X170427525Y-94000500D01*
X170572477Y-94000500D01*
X170572477Y-94000499D01*
X170712485Y-93962984D01*
X170838015Y-93890509D01*
X170940509Y-93788015D01*
X171012984Y-93662485D01*
X171050499Y-93522477D01*
X171050500Y-93522477D01*
X171050500Y-93436107D01*
X171072174Y-93383781D01*
X171124500Y-93362107D01*
X171143653Y-93364629D01*
X171225526Y-93386566D01*
X171277522Y-93400499D01*
X171277523Y-93400500D01*
X171277525Y-93400500D01*
X171422477Y-93400500D01*
X171422477Y-93400499D01*
X171562485Y-93362984D01*
X171688015Y-93290509D01*
X171790509Y-93188015D01*
X171862984Y-93062485D01*
X171900499Y-92922477D01*
X171900500Y-92922477D01*
X171900500Y-92777523D01*
X171900499Y-92777522D01*
X171862985Y-92637518D01*
X171862983Y-92637513D01*
X171790508Y-92511984D01*
X171688015Y-92409491D01*
X171562486Y-92337016D01*
X171562481Y-92337014D01*
X171422477Y-92299500D01*
X171422475Y-92299500D01*
X171277525Y-92299500D01*
X171277523Y-92299500D01*
X171137518Y-92337014D01*
X171137513Y-92337016D01*
X171011984Y-92409491D01*
X170909491Y-92511984D01*
X170837016Y-92637513D01*
X170837014Y-92637518D01*
X170799500Y-92777522D01*
X170799500Y-92863892D01*
X170777826Y-92916218D01*
X170725500Y-92937892D01*
X170706348Y-92935371D01*
X170572475Y-92899500D01*
X170427525Y-92899500D01*
X170427523Y-92899500D01*
X170287518Y-92937014D01*
X170287513Y-92937016D01*
X170161984Y-93009491D01*
X170059491Y-93111984D01*
X169987016Y-93237513D01*
X169987014Y-93237518D01*
X169949500Y-93377522D01*
X80000000Y-93377522D01*
X80000000Y-91727522D01*
X98299500Y-91727522D01*
X98299500Y-91872477D01*
X98337014Y-92012481D01*
X98337016Y-92012486D01*
X98409491Y-92138015D01*
X98511985Y-92240509D01*
X98637515Y-92312984D01*
X98637516Y-92312984D01*
X98637518Y-92312985D01*
X98707520Y-92331742D01*
X98777522Y-92350499D01*
X98777523Y-92350500D01*
X98777525Y-92350500D01*
X98922477Y-92350500D01*
X98922477Y-92350499D01*
X99062485Y-92312984D01*
X99188015Y-92240509D01*
X99290509Y-92138015D01*
X99362984Y-92012485D01*
X99400499Y-91872477D01*
X99400500Y-91872477D01*
X99400500Y-91727523D01*
X99400499Y-91727522D01*
X99393258Y-91700500D01*
X99362984Y-91587515D01*
X99290509Y-91461985D01*
X99188015Y-91359491D01*
X99062486Y-91287016D01*
X99062481Y-91287014D01*
X98922477Y-91249500D01*
X98922475Y-91249500D01*
X98777525Y-91249500D01*
X98777523Y-91249500D01*
X98637518Y-91287014D01*
X98637513Y-91287016D01*
X98511984Y-91359491D01*
X98409491Y-91461984D01*
X98337016Y-91587513D01*
X98337014Y-91587518D01*
X98299500Y-91727522D01*
X80000000Y-91727522D01*
X80000000Y-90827522D01*
X102649500Y-90827522D01*
X102649500Y-90972477D01*
X102687014Y-91112481D01*
X102687016Y-91112486D01*
X102750519Y-91222475D01*
X102759491Y-91238015D01*
X102861985Y-91340509D01*
X102987515Y-91412984D01*
X102987516Y-91412984D01*
X102987518Y-91412985D01*
X103057520Y-91431742D01*
X103127522Y-91450499D01*
X103127523Y-91450500D01*
X103127525Y-91450500D01*
X103272477Y-91450500D01*
X103272477Y-91450499D01*
X103412485Y-91412984D01*
X103538015Y-91340509D01*
X103640509Y-91238015D01*
X103712984Y-91112485D01*
X103750499Y-90972477D01*
X103750500Y-90972477D01*
X103750500Y-90827523D01*
X103750499Y-90827522D01*
X103712985Y-90687518D01*
X103712983Y-90687513D01*
X103640508Y-90561984D01*
X103556046Y-90477522D01*
X106299500Y-90477522D01*
X106299500Y-90622477D01*
X106337014Y-90762481D01*
X106337016Y-90762486D01*
X106365594Y-90811984D01*
X106409491Y-90888015D01*
X106511985Y-90990509D01*
X106637515Y-91062984D01*
X106637516Y-91062984D01*
X106637518Y-91062985D01*
X106691782Y-91077525D01*
X106777522Y-91100499D01*
X106777523Y-91100500D01*
X106777525Y-91100500D01*
X106922477Y-91100500D01*
X106922477Y-91100499D01*
X107008228Y-91077522D01*
X180149500Y-91077522D01*
X180149500Y-91222477D01*
X180187014Y-91362481D01*
X180187016Y-91362486D01*
X180259491Y-91488015D01*
X180361985Y-91590509D01*
X180487515Y-91662984D01*
X180487516Y-91662984D01*
X180487518Y-91662985D01*
X180557520Y-91681742D01*
X180627522Y-91700499D01*
X180627523Y-91700500D01*
X180627525Y-91700500D01*
X180772477Y-91700500D01*
X180772477Y-91700499D01*
X180912485Y-91662984D01*
X181038015Y-91590509D01*
X181140509Y-91488015D01*
X181212984Y-91362485D01*
X181250499Y-91222477D01*
X181250500Y-91222477D01*
X181250500Y-91077523D01*
X181250499Y-91077522D01*
X181212985Y-90937518D01*
X181212983Y-90937513D01*
X181140508Y-90811984D01*
X181038015Y-90709491D01*
X180912486Y-90637016D01*
X180912481Y-90637014D01*
X180772477Y-90599500D01*
X180772475Y-90599500D01*
X180627525Y-90599500D01*
X180627523Y-90599500D01*
X180487518Y-90637014D01*
X180487513Y-90637016D01*
X180361984Y-90709491D01*
X180259491Y-90811984D01*
X180187016Y-90937513D01*
X180187014Y-90937518D01*
X180149500Y-91077522D01*
X107008228Y-91077522D01*
X107062485Y-91062984D01*
X107188015Y-90990509D01*
X107290509Y-90888015D01*
X107362984Y-90762485D01*
X107400499Y-90622477D01*
X107400500Y-90622477D01*
X107400500Y-90477523D01*
X107400499Y-90477522D01*
X107362985Y-90337518D01*
X107362983Y-90337513D01*
X107290508Y-90211984D01*
X107188015Y-90109491D01*
X107062486Y-90037016D01*
X107062481Y-90037014D01*
X106922477Y-89999500D01*
X106922475Y-89999500D01*
X106777525Y-89999500D01*
X106777523Y-89999500D01*
X106637518Y-90037014D01*
X106637513Y-90037016D01*
X106511984Y-90109491D01*
X106409491Y-90211984D01*
X106337016Y-90337513D01*
X106337014Y-90337518D01*
X106299500Y-90477522D01*
X103556046Y-90477522D01*
X103538015Y-90459491D01*
X103412486Y-90387016D01*
X103412481Y-90387014D01*
X103272477Y-90349500D01*
X103272475Y-90349500D01*
X103127525Y-90349500D01*
X103127523Y-90349500D01*
X102987518Y-90387014D01*
X102987513Y-90387016D01*
X102861984Y-90459491D01*
X102759491Y-90561984D01*
X102687016Y-90687513D01*
X102687014Y-90687518D01*
X102649500Y-90827522D01*
X80000000Y-90827522D01*
X80000000Y-89177522D01*
X106299500Y-89177522D01*
X106299500Y-89322477D01*
X106337014Y-89462481D01*
X106337016Y-89462486D01*
X106409491Y-89588015D01*
X106511985Y-89690509D01*
X106637515Y-89762984D01*
X106637516Y-89762984D01*
X106637518Y-89762985D01*
X106707520Y-89781742D01*
X106777522Y-89800499D01*
X106777523Y-89800500D01*
X106777525Y-89800500D01*
X106922477Y-89800500D01*
X106922477Y-89800499D01*
X107062485Y-89762984D01*
X107188015Y-89690509D01*
X107290509Y-89588015D01*
X107362984Y-89462485D01*
X107400499Y-89322477D01*
X107400500Y-89322477D01*
X107400500Y-89177523D01*
X107400499Y-89177522D01*
X107362985Y-89037518D01*
X107362983Y-89037513D01*
X107290508Y-88911984D01*
X107188015Y-88809491D01*
X107062486Y-88737016D01*
X107062481Y-88737014D01*
X106922477Y-88699500D01*
X106922475Y-88699500D01*
X106777525Y-88699500D01*
X106777523Y-88699500D01*
X106637518Y-88737014D01*
X106637513Y-88737016D01*
X106511984Y-88809491D01*
X106409491Y-88911984D01*
X106337016Y-89037513D01*
X106337014Y-89037518D01*
X106299500Y-89177522D01*
X80000000Y-89177522D01*
X80000000Y-86838426D01*
X118900000Y-86838426D01*
X118900000Y-86950000D01*
X119719670Y-86950000D01*
X119699925Y-86969745D01*
X119650556Y-87055255D01*
X119625000Y-87150630D01*
X119625000Y-87249370D01*
X119650556Y-87344745D01*
X119699925Y-87430255D01*
X119719670Y-87450000D01*
X118900000Y-87450000D01*
X118900000Y-87561573D01*
X118927085Y-87732581D01*
X118927088Y-87732594D01*
X118980588Y-87897249D01*
X119059197Y-88051526D01*
X119059198Y-88051528D01*
X119160964Y-88191597D01*
X119160972Y-88191607D01*
X119283393Y-88314028D01*
X119283402Y-88314035D01*
X119423471Y-88415801D01*
X119423473Y-88415802D01*
X119577750Y-88494411D01*
X119577749Y-88494411D01*
X119742407Y-88547911D01*
X119742413Y-88547913D01*
X119750000Y-88549114D01*
X119750000Y-87480330D01*
X119769745Y-87500075D01*
X119855255Y-87549444D01*
X119950630Y-87575000D01*
X120049370Y-87575000D01*
X120144745Y-87549444D01*
X120230255Y-87500075D01*
X120250000Y-87480330D01*
X120250000Y-88549114D01*
X120257586Y-88547913D01*
X120257592Y-88547911D01*
X120422249Y-88494411D01*
X120576526Y-88415802D01*
X120576528Y-88415801D01*
X120716597Y-88314035D01*
X120716607Y-88314028D01*
X120839028Y-88191607D01*
X120839035Y-88191597D01*
X120940800Y-88051529D01*
X120982819Y-87969064D01*
X121025887Y-87932281D01*
X121082349Y-87936724D01*
X121117595Y-87975512D01*
X121165638Y-88097341D01*
X121237123Y-88191607D01*
X121257078Y-88217922D01*
X121377658Y-88309361D01*
X121518436Y-88364877D01*
X121589764Y-88373442D01*
X121606896Y-88375500D01*
X121606898Y-88375500D01*
X122393104Y-88375500D01*
X122408722Y-88373624D01*
X122481564Y-88364877D01*
X122622342Y-88309361D01*
X122742922Y-88217922D01*
X122834361Y-88097342D01*
X122889877Y-87956564D01*
X122900500Y-87868102D01*
X122900500Y-86531898D01*
X122889877Y-86443436D01*
X122834361Y-86302658D01*
X122742922Y-86182078D01*
X122622342Y-86090639D01*
X122622341Y-86090638D01*
X122537079Y-86057015D01*
X122481564Y-86035123D01*
X122452076Y-86031582D01*
X122393104Y-86024500D01*
X122393102Y-86024500D01*
X121606898Y-86024500D01*
X121606896Y-86024500D01*
X121518436Y-86035123D01*
X121377658Y-86090638D01*
X121257078Y-86182077D01*
X121257077Y-86182078D01*
X121165637Y-86302660D01*
X121117594Y-86424488D01*
X121078235Y-86465214D01*
X121021606Y-86466180D01*
X120982820Y-86430936D01*
X120940802Y-86348473D01*
X120940801Y-86348471D01*
X120839035Y-86208402D01*
X120839028Y-86208393D01*
X120716607Y-86085972D01*
X120716597Y-86085964D01*
X120576529Y-85984199D01*
X120576526Y-85984197D01*
X120465296Y-85927522D01*
X165099500Y-85927522D01*
X165099500Y-86072477D01*
X165137014Y-86212481D01*
X165137016Y-86212486D01*
X165189079Y-86302660D01*
X165209491Y-86338015D01*
X165311985Y-86440509D01*
X165437515Y-86512984D01*
X165437516Y-86512984D01*
X165437518Y-86512985D01*
X165507520Y-86531742D01*
X165577522Y-86550499D01*
X165577523Y-86550500D01*
X165577525Y-86550500D01*
X165722477Y-86550500D01*
X165722477Y-86550499D01*
X165862485Y-86512984D01*
X165988015Y-86440509D01*
X166090509Y-86338015D01*
X166162984Y-86212485D01*
X166200499Y-86072477D01*
X166200500Y-86072477D01*
X166200500Y-85927523D01*
X166200499Y-85927522D01*
X166197653Y-85916902D01*
X166162984Y-85787515D01*
X166090509Y-85661985D01*
X165988015Y-85559491D01*
X165862486Y-85487016D01*
X165862481Y-85487014D01*
X165722477Y-85449500D01*
X165722475Y-85449500D01*
X165577525Y-85449500D01*
X165577523Y-85449500D01*
X165437518Y-85487014D01*
X165437513Y-85487016D01*
X165311984Y-85559491D01*
X165209491Y-85661984D01*
X165137016Y-85787513D01*
X165137014Y-85787518D01*
X165099500Y-85927522D01*
X120465296Y-85927522D01*
X120422249Y-85905588D01*
X120422250Y-85905588D01*
X120257586Y-85852086D01*
X120250000Y-85850884D01*
X120250000Y-86919670D01*
X120230255Y-86899925D01*
X120144745Y-86850556D01*
X120049370Y-86825000D01*
X119950630Y-86825000D01*
X119855255Y-86850556D01*
X119769745Y-86899925D01*
X119750000Y-86919670D01*
X119750000Y-85850884D01*
X119749999Y-85850884D01*
X119742413Y-85852086D01*
X119577750Y-85905588D01*
X119423473Y-85984197D01*
X119423471Y-85984198D01*
X119283402Y-86085964D01*
X119283393Y-86085972D01*
X119160972Y-86208393D01*
X119160964Y-86208402D01*
X119059198Y-86348471D01*
X119059197Y-86348473D01*
X118980588Y-86502750D01*
X118927088Y-86667405D01*
X118927085Y-86667418D01*
X118900000Y-86838426D01*
X80000000Y-86838426D01*
X80000000Y-83849218D01*
X88699500Y-83849218D01*
X88699500Y-84150781D01*
X88738861Y-84449766D01*
X88816912Y-84741054D01*
X88816914Y-84741061D01*
X88932313Y-85019659D01*
X88932316Y-85019667D01*
X89083097Y-85280828D01*
X89083101Y-85280834D01*
X89266681Y-85520080D01*
X89479919Y-85733318D01*
X89719165Y-85916898D01*
X89719171Y-85916902D01*
X89835733Y-85984199D01*
X89980332Y-86067683D01*
X90258942Y-86183087D01*
X90550232Y-86261138D01*
X90849217Y-86300500D01*
X90849219Y-86300500D01*
X91150781Y-86300500D01*
X91150783Y-86300500D01*
X91449768Y-86261138D01*
X91741058Y-86183087D01*
X92019668Y-86067683D01*
X92280832Y-85916900D01*
X92520080Y-85733319D01*
X92733319Y-85520080D01*
X92916900Y-85280832D01*
X93067683Y-85019668D01*
X93183087Y-84741058D01*
X93261138Y-84449768D01*
X93270649Y-84377522D01*
X102049500Y-84377522D01*
X102049500Y-84522477D01*
X102087014Y-84662481D01*
X102087016Y-84662486D01*
X102132378Y-84741054D01*
X102159491Y-84788015D01*
X102261985Y-84890509D01*
X102387515Y-84962984D01*
X102387516Y-84962984D01*
X102387518Y-84962985D01*
X102457520Y-84981742D01*
X102527522Y-85000499D01*
X102527523Y-85000500D01*
X102527525Y-85000500D01*
X102672477Y-85000500D01*
X102672477Y-85000499D01*
X102812485Y-84962984D01*
X102938015Y-84890509D01*
X103040509Y-84788015D01*
X103112984Y-84662485D01*
X103150499Y-84522477D01*
X103150500Y-84522477D01*
X103150500Y-84377523D01*
X103150499Y-84377522D01*
X104849500Y-84377522D01*
X104849500Y-84522477D01*
X104887014Y-84662481D01*
X104887016Y-84662486D01*
X104932378Y-84741054D01*
X104959491Y-84788015D01*
X105061985Y-84890509D01*
X105187515Y-84962984D01*
X105187516Y-84962984D01*
X105187518Y-84962985D01*
X105257520Y-84981742D01*
X105327522Y-85000499D01*
X105327523Y-85000500D01*
X105327525Y-85000500D01*
X105472477Y-85000500D01*
X105472477Y-85000499D01*
X105612485Y-84962984D01*
X105738015Y-84890509D01*
X105840509Y-84788015D01*
X105912984Y-84662485D01*
X105950499Y-84522477D01*
X105950500Y-84522477D01*
X105950500Y-84377523D01*
X105950499Y-84377522D01*
X105912985Y-84237518D01*
X105912983Y-84237513D01*
X105840508Y-84111984D01*
X105738015Y-84009491D01*
X105612486Y-83937016D01*
X105612481Y-83937014D01*
X105542534Y-83918272D01*
X105472477Y-83899500D01*
X105472475Y-83899500D01*
X105327525Y-83899500D01*
X105327523Y-83899500D01*
X105187518Y-83937014D01*
X105187513Y-83937016D01*
X105061984Y-84009491D01*
X104959491Y-84111984D01*
X104887016Y-84237513D01*
X104887014Y-84237518D01*
X104849500Y-84377522D01*
X103150499Y-84377522D01*
X103112985Y-84237518D01*
X103112983Y-84237513D01*
X103040508Y-84111984D01*
X102938015Y-84009491D01*
X102812486Y-83937016D01*
X102812481Y-83937014D01*
X102672477Y-83899500D01*
X102672475Y-83899500D01*
X102527525Y-83899500D01*
X102527523Y-83899500D01*
X102387518Y-83937014D01*
X102387513Y-83937016D01*
X102261984Y-84009491D01*
X102159491Y-84111984D01*
X102087016Y-84237513D01*
X102087014Y-84237518D01*
X102049500Y-84377522D01*
X93270649Y-84377522D01*
X93300500Y-84150783D01*
X93300500Y-83849218D01*
X177199500Y-83849218D01*
X177199500Y-84150781D01*
X177238861Y-84449766D01*
X177316912Y-84741054D01*
X177316914Y-84741061D01*
X177432313Y-85019659D01*
X177432316Y-85019667D01*
X177583097Y-85280828D01*
X177583101Y-85280834D01*
X177766681Y-85520080D01*
X177979919Y-85733318D01*
X178219165Y-85916898D01*
X178219171Y-85916902D01*
X178335733Y-85984199D01*
X178480332Y-86067683D01*
X178758942Y-86183087D01*
X179050232Y-86261138D01*
X179349217Y-86300500D01*
X179349219Y-86300500D01*
X179650781Y-86300500D01*
X179650783Y-86300500D01*
X179949768Y-86261138D01*
X180241058Y-86183087D01*
X180519668Y-86067683D01*
X180780832Y-85916900D01*
X181020080Y-85733319D01*
X181233319Y-85520080D01*
X181416900Y-85280832D01*
X181567683Y-85019668D01*
X181683087Y-84741058D01*
X181761138Y-84449768D01*
X181800500Y-84150783D01*
X181800500Y-83849217D01*
X181761138Y-83550232D01*
X181683087Y-83258942D01*
X181567683Y-82980332D01*
X181416900Y-82719168D01*
X181233319Y-82479920D01*
X181020080Y-82266681D01*
X180780834Y-82083101D01*
X180780828Y-82083097D01*
X180519667Y-81932316D01*
X180519659Y-81932313D01*
X180241061Y-81816914D01*
X180241059Y-81816913D01*
X180241058Y-81816913D01*
X180202028Y-81806455D01*
X179949766Y-81738861D01*
X179729505Y-81709863D01*
X179650783Y-81699500D01*
X179349217Y-81699500D01*
X179279653Y-81708658D01*
X179050233Y-81738861D01*
X178758945Y-81816912D01*
X178758938Y-81816914D01*
X178480340Y-81932313D01*
X178480332Y-81932316D01*
X178219171Y-82083097D01*
X178219165Y-82083101D01*
X177979919Y-82266681D01*
X177766681Y-82479919D01*
X177583101Y-82719165D01*
X177583097Y-82719171D01*
X177432316Y-82980332D01*
X177432313Y-82980340D01*
X177316914Y-83258938D01*
X177316912Y-83258945D01*
X177238861Y-83550233D01*
X177199500Y-83849218D01*
X93300500Y-83849218D01*
X93300500Y-83849217D01*
X93261138Y-83550232D01*
X93183087Y-83258942D01*
X93067683Y-82980332D01*
X92916900Y-82719168D01*
X92733319Y-82479920D01*
X92520080Y-82266681D01*
X92280834Y-82083101D01*
X92280828Y-82083097D01*
X92019667Y-81932316D01*
X92019659Y-81932313D01*
X91741061Y-81816914D01*
X91741059Y-81816913D01*
X91741058Y-81816913D01*
X91702028Y-81806455D01*
X91449766Y-81738861D01*
X91229505Y-81709863D01*
X91150783Y-81699500D01*
X90849217Y-81699500D01*
X90779653Y-81708658D01*
X90550233Y-81738861D01*
X90258945Y-81816912D01*
X90258938Y-81816914D01*
X89980340Y-81932313D01*
X89980332Y-81932316D01*
X89719171Y-82083097D01*
X89719165Y-82083101D01*
X89479919Y-82266681D01*
X89266681Y-82479919D01*
X89083101Y-82719165D01*
X89083097Y-82719171D01*
X88932316Y-82980332D01*
X88932313Y-82980340D01*
X88816914Y-83258938D01*
X88816912Y-83258945D01*
X88738861Y-83550233D01*
X88699500Y-83849218D01*
X80000000Y-83849218D01*
X80000000Y-81074000D01*
X80021674Y-81021674D01*
X80074000Y-81000000D01*
X184176000Y-81000000D01*
X184228326Y-81021674D01*
G37*
%TD.AperFunction*%
%TD*%
M02*
