%TF.GenerationSoftware,KiCad,Pcbnew,10.0.6*%
%TF.CreationDate,2026-09-29T12:23:03-06:00*%
%TF.ProjectId,RB_Switch,52425f53-7769-4746-9368-2e6b69636164,rev?*%
%TF.SameCoordinates,Original*%
%TF.FileFunction,Soldermask,Top*%
%TF.FilePolarity,Negative*%
%FSLAX46Y46*%
G04 Gerber Fmt 4.6, Leading zero omitted, Abs format (unit mm)*
G04 Created by KiCad (PCBNEW 10.0.6) date 2026-09-29 12:23:03*
%MOMM*%
%LPD*%
G01*
G04 APERTURE LIST*
G04 Aperture macros list*
%AMRoundRect*
0 Rectangle with rounded corners*
0 $1 Rounding radius*
0 $2 $3 $4 $5 $6 $7 $8 $9 X,Y pos of 4 corners*
0 Add a 4 corners polygon primitive as box body*
4,1,4,$2,$3,$4,$5,$6,$7,$8,$9,$2,$3,0*
0 Add four circle primitives for the rounded corners*
1,1,$1+$1,$2,$3*
1,1,$1+$1,$4,$5*
1,1,$1+$1,$6,$7*
1,1,$1+$1,$8,$9*
0 Add four rect primitives between the rounded corners*
20,1,$1+$1,$2,$3,$4,$5,0*
20,1,$1+$1,$4,$5,$6,$7,0*
20,1,$1+$1,$6,$7,$8,$9,0*
20,1,$1+$1,$8,$9,$2,$3,0*%
%AMOutline5P*
0 Free polygon, 5 corners , with rotation*
0 The origin of the aperture is its center*
0 number of corners: always 5*
0 $1 to $10 corner X, Y*
0 $11 Rotation angle, in degrees counterclockwise*
0 create outline with 5 corners*
4,1,5,$1,$2,$3,$4,$5,$6,$7,$8,$9,$10,$1,$2,$11*%
%AMOutline6P*
0 Free polygon, 6 corners , with rotation*
0 The origin of the aperture is its center*
0 number of corners: always 6*
0 $1 to $12 corner X, Y*
0 $13 Rotation angle, in degrees counterclockwise*
0 create outline with 6 corners*
4,1,6,$1,$2,$3,$4,$5,$6,$7,$8,$9,$10,$11,$12,$1,$2,$13*%
%AMOutline7P*
0 Free polygon, 7 corners , with rotation*
0 The origin of the aperture is its center*
0 number of corners: always 7*
0 $1 to $14 corner X, Y*
0 $15 Rotation angle, in degrees counterclockwise*
0 create outline with 7 corners*
4,1,7,$1,$2,$3,$4,$5,$6,$7,$8,$9,$10,$11,$12,$13,$14,$1,$2,$15*%
%AMOutline8P*
0 Free polygon, 8 corners , with rotation*
0 The origin of the aperture is its center*
0 number of corners: always 8*
0 $1 to $16 corner X, Y*
0 $17 Rotation angle, in degrees counterclockwise*
0 create outline with 8 corners*
4,1,8,$1,$2,$3,$4,$5,$6,$7,$8,$9,$10,$11,$12,$13,$14,$15,$16,$1,$2,$17*%
%AMFreePoly0*
4,1,21,-0.125000,1.200000,0.125000,1.200000,0.125000,1.700000,0.375000,1.700000,0.375000,1.200000,0.825000,1.200000,0.825000,-1.200000,0.375000,-1.200000,0.375000,-1.700000,0.125000,-1.700000,0.125000,-1.200000,-0.125000,-1.200000,-0.125000,-1.700000,-0.375000,-1.700000,-0.375000,-1.200000,-0.825000,-1.200000,-0.825000,1.200000,-0.375000,1.200000,-0.375000,1.700000,-0.125000,1.700000,
-0.125000,1.200000,-0.125000,1.200000,$1*%
G04 Aperture macros list end*
%ADD10RoundRect,0.200000X-0.200000X-0.275000X0.200000X-0.275000X0.200000X0.275000X-0.200000X0.275000X0*%
%ADD11RoundRect,0.218750X-0.218750X-0.256250X0.218750X-0.256250X0.218750X0.256250X-0.218750X0.256250X0*%
%ADD12RoundRect,0.150000X-0.512500X-0.150000X0.512500X-0.150000X0.512500X0.150000X-0.512500X0.150000X0*%
%ADD13C,4.300000*%
%ADD14R,0.400000X0.800000*%
%ADD15R,0.800000X0.400000*%
%ADD16Outline5P,-0.600000X0.204000X-0.204000X0.600000X0.600000X0.600000X0.600000X-0.600000X-0.600000X-0.600000X90.000000*%
%ADD17R,1.200000X1.200000*%
%ADD18R,0.800000X0.800000*%
%ADD19RoundRect,0.225000X-0.225000X-0.250000X0.225000X-0.250000X0.225000X0.250000X-0.225000X0.250000X0*%
%ADD20R,1.700000X1.700000*%
%ADD21C,1.700000*%
%ADD22R,0.900000X1.700000*%
%ADD23RoundRect,0.250000X-0.350000X-0.625000X0.350000X-0.625000X0.350000X0.625000X-0.350000X0.625000X0*%
%ADD24O,1.200000X1.750000*%
%ADD25RoundRect,0.060000X-0.240000X-0.060000X0.240000X-0.060000X0.240000X0.060000X-0.240000X0.060000X0*%
%ADD26FreePoly0,0.000000*%
%ADD27C,0.650000*%
%ADD28RoundRect,0.150000X-0.425000X0.150000X-0.425000X-0.150000X0.425000X-0.150000X0.425000X0.150000X0*%
%ADD29RoundRect,0.075000X-0.500000X0.075000X-0.500000X-0.075000X0.500000X-0.075000X0.500000X0.075000X0*%
%ADD30O,2.100000X1.000000*%
%ADD31O,1.800000X1.000000*%
%ADD32R,1.500000X3.600000*%
G04 APERTURE END LIST*
D10*
%TO.C,R3*%
X115175000Y-113000000D03*
X116825000Y-113000000D03*
%TD*%
D11*
%TO.C,D1*%
X157212500Y-86000000D03*
X158787500Y-86000000D03*
%TD*%
D10*
%TO.C,R4*%
X121175000Y-113000000D03*
X122825000Y-113000000D03*
%TD*%
D12*
%TO.C,U_CHG*%
X108862500Y-85050000D03*
X108862500Y-86000000D03*
X108862500Y-86950000D03*
X111137500Y-86950000D03*
X111137500Y-85050000D03*
%TD*%
D13*
%TO.C,MH1*%
X91000000Y-84000000D03*
%TD*%
D10*
%TO.C,R2*%
X163175000Y-86000000D03*
X164825000Y-86000000D03*
%TD*%
D14*
%TO.C,U1*%
X175600000Y-106000000D03*
X176450000Y-106000000D03*
X177300000Y-106000000D03*
X178150000Y-106000000D03*
X179000000Y-106000000D03*
X179850000Y-106000000D03*
X180700000Y-106000000D03*
X181550000Y-106000000D03*
X182400000Y-106000000D03*
X183250000Y-106000000D03*
X184100000Y-106000000D03*
X184950000Y-106000000D03*
X185800000Y-106000000D03*
X186650000Y-106000000D03*
X187500000Y-106000000D03*
D15*
X188550000Y-104950000D03*
X188550000Y-104100000D03*
X188550000Y-103250000D03*
X188550000Y-102400000D03*
X188550000Y-101550000D03*
X188550000Y-100700000D03*
X188550000Y-99850000D03*
X188550000Y-99000000D03*
X188550000Y-98150000D03*
X188550000Y-97300000D03*
X188550000Y-96450000D03*
X188550000Y-95600000D03*
X188550000Y-94750000D03*
X188550000Y-93900000D03*
X188550000Y-93050000D03*
D14*
X187500000Y-92000000D03*
X186650000Y-92000000D03*
X185800000Y-92000000D03*
X184950000Y-92000000D03*
X184100000Y-92000000D03*
X183250000Y-92000000D03*
X182400000Y-92000000D03*
X181550000Y-92000000D03*
X180700000Y-92000000D03*
X179850000Y-92000000D03*
X179000000Y-92000000D03*
X178150000Y-92000000D03*
X177300000Y-92000000D03*
X176450000Y-92000000D03*
X175600000Y-92000000D03*
D15*
X174550000Y-93050000D03*
X174550000Y-93900000D03*
X174550000Y-94750000D03*
X174550000Y-95600000D03*
X174550000Y-96450000D03*
X174550000Y-97300000D03*
X174550000Y-98150000D03*
X174550000Y-99000000D03*
X174550000Y-99850000D03*
X174550000Y-100700000D03*
X174550000Y-101550000D03*
X174550000Y-102400000D03*
X174550000Y-103250000D03*
X174550000Y-104100000D03*
X174550000Y-104950000D03*
D16*
X179900000Y-100650000D03*
D17*
X181550000Y-100650000D03*
X183200000Y-100650000D03*
X179900000Y-99000000D03*
X181550000Y-99000000D03*
X183200000Y-99000000D03*
X179900000Y-97350000D03*
X181550000Y-97350000D03*
X183200000Y-97350000D03*
D18*
X174550000Y-106000000D03*
X188550000Y-106000000D03*
X188550000Y-92000000D03*
X174550000Y-92000000D03*
%TD*%
D19*
%TO.C,C7*%
X151225000Y-113000000D03*
X152775000Y-113000000D03*
%TD*%
%TO.C,C9*%
X157225000Y-113000000D03*
X158775000Y-113000000D03*
%TD*%
D20*
%TO.C,SW1*%
X101000000Y-99000000D03*
D21*
X107500000Y-99000000D03*
X101000000Y-103500000D03*
X107500000Y-103500000D03*
%TD*%
D13*
%TO.C,MH2*%
X182000000Y-84000000D03*
%TD*%
D19*
%TO.C,C6*%
X145225000Y-113000000D03*
X146775000Y-113000000D03*
%TD*%
D10*
%TO.C,R8*%
X103175000Y-113000000D03*
X104825000Y-113000000D03*
%TD*%
D22*
%TO.C,SW_RST*%
X92300000Y-113000000D03*
X95700000Y-113000000D03*
%TD*%
D19*
%TO.C,C8*%
X109225000Y-113000000D03*
X110775000Y-113000000D03*
%TD*%
D23*
%TO.C,J_BAT*%
X116000000Y-86000000D03*
D24*
X118000000Y-86000000D03*
%TD*%
D19*
%TO.C,C5*%
X139225000Y-113000000D03*
X140775000Y-113000000D03*
%TD*%
%TO.C,C10*%
X163225000Y-113000000D03*
X164775000Y-113000000D03*
%TD*%
%TO.C,C4*%
X151225000Y-86000000D03*
X152775000Y-86000000D03*
%TD*%
%TO.C,C3*%
X139225000Y-86000000D03*
X140775000Y-86000000D03*
%TD*%
D25*
%TO.C,REG1*%
X102600000Y-85000000D03*
X102600000Y-85500000D03*
X102600000Y-86000000D03*
X102600000Y-86500000D03*
X102600000Y-87000000D03*
X105400000Y-87000000D03*
X105400000Y-86500000D03*
X105400000Y-86000000D03*
X105400000Y-85500000D03*
X105400000Y-85000000D03*
D26*
X104000000Y-86000000D03*
%TD*%
D10*
%TO.C,R7*%
X169175000Y-86000000D03*
X170825000Y-86000000D03*
%TD*%
%TO.C,R6*%
X133175000Y-113000000D03*
X134825000Y-113000000D03*
%TD*%
D22*
%TO.C,SW_BOOT*%
X177300000Y-113000000D03*
X180700000Y-113000000D03*
%TD*%
D20*
%TO.C,SW2*%
X126000000Y-99000000D03*
D21*
X132500000Y-99000000D03*
X126000000Y-103500000D03*
X132500000Y-103500000D03*
%TD*%
D10*
%TO.C,R5*%
X127175000Y-113000000D03*
X128825000Y-113000000D03*
%TD*%
D27*
%TO.C,J_USB*%
X86605000Y-96110000D03*
X86605000Y-101890000D03*
D28*
X87680000Y-95800000D03*
X87680000Y-96600000D03*
D29*
X87680000Y-97750000D03*
X87680000Y-98750000D03*
X87680000Y-99250000D03*
X87680000Y-100250000D03*
D28*
X87680000Y-101400000D03*
X87680000Y-102200000D03*
X87680000Y-102200000D03*
X87680000Y-101400000D03*
D29*
X87680000Y-100750000D03*
X87680000Y-99750000D03*
X87680000Y-98250000D03*
X87680000Y-97250000D03*
D28*
X87680000Y-96600000D03*
X87680000Y-95800000D03*
D30*
X87105000Y-94680000D03*
D31*
X82925000Y-94680000D03*
D30*
X87105000Y-103320000D03*
D31*
X82925000Y-103320000D03*
%TD*%
D19*
%TO.C,C2*%
X127225000Y-86000000D03*
X128775000Y-86000000D03*
%TD*%
D20*
%TO.C,SW3*%
X151000000Y-99000000D03*
D21*
X157500000Y-99000000D03*
X151000000Y-103500000D03*
X157500000Y-103500000D03*
%TD*%
D19*
%TO.C,C1*%
X121225000Y-86000000D03*
X122775000Y-86000000D03*
%TD*%
D10*
%TO.C,R1*%
X145175000Y-86000000D03*
X146825000Y-86000000D03*
%TD*%
D19*
%TO.C,C11*%
X169225000Y-113000000D03*
X170775000Y-113000000D03*
%TD*%
D32*
%TO.C,L1*%
X132475000Y-86000000D03*
X135525000Y-86000000D03*
%TD*%
M02*
