%TF.GenerationSoftware,KiCad,Pcbnew,10.0.6*%
%TF.CreationDate,2026-10-04T16:43:45-06:00*%
%TF.ProjectId,RB_Switch,52425f53-7769-4746-9368-2e6b69636164,rev?*%
%TF.SameCoordinates,Original*%
%TF.FileFunction,Copper,L4,Bot*%
%TF.FilePolarity,Positive*%
%FSLAX46Y46*%
G04 Gerber Fmt 4.6, Leading zero omitted, Abs format (unit mm)*
G04 Created by KiCad (PCBNEW 10.0.6) date 2026-10-04 16:43:45*
%MOMM*%
%LPD*%
G01*
G04 APERTURE LIST*
G04 Aperture macros list*
%AMRoundRect*
0 Rectangle with rounded corners*
0 $1 Rounding radius*
0 $2 $3 $4 $5 $6 $7 $8 $9 X,Y pos of 4 corners*
0 Add a 4 corners polygon primitive as box body*
4,1,4,$2,$3,$4,$5,$6,$7,$8,$9,$2,$3,0*
0 Add four circle primitives for the rounded corners*
1,1,$1+$1,$2,$3*
1,1,$1+$1,$4,$5*
1,1,$1+$1,$6,$7*
1,1,$1+$1,$8,$9*
0 Add four rect primitives between the rounded corners*
20,1,$1+$1,$2,$3,$4,$5,0*
20,1,$1+$1,$4,$5,$6,$7,0*
20,1,$1+$1,$6,$7,$8,$9,0*
20,1,$1+$1,$8,$9,$2,$3,0*%
G04 Aperture macros list end*
%TA.AperFunction,ComponentPad*%
%ADD10R,1.700000X1.700000*%
%TD*%
%TA.AperFunction,ComponentPad*%
%ADD11C,1.700000*%
%TD*%
%TA.AperFunction,ComponentPad*%
%ADD12RoundRect,0.250000X0.350000X0.625000X-0.350000X0.625000X-0.350000X-0.625000X0.350000X-0.625000X0*%
%TD*%
%TA.AperFunction,ComponentPad*%
%ADD13O,1.200000X1.750000*%
%TD*%
%TA.AperFunction,ComponentPad*%
%ADD14O,2.100000X1.000000*%
%TD*%
%TA.AperFunction,ComponentPad*%
%ADD15O,1.800000X1.000000*%
%TD*%
%TA.AperFunction,ViaPad*%
%ADD16C,0.500000*%
%TD*%
%TA.AperFunction,Conductor*%
%ADD17C,0.200000*%
%TD*%
%TA.AperFunction,Conductor*%
%ADD18C,0.250000*%
%TD*%
%TA.AperFunction,Conductor*%
%ADD19C,0.300000*%
%TD*%
G04 APERTURE END LIST*
D10*
%TO.P,SW1,1*%
%TO.N,/SW1_NET*%
X101000000Y-99000000D03*
D11*
X107500000Y-99000000D03*
%TO.P,SW1,2*%
%TO.N,GND*%
X101000000Y-103500000D03*
X107500000Y-103500000D03*
%TD*%
D12*
%TO.P,J_BAT1,1*%
%TO.N,VBAT*%
X122000000Y-87200000D03*
D13*
%TO.P,J_BAT1,2*%
%TO.N,GND*%
X120000000Y-87200000D03*
%TD*%
D10*
%TO.P,SW2,1*%
%TO.N,/SW2_NET*%
X126000000Y-99000000D03*
D11*
X132500000Y-99000000D03*
%TO.P,SW2,2*%
%TO.N,GND*%
X126000000Y-103500000D03*
X132500000Y-103500000D03*
%TD*%
D14*
%TO.P,J_USB1,SH*%
%TO.N,GND*%
X87105000Y-94680000D03*
D15*
X82925000Y-94680000D03*
D14*
X87105000Y-103320000D03*
D15*
X82925000Y-103320000D03*
%TD*%
D10*
%TO.P,SW3,1*%
%TO.N,/SW3_NET*%
X151000000Y-99000000D03*
D11*
X157500000Y-99000000D03*
%TO.P,SW3,2*%
%TO.N,GND*%
X151000000Y-103500000D03*
X157500000Y-103500000D03*
%TD*%
D16*
%TO.N,/USB_CC1*%
X88650000Y-94300000D03*
X90350000Y-96000000D03*
%TO.N,GND*%
X161650000Y-107000000D03*
X104000000Y-85050000D03*
X104000000Y-86950000D03*
X93650000Y-96000000D03*
X111650000Y-107000000D03*
X136650000Y-107000000D03*
X179850000Y-105150000D03*
X171650000Y-109800000D03*
X110150000Y-90800000D03*
X175650000Y-109800000D03*
X116150000Y-84500000D03*
X88700000Y-102200000D03*
X168600000Y-92000000D03*
X179650000Y-109800000D03*
X177275000Y-99000000D03*
X168600000Y-106000000D03*
X104575000Y-86000000D03*
X107800000Y-86000000D03*
X133150000Y-91500000D03*
X175625000Y-97350000D03*
X102150000Y-91800000D03*
X168550000Y-113500000D03*
X103425000Y-86000000D03*
X181550000Y-91150000D03*
X181550000Y-113000000D03*
X175625000Y-99000000D03*
X177275000Y-100650000D03*
X88700000Y-95800000D03*
X116150000Y-89500000D03*
X105650000Y-91800000D03*
X130300000Y-93000000D03*
X93650000Y-102000000D03*
%TO.N,VBAT*%
X106850000Y-89250000D03*
X106850000Y-90550000D03*
%TO.N,VBUS*%
X88700000Y-96900000D03*
X88700000Y-101100000D03*
%TO.N,V3V3*%
X168350000Y-109800000D03*
X165650000Y-86000000D03*
X103200000Y-90900000D03*
X180700000Y-91150000D03*
X102600000Y-84450000D03*
X98850000Y-91800000D03*
X170850000Y-113500000D03*
X180750000Y-109800000D03*
X176350000Y-109800000D03*
X172350000Y-109800000D03*
X105400000Y-84450000D03*
%TO.N,/BOOT_NET*%
X179850000Y-104250000D03*
X178150000Y-112150000D03*
%TO.N,/SW1_NET*%
X110100000Y-106100000D03*
X171350000Y-92850000D03*
%TO.N,/SW2_NET*%
X170500000Y-93450000D03*
X132500000Y-101750000D03*
%TO.N,/SW3_NET*%
X158800000Y-97700000D03*
X157500000Y-101750000D03*
%TO.N,GND*%
X183200000Y-115500000D03*
%TD*%
%TO.N,/USB_CC1*%
D17*
X90350000Y-96000000D02*
X88650000Y-94300000D01*
%TO.N,VBAT*%
D18*
X106850000Y-89250000D02*
X106850000Y-90550000D01*
%TO.N,VBUS*%
D19*
X88700000Y-96900000D02*
X88700000Y-101100000D01*
%TO.N,/BOOT_NET*%
D17*
X179850000Y-104250000D02*
X178150000Y-105950000D01*
X178150000Y-105950000D02*
X178150000Y-112150000D01*
%TO.N,/SW1_NET*%
X110100000Y-106100000D02*
X110100000Y-101600000D01*
X134400000Y-92850000D02*
X121150000Y-106100000D01*
X171350000Y-92850000D02*
X134400000Y-92850000D01*
X110100000Y-101600000D02*
X107500000Y-99000000D01*
X121150000Y-106100000D02*
X110100000Y-106100000D01*
%TO.N,/SW2_NET*%
X138050000Y-93450000D02*
X132500000Y-99000000D01*
X132500000Y-99000000D02*
X132500000Y-101750000D01*
X170500000Y-93450000D02*
X138050000Y-93450000D01*
%TO.N,/SW3_NET*%
X157500000Y-99000000D02*
X157500000Y-101750000D01*
X158800000Y-97700000D02*
X157500000Y-99000000D01*
%TD*%
M02*
