M48
; DRILL file KiCad 10.0.6 date 2026-09-29T12:23:03
; FORMAT={-:-/ absolute / metric / decimal}
; #@! TF.CreationDate,2026-09-29T12:23:03-06:00
; #@! TF.GenerationSoftware,Kicad,Pcbnew,10.0.6
; #@! TF.FileFunction,Plated,1,4,PTH
FMAT,2
METRIC
; #@! TA.AperFunction,Plated,PTH,ComponentDrill
T1C0.200
; #@! TA.AperFunction,Plated,PTH,ViaDrill
T2C0.300
; #@! TA.AperFunction,Plated,PTH,ComponentDrill
T3C0.600
; #@! TA.AperFunction,Plated,PTH,ComponentDrill
T4C0.750
; #@! TA.AperFunction,Plated,PTH,ComponentDrill
T5C1.000
%
G90
G05
T1
X103.425Y-86.0
X104.0Y-85.05
X104.0Y-86.95
X104.575Y-86.0
T2
X79.68Y-97.925
X79.68Y-102.105
X80.8Y-102.68
X80.8Y-102.68
X83.25Y-102.68
X84.25Y-102.68
X84.25Y-102.68
X85.25Y-102.68
X87.2Y-102.68
X87.2Y-102.68
X88.32Y-97.925
X88.32Y-102.105
X95.7Y-113.0
X101.0Y-103.5
X102.6Y-85.0
X102.6Y-85.5
X102.6Y-86.0
X102.6Y-87.0
X103.175Y-113.0
X103.425Y-86.0
X104.0Y-85.05
X104.0Y-86.0
X104.0Y-86.95
X104.575Y-86.0
X104.825Y-113.0
X105.4Y-85.5
X105.4Y-86.0
X105.4Y-86.0
X105.4Y-86.5
X105.4Y-87.0
X105.4Y-87.0
X107.5Y-103.5
X108.862Y-85.05
X108.862Y-86.0
X108.862Y-86.95
X108.862Y-86.95
X109.225Y-113.0
X109.225Y-113.0
X110.775Y-113.0
X115.175Y-113.0
X116.0Y-86.0
X116.0Y-86.0
X116.825Y-113.0
X118.0Y-86.0
X121.225Y-86.0
X121.225Y-86.0
X122.775Y-86.0
X122.825Y-113.0
X126.0Y-99.0
X126.0Y-103.5
X127.175Y-113.0
X127.225Y-86.0
X128.775Y-86.0
X132.5Y-103.5
X133.175Y-113.0
X134.825Y-113.0
X135.525Y-86.0
X139.225Y-86.0
X139.225Y-113.0
X140.775Y-86.0
X140.775Y-113.0
X145.225Y-113.0
X146.775Y-113.0
X146.825Y-86.0
X151.0Y-103.5
X151.225Y-113.0
X152.775Y-86.0
X152.775Y-113.0
X157.213Y-86.0
X157.5Y-103.5
X158.775Y-113.0
X163.225Y-113.0
X163.225Y-113.0
X164.775Y-113.0
X164.825Y-86.0
X169.175Y-86.0
X170.775Y-113.0
X170.825Y-86.0
X170.825Y-86.0
X174.55Y-92.0
X174.55Y-93.05
X174.55Y-93.9
X174.55Y-94.75
X174.55Y-95.6
X174.55Y-96.45
X174.55Y-97.3
X174.55Y-98.15
X174.55Y-99.0
X174.55Y-99.85
X174.55Y-100.7
X174.55Y-101.55
X174.55Y-102.4
X174.55Y-103.25
X174.55Y-104.1
X174.55Y-104.95
X174.55Y-106.0
X175.6Y-106.0
X176.45Y-106.0
X177.3Y-92.0
X177.3Y-106.0
X177.3Y-113.0
X177.3Y-113.0
X178.15Y-92.0
X178.15Y-106.0
X179.9Y-97.35
X179.9Y-99.0
X179.9Y-100.65
X180.7Y-113.0
X181.55Y-97.35
X181.55Y-99.0
X181.55Y-100.65
X182.4Y-106.0
X183.2Y-97.35
X183.2Y-99.0
X183.2Y-100.65
X187.5Y-106.0
X188.55Y-92.0
X188.55Y-99.0
X188.55Y-106.0
T4
X116.0Y-86.0
X118.0Y-86.0
T5
X101.0Y-99.0
X101.0Y-103.5
X107.5Y-99.0
X107.5Y-103.5
X126.0Y-99.0
X126.0Y-103.5
X132.5Y-99.0
X132.5Y-103.5
X151.0Y-99.0
X151.0Y-103.5
X157.5Y-99.0
X157.5Y-103.5
T3
X83.325Y-94.68G85X82.525Y-94.68
G05
X83.325Y-103.32G85X82.525Y-103.32
G05
X87.655Y-94.68G85X86.555Y-94.68
G05
X87.655Y-103.32G85X86.555Y-103.32
G05
M30
